<svg xmlns="http://www.w3.org/2000/svg" viewBox="0 0 800 1000" width="100%" height="100%">
  <defs>
    <!-- Gradiente metálico dorado premium de alta definición -->
    <linearGradient id="gold-gradient" x1="0%" y1="0%" x2="100%" y2="100%">
      <stop offset="0%" stop-color="#f6ebd0" />
      <stop offset="20%" stop-color="#dfc593" />
      <stop offset="45%" stop-color="#a67e35" />
      <stop offset="55%" stop-color="#835c16" />
      <stop offset="80%" stop-color="#dfc593" />
      <stop offset="100%" stop-color="#a67e35" />
    </linearGradient>
    <filter id="subtle-shadow" x="-10%" y="-10%" width="120%" height="120%">
      <feDropShadow dx="0" dy="5" stdDeviation="7" flood-color="#000000" flood-opacity="0.45"/>
    </filter>
  </defs>

  <!-- Fondo oscuro premium metalizado -->
  <rect width="100%" height="100%" fill="#131210"/>
  
  <!-- Resplandor sutil radial -->
  <radialGradient id="radial-glow" cx="50%" cy="40%" r="65%">
    <stop offset="0%" stop-color="#2a261f" stop-opacity="0.75" />
    <stop offset="100%" stop-color="#131210" stop-opacity="0" />
  </radialGradient>
  <rect width="100%" height="100%" fill="url(#radial-glow)" />

  <!-- Grupo del logotipo del cráneo centrado y escalado de forma perfecta -->
  <g transform="translate(400.0, 380.0) scale(0.912377) translate(-337.050000, -363.450000)" filter="url(#subtle-shadow)">
    <!-- Transformación de inversión de potrace sobre el lienzo de 1024 de alto -->
    <g transform="translate(0, 1024) scale(0.1, -0.1)" fill="url(#gold-gradient)" stroke="none">
      <path d="M6144 9239 c-26 -9 -54 -46 -54 -71 0 -32 -62 -212 -97 -282 -45 -88
-95 -156 -169 -228 -80 -77 -129 -111 -243 -168 -168 -85 -325 -121 -606 -139
-518 -34 -498 -31 -612 -88 -47 -22 -61 -25 -116 -19 -98 11 -194 44 -302 103
-211 117 -281 130 -464 84 -69 -17 -139 -31 -155 -31 -17 0 -87 14 -156 31
-184 46 -260 33 -460 -76 -127 -70 -241 -105 -336 -105 -63 0 -85 4 -109 21
-65 44 -125 54 -408 69 -366 19 -452 31 -637 86 -195 59 -390 191 -497 336
-19 27 -39 46 -44 43 -5 -4 -6 0 -4 7 3 8 0 21 -7 29 -12 15 -15 15 -30 -2
-16 -17 -15 -20 15 -66 65 -99 247 -265 341 -310 48 -22 45 -33 -6 -33 -45 0
-98 -22 -111 -46 -15 -26 -24 -14 -36 44 -6 31 -21 75 -34 96 -23 42 -125 132
-136 120 -3 -4 -1 -9 6 -11 23 -8 93 -63 93 -73 0 -5 -15 -1 -32 10 -52 32
-57 23 -6 -9 38 -24 50 -39 67 -85 12 -31 21 -64 21 -74 1 -9 7 -28 15 -42 8
-16 10 -29 4 -36 -5 -6 -6 -33 -2 -59 13 -96 102 -172 213 -182 85 -8 165 11
331 78 170 69 234 83 344 76 91 -5 169 -34 207 -74 12 -15 17 -23 11 -19 -16
9 -17 -6 -2 -21 15 -15 22 -74 18 -148 -6 -101 -4 -198 4 -244 l8 -44 -34 6
c-75 12 -178 49 -224 81 -63 43 -86 83 -85 149 l0 52 -10 -38 c-8 -30 -7 -48
6 -80 15 -41 15 -42 -3 -20 -32 38 -35 89 -9 141 13 25 30 48 38 51 11 3 10
-2 -4 -18 -11 -11 -17 -24 -13 -27 3 -3 10 3 16 14 15 28 71 45 104 33 38 -15
47 -58 18 -81 -20 -14 -21 -18 -7 -29 39 -32 94 34 74 91 -12 35 -65 68 -109
68 -46 0 -99 -30 -127 -71 -20 -29 -23 -44 -20 -96 2 -35 2 -63 0 -63 -2 0
-17 14 -35 31 -42 40 -123 79 -167 79 -40 0 -74 -20 -91 -53 -10 -19 -8 -18
18 5 16 15 43 30 60 34 40 8 109 -22 173 -76 26 -22 50 -36 54 -33 4 4 5 1 2
-7 -3 -9 11 -28 39 -50 25 -19 45 -38 45 -42 0 -18 -48 14 -122 82 -77 72
-113 99 -132 100 -5 0 9 -12 31 -27 57 -39 167 -143 151 -143 -31 0 -281 71
-373 105 -177 66 -300 135 -445 249 -35 28 -67 50 -70 49 -3 -1 -7 1 -10 4 -3
4 1 3 8 -1 22 -13 12 4 -23 40 -19 19 -52 57 -73 83 -36 46 -39 47 -51 29 -11
-17 -7 -27 30 -76 138 -185 387 -351 669 -446 219 -73 648 -166 772 -166 26 0
58 5 72 11 38 18 73 3 103 -43 23 -33 28 -52 28 -102 0 -76 -23 -124 -112
-232 -77 -95 -112 -159 -120 -222 -6 -51 47 -414 72 -499 18 -59 76 -136 135
-180 138 -103 148 -112 174 -166 46 -94 58 -165 65 -407 8 -256 7 -252 99
-389 119 -176 159 -275 192 -476 11 -71 32 -179 46 -240 14 -60 29 -162 34
-225 11 -156 23 -194 85 -256 80 -81 223 -139 297 -121 62 16 80 63 56 150
-10 40 -9 47 17 95 16 29 33 51 39 49 6 -2 21 -21 34 -43 23 -39 24 -58 7
-155 -9 -50 7 -76 56 -91 106 -31 305 66 358 176 17 33 24 76 31 181 6 75 12
140 14 144 2 3 27 119 55 256 28 138 60 276 70 307 25 73 81 176 139 253 85
113 89 131 95 380 9 353 38 431 202 549 151 109 167 142 220 476 41 252 31
294 -106 467 -75 95 -99 142 -106 207 -5 59 23 126 67 158 24 17 28 18 63 3
51 -21 89 -19 298 16 198 33 438 90 586 140 189 63 382 175 520 304 167 155
258 311 320 546 23 89 27 125 27 249 1 255 -46 381 -130 349z m44 -76 c41 -80
40 -360 -2 -526 -64 -249 -199 -440 -432 -605 -109 -78 -187 -117 -357 -181
-124 -46 -343 -104 -369 -98 -9 3 -18 1 -20 -3 -4 -11 -48 -23 -47 -13 1 8 96
92 180 160 71 58 145 67 189 23 15 -15 20 -16 20 -6 0 24 -41 46 -85 46 -55
-1 -113 -29 -170 -84 -50 -47 -65 -53 -46 -18 6 12 11 45 11 76 0 44 -5 60
-26 86 -52 61 -120 76 -179 40 -43 -27 -57 -66 -39 -108 15 -38 38 -49 59 -32
14 11 13 15 -5 27 -25 18 -25 37 1 79 16 26 28 34 49 34 94 0 152 -109 111
-208 -16 -38 -35 -44 -21 -6 6 14 10 33 9 42 0 9 -5 3 -10 -14 -12 -43 -75
-105 -132 -132 -54 -25 -149 -52 -185 -52 -22 0 -23 3 -15 33 9 36 10 201 0
262 -12 83 67 171 175 194 84 18 165 -1 303 -71 174 -88 241 -109 360 -115
120 -6 186 14 258 77 68 60 103 121 142 246 21 68 46 125 62 145 24 29 30 31
72 26 41 -5 44 -4 26 9 -23 17 -75 18 -95 1 -36 -30 -51 -59 -80 -162 -68
-237 -170 -330 -365 -329 -104 0 -185 25 -365 113 -111 54 -156 71 -205 76
-115 13 -214 -22 -261 -93 -17 -24 -23 -28 -28 -17 -16 42 52 112 136 139 59
19 183 21 260 5 29 -6 113 -36 185 -65 172 -70 238 -87 327 -82 138 7 218 75
231 197 22 213 56 273 174 312 84 28 126 57 162 111 34 50 39 74 7 32 -53 -71
-83 -94 -147 -115 -36 -12 -81 -31 -100 -42 -19 -12 -31 -16 -28 -10 10 16
104 73 110 67 7 -7 64 23 73 38 4 6 -9 1 -30 -11 -20 -13 -39 -21 -42 -18 -3
2 11 14 30 26 41 26 90 85 101 121 4 15 -5 7 -24 -22 -27 -43 -70 -79 -189
-159 -59 -40 -90 -88 -110 -168 -16 -63 -20 -70 -32 -56 -21 26 -66 45 -105
45 -19 0 -35 5 -35 10 0 6 4 10 9 10 5 0 43 23 86 51 183 119 298 272 376 496
16 46 29 89 29 95 0 7 5 30 11 51 11 39 32 48 47 20z m-5531 -345 c-3 -8 -6
-5 -6 6 -1 11 2 17 5 13 3 -3 4 -12 1 -19z m153 -321 c0 -12 0 -11 -24 28
l-17 30 20 -24 c12 -13 21 -28 21 -34z m336 -107 c148 -55 364 -94 599 -106
254 -13 376 -22 382 -27 3 -4 -10 -24 -30 -46 -19 -22 -46 -58 -59 -80 -13
-23 -26 -41 -29 -41 -3 0 -20 21 -36 48 -34 52 -116 108 -180 123 -50 11 -164
11 -236 -1 -31 -5 -96 -25 -145 -46 -237 -99 -363 -118 -453 -71 -61 32 -92
86 -85 150 4 35 2 46 -7 41 -7 -4 -8 -3 -4 2 5 5 9 7 10 5 1 -3 15 7 31 22 58
54 157 40 180 -26 21 -58 -41 -111 -84 -72 -13 11 -20 13 -25 5 -8 -13 20 -47
46 -55 30 -10 84 20 98 54 15 35 23 38 42 14 28 -33 91 -53 164 -51 l70 1 -80
7 c-44 3 -94 14 -112 23 -34 18 -131 147 -110 147 1 0 25 -9 53 -20z m2027
-21 c139 -36 205 -35 317 2 89 30 199 31 260 2 l45 -21 -56 -1 c-241 -4 -418
-209 -395 -459 9 -106 81 -228 156 -267 52 -27 111 -28 159 -3 60 31 84 66 84
123 0 62 -39 105 -95 105 -36 0 -78 -26 -78 -49 0 -43 32 -53 60 -18 15 18 22
20 37 11 54 -33 0 -124 -74 -124 -89 0 -158 92 -156 210 3 178 139 331 298
334 33 1 76 -2 95 -6 l35 -8 -35 14 c-51 21 -131 19 -194 -4 -123 -47 -206
-166 -214 -310 -4 -71 -2 -85 22 -133 15 -32 41 -64 63 -80 21 -15 33 -27 28
-27 -26 0 -90 68 -116 124 -24 51 -29 74 -29 137 0 67 4 85 35 146 55 110 157
197 243 208 69 10 75 16 11 11 -31 -2 -75 -14 -98 -25 -42 -22 -110 -83 -150
-136 l-22 -30 18 33 c73 135 229 205 384 172 113 -24 179 -101 179 -209 0 -93
-57 -161 -135 -161 -36 0 -48 5 -69 31 -18 22 -26 26 -26 14 0 -26 55 -75 87
-76 55 -2 78 3 111 24 67 45 97 171 58 246 -22 41 -14 52 14 20 80 -93 105
-155 97 -239 -6 -74 -26 -110 -106 -195 -98 -103 -107 -121 -19 -35 48 46 91
100 113 140 34 61 38 54 10 -16 -7 -17 -50 -70 -95 -118 -98 -104 -125 -158
-116 -229 4 -40 3 -48 -7 -38 -7 7 -12 37 -11 68 0 47 -1 52 -9 29 -13 -38 0
-109 25 -142 61 -77 188 -56 188 32 0 44 -38 82 -55 55 -3 -5 -1 -12 5 -16 14
-9 13 -48 -2 -63 -19 -19 -70 -14 -95 10 -28 26 -32 98 -8 154 15 36 85 121
129 155 l25 20 -6 -68 c-9 -113 24 -175 179 -341 91 -98 118 -144 118 -206 0
-38 -7 -53 -47 -103 -69 -87 -72 -95 -8 -28 31 33 64 75 72 94 29 68 -6 143
-130 278 -91 99 -135 169 -149 235 -12 58 -9 74 38 238 19 69 14 181 -11 230
-9 19 -35 56 -56 82 -43 51 -48 64 -21 53 38 -16 131 -33 210 -40 68 -6 88
-12 113 -32 67 -57 126 -228 116 -338 -8 -82 -13 -92 -61 -120 -23 -14 -52
-35 -64 -48 -26 -28 -52 -98 -52 -143 0 -52 -17 -40 -31 21 -15 66 -3 116 38
167 l27 33 -27 -24 c-101 -91 -61 -265 109 -472 93 -113 114 -158 114 -239 0
-75 -42 -363 -63 -431 -21 -69 -67 -129 -133 -174 -117 -79 -143 -105 -179
-179 -19 -39 -37 -90 -41 -113 -4 -24 -9 -43 -13 -43 -3 0 -19 16 -34 35 -23
29 -34 35 -67 35 -39 0 -70 -25 -70 -58 0 -18 25 -9 25 9 1 24 15 39 38 38 20
-1 20 -2 2 -6 -11 -3 -24 -9 -30 -15 -7 -6 -1 -7 17 -3 22 6 33 0 62 -30 29
-29 35 -42 30 -62 -5 -18 -3 -24 5 -19 8 5 11 -45 11 -191 0 -228 -3 -237 -96
-361 -53 -70 -134 -217 -134 -243 0 -8 -3 -9 -9 -3 -4 5 -16 56 -26 114 -10
58 -20 118 -23 134 -4 26 -2 28 14 21 11 -5 38 -9 62 -10 41 -2 45 1 68 41 31
54 42 115 32 183 -8 49 -35 118 -43 109 -2 -2 5 -28 15 -58 11 -30 19 -68 19
-85 -1 -19 -3 -23 -6 -10 -2 11 -14 52 -25 90 -12 39 -22 75 -24 82 -1 7 -12
27 -25 44 -30 43 -69 138 -68 169 0 17 3 20 7 10 4 -8 13 -16 20 -18 10 -2 10
2 2 17 -16 31 -12 95 10 155 26 67 108 154 183 191 29 14 41 23 27 19 -95 -24
-199 -109 -241 -198 -58 -121 -47 -199 53 -386 46 -85 52 -103 55 -170 4 -63
1 -80 -16 -107 -35 -56 -111 -42 -127 23 -8 31 19 74 46 74 29 0 24 13 -12 30
-42 20 -66 54 -83 120 -33 122 -9 297 57 423 20 38 64 94 114 145 45 45 77 82
71 82 -19 0 -162 -156 -196 -214 -52 -88 -73 -158 -78 -271 -8 -136 21 -236
81 -286 19 -16 19 -17 -2 -44 -28 -35 -28 -81 -3 -240 40 -254 36 -325 -35
-635 -22 -98 -38 -202 -44 -282 -5 -78 -15 -138 -24 -157 -32 -62 -152 -136
-236 -146 -62 -8 -74 2 -61 51 18 64 14 114 -13 148 -13 17 -34 51 -47 76 -24
45 -24 46 -22 331 3 302 11 379 32 279 6 -30 15 -145 21 -255 10 -208 22 -274
62 -347 20 -37 28 -43 60 -46 31 -3 40 2 61 30 28 38 39 68 101 273 107 353
114 505 35 825 -33 137 -37 245 -15 390 7 47 12 87 10 88 -10 13 -54 -211 -54
-275 0 -23 -4 -45 -10 -48 -5 -3 -10 -21 -10 -40 0 -65 -40 -264 -66 -329 -44
-110 -57 -103 -64 32 l-5 97 -19 -80 c-9 -44 -24 -103 -32 -131 -16 -59 -52
-110 -66 -96 -9 9 -17 170 -34 696 -4 113 -10 183 -15 175 -5 -8 -9 -36 -10
-64 -1 -40 -3 -45 -9 -25 -4 14 -9 43 -9 65 -1 30 -4 36 -11 25 -5 -8 -10 -94
-10 -190 0 -265 -19 -673 -31 -685 -25 -25 -68 71 -98 223 l-18 87 -7 -85
c-10 -113 -13 -125 -33 -108 -41 33 -73 159 -113 438 -24 168 -49 304 -56 297
-2 -2 2 -61 8 -132 9 -87 15 -120 20 -104 21 67 -7 -109 -37 -236 -56 -232
-68 -369 -44 -515 20 -129 144 -525 177 -570 24 -31 76 -39 103 -14 46 41 72
168 84 404 3 69 11 163 17 210 18 144 30 63 35 -255 6 -323 9 -303 -64 -412
-31 -45 -34 -57 -29 -90 4 -21 8 -54 9 -73 l2 -35 -48 2 c-57 2 -157 46 -210
93 -47 41 -66 105 -66 220 1 61 -8 120 -30 211 -79 328 -88 528 -34 759 18 78
13 153 -12 180 -18 20 -18 21 8 48 117 122 93 409 -51 604 -41 56 -141 152
-177 169 -11 6 13 -20 53 -57 102 -94 155 -171 193 -285 29 -88 31 -100 27
-209 -5 -141 -29 -201 -93 -234 l-39 -20 31 -8 c22 -6 34 -17 42 -39 13 -36 3
-61 -34 -85 -35 -23 -78 -4 -100 43 -31 64 -17 133 52 274 91 185 101 256 52
369 -24 55 -100 132 -169 172 -74 43 -99 43 -35 1 114 -75 185 -176 187 -266
1 -84 -62 -153 -131 -143 -38 6 -71 31 -72 55 0 12 -2 12 -6 3 -3 -8 7 -27 23
-43 32 -33 77 -38 124 -14 40 21 38 10 -2 -15 -39 -23 -30 -27 12 -5 16 9 37
29 45 45 20 39 26 38 18 -2 -9 -48 -45 -117 -91 -172 -70 -84 -81 -206 -27
-303 23 -44 29 -48 65 -51 25 -1 50 4 66 15 l27 17 -6 -29 c-3 -17 -12 -66
-20 -110 -9 -44 -18 -97 -22 -119 -7 -43 -17 -39 -35 17 -6 21 -50 95 -97 165
-47 70 -92 141 -99 159 -10 23 -14 80 -14 195 1 90 -1 173 -4 185 -6 27 11 42
20 18 4 -9 19 -22 35 -30 41 -22 49 -18 12 5 -17 10 -37 28 -43 40 -14 26 -9
95 7 95 7 0 18 6 25 13 18 18 56 14 70 -8 17 -27 28 -25 28 3 0 33 -33 60 -72
59 -25 0 -41 -10 -65 -37 l-31 -36 -10 48 c-26 119 -72 183 -192 267 -96 68
-134 113 -159 191 -23 67 -71 368 -71 436 0 62 36 133 120 236 39 48 90 126
113 172 39 79 42 90 42 166 0 74 -3 85 -28 118 -27 36 -93 78 -119 76 -7 0 3
-7 22 -16 42 -18 77 -49 96 -85 15 -29 18 -139 5 -173 -9 -22 -10 -17 -26 78
-7 45 -54 101 -107 128 -21 11 -43 30 -47 42 -44 117 5 326 98 409 36 33 42
35 132 41 52 3 117 13 144 22 69 21 71 20 36 -20 -90 -103 -110 -211 -67 -367
51 -186 30 -264 -110 -418 -179 -197 -190 -245 -87 -368 31 -37 63 -74 71 -82
26 -25 -17 40 -60 92 -83 101 -72 150 74 310 121 133 142 162 163 227 13 41
16 70 11 120 l-7 66 57 -55 c85 -83 114 -133 114 -197 0 -44 -5 -59 -25 -78
-46 -47 -124 -19 -95 34 15 29 12 41 -10 41 -39 0 -55 -83 -21 -114 82 -75
201 -4 201 120 -1 74 -31 129 -125 224 -97 98 -117 138 -117 228 1 73 32 149
80 195 l29 28 -13 -53 c-29 -110 21 -212 115 -238 54 -14 88 -7 124 28 20 19
27 35 26 61 l0 36 -16 -37 c-8 -21 -19 -38 -25 -38 -5 0 -7 4 -4 9 3 4 -7 6
-22 2 -25 -5 -25 -6 -4 -9 36 -6 14 -22 -30 -22 -35 0 -47 6 -85 45 l-45 45 4
69 c6 119 72 189 197 212 133 23 262 -26 330 -125 40 -57 41 -72 2 -18 -54 74
-158 132 -236 131 -39 -1 -38 -1 15 -13 246 -53 371 -350 229 -546 -28 -38
-82 -80 -104 -80 -5 0 4 8 20 19 113 69 146 222 80 370 -30 67 -89 127 -159
163 -73 37 -199 34 -251 -7 -17 -12 -13 -12 20 1 52 22 158 21 209 -1 62 -26
140 -107 172 -178 60 -132 25 -279 -78 -333 -44 -23 -86 -18 -119 15 -31 31
-35 51 -19 82 14 25 36 24 52 -1 16 -25 34 -26 46 -2 34 64 -72 100 -129 43
-64 -65 -22 -186 74 -212 149 -40 297 121 297 324 0 57 -24 155 -50 207 -57
111 -189 198 -320 210 -60 5 -63 6 -42 18 25 14 90 29 135 31 16 1 83 -13 150
-30z m2340 -20 c-16 -31 -44 -63 -67 -78 -35 -23 -50 -26 -123 -26 -46 0 -83
-1 -83 -2 0 -1 24 -6 53 -12 66 -14 116 -2 174 39 l43 32 11 -32 c25 -70 149
-82 149 -15 0 28 -15 33 -24 9 -9 -25 -58 -14 -75 18 -22 38 -6 78 40 101 31
15 40 15 74 4 102 -36 112 -169 17 -232 -85 -56 -197 -45 -416 41 -309 121
-540 93 -626 -76 l-22 -43 -20 34 c-42 69 -71 109 -79 109 -5 0 10 -26 31 -57
60 -85 93 -196 94 -313 0 -52 -6 -112 -13 -132 -12 -35 -15 -38 -52 -38 -21 0
-39 4 -39 9 0 5 5 44 11 87 19 135 -17 268 -102 381 -47 61 -49 66 -32 79 10
7 29 14 43 14 15 0 30 4 35 9 6 6 147 17 315 25 168 9 346 22 395 31 88 14
235 52 285 73 14 6 26 11 28 11 2 1 -9 -22 -25 -50z m-4887 -97 c-10 -9 -46
25 -46 43 1 18 4 16 25 -10 13 -16 23 -31 21 -33z m1567 -13 c12 -7 24 -13 26
-15 2 -1 -15 -24 -37 -51 -87 -104 -114 -197 -110 -368 l3 -120 -39 0 c-35 0
-40 3 -48 30 -5 17 -9 71 -9 120 -1 140 42 254 138 373 37 45 43 48 76 31z
m326 -384 c0 -5 -4 -3 -9 5 -5 8 -9 22 -9 30 0 16 17 -16 18 -35z m113 -131
c85 -90 97 -108 108 -155 10 -44 9 -60 -1 -87 -14 -33 -14 -32 -14 35 -1 86
-12 106 -114 212 -45 46 -81 88 -81 94 0 6 1 8 3 6 2 -2 46 -50 99 -105z m312
41 c-10 -25 17 -76 50 -96 17 -10 26 -19 21 -19 -13 0 -56 30 -72 50 -13 16
-17 62 -6 73 10 11 13 8 7 -8z m766 -20 c0 -32 -56 -95 -84 -95 -17 1 -15 4
11 15 31 13 63 59 63 90 0 8 2 15 5 15 3 0 5 -11 5 -25z m-133 -91 c-3 -3 -12
-4 -19 -1 -8 3 -5 6 6 6 11 1 17 -2 13 -5z m-909 -1950 c-30 -99 -40 -118 -33
-65 5 41 44 146 51 138 2 -2 -6 -34 -18 -73z m275 -636 c2 -106 10 -206 16
-223 l11 -30 -5 32 c-9 66 -15 278 -6 248 13 -45 44 -364 39 -410 -3 -39 -4
-37 -30 45 -49 153 -58 208 -58 350 0 134 5 180 20 180 4 0 10 -87 13 -192z
m786 19 c1 -140 -11 -213 -60 -367 l-30 -95 6 90 c5 87 16 182 35 315 8 57 9
51 6 -55 -3 -85 -1 -110 5 -85 5 19 11 109 13 200 2 91 5 167 6 170 8 21 18
-67 19 -173z m-514 -174 c9 -47 -2 -223 -21 -337 -15 -90 -47 -166 -71 -166
-38 0 -77 125 -76 243 2 125 24 191 83 249 58 58 75 61 85 11z m293 0 c79 -59
111 -215 78 -375 -17 -78 -41 -128 -61 -128 -20 0 -52 65 -70 142 -16 67 -32
354 -22 382 7 19 29 13 75 -21z" />
      <path d="M5204 7914 c-19 -15 -19 -15 1 -6 11 5 27 12 35 15 13 5 13 6 -1 6
-8 1 -24 -6 -35 -15z" />
      <path d="M3910 8165 c13 -14 26 -25 28 -25 3 0 -5 11 -18 25 -13 14 -26 25
-28 25 -3 0 5 -11 18 -25z" />
      <path d="M2698 8005 c19 -36 82 -78 82 -55 0 6 -7 10 -16 10 -9 0 -30 15 -47
33 -16 17 -25 23 -19 12z" />
      <path d="M3930 8000 c-6 -11 -23 -26 -38 -34 -16 -9 -21 -15 -11 -16 8 0 25
10 36 23 23 26 36 47 29 47 -3 0 -10 -9 -16 -20z" />
      <path d="M2251 7974 c-1 -47 25 -91 94 -164 23 -25 47 -54 53 -65 8 -15 11
-16 12 -4 0 8 -5 20 -12 27 -6 6 -9 14 -6 18 12 12 31 -41 36 -100 6 -79 12
-85 12 -12 0 76 -16 111 -89 188 -33 36 -69 85 -80 109 l-20 44 0 -41z m99
-131 c24 -23 42 -44 39 -47 -8 -8 -119 109 -119 125 0 8 8 2 17 -11 10 -14 38
-44 63 -67z" />
      <path d="M4367 7956 c-10 -23 -42 -66 -72 -94 -30 -28 -59 -62 -66 -74 -7 -13
10 2 38 32 28 30 54 52 58 49 3 -4 -12 -26 -35 -50 -22 -24 -46 -53 -52 -64
-6 -11 -9 -18 -6 -15 113 120 149 166 158 202 16 56 -1 67 -23 14z m-7 -57
c-12 -16 -25 -28 -28 -25 -5 6 36 56 45 56 3 0 -5 -14 -17 -31z" />
      <path d="M2990 7398 l0 -73 25 28 c42 44 83 60 173 65 45 2 82 1 83 -4 0 -5 2
-110 4 -233 5 -244 0 -226 68 -266 l27 -16 0 260 0 261 68 0 c94 0 134 -14
176 -60 l36 -40 0 75 0 75 -330 0 -330 0 0 -72z" />
      <path d="M3179 7282 c-25 -16 -55 -41 -66 -56 -28 -36 -45 -117 -37 -180 13
-104 64 -168 225 -283 139 -99 180 -141 215 -217 23 -50 26 -68 22 -125 -8
-101 -47 -165 -127 -206 -49 -25 -166 -17 -209 14 -45 32 -92 95 -118 159
l-24 57 0 -127 c0 -71 2 -128 5 -128 3 0 14 5 24 12 16 9 30 7 82 -17 175 -78
354 -20 433 141 26 53 28 64 24 149 -7 161 -67 247 -270 386 -125 87 -178 136
-204 194 -28 58 -30 81 -9 89 11 4 15 -1 15 -19 0 -29 35 -109 56 -126 12 -10
14 -4 14 36 0 50 -24 113 -47 122 -22 8 -15 35 18 69 22 22 30 39 27 58 l-3
27 -46 -29z" />
      <path d="M3400 7273 c1 -10 14 -43 29 -73 l29 -55 6 40 c19 116 22 105 -24
105 -32 0 -40 -4 -40 -17z" />
      <path d="M2852 7221 c-142 -49 -224 -177 -225 -351 -2 -222 131 -370 331 -370
114 0 212 51 212 111 0 24 -16 25 -29 0 -6 -10 -34 -31 -63 -45 -129 -64 -276
-6 -329 132 -17 45 -22 79 -23 157 -1 151 42 257 126 312 37 25 51 28 132 29
71 0 91 4 91 14 0 32 -141 39 -223 11z" />
      <path d="M3656 7224 c4 -11 11 -73 14 -139 5 -101 11 -136 40 -220 l35 -100 3
218 2 217 44 0 c62 0 101 -34 122 -106 32 -112 -19 -223 -103 -224 -18 0 -33
-3 -33 -6 0 -3 30 -66 67 -141 76 -151 104 -183 164 -183 21 0 39 3 39 6 0 3
-13 16 -29 30 -17 14 -57 78 -90 142 l-59 117 38 22 c84 49 118 199 65 290
-40 66 -86 86 -219 91 -104 4 -109 3 -100 -14z" />
      <path d="M3521 7128 c-86 -244 -95 -288 -60 -288 5 0 22 45 40 100 18 55 35
100 38 100 5 0 24 -57 68 -202 4 -14 -4 -17 -53 -20 -79 -4 -75 -22 6 -28 l65
-5 55 -163 c45 -137 52 -166 42 -182 -7 -11 -12 -22 -12 -25 0 -3 37 -5 82 -5
l82 0 -27 28 c-30 31 -94 202 -208 554 -41 125 -77 228 -80 228 -3 0 -20 -42
-38 -92z" />
      <path d="M2936 7135 c-15 -8 -31 -13 -35 -11 -4 3 -12 1 -19 -2 -8 -6 -8 -18
3 -47 11 -30 14 -99 15 -272 l0 -233 25 -1 c14 -1 31 -2 38 -3 8 -1 13 29 17
104 5 102 6 105 28 102 31 -5 126 16 148 32 15 11 16 17 6 29 -12 14 -18 13
-58 -4 -26 -12 -60 -19 -82 -17 l-37 3 -3 139 c-3 152 0 161 51 150 16 -3 27
-1 27 5 0 18 -52 34 -72 22 -13 -8 -17 -7 -20 4 -3 13 -7 13 -32 0z" />
      <path d="M2105 7040 c-3 -5 -3 -15 0 -20 4 -6 15 -85 26 -176 15 -133 25 -180
50 -239 17 -41 37 -79 45 -86 11 -9 9 -2 -4 22 -30 51 -50 129 -72 274 -23
150 -23 155 -10 155 17 0 30 -38 54 -157 34 -163 58 -222 118 -288 54 -59 57
-81 11 -87 l-28 -4 28 -8 c39 -12 71 25 62 71 -5 27 -3 32 10 27 12 -5 12 1
-5 37 -11 24 -20 61 -20 82 0 31 3 37 22 37 11 0 49 -16 84 -35 34 -19 65 -35
68 -35 14 0 -25 58 -50 75 -60 39 -116 102 -151 167 -40 77 -111 161 -154 183
-32 17 -75 20 -84 5z" />
      <path d="M4424 7016 c-38 -33 -77 -86 -154 -211 -20 -33 -59 -76 -90 -100
-103 -79 -108 -108 -10 -56 103 55 129 31 92 -82 -15 -43 -16 -54 -5 -46 21
18 25 5 7 -29 -15 -31 -12 -52 6 -52 5 0 12 10 16 23 3 12 24 41 45 64 49 54
63 88 106 261 21 86 43 152 55 165 19 22 19 22 13 -58 -3 -44 -9 -98 -12 -120
-3 -22 -3 -37 1 -34 4 4 14 65 22 135 8 71 17 135 20 143 2 8 -1 18 -8 23 -27
17 -65 7 -104 -26z" />
      <path d="M3270 6596 c0 -140 -1 -144 -25 -167 -13 -13 -25 -26 -25 -29 0 -3
45 -5 100 -5 55 0 100 3 100 6 0 3 -9 14 -20 24 -25 23 -26 83 -3 154 16 51
16 53 -4 73 l-21 20 -23 -73 c-39 -127 -55 -116 -19 14 l20 72 -22 18 c-60 47
-58 52 -58 -107z" />
      <path d="M2890 6450 c-33 -33 -24 -40 50 -40 l70 0 -15 24 c-15 22 -42 36 -72
36 -7 0 -22 -9 -33 -20z" />
      <path d="M2437 6335 c61 -31 129 -97 145 -142 18 -51 29 -39 11 13 -17 49 -84
112 -151 140 -56 23 -60 16 -5 -11z" />
      <path d="M4185 6339 c-85 -47 -128 -93 -140 -149 -6 -31 -4 -29 20 17 25 50
67 90 129 125 17 9 27 17 21 17 -5 0 -19 -5 -30 -10z" />
      <path d="M4071 5972 c-16 -31 -64 -46 -103 -33 -30 10 -31 9 -14 -4 31 -24 72
-18 108 14 18 16 30 32 26 36 -3 4 -11 -2 -17 -13z" />
      <path d="M4077 5935 c-35 -31 -98 -34 -144 -5 -18 11 -33 17 -33 15 0 -15 70
-45 103 -45 40 0 93 24 101 47 7 17 6 17 -27 -12z" />
      <path d="M2930 4373 c0 -20 77 -113 118 -144 38 -28 121 -63 129 -55 2 2 -17
12 -43 22 -63 24 -139 86 -175 142 -16 25 -29 41 -29 35z" />
      <path d="M3647 4285 c-25 -30 -61 -56 -110 -79 -39 -20 -66 -36 -59 -36 46 0
175 90 203 142 15 29 6 21 -34 -27z" />
      <path d="M2158 8199 c-68 -55 -139 -201 -137 -281 1 -23 5 -12 14 34 17 86 66
177 122 229 53 48 53 60 1 18z" />
      <path d="M592 8698 c27 -27 55 -48 61 -47 7 0 3 6 -7 12 -11 7 -38 28 -61 47
-34 28 -33 26 7 -12z" />
      <path d="M483 8495 c-17 -19 -16 -28 1 -22 16 6 42 -45 31 -63 -3 -6 -1 -9 6
-8 6 2 14 -3 17 -11 2 -8 0 -11 -6 -7 -5 3 -12 0 -15 -7 -3 -8 1 -14 9 -14 8
0 14 4 14 9 0 5 5 6 11 3 6 -4 8 -13 5 -21 -3 -8 1 -14 10 -14 11 0 7 15 -19
63 -18 34 -38 72 -43 84 -8 18 -11 19 -21 8z" />
      <path d="M576 8502 c-4 -6 2 -8 14 -5 26 7 81 -20 99 -48 7 -13 24 -62 37
-111 23 -85 64 -181 83 -192 5 -3 -4 18 -19 47 -16 28 -38 93 -50 144 -25 109
-62 160 -121 170 -20 3 -39 1 -43 -5z" />
      <path d="M1640 8189 c-25 -4 -103 -38 -175 -74 -71 -35 -157 -74 -189 -85 -84
-28 -208 -36 -271 -16 -66 21 -70 13 -4 -9 40 -14 73 -16 143 -12 108 6 155
20 300 93 146 73 211 94 293 94 79 0 140 -24 184 -71 16 -17 29 -26 29 -20 0
6 -16 26 -35 45 -57 58 -157 78 -275 55z" />
      <path d="M1907 3983 c-15 -2 -32 -13 -37 -24 -9 -17 -7 -19 17 -19 18 1 34 9
46 25 10 14 14 24 10 24 -4 -1 -20 -4 -36 -6z" />
      <path d="M3275 3950 c-13 -6 15 -9 80 -9 65 0 93 3 80 9 -11 5 -47 9 -80 9
-33 0 -69 -4 -80 -9z" />
    </g>
  </g>

  <!-- Textos de marca perfectamente posicionados en la base -->
  <g id="brand-texts" fill="url(#gold-gradient)" filter="url(#subtle-shadow)">
    <!-- CRÁNEO NOBLE -->
    <text x="400" y="730" text-anchor="middle" 
          font-family="Georgia, serif" 
          font-size="44" font-weight="700" letter-spacing="14">CRÁNEO NOBLE</text>
    
    <!-- by ARCT -->
    <text x="400" y="790" text-anchor="middle" 
          font-family="Arial, sans-serif" 
          font-size="19" font-weight="300" letter-spacing="9" fill="#a09278">by ARCT</text>
          
    <!-- ARTE · RAÍZ · CARÁCTER · TRASCENDENCIA -->
    <text x="400" y="855" text-anchor="middle" 
          font-family="Arial, sans-serif" 
          font-size="11" font-weight="400" letter-spacing="7" fill="url(#gold-gradient)">ARTE • RAÍZ • CARÁCTER • TRASCENDENCIA</text>
  </g>
</svg>
