<svg xmlns="http://www.w3.org/2000/svg" viewBox="0 0 800 1000" width="100%" height="100%">
  <defs>
    <!-- Gradiente metálico dorado premium de alta definición -->
    <linearGradient id="gold-gradient" x1="0%" y1="0%" x2="100%" y2="100%">
      <stop offset="0%" stop-color="#f6ebd0" />
      <stop offset="20%" stop-color="#dfc593" />
      <stop offset="45%" stop-color="#a67e35" />
      <stop offset="55%" stop-color="#835c16" />
      <stop offset="80%" stop-color="#dfc593" />
      <stop offset="100%" stop-color="#a67e35" />
    </linearGradient>
    <filter id="subtle-shadow" x="-10%" y="-10%" width="120%" height="120%">
      <feDropShadow dx="0" dy="5" stdDeviation="7" flood-color="#000000" flood-opacity="0.45"/>
    </filter>
  </defs>

  <!-- Fondo oscuro premium metalizado -->
  
  
  <!-- Resplandor sutil radial -->
  <radialGradient id="radial-glow" cx="50%" cy="40%" r="65%">
    <stop offset="0%" stop-color="#2a261f" stop-opacity="0.75" />
    <stop offset="100%" stop-color="#131210" stop-opacity="0" />
  </radialGradient>
  

  <!-- Grupo del logotipo del cráneo centrado y escalado de forma perfecta -->
  <g transform="translate(400.0, 380.0) scale(0.918703) translate(-343.950000, -364.250000)" filter="url(#subtle-shadow)">
    <!-- Transformación de inversión de potrace sobre el lienzo de 1024 de alto -->
    <g transform="translate(0, 1024) scale(0.1, -0.1)" fill="url(#gold-gradient)" stroke="none">
      <path d="M6145 9240 c-29 -11 -41 -29 -55 -80 -88 -346 -242 -545 -525 -680
-194 -92 -368 -123 -830 -145 -204 -10 -254 -19 -345 -60 -76 -34 -88 -37
-143 -31 -95 10 -194 44 -310 107 -149 82 -213 103 -312 102 -48 0 -97 -6
-121 -16 -23 -8 -76 -21 -118 -28 -75 -13 -80 -12 -211 21 -190 47 -252 38
-457 -71 -153 -81 -212 -101 -318 -107 -93 -4 -98 -4 -151 26 -60 34 -125 47
-294 56 -507 30 -536 33 -717 87 -220 65 -383 176 -536 364 -17 22 -29 32 -25
21 5 -16 3 -17 -15 -7 -34 18 -36 13 -6 -26 16 -21 32 -42 36 -48 38 -51 72
-84 82 -78 6 3 8 3 4 -2 -4 -4 -3 -14 3 -22 9 -11 15 -11 27 -1 13 11 14 10 8
-8 -5 -16 0 -25 17 -37 13 -9 31 -22 38 -29 27 -25 107 -78 133 -88 38 -14 32
-30 -13 -30 -52 0 -83 -13 -115 -47 l-26 -28 0 28 c0 15 -4 27 -10 27 -5 0 -7
7 -4 15 3 8 0 31 -6 51 -11 32 -14 35 -23 19 -7 -13 -6 -21 4 -29 8 -7 13 -24
11 -43 -2 -18 1 -33 6 -33 5 0 12 -8 15 -18 5 -21 47 -37 47 -18 0 18 38 37
90 43 45 5 51 3 79 -25 34 -34 39 -66 15 -100 -17 -24 -44 -28 -74 -10 -28 18
-37 1 -13 -24 41 -40 115 -19 134 39 l11 35 27 -26 c41 -39 93 -56 168 -54
l68 1 -80 6 c-101 8 -138 29 -188 105 -21 32 -37 60 -34 62 2 2 19 -2 38 -10
48 -20 209 -61 309 -80 87 -16 263 -30 500 -42 138 -6 254 -24 272 -42 7 -7
-4 -28 -32 -64 -85 -105 -114 -206 -109 -371 l4 -112 -39 0 c-35 0 -41 3 -49
30 -5 17 -9 71 -9 120 0 136 42 254 130 363 19 24 32 45 30 48 -8 7 -74 -69
-100 -115 -13 -23 -26 -41 -30 -41 -4 0 -14 13 -22 28 -21 40 -90 100 -145
126 -40 18 -63 21 -176 20 -140 -1 -128 2 -340 -84 -114 -46 -170 -60 -250
-60 -73 0 -137 21 -164 53 -7 9 -16 15 -20 13 -4 -3 -7 3 -8 12 -5 63 -16 100
-29 95 -8 -3 -14 -17 -14 -32 0 -26 15 -58 25 -53 13 6 19 1 7 -7 -24 -15 42
-77 106 -101 101 -38 208 -20 444 79 123 51 197 65 302 59 108 -7 229 -59 209
-91 -4 -6 -1 -7 7 -2 9 5 11 4 6 -4 -4 -6 -3 -17 2 -24 12 -14 14 -37 11 -132
-5 -143 -4 -211 4 -254 l8 -44 -39 7 c-74 11 -170 46 -218 79 -63 42 -88 86
-87 151 0 43 -1 46 -8 22 -9 -31 -3 -79 14 -111 9 -18 8 -19 -6 -6 -9 7 -22
31 -28 54 -13 49 9 116 48 147 38 29 50 24 14 -6 -17 -14 -31 -31 -31 -37 0
-6 7 -2 15 10 21 30 75 46 108 34 37 -14 47 -58 18 -80 -17 -13 -19 -19 -9
-29 44 -44 105 58 65 108 -57 74 -168 63 -224 -21 -22 -33 -25 -47 -21 -99 2
-33 1 -60 -2 -60 -4 0 -17 12 -31 26 -62 67 -175 102 -223 70 -14 -9 -31 -26
-37 -38 -9 -18 -4 -16 23 10 23 21 44 32 63 32 41 -1 110 -33 164 -78 25 -20
49 -36 54 -34 5 1 6 -2 3 -7 -4 -5 14 -27 39 -47 25 -21 45 -41 45 -45 0 -20
-47 11 -112 73 -73 69 -124 108 -143 108 -5 0 6 -10 26 -23 45 -27 174 -147
159 -147 -6 0 -66 14 -133 30 -225 57 -431 144 -580 246 -43 30 -83 51 -88 48
-5 -3 -8 -2 -7 3 1 4 -43 53 -98 108 -54 55 -89 89 -77 75 13 -16 20 -35 18
-52 -3 -23 9 -40 75 -102 201 -189 399 -285 801 -390 175 -46 452 -96 529 -96
23 0 54 6 69 14 25 13 31 13 60 -5 44 -27 75 -97 69 -159 -7 -65 -36 -121
-114 -215 -73 -88 -110 -158 -120 -222 -3 -24 1 -92 11 -155 62 -412 78 -447
250 -565 146 -100 184 -215 185 -549 0 -207 8 -239 90 -358 118 -170 166 -287
200 -491 12 -71 33 -179 47 -240 14 -60 28 -162 33 -225 9 -140 23 -188 67
-240 70 -82 240 -156 314 -137 63 16 81 63 57 150 -10 40 -9 47 17 95 16 29
33 51 39 49 6 -2 23 -26 38 -53 27 -50 27 -51 12 -107 -22 -74 -13 -104 34
-124 51 -21 119 -11 207 30 150 72 180 121 194 319 6 76 17 163 25 195 8 32
33 148 55 258 23 110 50 226 60 257 25 73 81 175 139 253 83 111 92 140 92
305 2 387 42 517 188 613 90 59 133 102 162 162 28 57 32 75 71 305 45 270 40
298 -98 481 -86 115 -113 168 -113 227 0 47 36 119 72 146 27 19 29 19 63 3
44 -21 96 -21 200 -2 44 8 123 22 175 30 228 39 512 120 667 190 211 97 410
258 524 426 166 245 233 631 153 880 -21 65 -58 94 -99 79z m54 -105 c7 -22
16 -93 18 -157 15 -322 -85 -598 -291 -804 -142 -141 -318 -248 -541 -329
-124 -44 -333 -98 -357 -92 -10 3 -16 1 -12 -4 3 -5 -1 -9 -10 -9 -8 0 -21 -3
-30 -6 -30 -11 -16 12 26 44 45 35 49 46 51 154 2 58 -1 70 -23 93 -66 70
-154 73 -207 7 -36 -44 4 -135 48 -111 l21 11 -21 14 c-24 18 -28 56 -6 74 8
7 13 16 10 20 -6 10 19 20 51 20 101 0 160 -147 92 -230 l-20 -25 7 25 c4 14
8 36 11 50 l4 25 -9 -26 c-31 -94 -151 -168 -300 -186 -51 -6 -54 -5 -46 13
23 55 28 120 17 215 -7 54 -9 106 -5 116 17 47 65 102 105 120 109 51 206 37
381 -52 186 -94 240 -110 372 -110 96 0 116 3 160 24 109 54 168 134 220 299
21 66 46 124 62 143 24 29 30 31 72 26 41 -5 44 -4 26 9 -31 23 -78 17 -107
-13 -35 -38 -43 -55 -73 -164 -62 -221 -169 -314 -360 -313 -106 1 -183 24
-338 101 -70 35 -156 71 -189 79 -72 19 -160 13 -223 -15 -38 -17 -87 -64 -98
-93 -2 -7 -8 -10 -12 -6 -5 5 -3 26 4 48 22 73 124 120 260 120 108 0 182 -18
313 -73 172 -74 203 -82 308 -82 83 0 102 3 145 26 71 36 102 90 114 199 5 47
15 107 22 134 16 66 78 130 139 146 62 16 137 58 155 86 45 71 44 74 -11 18
-50 -52 -68 -65 -119 -79 -33 -9 -78 -28 -100 -42 -37 -24 -39 -24 -20 -3 21
23 94 66 108 62 11 -3 64 26 73 40 4 6 -9 1 -30 -11 -20 -13 -39 -21 -42 -18
-3 2 10 14 28 25 37 23 90 85 101 117 5 16 3 15 -11 -5 -41 -59 -72 -87 -147
-135 -44 -29 -90 -63 -102 -76 -28 -31 -60 -104 -69 -157 l-7 -42 -29 25 c-31
26 -50 33 -108 37 l-34 3 67 39 c199 116 339 291 417 520 15 46 31 103 35 127
4 24 9 48 12 52 11 19 39 -1 52 -38z m-5485 -394 c-2 -3 -13 5 -24 16 -10 12
-16 24 -12 27 3 4 14 -3 23 -16 10 -12 16 -25 13 -27z m2456 -372 c105 -33
220 -32 315 1 93 33 200 34 265 3 l45 -21 -56 -1 c-197 -3 -353 -138 -390
-337 -34 -183 64 -378 204 -405 146 -28 249 117 155 219 -28 29 -86 30 -117 1
-25 -23 -25 -46 1 -62 13 -9 21 -6 37 14 16 19 23 22 38 13 53 -32 0 -124 -73
-124 -104 0 -179 124 -155 255 23 124 85 211 186 262 53 27 135 35 205 21 l35
-8 -35 14 c-93 38 -222 5 -303 -76 -64 -65 -99 -142 -105 -235 -6 -90 12 -144
66 -195 88 -85 180 -67 213 41 7 26 7 26 8 3 2 -61 -71 -120 -132 -106 -72 15
-119 57 -161 140 -21 43 -26 66 -26 132 0 71 4 87 36 152 56 111 149 190 245
209 31 6 36 9 17 10 -74 3 -182 -67 -256 -164 l-22 -30 14 31 c56 118 196 193
337 181 150 -13 229 -86 229 -212 0 -96 -56 -165 -134 -165 -44 0 -66 12 -84
45 -10 18 -11 18 -12 2 0 -10 13 -32 29 -48 26 -25 37 -29 85 -29 48 0 60 4
92 32 20 18 43 47 50 65 21 49 18 142 -6 181 -25 40 -25 45 -1 33 10 -6 40
-42 67 -81 43 -63 49 -78 52 -136 6 -94 -14 -139 -109 -240 -44 -46 -79 -86
-79 -90 0 -3 34 29 76 71 51 51 86 97 105 138 24 50 28 55 23 27 -10 -56 -32
-89 -116 -177 -107 -112 -137 -183 -108 -259 9 -23 9 -25 -4 -15 -8 7 -20 31
-25 54 l-11 42 5 -49 c3 -27 12 -60 20 -73 65 -99 218 -57 191 52 -6 24 -31
39 -48 29 -6 -4 -6 -10 1 -17 15 -15 14 -50 -1 -65 -21 -21 -72 -14 -98 13
-29 31 -29 107 -1 163 20 40 148 178 156 170 3 -3 1 -17 -5 -32 -24 -64 -2
-164 54 -246 16 -25 67 -84 113 -132 95 -101 123 -149 123 -212 0 -38 -7 -53
-47 -103 -69 -87 -72 -95 -8 -28 122 129 112 185 -69 385 -147 162 -170 237
-120 390 22 66 28 105 28 175 1 81 -2 95 -27 138 -16 26 -42 64 -59 83 -17 19
-29 36 -27 39 2 2 36 -5 74 -16 38 -10 94 -19 125 -19 121 0 171 -39 224 -171
26 -64 30 -88 30 -169 1 -109 -8 -131 -62 -159 -20 -10 -47 -30 -59 -43 -29
-30 -53 -100 -53 -150 0 -52 -15 -41 -30 22 -15 62 -7 106 27 156 21 32 22 35
5 20 -34 -29 -55 -98 -50 -156 9 -89 92 -234 206 -360 12 -14 34 -47 47 -74
31 -63 32 -124 4 -324 -35 -254 -65 -323 -175 -397 -118 -79 -143 -105 -179
-179 -19 -39 -37 -90 -41 -113 -4 -24 -9 -43 -11 -43 -2 0 -19 16 -37 35 -26
27 -41 35 -68 35 -37 0 -65 -21 -53 -40 3 -5 1 -10 -5 -10 -6 0 -9 -4 -5 -10
3 -5 14 -1 25 10 11 11 26 20 33 20 15 -1 66 -29 52 -30 -5 0 1 -7 14 -16 18
-13 22 -23 17 -46 -3 -18 -2 -27 4 -23 15 9 13 -373 -1 -416 -7 -19 -42 -77
-80 -129 -37 -52 -86 -133 -108 -179 -22 -46 -43 -78 -45 -70 -3 8 -12 57 -20
109 -9 52 -20 110 -25 128 -10 35 -4 40 30 21 12 -6 37 -8 59 -4 35 6 42 12
66 61 24 48 26 63 22 132 -3 45 -12 91 -22 110 -25 48 -28 36 -6 -28 11 -30
19 -71 19 -90 l-1 -35 -8 40 c-13 66 -54 177 -83 225 -47 80 -73 175 -44 165
9 -4 12 13 13 62 0 103 49 181 156 252 70 47 69 52 -4 15 -124 -63 -200 -177
-200 -302 0 -77 19 -133 89 -262 41 -75 47 -93 50 -160 4 -84 -7 -118 -48
-137 -14 -7 -35 -10 -47 -6 -24 6 -52 49 -52 79 0 24 29 54 52 54 10 0 18 5
18 10 0 6 -9 10 -19 10 -25 0 -75 58 -92 107 -22 60 -18 265 5 333 36 107 77
173 155 252 84 85 90 106 9 31 -55 -52 -123 -143 -157 -211 -35 -68 -54 -185
-48 -282 7 -106 21 -150 65 -201 33 -38 34 -41 17 -59 -28 -30 -29 -95 -4
-245 39 -243 29 -381 -51 -705 -12 -47 -25 -142 -29 -211 -6 -79 -14 -137 -24
-156 -35 -66 -148 -137 -238 -148 -61 -8 -73 2 -60 51 18 64 14 114 -13 148
-13 17 -34 51 -47 76 -24 45 -24 46 -22 338 2 161 7 301 12 310 17 30 29 -53
40 -278 11 -223 22 -289 63 -362 20 -37 28 -43 60 -46 60 -5 79 29 152 268 73
240 88 311 93 432 7 143 -7 265 -48 428 -30 119 -31 131 -25 255 4 72 9 146
11 165 5 32 4 33 -6 10 -14 -33 -39 -175 -39 -223 0 -20 -4 -45 -9 -55 -5 -9
-15 -62 -21 -117 -14 -119 -32 -197 -65 -271 -39 -88 -54 -71 -56 64 l-1 87
-13 -45 c-7 -25 -21 -80 -30 -122 -15 -73 -47 -137 -71 -145 -8 -3 -14 14 -18
44 -5 36 -25 685 -26 817 0 44 -19 -2 -22 -54 l-4 -55 -8 65 c-15 105 -24 45
-26 -155 -1 -274 -18 -647 -31 -659 -25 -26 -68 70 -98 222 l-18 87 -7 -85
c-12 -140 -20 -149 -60 -67 -32 66 -48 137 -81 367 -29 200 -54 334 -61 327
-3 -3 0 -42 6 -88 5 -46 10 -104 11 -129 1 -39 2 -42 10 -20 22 62 -2 -97 -35
-231 -66 -270 -72 -442 -21 -629 49 -182 135 -437 155 -463 31 -39 81 -37 110
2 47 67 62 150 80 456 5 94 13 183 18 200 17 61 24 -11 30 -302 5 -322 6 -320
-57 -408 -37 -52 -36 -48 -28 -170 l2 -40 -48 2 c-54 1 -154 44 -205 88 -54
45 -64 77 -72 220 -6 93 -18 174 -43 283 -65 278 -70 459 -21 697 18 88 14
147 -12 176 -17 19 -16 20 9 47 116 121 92 411 -51 604 -42 57 -131 142 -166
159 -12 6 10 -17 47 -51 159 -145 222 -290 216 -494 -5 -136 -29 -196 -94
-230 l-39 -20 31 -8 c43 -11 60 -54 39 -96 -29 -57 -101 -48 -132 16 -29 62
-16 133 48 265 97 197 107 268 52 383 -30 64 -113 143 -188 178 -76 36 -79 32
-10 -12 174 -113 240 -285 144 -377 -17 -16 -44 -29 -68 -32 -36 -5 -45 -2
-72 25 -16 17 -30 27 -30 22 0 -4 14 -20 32 -35 32 -27 71 -30 123 -11 16 6
15 4 -5 -14 l-25 -22 33 18 c17 10 32 22 32 27 0 4 -5 5 -12 1 -7 -4 -8 -3 -4
5 4 6 12 9 17 6 5 -4 13 5 19 19 14 38 22 32 14 -11 -7 -42 -73 -173 -87 -173
-4 0 -6 -4 -3 -9 3 -5 -3 -35 -14 -66 -11 -32 -20 -68 -20 -79 0 -12 -5 -28
-11 -36 -18 -25 -2 76 20 126 23 51 13 60 -11 10 -39 -80 -35 -187 10 -255 32
-49 77 -63 118 -36 14 9 28 14 31 11 4 -3 -1 -38 -10 -78 -9 -40 -18 -86 -21
-103 -14 -91 -18 -105 -26 -105 -6 0 -10 8 -10 17 0 28 -57 133 -122 223 -95
133 -98 143 -97 322 0 84 -2 170 -6 191 -8 41 5 50 27 19 7 -10 20 -22 28 -27
8 -5 2 6 -13 24 -23 27 -27 42 -25 75 2 24 8 41 15 41 7 0 18 6 25 13 18 18
56 14 70 -8 17 -26 28 -25 28 2 0 33 -29 58 -68 58 -27 0 -42 -8 -68 -35 l-32
-35 -11 50 c-15 68 -62 158 -103 196 -18 17 -61 50 -94 72 -82 55 -129 112
-153 186 -22 66 -71 368 -71 438 0 60 44 146 125 243 36 44 85 118 108 164 39
78 42 90 42 166 0 74 -2 85 -29 119 -26 35 -111 85 -123 73 -2 -3 11 -10 30
-16 35 -12 76 -49 96 -88 13 -25 14 -138 1 -168 -6 -17 -9 -13 -14 20 -16 101
-47 150 -118 186 -54 27 -63 50 -62 154 2 103 25 181 76 256 43 63 68 75 173
83 50 3 112 13 139 21 70 21 71 20 33 -27 -90 -111 -106 -203 -62 -363 33
-122 32 -205 -4 -276 -13 -26 -66 -93 -117 -150 -93 -103 -144 -182 -144 -225
0 -39 20 -77 72 -139 28 -33 58 -67 66 -75 26 -25 -18 41 -60 92 -22 26 -44
64 -49 84 -15 54 22 118 142 249 130 140 154 188 153 303 l0 83 64 -63 c78
-78 102 -121 102 -188 0 -62 -30 -100 -80 -100 -36 0 -63 41 -42 62 18 18 14
38 -8 38 -23 0 -40 -28 -40 -69 0 -41 40 -71 95 -71 107 0 159 124 101 245
-15 31 -54 79 -101 125 -92 89 -118 139 -119 226 0 71 34 151 84 199 l31 30
-11 -30 c-18 -45 -15 -137 6 -180 40 -86 163 -119 224 -60 21 20 30 38 29 59
l0 31 -16 -32 c-9 -18 -21 -33 -25 -33 -5 0 -7 4 -4 9 3 4 -7 6 -22 2 -25 -5
-25 -6 -4 -9 36 -6 14 -22 -30 -22 -35 0 -47 6 -84 44 -42 41 -44 46 -44 102
0 102 61 189 152 216 60 17 194 15 240 -5 55 -23 105 -64 139 -113 38 -56 38
-69 0 -16 -54 73 -164 133 -240 131 -34 -1 -34 -2 11 -9 152 -26 283 -174 295
-333 3 -41 0 -90 -6 -114 -22 -81 -112 -184 -160 -183 -9 1 -2 7 14 14 79 34
130 137 123 244 -10 139 -94 257 -216 302 -79 30 -178 24 -227 -15 -17 -12
-13 -12 20 1 52 22 158 21 209 -1 62 -26 140 -107 172 -178 60 -132 25 -279
-78 -333 -60 -31 -129 -4 -147 59 -5 18 -10 24 -10 14 -2 -31 27 -73 61 -90
18 -9 27 -17 19 -17 -7 0 -29 9 -47 21 -54 33 -60 92 -11 119 27 14 29 14 47
-7 22 -28 36 -29 48 -5 34 64 -72 100 -129 43 -69 -69 -15 -196 92 -216 130
-24 259 112 275 291 11 118 -29 240 -105 326 -58 65 -166 118 -256 125 -75 7
-74 18 2 39 62 18 140 12 233 -17z m2345 -18 c-43 -85 -109 -118 -218 -108
-69 6 -70 1 -3 -12 62 -11 120 2 174 40 l42 31 11 -32 c12 -32 53 -60 90 -60
28 0 59 27 59 52 0 22 -16 24 -24 2 -9 -25 -58 -14 -75 18 -21 36 -6 76 36
101 30 17 37 17 75 5 106 -36 117 -169 19 -234 -31 -20 -57 -28 -109 -32 -84
-6 -152 11 -319 78 -142 58 -237 75 -360 67 -124 -9 -207 -57 -254 -148 -17
-34 -24 -41 -31 -29 -50 85 -81 130 -88 130 -5 0 9 -26 30 -57 60 -85 93 -196
94 -313 0 -54 -5 -111 -13 -133 -12 -37 -14 -38 -54 -35 -28 2 -41 7 -39 16
37 183 6 337 -94 465 -43 55 -44 60 -27 73 10 7 29 14 43 14 15 0 30 4 36 10
5 5 146 16 314 24 331 17 467 36 610 84 47 16 88 30 93 31 4 0 -4 -21 -18 -48z
m-4658 -113 c-3 -7 -5 -2 -5 12 0 14 2 19 5 13 2 -7 2 -19 0 -25z m-127 -102
c0 -5 -10 0 -22 11 -13 11 -32 23 -43 27 -16 6 -17 9 -5 16 10 7 11 10 3 10
-7 0 -13 6 -13 12 0 14 79 -62 80 -76z m86 -76 c5 0 15 -9 22 -20 12 -19 11
-20 -10 -8 -37 21 -68 50 -62 59 3 5 -2 9 -10 9 -9 0 -16 8 -16 17 0 12 10 6
34 -20 18 -20 38 -37 42 -37z m1714 -220 c7 -13 55 -68 106 -122 51 -53 97
-110 101 -125 14 -54 9 -121 -11 -140 -18 -17 -18 -17 -6 6 19 38 6 126 -26
175 -15 22 -54 65 -86 95 -59 54 -119 154 -117 195 0 12 6 5 13 -19 7 -22 18
-51 26 -65z m1534 -1739 c4 -5 -3 -7 -13 -4 -10 3 -28 0 -40 -6 -12 -7 -21 -8
-21 -2 0 19 64 29 74 12z m-1121 -1033 c2 -106 10 -206 16 -223 l11 -30 -5 32
c-9 66 -15 278 -6 248 16 -56 52 -470 40 -457 -8 8 -49 144 -74 240 -17 67
-23 301 -10 355 16 61 23 17 28 -165z m789 62 c7 -127 -4 -209 -49 -367 -36
-127 -53 -165 -47 -105 17 159 37 338 44 387 7 49 9 36 6 -65 -2 -85 0 -112 5
-85 5 22 9 110 10 195 1 85 4 159 7 164 10 18 20 -30 24 -124z m-517 -211 c9
-42 -3 -246 -21 -348 -18 -99 -47 -164 -72 -159 -43 8 -87 165 -76 268 13 128
25 162 79 217 59 61 80 66 90 22z m311 -24 c35 -35 44 -54 58 -113 9 -39 16
-92 16 -118 0 -111 -42 -254 -74 -254 -45 0 -85 148 -93 351 -3 86 -3 164 0
172 9 24 46 9 93 -38z" />
      <path d="M5184 7940 c-48 -24 -124 -87 -124 -102 0 -6 21 8 46 31 49 46 115
80 154 81 14 0 39 -9 57 -20 25 -15 31 -16 26 -4 -15 38 -95 45 -159 14z" />
      <path d="M2699 8002 c15 -28 56 -56 73 -49 8 3 6 6 -5 6 -11 1 -33 16 -50 34
-21 22 -27 25 -18 9z" />
      <path d="M2252 7969 c-1 -25 7 -49 26 -76 33 -49 132 -158 132 -146 0 5 -5 14
-12 21 -6 6 -9 14 -6 18 12 12 33 -42 39 -101 l6 -60 1 53 c3 72 -15 108 -92
189 -36 39 -66 77 -66 84 0 12 -2 11 -9 0 -7 -11 -11 -6 -14 20 l-4 34 -1 -36z
m98 -126 c24 -23 42 -44 39 -47 -8 -8 -119 109 -119 125 0 8 8 2 17 -11 10
-14 38 -44 63 -67z" />
      <path d="M4376 7964 c-4 -14 -36 -55 -72 -92 -36 -37 -70 -75 -75 -85 -6 -10
21 15 60 55 39 40 71 68 71 63 0 -6 -10 -22 -22 -35 -54 -60 -64 -76 -29 -45
43 39 84 103 77 121 -3 8 -1 14 4 14 6 0 10 7 10 15 0 25 -17 17 -24 -11z m-4
-46 c-7 -7 -12 -8 -12 -2 0 14 12 26 19 19 2 -3 -1 -11 -7 -17z" />
      <path d="M2990 7398 l0 -71 36 35 c43 43 98 60 184 56 l65 -3 3 -229 c4 -250
0 -232 65 -271 l27 -16 0 260 0 261 75 0 c90 0 129 -15 173 -64 l32 -37 0 76
0 75 -330 0 -330 0 0 -72z" />
      <path d="M3159 7268 c-61 -47 -84 -97 -83 -183 1 -125 62 -212 223 -320 172
-115 241 -210 241 -331 0 -75 -37 -154 -93 -198 -29 -24 -50 -31 -97 -34 -33
-2 -76 -1 -96 2 -50 10 -127 89 -164 169 l-29 62 -1 -122 0 -123 25 12 c21 9
34 6 87 -18 55 -25 75 -29 153 -29 75 0 98 4 138 25 61 30 112 86 144 157 22
49 25 65 21 141 -8 157 -73 248 -284 394 -122 85 -162 123 -193 185 -25 50
-27 79 -6 87 11 4 15 -1 15 -17 0 -26 43 -121 59 -131 18 -11 13 81 -6 121 -9
19 -22 37 -30 40 -22 9 -15 38 17 68 31 30 41 75 16 75 -8 0 -34 -15 -57 -32z" />
      <path d="M3400 7273 c1 -10 14 -43 29 -73 l29 -54 6 44 c4 25 9 57 12 73 5 26
4 27 -35 27 -33 0 -41 -4 -41 -17z" />
      <path d="M2877 7230 c-215 -55 -318 -331 -207 -556 38 -78 93 -126 173 -153
112 -38 251 -20 301 40 26 30 35 69 16 69 -5 0 -14 -8 -19 -18 -5 -10 -32 -30
-59 -45 -91 -50 -207 -31 -281 45 -53 54 -75 127 -74 248 0 152 40 251 125
307 38 25 50 28 130 28 60 0 89 4 92 12 3 7 1 15 -5 18 -18 11 -153 14 -192 5z" />
      <path d="M3655 7224 c5 -11 12 -73 15 -139 5 -101 11 -136 40 -220 l35 -100 3
218 2 217 40 0 c89 0 134 -57 134 -170 0 -100 -43 -160 -114 -160 -20 0 -30
-4 -28 -12 11 -44 142 -279 164 -297 24 -19 104 -31 104 -15 0 3 -13 16 -29
30 -17 14 -57 78 -90 143 l-60 117 32 19 c126 74 131 281 10 352 -40 23 -59
27 -156 31 -105 4 -110 4 -102 -14z" />
      <path d="M3550 7199 c-7 -12 -36 -93 -65 -180 -38 -114 -50 -160 -42 -168 6
-6 14 -11 18 -11 3 0 21 45 39 100 19 55 36 100 39 100 5 0 48 -129 68 -202 4
-14 -4 -17 -53 -20 -79 -4 -75 -22 6 -28 l65 -5 42 -120 c56 -160 69 -213 54
-228 -22 -22 -10 -27 71 -27 l82 0 -27 28 c-31 33 -60 107 -187 491 -88 265
-99 291 -110 270z" />
      <path d="M2943 7139 c-13 -5 -23 -14 -23 -20 0 -8 -4 -8 -13 -1 -7 6 -18 7
-25 3 -10 -6 -9 -15 3 -44 12 -29 15 -83 15 -267 0 -245 -2 -237 50 -242 l25
-3 3 108 3 109 25 -6 c32 -8 124 10 150 28 15 11 16 17 6 29 -12 14 -18 13
-58 -4 -26 -12 -60 -19 -82 -17 l-37 3 -3 139 c-3 152 0 161 51 150 35 -7 36
13 0 27 -29 11 -58 5 -48 -11 3 -5 4 -10 0 -10 -3 0 -9 8 -13 19 -5 14 -12 17
-29 10z" />
      <path d="M2105 7040 c-3 -5 -3 -15 0 -20 4 -6 15 -84 26 -174 11 -102 27 -185
40 -218 32 -82 39 -78 14 9 -24 83 -60 321 -50 331 15 15 35 -33 55 -133 36
-188 58 -241 133 -322 43 -47 43 -70 0 -75 l-28 -4 28 -8 c22 -7 31 -4 47 14
23 26 25 43 9 72 -10 18 -9 20 5 15 20 -8 20 1 1 46 -8 20 -15 52 -15 72 0 46
23 46 106 0 34 -19 65 -35 68 -35 14 0 -26 60 -46 71 -48 26 -121 106 -155
171 -40 77 -111 161 -154 183 -32 17 -75 20 -84 5z" />
      <path d="M4439 7027 c-41 -27 -94 -96 -154 -199 -32 -55 -60 -89 -103 -121
-102 -79 -112 -111 -17 -58 103 58 134 32 96 -82 -10 -33 -14 -54 -8 -48 6 6
15 11 19 11 11 0 10 -28 -1 -32 -14 -5 -18 -51 -4 -55 6 -2 15 6 18 19 4 13
25 42 46 65 49 53 63 88 105 254 36 146 51 189 67 189 10 0 5 -100 -9 -192 -4
-24 -4 -40 0 -37 6 6 22 124 29 215 2 28 7 57 12 64 9 15 -11 30 -41 30 -12 0
-36 -10 -55 -23z" />
      <path d="M3270 6595 c0 -142 -1 -147 -25 -171 -14 -14 -25 -26 -25 -27 0 -1
45 -2 100 -2 55 0 100 3 100 6 0 3 -9 14 -20 24 -25 23 -26 83 -3 154 16 51
16 53 -4 73 l-21 20 -23 -73 c-39 -127 -55 -116 -19 14 l20 72 -22 18 c-60 47
-58 52 -58 -108z" />
      <path d="M4467 6663 c-8 -32 -14 -59 -12 -61 2 -2 11 21 20 53 9 31 15 58 13
61 -3 2 -12 -22 -21 -53z" />
      <path d="M2210 6543 c0 -6 8 -17 18 -24 16 -13 16 -13 2 6 -8 11 -16 22 -17
24 -2 2 -3 0 -3 -6z" />
      <path d="M2890 6450 c-33 -33 -24 -40 50 -40 67 0 70 1 58 19 -13 21 -49 41
-73 41 -8 0 -24 -9 -35 -20z" />
      <path d="M2438 6334 c66 -33 118 -83 143 -137 10 -23 19 -34 19 -24 0 55 -76
138 -159 173 -56 24 -58 16 -3 -12z" />
      <path d="M4159 6321 c-74 -50 -109 -89 -109 -121 1 -8 10 1 20 21 20 37 71 83
125 112 17 9 25 16 19 17 -5 0 -30 -13 -55 -29z" />
      <path d="M4059 5959 c-28 -31 -63 -37 -102 -18 -21 10 -21 10 -3 -5 31 -25 72
-19 108 13 18 16 31 32 28 34 -3 3 -17 -8 -31 -24z" />
      <path d="M3647 4285 c-25 -30 -61 -56 -110 -79 -78 -39 -80 -49 -2 -15 48 21
128 88 146 121 15 29 6 21 -34 -27z" />
      <path d="M2985 4290 c40 -49 91 -84 160 -110 44 -17 26 -2 -27 23 -29 13 -75
44 -103 68 -27 24 -41 32 -30 19z" />
      <path d="M580 8706 c14 -15 39 -34 55 -42 17 -8 22 -9 11 -2 -11 7 -35 26 -55
43 l-36 29 25 -28z" />
      <path d="M760 8575 c19 -22 39 -44 44 -50 5 -5 4 -1 -2 10 -6 11 -25 33 -44
50 l-33 30 35 -40z" />
      <path d="M634 8493 c4 -5 12 -8 18 -8 22 0 49 -53 73 -142 24 -89 65 -185 84
-197 5 -3 -4 18 -19 47 -16 28 -38 93 -50 143 -22 94 -63 164 -97 164 -9 0
-13 -3 -9 -7z" />
      <path d="M2154 8195 c-33 -26 -100 -122 -92 -131 3 -3 17 15 31 39 14 24 44
60 66 80 46 42 42 50 -5 12z" />
      <path d="M1640 8190 c-25 -5 -101 -38 -170 -73 -69 -35 -154 -74 -189 -86 -87
-30 -211 -37 -276 -17 -27 8 -51 13 -53 11 -2 -2 22 -11 54 -21 74 -21 194
-15 284 16 36 12 126 51 200 88 123 60 141 66 212 70 98 6 154 -10 210 -57
l43 -36 -23 32 c-46 64 -174 97 -292 73z" />
      <path d="M2035 7995 c-9 -31 -14 -59 -11 -62 3 -3 8 8 11 23 4 16 11 42 16 58
5 16 7 31 5 34 -3 2 -12 -21 -21 -53z" />
      <path d="M1913 3983 c-19 -3 -37 -12 -43 -24 -9 -17 -7 -19 17 -19 18 1 34 9
46 25 10 14 17 24 15 23 -2 0 -18 -3 -35 -5z" />
      <path d="M3275 3950 c-13 -6 15 -9 80 -9 65 0 93 3 80 9 -11 5 -47 9 -80 9
-33 0 -69 -4 -80 -9z" />
    </g>
  </g>

  <!-- Textos de marca perfectamente posicionados en la base -->
  <g id="brand-texts" fill="url(#gold-gradient)" filter="url(#subtle-shadow)">
    <!-- CRÁNEO NOBLE -->
    <text x="400" y="730" text-anchor="middle" 
          font-family="Georgia, serif" 
          font-size="44" font-weight="700" letter-spacing="14">CRÁNEO NOBLE</text>
    
    <!-- by ARCT -->
    <text x="400" y="790" text-anchor="middle" 
          font-family="Arial, sans-serif" 
          font-size="19" font-weight="300" letter-spacing="9" fill="#a09278">by ARCT</text>
          
    <!-- ARTE · RAÍZ · CARÁCTER · TRASCENDENCIA -->
    <text x="400" y="855" text-anchor="middle" 
          font-family="Arial, sans-serif" 
          font-size="11" font-weight="400" letter-spacing="7" fill="url(#gold-gradient)">ARTE • RAÍZ • CARÁCTER • TRASCENDENCIA</text>
  </g>
</svg>
