<svg xmlns="http://www.w3.org/2000/svg" viewBox="0 0 800 1000" width="100%" height="100%">
  <defs>
    <!-- Gradiente metálico dorado premium de alta definición -->
    <linearGradient id="gold-gradient" x1="0%" y1="0%" x2="100%" y2="100%">
      <stop offset="0%" stop-color="#f6ebd0" />
      <stop offset="20%" stop-color="#dfc593" />
      <stop offset="45%" stop-color="#a67e35" />
      <stop offset="55%" stop-color="#835c16" />
      <stop offset="80%" stop-color="#dfc593" />
      <stop offset="100%" stop-color="#a67e35" />
    </linearGradient>
    <filter id="subtle-shadow" x="-10%" y="-10%" width="120%" height="120%">
      <feDropShadow dx="0" dy="5" stdDeviation="7" flood-color="#000000" flood-opacity="0.45"/>
    </filter>
  </defs>

  <!-- Fondo oscuro premium metalizado -->
  <rect width="100%" height="100%" fill="#131210"/>
  
  <!-- Resplandor sutil radial -->
  <radialGradient id="radial-glow" cx="50%" cy="40%" r="65%">
    <stop offset="0%" stop-color="#2a261f" stop-opacity="0.75" />
    <stop offset="100%" stop-color="#131210" stop-opacity="0" />
  </radialGradient>
  <rect width="100%" height="100%" fill="url(#radial-glow)" />

  <!-- Grupo del logotipo del cráneo centrado y escalado de forma perfecta -->
  <g transform="translate(400.0, 380.0) scale(0.897849) translate(-336.250000, -364.250000)" filter="url(#subtle-shadow)">
    <!-- Transformación de inversión de potrace sobre el lienzo de 1024 de alto -->
    <g transform="translate(0, 1024) scale(0.1, -0.1)" fill="url(#gold-gradient)" stroke="none">
      <path d="M6125 9228 c-18 -17 -31 -45 -45 -99 -25 -102 -71 -220 -117 -299
-51 -88 -208 -244 -298 -295 -237 -137 -415 -174 -945 -200 -188 -9 -255 -21
-324 -57 -53 -28 -71 -32 -131 -31 -97 1 -167 24 -335 109 -145 74 -232 104
-301 104 -21 0 -90 -13 -154 -30 -64 -16 -131 -30 -150 -30 -18 0 -85 14 -148
30 -190 49 -233 42 -472 -76 -167 -82 -237 -104 -337 -104 -55 0 -76 5 -107
24 -69 44 -131 52 -551 76 -223 13 -323 28 -465 70 -239 71 -433 207 -553 387
-19 29 -38 50 -43 48 -4 -3 -11 1 -16 9 -7 14 -12 16 -30 16 -5 0 -1 5 7 10
11 7 18 3 27 -13 8 -14 12 -16 12 -7 0 8 -9 31 -20 50 -14 24 -19 28 -15 13 2
-13 2 -23 -1 -23 -3 0 -13 10 -24 23 l-19 22 11 -30 c41 -117 104 -209 216
-316 66 -64 174 -142 214 -154 33 -11 21 -25 -22 -25 -45 0 -108 -25 -116 -47
-10 -26 -21 -12 -28 35 -4 26 -15 65 -24 87 -18 39 -87 112 -130 134 -40 22
-20 -4 26 -34 61 -39 68 -62 8 -29 -25 15 -49 24 -52 20 -3 -3 7 -10 22 -16
74 -28 121 -101 127 -199 1 -23 6 -41 11 -41 4 0 5 -5 2 -10 -13 -21 7 -109
33 -150 20 -30 44 -50 90 -72 59 -29 66 -31 150 -25 93 6 140 20 294 86 154
66 281 85 397 60 56 -12 145 -64 136 -80 -4 -5 -1 -17 6 -25 15 -19 22 -74 18
-144 -6 -96 -4 -214 4 -252 7 -34 6 -38 -12 -38 -39 0 -187 52 -235 83 -62 39
-86 78 -86 139 0 76 20 104 86 123 26 7 74 -29 74 -55 0 -11 -9 -24 -20 -30
-25 -13 -26 -27 -1 -35 27 -8 50 4 67 36 13 25 13 33 0 63 -37 89 -172 86
-234 -5 -20 -29 -23 -44 -20 -96 l4 -62 -22 17 c-12 9 -37 29 -55 43 -86 66
-185 64 -220 -4 -9 -18 -5 -16 20 8 59 56 147 33 251 -65 30 -29 71 -65 90
-81 28 -24 31 -29 15 -29 -11 0 -54 32 -95 71 -73 69 -126 109 -144 109 -5 0
9 -12 31 -27 54 -37 167 -143 152 -143 -6 0 -73 16 -148 36 -333 89 -565 209
-743 388 -44 44 -84 80 -89 79 -4 -2 -18 10 -31 25 -13 16 -31 31 -40 34 -51
20 102 -168 208 -253 207 -168 387 -250 748 -343 182 -47 452 -96 529 -96 25
0 57 5 71 11 58 27 121 -34 132 -127 8 -68 -21 -133 -108 -243 -102 -127 -122
-170 -123 -261 0 -80 36 -335 61 -435 29 -109 70 -162 195 -250 93 -65 123
-108 157 -220 21 -70 24 -106 28 -290 3 -115 10 -230 16 -255 6 -25 42 -91 80
-149 111 -167 163 -287 188 -436 21 -130 41 -230 62 -315 11 -47 24 -137 28
-200 4 -63 13 -135 21 -160 38 -125 271 -255 379 -210 51 21 61 59 38 143 -10
40 -9 47 17 95 16 29 33 51 39 49 6 -2 21 -21 34 -43 23 -39 24 -58 7 -155 -9
-50 7 -76 56 -91 73 -21 211 24 298 99 64 54 81 103 91 252 5 71 16 155 24
187 8 33 33 151 55 264 22 113 52 234 65 270 31 82 94 197 139 252 19 24 46
66 61 95 25 50 26 60 30 270 6 234 18 317 60 406 30 65 58 94 151 157 96 65
151 139 169 230 28 136 66 393 66 439 0 73 -36 149 -123 260 -72 90 -105 150
-113 203 -11 66 31 159 80 177 12 5 34 3 53 -5 42 -18 91 -18 211 1 704 112
1083 286 1327 611 168 223 249 557 201 831 -16 91 -35 134 -68 157 -30 21 -42
20 -73 -6z m74 -103 c18 -64 19 -335 2 -425 -39 -200 -137 -388 -275 -525
-185 -184 -431 -312 -757 -394 -138 -34 -153 -36 -143 -20 4 7 -7 1 -24 -11
-40 -30 -55 -18 -16 12 16 13 59 51 97 86 116 108 200 129 253 62 7 -8 15 -12
19 -8 4 4 -4 18 -18 32 -52 51 -154 27 -243 -58 -26 -25 -49 -46 -51 -46 -1 0
2 12 7 26 6 14 10 50 10 80 0 50 -4 59 -38 96 -33 35 -46 41 -89 45 -61 6 -99
-14 -120 -65 -11 -27 -11 -38 -1 -59 19 -39 44 -51 64 -31 15 15 15 17 -5 27
-26 14 -27 43 -3 67 9 10 17 22 17 28 0 18 52 18 88 1 62 -29 89 -119 58 -194
-21 -49 -30 -36 -14 18 10 34 11 59 5 83 -8 30 -9 28 -8 -22 0 -96 -65 -166
-194 -210 -33 -11 -82 -23 -107 -27 l-46 -6 9 29 c5 16 9 99 9 185 l0 157 31
38 c46 59 108 86 193 85 97 -1 108 -4 261 -81 164 -82 257 -110 368 -110 100
0 171 24 235 80 68 60 103 121 142 246 21 68 46 125 62 145 24 29 30 31 72 26
41 -5 44 -4 26 9 -10 8 -33 14 -51 14 -51 0 -86 -45 -118 -153 -39 -129 -53
-164 -86 -213 -68 -97 -153 -139 -285 -138 -108 1 -171 21 -359 111 l-158 77
-87 0 c-109 1 -167 -20 -216 -77 l-36 -41 3 33 c2 24 12 40 38 61 65 51 100
63 193 68 118 6 186 -9 355 -79 161 -66 233 -83 324 -77 125 8 210 79 223 187
29 238 53 282 174 322 92 30 141 67 174 131 24 45 25 49 5 23 -65 -84 -90
-104 -156 -126 -37 -12 -82 -31 -101 -42 -19 -12 -31 -16 -28 -10 10 16 104
73 110 67 7 -7 64 23 73 38 5 8 -1 7 -16 -3 -36 -23 -72 -34 -40 -12 44 30
100 93 115 130 24 58 17 61 -11 5 -29 -58 -82 -109 -161 -154 -29 -16 -70 -49
-91 -73 -37 -42 -72 -127 -72 -174 l0 -23 -30 26 c-32 27 -104 51 -120 41 -6
-3 -10 -1 -10 4 0 6 4 11 9 11 5 0 50 27 99 60 213 142 342 347 407 643 9 45
37 31 54 -28z m-5165 -739 c44 -18 66 -68 45 -105 -18 -32 -54 -39 -80 -15
-17 15 -19 15 -25 0 -16 -40 54 -68 106 -41 18 9 36 29 42 46 11 33 20 36 39
12 28 -33 91 -53 164 -51 l70 1 -80 7 c-44 4 -95 15 -113 24 -32 17 -109 122
-98 133 3 3 25 -1 48 -10 156 -59 421 -98 786 -115 100 -5 185 -12 189 -15 3
-4 -10 -24 -30 -46 -19 -22 -46 -58 -59 -80 -13 -23 -25 -41 -28 -41 -3 0 -19
22 -36 48 -41 61 -134 118 -212 128 -105 13 -224 -2 -325 -42 -245 -97 -276
-105 -368 -101 -67 2 -93 8 -121 25 -39 24 -78 91 -78 133 0 36 36 88 73 104
41 18 50 18 91 1z m2138 -17 c139 -36 205 -36 318 2 87 29 189 31 255 4 l50
-20 -75 -6 c-150 -12 -269 -89 -330 -212 -72 -148 -63 -305 24 -434 71 -104
208 -130 288 -55 55 51 60 123 10 175 -32 34 -91 38 -122 7 -24 -24 -25 -43
-3 -65 16 -16 18 -16 36 9 21 29 39 33 57 11 17 -20 5 -61 -26 -92 -22 -22
-32 -25 -69 -21 -92 11 -148 89 -147 207 2 169 124 316 279 337 63 8 148 -15
195 -53 28 -23 30 -24 13 -4 -41 47 -93 66 -185 66 -75 0 -91 -3 -138 -29
-109 -61 -172 -166 -180 -298 -4 -69 -2 -84 23 -133 16 -35 40 -65 63 -80 20
-14 32 -25 27 -25 -26 0 -90 68 -116 124 -24 51 -29 74 -29 137 0 67 4 85 35
147 58 115 158 195 269 213 l51 8 -61 -3 c-89 -5 -175 -56 -235 -139 -38 -52
-37 -38 0 17 77 111 221 166 362 136 75 -16 127 -53 157 -112 40 -82 24 -179
-40 -233 -51 -43 -135 -28 -158 29 l-9 21 0 -21 c-2 -55 82 -103 145 -85 70
20 106 63 124 148 9 39 8 58 -3 89 -8 21 -18 48 -21 59 -12 32 79 -70 99 -112
27 -55 31 -131 10 -192 -13 -39 -38 -74 -101 -142 -96 -103 -124 -150 -130
-223 -6 -63 16 -110 66 -144 43 -29 92 -24 129 12 41 42 22 130 -25 112 -13
-5 -15 -9 -6 -18 15 -15 15 -51 0 -66 -7 -7 -27 -12 -44 -12 -64 0 -95 90 -60
174 14 33 91 126 130 157 21 16 21 16 21 -65 0 -109 27 -163 146 -290 118
-128 149 -176 149 -237 0 -42 -6 -54 -49 -106 -63 -76 -87 -123 -30 -59 78 87
98 117 105 151 12 66 -23 125 -162 279 -35 38 -78 96 -96 130 -29 53 -33 70
-32 131 1 48 8 89 25 130 19 48 23 79 24 155 0 106 -15 146 -80 219 -19 21
-35 41 -35 43 0 3 32 -3 70 -13 39 -9 109 -20 156 -24 105 -9 129 -26 179
-128 45 -93 63 -198 46 -279 -11 -53 -16 -60 -57 -84 -76 -45 -114 -108 -114
-191 0 -50 -17 -39 -30 20 -15 66 -2 123 42 175 l32 37 -32 -29 c-106 -97 -72
-257 99 -472 131 -165 134 -178 98 -439 -36 -267 -65 -335 -173 -407 -139 -95
-168 -128 -206 -243 -13 -38 -25 -76 -26 -83 -2 -8 -16 1 -35 23 -26 29 -38
35 -70 35 -30 0 -42 -5 -55 -25 -9 -14 -14 -32 -10 -40 4 -12 10 -10 30 10 20
19 30 23 48 16 53 -19 44 -107 -14 -137 -34 -18 -68 -12 -109 17 -20 14 -30
16 -35 7 -10 -15 49 -64 87 -72 42 -8 104 20 128 57 l21 32 0 -190 c0 -104 -5
-207 -11 -228 -5 -20 -30 -65 -54 -100 -98 -139 -117 -169 -145 -234 -16 -37
-30 -66 -30 -63 -1 3 -10 52 -21 110 -11 58 -22 120 -26 139 -6 31 -4 34 13
26 10 -5 38 -10 61 -11 45 -2 61 12 91 81 18 41 17 153 -2 198 -8 20 -14 37
-12 37 2 0 -12 16 -30 35 -40 43 -91 146 -99 200 -3 22 -2 33 2 25 5 -8 14
-16 21 -18 10 -2 10 2 1 19 -16 31 -6 117 20 172 30 62 100 131 170 168 31 16
45 27 31 23 -86 -21 -203 -113 -239 -187 -12 -24 -26 -69 -32 -100 -16 -76 -3
-122 74 -277 55 -112 62 -132 65 -195 4 -91 -19 -135 -72 -135 -38 0 -63 19
-72 56 -8 31 19 74 46 74 29 0 24 13 -12 30 -42 20 -66 54 -83 120 -32 119
-11 282 51 410 28 56 58 96 119 158 45 45 78 82 72 82 -20 0 -163 -157 -200
-220 -59 -101 -72 -156 -71 -300 0 -139 15 -193 71 -244 18 -17 24 -29 17 -34
-39 -26 -43 -98 -13 -269 38 -221 28 -357 -48 -673 -14 -59 -28 -158 -33 -227
-9 -146 -24 -182 -95 -235 -60 -46 -169 -84 -210 -74 -22 6 -26 11 -21 29 4
12 10 48 13 79 5 51 3 61 -19 90 -14 18 -36 53 -49 78 -24 45 -24 48 -22 310
1 146 5 285 9 310 l7 45 12 -41 c7 -23 16 -124 20 -225 11 -307 51 -439 131
-439 62 0 93 67 189 410 75 265 76 437 4 722 -21 83 -29 141 -29 202 0 76 13
210 26 261 4 15 3 17 -4 5 -15 -24 -41 -140 -52 -226 -15 -128 -49 -342 -60
-383 -14 -55 -47 -126 -64 -140 -19 -16 -26 14 -26 113 0 44 -3 77 -6 73 -3
-3 -16 -55 -29 -115 -23 -111 -42 -158 -68 -181 -11 -8 -17 -9 -22 -1 -6 10
-17 255 -31 695 -4 116 -10 192 -15 180 -4 -11 -8 -42 -9 -70 -2 -41 -4 -45
-10 -25 -4 14 -9 43 -9 65 -1 30 -4 36 -11 25 -5 -8 -10 -96 -10 -195 -1 -217
-17 -646 -26 -669 -22 -57 -71 55 -112 254 -8 44 -9 43 -17 -48 -4 -51 -12
-95 -17 -98 -43 -27 -99 192 -149 586 -9 69 -37 176 -44 168 -2 -2 1 -23 5
-48 5 -25 12 -88 16 -140 5 -65 10 -89 16 -75 17 41 -5 -93 -38 -231 -42 -175
-54 -255 -54 -370 0 -135 22 -234 122 -547 49 -154 71 -191 117 -195 84 -8
121 107 136 423 3 66 11 158 17 205 10 75 12 81 20 55 5 -16 12 -158 15 -315
6 -317 10 -298 -64 -407 -31 -45 -34 -57 -29 -90 4 -21 8 -54 9 -73 l2 -35
-48 2 c-54 1 -154 44 -206 88 -49 42 -63 85 -66 205 -2 68 -12 142 -29 210
-58 242 -71 329 -70 475 1 94 7 173 20 240 25 133 25 216 0 244 -19 21 -19 22
7 49 41 43 67 113 73 199 14 184 -67 371 -221 511 -95 87 -106 80 -14 -9 103
-100 137 -149 175 -249 26 -69 28 -86 29 -210 0 -125 -2 -139 -25 -184 -19
-37 -37 -56 -70 -73 -38 -19 -41 -23 -20 -23 33 0 47 -10 59 -41 12 -33 -4
-68 -41 -88 -25 -14 -29 -14 -55 5 -43 32 -55 61 -50 131 4 50 16 84 65 185
70 142 87 200 79 268 -14 115 -100 227 -219 283 -75 36 -114 44 -48 10 77 -40
164 -124 195 -188 31 -66 33 -136 5 -182 -43 -71 -133 -81 -170 -20 -14 22
-20 27 -20 14 0 -10 12 -29 26 -42 29 -27 80 -33 116 -14 11 6 22 8 25 6 3 -3
-8 -12 -24 -21 -36 -20 -21 -21 17 -1 16 9 37 29 46 46 20 40 26 33 13 -17
-16 -56 -41 -103 -87 -158 -75 -91 -83 -229 -18 -321 26 -37 80 -46 122 -19
l27 18 -6 -29 c-3 -17 -12 -66 -20 -110 -9 -44 -18 -97 -22 -119 -7 -43 -17
-39 -35 17 -6 21 -50 95 -97 165 -47 70 -92 141 -99 159 -10 23 -14 83 -13
223 l0 191 27 -29 c24 -26 96 -51 108 -39 3 3 -11 8 -30 11 -19 4 -48 20 -65
35 -25 24 -31 37 -31 71 0 31 4 41 13 37 7 -3 19 4 25 14 16 26 57 24 76 -3
12 -17 19 -19 27 -11 9 9 8 18 -5 38 -36 54 -93 52 -138 -5 l-24 -31 -11 48
c-29 123 -74 185 -195 270 -98 69 -131 109 -157 192 -22 71 -58 280 -68 397
-5 62 -3 78 19 125 14 30 57 95 97 144 100 123 155 237 159 330 2 53 -1 78
-15 104 -22 43 -78 88 -118 95 -29 6 -29 6 5 -10 79 -36 110 -86 110 -176 0
-78 -15 -110 -25 -52 -16 97 -44 138 -117 175 -45 23 -47 26 -58 96 -19 116
25 267 100 344 l45 46 95 6 c52 4 119 13 148 21 28 8 52 12 52 9 0 -3 -11 -19
-26 -35 -84 -100 -102 -207 -60 -360 52 -190 31 -263 -124 -434 -91 -99 -140
-177 -140 -221 0 -40 26 -88 76 -144 27 -30 57 -65 67 -79 l18 -25 -12 25 c-6
14 -36 58 -67 97 -89 118 -82 146 88 334 138 153 155 186 155 301 l0 87 54
-52 c82 -80 111 -130 111 -194 0 -44 -5 -59 -25 -78 -50 -51 -128 -16 -91 40
16 25 12 35 -15 35 -44 0 -53 -87 -14 -119 85 -66 195 2 195 119 0 84 -19 119
-117 221 -51 52 -99 112 -108 132 -21 51 -19 162 4 212 10 22 34 58 54 80 l35
40 -15 -59 c-26 -104 15 -198 102 -231 82 -32 166 11 164 84 0 34 -1 35 -10
11 -29 -72 -94 -91 -156 -44 -44 33 -63 73 -63 130 0 92 67 181 152 205 58 16
163 17 219 1 55 -16 133 -74 162 -121 18 -29 14 -27 -30 17 -68 68 -122 94
-203 98 l-65 3 58 -9 c251 -40 391 -350 247 -548 -29 -40 -83 -82 -105 -82 -5
0 6 10 25 21 108 63 141 223 76 366 -31 69 -88 128 -158 164 -57 31 -173 33
-236 5 -52 -24 -50 -32 3 -10 57 24 150 22 210 -5 186 -82 262 -337 141 -469
-28 -32 -69 -52 -104 -52 -58 0 -106 65 -82 110 14 26 35 25 55 -2 12 -18 19
-21 33 -12 43 28 8 84 -54 84 -26 0 -43 -8 -65 -29 -60 -60 -29 -171 58 -207
47 -20 91 -17 148 10 76 35 123 100 150 205 37 141 -1 294 -101 401 -56 60
-165 112 -246 118 -32 3 -58 8 -58 12 0 6 51 25 95 34 46 9 82 4 197 -25z
m2341 -20 c-16 -31 -44 -63 -67 -78 -35 -23 -50 -26 -127 -26 -48 0 -86 -1
-85 -2 1 -2 26 -7 55 -13 67 -13 121 -1 176 39 l43 31 12 -31 c14 -33 55 -59
95 -59 24 0 65 31 65 49 0 19 -23 24 -32 7 -14 -25 -55 -20 -74 9 -24 37 -9
85 35 107 27 14 39 14 73 4 113 -32 113 -188 1 -241 -90 -43 -190 -30 -396 51
-158 62 -245 79 -369 71 -75 -4 -95 -9 -150 -39 -52 -28 -69 -45 -97 -92 l-35
-57 -22 38 c-33 56 -85 125 -91 120 -2 -3 16 -33 41 -67 64 -87 97 -195 97
-317 0 -50 -5 -110 -11 -132 -10 -39 -12 -41 -51 -41 l-40 0 8 58 c25 179 -19
342 -125 455 -25 26 -25 27 -6 42 10 8 31 15 46 15 15 0 29 4 32 9 5 8 67 12
401 27 229 10 482 53 590 100 17 7 31 13 33 14 2 0 -9 -23 -25 -51z m-3320
-110 c12 -7 24 -13 26 -15 2 -1 -15 -24 -37 -51 -95 -115 -126 -242 -109 -458
2 -29 0 -30 -38 -30 -49 0 -53 11 -54 148 -1 144 38 253 136 375 37 45 43 48
76 31z m-551 -234 c-26 -33 -36 -93 -23 -139 5 -20 5 -34 0 -31 -17 11 -29 80
-19 114 11 41 37 81 51 81 6 0 1 -11 -9 -25z m877 -150 c0 -5 -4 -3 -9 5 -5 8
-9 22 -9 30 0 16 17 -16 18 -35z m1612 2 c-7 -19 -51 -77 -100 -129 -102 -110
-127 -161 -117 -235 5 -37 4 -45 -6 -35 -19 19 -12 114 10 158 11 22 52 70 91
109 39 38 83 93 98 122 31 58 41 62 24 10z m-1406 -246 c18 -36 23 -118 9
-144 -6 -10 -9 8 -9 51 -1 85 -14 110 -115 213 -44 44 -80 84 -80 89 0 15 178
-176 195 -209z m256 67 c12 -10 17 -18 11 -18 -19 0 -62 61 -62 88 1 23 3 22
15 -13 8 -22 24 -48 36 -57z m729 66 c0 -31 -59 -94 -86 -94 -13 1 -8 6 13 15
31 13 63 59 63 90 0 8 2 15 5 15 3 0 5 -12 5 -26z m-133 -90 c-3 -3 -12 -4
-19 -1 -8 3 -5 6 6 6 11 1 17 -2 13 -5z m470 -1550 c-3 -3 -12 -4 -19 -1 -8 3
-5 6 6 6 11 1 17 -2 13 -5z m65 -121 c-7 -38 -57 -73 -105 -73 -43 0 -107 30
-107 50 0 6 17 -1 37 -15 41 -27 69 -31 107 -14 26 12 55 62 57 96 0 17 1 17
8 -1 4 -11 6 -30 3 -43z m-1447 -278 c-8 -22 -14 -49 -15 -60 0 -11 -5 -27
-11 -35 -14 -21 -1 65 17 109 19 47 27 35 9 -14z m1330 -15 l5 -35 -14 35
c-18 42 -20 58 -6 44 5 -5 12 -25 15 -44z m12 -62 c-3 -8 -6 -5 -6 6 -1 11 2
17 5 13 3 -3 4 -12 1 -19z m-1065 -565 c3 -121 10 -208 17 -223 11 -24 11 -24
7 7 -9 56 -19 278 -13 272 8 -7 47 -358 47 -422 0 -28 -3 -48 -6 -44 -3 3 -22
59 -41 124 -31 105 -36 135 -40 265 -5 146 0 218 16 218 5 0 11 -89 13 -197z
m787 22 c1 -137 -12 -215 -63 -380 -23 -73 -25 -77 -25 -40 -1 37 17 200 39
360 8 65 9 61 6 -50 -3 -81 -1 -109 5 -85 5 19 12 112 16 205 8 193 21 187 22
-10z m-514 -171 c3 -20 4 -82 0 -138 -12 -202 -37 -317 -76 -352 -20 -18 -21
-18 -39 4 -50 61 -69 253 -36 366 21 71 91 151 137 155 4 1 10 -15 14 -35z
m298 -5 c67 -55 100 -198 78 -339 -14 -87 -43 -160 -65 -160 -21 0 -53 64 -71
142 -15 66 -32 355 -22 381 8 21 36 12 80 -24z" />
      <path d="M5195 7911 c-16 -10 -57 -45 -91 -77 -63 -61 -44 -49 39 25 26 23 62
49 80 56 18 8 25 14 17 15 -8 0 -28 -8 -45 -19z" />
      <path d="M2697 8005 c31 -58 105 -79 141 -40 9 11 10 14 3 7 -8 -6 -32 -12
-52 -12 -29 0 -45 7 -70 32 -19 19 -28 24 -22 13z" />
      <path d="M3930 8000 c-6 -11 -23 -26 -38 -34 -16 -9 -21 -15 -11 -16 8 0 25
10 36 23 23 26 36 47 29 47 -3 0 -10 -9 -16 -20z" />
      <path d="M2250 7972 c0 -44 28 -92 95 -162 23 -25 48 -55 54 -68 7 -12 16 -20
21 -17 5 3 8 -2 6 -12 -2 -10 0 -38 4 -63 7 -43 8 -42 9 23 1 83 -10 108 -94
197 -37 40 -66 80 -70 98 -10 47 -25 49 -25 4z m40 -67 c14 -19 14 -19 -2 -6
-10 7 -18 18 -18 24 0 6 1 8 3 6 1 -2 9 -13 17 -24z m49 -52 c44 -47 81 -95
81 -107 0 -6 -7 1 -16 14 -10 14 -37 46 -63 73 -25 26 -41 47 -37 47 5 0 20
-12 35 -27z" />
      <path d="M4366 7954 c-10 -25 -35 -58 -56 -75 -21 -17 -52 -50 -69 -74 -35
-49 -43 -75 -8 -29 37 49 80 94 90 94 5 0 -11 -24 -35 -52 -70 -83 -68 -90 2
-15 67 70 110 136 110 168 0 35 -16 27 -34 -17z m-6 -55 c-12 -16 -25 -28 -28
-25 -5 6 36 56 45 56 3 0 -5 -14 -17 -31z" />
      <path d="M2994 7471 c-2 -2 -4 -38 -4 -80 1 -75 1 -76 17 -49 29 46 88 71 180
76 l83 5 1 -159 c0 -88 2 -192 4 -233 l3 -73 44 -29 43 -29 3 260 2 260 68 0
c94 0 134 -14 176 -60 l36 -40 0 75 c0 41 -3 75 -7 75 -57 3 -646 4 -649 1z" />
      <path d="M3189 7290 c-84 -44 -129 -141 -113 -247 14 -102 67 -167 217 -275
143 -102 190 -148 222 -220 24 -52 27 -70 23 -127 -11 -150 -100 -230 -244
-218 -94 7 -161 66 -210 185 l-24 57 0 -127 c0 -71 2 -128 5 -128 3 0 14 5 24
12 16 9 30 7 82 -17 130 -58 265 -43 357 40 70 63 103 133 104 221 1 173 -64
272 -273 415 -48 33 -109 79 -135 102 -66 58 -119 177 -79 177 8 0 15 -9 15
-20 0 -25 37 -105 56 -121 12 -10 14 -4 14 36 0 50 -24 113 -47 122 -21 8 -15
30 18 67 20 23 29 44 27 60 l-3 24 -36 -18z" />
      <path d="M3403 7262 c3 -15 17 -47 31 -71 l24 -44 7 39 c18 115 21 104 -26
104 -40 0 -41 -1 -36 -28z" />
      <path d="M2863 7226 c-58 -18 -105 -49 -148 -97 -128 -142 -120 -421 17 -544
68 -62 119 -80 228 -80 79 0 103 4 141 23 46 22 69 54 69 95 0 19 -4 17 -37
-15 -95 -92 -228 -92 -324 2 -51 49 -75 108 -85 210 -13 130 44 289 124 345
40 28 51 30 135 31 59 0 92 5 95 12 10 31 -135 43 -215 18z" />
      <path d="M3648 7235 c-4 -4 -1 -14 7 -22 11 -11 15 -41 15 -121 0 -98 4 -117
39 -222 l39 -115 1 223 1 222 46 0 c62 0 106 -43 123 -118 24 -115 -28 -212
-114 -212 -27 0 -41 -15 -25 -25 6 -4 38 -61 71 -128 32 -66 69 -131 81 -144
23 -25 81 -45 104 -36 19 7 18 11 -16 39 -16 14 -54 75 -87 140 l-58 116 25
16 c134 90 140 290 10 362 -38 21 -61 25 -150 28 -58 2 -108 1 -112 -3z" />
      <path d="M3547 7203 c-3 -10 -30 -90 -61 -178 -52 -153 -56 -185 -25 -185 4 0
22 45 40 100 18 56 36 97 40 93 6 -7 28 -72 65 -195 5 -16 -2 -18 -56 -18 -73
0 -81 -23 -9 -28 88 -5 81 3 140 -173 44 -133 51 -164 41 -180 -7 -10 -12 -21
-12 -24 0 -3 37 -5 82 -5 l82 0 -26 28 c-31 32 -91 192 -204 539 -44 134 -82
243 -85 243 -4 0 -9 -8 -12 -17z" />
      <path d="M2929 7134 c-6 -7 -16 -11 -22 -9 -28 11 -37 -10 -22 -50 11 -30 14
-98 15 -271 l0 -231 31 -7 c17 -3 35 -6 40 -6 5 0 9 47 9 104 l0 103 65 6 c62
6 125 29 125 45 0 25 -24 29 -64 11 -42 -19 -82 -24 -110 -13 -14 5 -16 27
-16 139 0 145 6 161 54 149 35 -9 34 13 -1 27 -20 7 -33 7 -45 0 -14 -9 -18
-8 -18 2 0 17 -27 18 -41 1z" />
      <path d="M2105 7040 c-3 -5 -4 -14 0 -20 3 -5 15 -84 25 -175 16 -134 26 -181
51 -240 16 -40 37 -79 45 -86 11 -9 9 -2 -4 22 -35 60 -59 166 -87 392 -6 39
8 49 24 18 6 -10 21 -72 35 -137 34 -165 58 -224 118 -289 54 -59 57 -85 11
-85 -40 0 -16 -17 32 -22 22 -3 32 -3 23 -1 -22 5 -22 10 -2 30 11 11 14 26 9
49 -5 28 -3 33 10 28 12 -5 12 1 -5 37 -11 24 -20 61 -20 83 0 38 0 38 33 32
17 -3 54 -20 80 -36 27 -17 53 -30 58 -30 19 0 -21 57 -58 83 -59 41 -98 85
-140 160 -52 91 -101 151 -144 176 -39 22 -84 27 -94 11z" />
      <path d="M4404 6996 c-29 -29 -74 -91 -100 -137 -27 -46 -69 -102 -93 -124
-89 -80 -124 -116 -119 -121 3 -3 35 11 70 31 66 36 102 43 114 24 8 -13 -15
-127 -27 -135 -5 -3 -9 -10 -9 -16 0 -6 6 -6 15 2 23 19 27 7 9 -28 -16 -34
-12 -52 12 -52 8 0 14 9 14 21 0 12 20 43 44 70 49 54 70 108 107 269 24 105
60 188 67 156 10 -45 -28 -261 -62 -361 -4 -11 2 -4 12 15 23 40 47 158 66
315 14 120 12 125 -38 125 -23 0 -42 -13 -82 -54z" />
      <path d="M3270 6605 c0 -135 -7 -171 -36 -188 -30 -18 -10 -23 86 -24 55 0
100 3 100 7 0 4 -10 15 -21 26 -19 17 -21 26 -16 79 4 33 12 75 19 93 11 29
10 34 -9 54 -18 17 -23 19 -27 7 -39 -122 -51 -151 -53 -138 -2 9 5 49 16 89
22 79 21 84 -28 113 l-31 18 0 -136z" />
      <path d="M2520 6496 c0 -2 14 -14 30 -26 17 -12 30 -19 30 -16 0 2 -13 14 -30
26 -16 12 -30 19 -30 16z" />
      <path d="M2892 6454 c-43 -30 -28 -44 48 -44 68 0 70 1 60 20 -11 20 -48 40
-73 40 -7 0 -23 -7 -35 -16z" />
      <path d="M2340 6370 c8 -5 21 -10 28 -10 58 -1 203 -117 218 -174 3 -14 10
-26 15 -26 12 0 -18 80 -39 103 -43 48 -126 92 -207 111 -22 5 -26 4 -15 -4z" />
      <path d="M4185 6339 c-85 -47 -128 -93 -139 -149 -6 -31 -4 -28 21 19 21 42
43 65 91 98 59 40 73 56 27 32z" />
      <path d="M2553 5765 c15 -14 36 -25 45 -24 14 0 13 2 -3 9 -12 4 -27 15 -34
24 -7 9 -19 16 -25 16 -6 0 2 -12 17 -25z" />
      <path d="M2930 4373 c0 -22 80 -116 126 -149 41 -29 112 -59 121 -51 1 2 -23
15 -55 30 -73 33 -127 79 -163 136 -16 25 -29 40 -29 34z" />
      <path d="M3671 4315 c-35 -48 -95 -94 -163 -125 -24 -10 -37 -19 -30 -19 27
-2 119 50 157 88 35 35 83 101 72 101 -2 0 -18 -20 -36 -45z" />
      <path d="M2142 8183 c-63 -63 -110 -159 -117 -238 l-5 -60 18 75 c23 96 51
149 112 212 64 66 57 76 -8 11z" />
      <path d="M592 8698 c27 -27 55 -48 61 -47 7 0 3 6 -7 12 -11 7 -38 28 -61 47
-34 28 -33 26 7 -12z" />
      <path d="M539 8658 c24 -28 79 -59 103 -57 7 0 -7 9 -32 20 -25 11 -56 30 -70
42 l-25 22 24 -27z" />
      <path d="M428 8626 c-17 -12 -17 -16 -1 -55 13 -32 21 -41 35 -38 10 3 18 0
18 -6 0 -6 2 -8 5 -6 11 12 -9 49 -27 49 -10 0 -16 5 -13 10 4 6 11 7 17 4 6
-4 8 -1 6 7 -3 8 -11 13 -17 12 -15 -4 -14 14 1 19 7 3 8 7 2 10 -5 4 -17 1
-26 -6z" />
      <path d="M455 8510 c-3 -5 -1 -10 4 -10 6 0 11 5 11 10 0 6 -2 10 -4 10 -3 0
-8 -4 -11 -10z" />
      <path d="M477 8495 c-14 -10 -15 -17 -6 -44 6 -17 15 -28 20 -25 5 3 6 -1 3
-9 -6 -17 34 -89 46 -82 5 3 11 1 15 -5 4 -6 10 -8 15 -5 5 3 11 -3 15 -14 6
-19 45 -60 45 -47 0 4 -11 22 -25 40 -13 17 -44 70 -68 118 -38 75 -46 84 -60
73z m16 -30 c-3 -9 -8 -14 -10 -11 -3 3 -2 9 2 15 9 16 15 13 8 -4z" />
      <path d="M570 8500 c-11 -8 -9 -9 10 -5 34 8 93 -18 108 -47 6 -13 23 -62 37
-111 14 -48 35 -107 46 -132 26 -56 95 -133 140 -159 39 -22 33 -15 -33 37
-61 49 -102 122 -134 242 -14 54 -36 113 -47 131 -30 46 -92 67 -127 44z" />
      <path d="M1620 8185 c-30 -9 -102 -41 -159 -71 -214 -113 -341 -135 -499 -88
-9 3 -3 -3 13 -13 24 -14 51 -18 140 -18 130 0 163 9 350 100 153 74 188 85
275 85 76 0 137 -24 181 -71 32 -35 38 -32 13 7 -9 14 -37 37 -62 51 -56 33
-168 41 -252 18z" />
      <path d="M1907 3983 c-15 -2 -32 -13 -37 -24 -9 -17 -7 -19 17 -19 18 1 34 9
46 25 10 14 14 24 10 24 -4 -1 -20 -4 -36 -6z" />
    </g>
  </g>

  <!-- Textos de marca perfectamente posicionados en la base -->
  <g id="brand-texts" fill="url(#gold-gradient)" filter="url(#subtle-shadow)">
    <!-- CRÁNEO NOBLE -->
    <text x="400" y="730" text-anchor="middle" 
          font-family="Georgia, serif" 
          font-size="44" font-weight="700" letter-spacing="14">CRÁNEO NOBLE</text>
    
    <!-- by ARCT -->
    <text x="400" y="790" text-anchor="middle" 
          font-family="Arial, sans-serif" 
          font-size="19" font-weight="300" letter-spacing="9" fill="#a09278">by ARCT</text>
          
    <!-- ARTE · RAÍZ · CARÁCTER · TRASCENDENCIA -->
    <text x="400" y="855" text-anchor="middle" 
          font-family="Arial, sans-serif" 
          font-size="11" font-weight="400" letter-spacing="7" fill="url(#gold-gradient)">ARTE • RAÍZ • CARÁCTER • TRASCENDENCIA</text>
  </g>
</svg>
