<?xml version="1.0" standalone="no"?>
<!DOCTYPE svg PUBLIC "-//W3C//DTD SVG 20010904//EN"
 "http://www.w3.org/TR/2001/REC-SVG-20010904/DTD/svg10.dtd">
<svg version="1.0" xmlns="http://www.w3.org/2000/svg"
 width="821.000000pt" height="1024.000000pt" viewBox="0 0 821.000000 1024.000000"
 preserveAspectRatio="xMidYMid meet">
<metadata>
Created by potrace 1.16, written by Peter Selinger 2001-2019
</metadata>
<g transform="translate(0.000000,1024.000000) scale(0.100000,-0.100000)"
fill="#000000" stroke="none">
<path d="M810 9755 l0 -325 -300 0 -300 0 0 -2745 0 -2745 1633 0 c1045 0
1627 4 1617 10 -9 6 -10 10 -3 10 6 0 15 -4 18 -10 4 -7 772 -10 2271 -10
l2264 0 0 2670 0 2670 -455 0 -455 0 0 400 0 400 -3145 0 -3145 0 0 -325z
m-326 -602 c2 -10 7 -34 11 -53 16 -86 99 -270 160 -356 56 -79 180 -194 274
-256 68 -44 71 -48 43 -48 -17 0 -39 -3 -49 -6 -15 -6 -16 -4 -5 7 19 21 15
26 -28 33 -32 5 -45 14 -64 44 -32 49 -65 83 -120 123 -26 18 -46 40 -46 49 0
9 -9 25 -20 35 -10 9 -24 33 -30 51 -6 19 -23 43 -38 55 -15 11 -26 24 -25 27
5 12 -25 105 -47 147 -11 21 -20 49 -20 62 0 12 -4 24 -8 27 -12 7 -14 76 -2
76 5 0 11 -8 14 -17z m5700 -15 c8 -33 7 -40 -4 -33 -5 3 -11 1 -11 -4 -2 -17
-4 -23 -27 -74 -12 -27 -25 -66 -28 -88 -4 -21 -11 -39 -16 -39 -4 0 -13 -12
-18 -27 -6 -16 -15 -37 -20 -48 -5 -11 -14 -36 -20 -57 -6 -20 -17 -39 -25
-42 -8 -3 -15 -16 -15 -29 0 -17 -11 -30 -40 -46 -22 -12 -40 -19 -40 -16 0 3
-10 -4 -22 -17 -31 -32 -12 -6 50 69 57 70 110 161 142 243 11 30 27 69 35 85
7 17 16 53 20 80 4 28 9 53 12 58 8 14 21 7 27 -15z m106 -436 c-6 -37 -18
-78 -26 -92 -9 -14 -13 -18 -10 -9 2 10 10 46 16 80 17 98 22 115 27 101 3 -7
0 -43 -7 -80z m-5879 -152 c95 -278 274 -487 554 -645 39 -22 75 -42 80 -44 6
-2 33 -14 61 -26 187 -84 582 -184 852 -216 82 -10 114 -10 152 0 59 15 82 4
110 -55 29 -59 24 -69 -14 -26 l-34 37 -144 1 c-111 0 -162 5 -228 22 -47 11
-123 28 -170 37 -178 33 -376 87 -439 119 -16 9 -40 17 -55 20 -14 3 -39 14
-55 25 -16 12 -43 24 -60 27 -17 4 -31 10 -31 14 0 4 -19 15 -42 26 -24 10
-49 24 -55 30 -7 7 -29 22 -50 35 -21 12 -42 27 -48 33 -5 6 -23 22 -40 35
-61 46 -146 133 -155 157 -5 13 -21 29 -35 34 -14 5 -25 17 -25 25 0 9 -11 31
-24 48 -13 18 -30 49 -37 70 -7 21 -21 46 -31 57 -10 11 -18 26 -18 35 0 9 -6
28 -14 44 -8 15 -16 41 -18 57 -2 16 -6 31 -9 34 -12 11 -44 157 -40 185 3 24
8 13 22 -50 10 -44 28 -109 40 -145z m69 126 c0 -31 -17 -6 -24 34 -7 35 -7
35 8 10 9 -14 15 -34 16 -44z m110 -32 c0 -2 -9 0 -20 6 -11 6 -20 13 -20 16
0 2 9 0 20 -6 11 -6 20 -13 20 -16z m-50 -14 c0 -5 -2 -10 -4 -10 -3 0 -8 5
-11 10 -3 6 -1 10 4 10 6 0 11 -4 11 -10z m5564 -9 c10 -16 -52 -73 -84 -77
-34 -4 -71 -21 -82 -38 -5 -8 -8 -7 -8 2 0 6 -7 12 -15 12 -31 0 -60 -118 -46
-182 5 -21 5 -38 1 -38 -5 0 -6 -8 -3 -18 6 -25 -40 -121 -83 -170 -38 -45
-115 -86 -181 -97 -49 -8 -181 4 -163 15 7 4 -5 7 -26 7 -22 0 -57 8 -79 18
-22 10 -49 20 -60 22 -11 2 -24 9 -30 15 -7 8 -6 9 4 3 10 -5 12 -4 7 4 -4 6
-11 9 -16 6 -5 -3 -31 5 -57 19 -128 66 -175 80 -263 80 -72 1 -94 -4 -145
-27 -46 -21 -54 -23 -35 -7 59 47 90 55 210 55 126 0 180 -13 330 -83 209 -96
392 -95 486 3 45 47 60 90 70 202 7 87 18 122 54 171 24 34 41 44 109 67 45
14 83 31 86 36 8 11 12 11 19 0z m-5521 -15 c12 -8 46 -19 76 -26 98 -23 151
-102 151 -224 0 -49 -18 -65 -20 -18 0 15 -2 43 -4 62 -2 19 -4 43 -5 54 -1
15 -7 17 -36 14 -19 -2 -35 -1 -35 3 0 3 -20 17 -45 30 -25 13 -45 31 -45 39
0 8 -15 22 -33 31 -17 9 -33 23 -35 32 -4 21 2 21 31 3z m5658 -99 c-6 -6 -11
-19 -11 -28 0 -10 -11 -39 -25 -65 -14 -26 -25 -53 -25 -61 0 -8 -9 -24 -21
-36 -11 -12 -31 -43 -44 -68 -13 -25 -31 -51 -39 -58 -9 -8 -16 -19 -16 -25 0
-6 -21 -31 -46 -56 -25 -25 -53 -53 -62 -62 -9 -10 -22 -18 -28 -18 -7 0 -32
-20 -56 -45 -24 -24 -48 -45 -54 -45 -6 0 -24 -12 -40 -27 -27 -26 -75 -56
-134 -84 -14 -6 -66 -31 -116 -55 -49 -23 -103 -46 -120 -50 -16 -4 -34 -11
-41 -16 -6 -5 -40 -16 -75 -24 -34 -8 -85 -21 -113 -29 -27 -8 -63 -17 -80
-19 -103 -19 -133 -25 -158 -35 -16 -6 -41 -11 -56 -11 -16 0 -48 -7 -72 -16
-30 -12 -85 -18 -174 -20 -205 -5 -215 -10 -215 -96 0 -31 -3 -39 -10 -28 -27
42 9 165 56 190 17 10 30 10 55 1 39 -14 127 -14 200 -1 30 5 97 16 149 25
247 42 561 132 709 204 205 99 388 247 511 411 41 55 116 201 141 275 13 39
14 39 17 11 2 -16 -1 -33 -7 -39z m-431 19 c0 -20 -40 -62 -68 -70 -13 -4 -19
-12 -16 -18 5 -8 1 -9 -10 -5 -10 4 -27 7 -38 7 -17 0 -18 3 -8 15 7 8 18 15
24 15 6 0 31 16 56 35 50 38 60 42 60 21z m-5149 -61 c13 -9 39 -68 39 -90 0
-8 -4 -15 -10 -15 -5 0 -10 9 -10 20 0 11 -4 20 -10 20 -5 0 -19 9 -30 20 -11
11 -28 20 -39 20 -10 0 -24 6 -30 14 -26 31 44 39 90 11z m5419 0 c8 -9 9 -15
2 -15 -6 0 -14 5 -17 10 -4 7 -12 7 -24 0 -18 -9 -31 -4 -31 12 0 14 57 9 70
-7z m-90 -24 c-6 -12 -15 -21 -21 -21 -10 0 -5 13 14 38 15 19 20 7 7 -17z
m-34 -59 c-3 -9 -8 -31 -10 -47 -3 -17 -9 -48 -15 -70 -7 -27 -7 -43 1 -52 14
-17 -29 -66 -50 -58 -7 2 -11 1 -8 -4 3 -4 -8 -21 -24 -36 -29 -28 -44 -30
-17 -3 22 22 66 111 77 158 13 53 41 130 47 130 2 0 2 -8 -1 -18z m-4756 -22
c90 -28 240 -60 315 -67 86 -7 119 -22 55 -24 -89 -3 -126 -2 -157 5 -17 4
-40 3 -50 -2 -12 -7 -25 -7 -36 -1 -9 6 -34 12 -54 15 -21 2 -46 7 -55 10 -11
3 -18 0 -18 -7 0 -18 -46 28 -70 69 -19 31 -19 34 -3 27 10 -4 43 -16 73 -25z
m1965 0 c99 -35 195 -37 300 -7 124 35 173 41 226 27 l44 -13 -60 -12 c-33 -8
-80 -22 -105 -33 -87 -39 -419 -45 -442 -8 -6 8 -8 8 -8 -1 0 -7 -21 -3 -60
13 -34 13 -81 27 -106 31 -51 7 -50 13 3 24 55 11 139 3 208 -21z m-2117 4
c21 -15 31 -71 15 -87 -7 -8 -39 34 -35 46 1 4 -7 2 -17 -5 -11 -7 -17 -16
-15 -20 3 -4 1 -8 -5 -8 -5 0 -17 -3 -27 -7 -11 -4 -15 -3 -11 4 5 7 0 9 -12
6 -12 -3 -17 -11 -14 -19 3 -8 -2 -17 -11 -20 -11 -4 -13 -11 -6 -24 5 -9 6
-20 3 -24 -3 -3 0 -6 8 -6 8 0 20 5 27 12 9 9 18 9 37 0 55 -25 122 -3 145 47
9 19 14 22 18 11 8 -23 31 -42 45 -37 6 2 35 -2 62 -10 83 -23 83 -23 55 -38
-24 -13 -45 -11 -36 4 3 4 -8 5 -25 3 -17 -3 -29 0 -29 7 0 6 -3 10 -7 9 -5
-1 -17 3 -29 9 -17 10 -27 8 -58 -15 -21 -14 -32 -28 -26 -30 9 -3 9 -7 -1
-13 -12 -8 -11 -11 1 -20 11 -8 0 -9 -42 -6 -32 3 -68 13 -80 21 -12 9 -19 16
-15 16 4 0 2 6 -5 14 -9 10 -17 11 -25 4 -21 -17 -55 50 -49 97 9 77 102 122
164 79z m4457 -14 c-19 -37 -57 -73 -64 -62 -3 5 -23 1 -45 -8 -24 -11 -33
-20 -25 -24 15 -6 -149 0 -266 11 -74 6 -68 21 10 22 53 1 311 55 355 74 50
22 52 21 35 -13z m200 15 c18 -9 37 -27 44 -41 15 -34 14 -86 -3 -110 -13 -17
-14 -15 -9 22 4 34 1 45 -21 69 l-27 29 -34 -18 c-18 -10 -38 -15 -44 -11 -6
3 -14 -1 -17 -10 -6 -13 -8 -14 -15 -3 -13 20 -11 33 12 62 24 30 64 34 114
11z m-25 -67 c0 -4 -4 -8 -9 -8 -6 0 -12 4 -15 8 -3 5 1 9 9 9 8 0 15 -4 15
-9z m-4863 -37 c19 -80 78 -146 157 -176 37 -14 64 -17 135 -12 91 6 150 23
311 90 134 57 200 70 299 63 85 -7 130 -20 166 -50 12 -10 1 -7 -25 6 -62 32
-189 31 -273 -1 -32 -13 -65 -20 -73 -17 -8 3 -13 2 -9 -3 6 -10 -134 -91
-156 -91 -11 0 -11 2 -2 8 8 5 -1 8 -21 8 -19 0 -33 -4 -30 -8 3 -4 -2 -5 -11
-2 -10 4 -26 -5 -46 -27 -29 -33 -29 -33 -127 -33 -84 -1 -104 2 -152 25 -61
28 -147 110 -157 149 -3 14 -9 30 -13 35 -13 17 -8 62 6 62 8 0 17 -12 21 -26z
m4742 -45 c36 -19 64 -20 93 -5 18 10 25 8 40 -10 10 -13 23 -20 30 -16 7 4 2
-3 -12 -14 -31 -26 -83 -41 -135 -40 -30 1 -34 3 -17 7 22 7 22 7 -8 32 -17
14 -44 37 -59 51 l-29 27 21 21 21 21 12 -30 c7 -16 26 -36 43 -44z m-2529 32
c60 -26 137 -103 171 -174 27 -55 33 -79 35 -147 3 -74 2 -77 -5 -27 -11 77
-39 159 -68 198 -38 51 -123 109 -187 127 -51 15 -71 16 -138 7 -91 -13 -116
-27 -147 -82 -26 -47 -36 -51 -26 -12 14 56 101 119 182 131 57 8 135 -1 183
-21z m2670 7 c0 -8 -4 -17 -10 -20 -6 -4 -10 5 -10 20 0 15 4 24 10 20 6 -3
10 -12 10 -20z m-3597 -4 c16 -6 15 -9 -9 -31 -15 -14 -24 -20 -20 -13 7 14
-54 29 -79 20 -8 -4 -17 -3 -19 2 -3 4 -25 6 -48 4 -28 -2 -57 4 -83 16 l-40
19 140 -5 c77 -3 148 -9 158 -12z m1762 -5 c89 -42 116 -77 114 -153 -1 -46
-2 -46 -8 -13 -16 76 -64 125 -147 147 -207 54 -409 -117 -415 -352 l-1 -40
-9 35 c-18 68 14 186 70 262 36 49 109 106 158 124 64 22 180 18 238 -10z
m935 7 c-19 -8 -43 -15 -54 -15 -22 1 -48 -22 -38 -33 4 -4 -3 -2 -15 4 -17 8
-29 9 -43 1 -11 -6 -20 -8 -20 -4 0 3 -7 1 -15 -6 -9 -7 -13 -20 -10 -29 3 -9
-12 4 -34 29 -22 25 -40 48 -41 52 0 4 53 9 118 11 64 1 133 3 152 4 l35 2
-35 -16z m-272 -63 l26 -45 -44 39 c-53 47 -60 59 -30 54 14 -2 32 -20 48 -48z
m910 14 c-7 -8 -26 -15 -41 -16 -15 -1 -27 -6 -27 -10 0 -4 -7 -5 -15 -2 -8 4
-13 10 -10 14 3 5 -3 11 -12 13 -13 3 -11 5 7 7 35 2 61 8 66 13 3 3 14 2 25
0 17 -5 18 -8 7 -19z m-4073 6 c-3 -5 -11 -10 -16 -10 -6 0 -7 5 -4 10 3 6 11
10 16 10 6 0 7 -4 4 -10z m1158 -48 c-33 -42 -40 -47 -52 -34 -14 14 -87 12
-178 -4 -28 -5 -83 -55 -83 -76 0 -6 -13 -37 -30 -70 -21 -42 -30 -73 -30
-108 0 -28 -4 -50 -10 -50 -13 0 -13 21 4 108 17 89 56 171 100 210 30 26 41
29 132 35 54 3 117 13 139 21 22 8 41 15 43 15 2 1 -14 -21 -35 -47z m464 28
c112 -39 201 -163 211 -291 2 -37 1 -69 -4 -72 -5 -2 -10 24 -11 59 -2 35 -9
79 -16 97 -20 45 -96 139 -118 144 -11 3 -19 9 -19 13 0 10 -52 19 -146 26
-59 5 -78 2 -113 -14 -52 -26 -49 -6 3 21 77 40 134 45 213 17z m879 -10 c52
-27 87 -71 68 -90 -7 -7 -21 -1 -46 23 -46 44 -135 67 -174 46 -15 -7 -32 -14
-38 -14 -31 -3 -89 -40 -134 -86 -42 -42 -53 -61 -58 -98 -4 -25 -14 -51 -22
-57 -11 -8 -14 -22 -9 -55 4 -34 3 -40 -5 -25 -33 59 33 247 112 314 86 73
208 90 306 42z m610 8 c24 -26 89 -129 89 -139 0 -4 3 -11 8 -15 11 -11 9 -44
-3 -44 -5 0 -10 6 -10 13 0 24 -50 119 -86 163 -37 44 -35 63 2 22z m-276 -9
c30 -5 81 -9 112 -9 49 0 60 -4 85 -29 40 -40 90 -148 96 -206 3 -27 3 -42 1
-32 -3 9 -9 15 -13 12 -8 -5 -25 45 -36 108 -4 20 -11 37 -15 37 -4 0 -24 14
-45 30 -36 29 -41 30 -126 28 -71 -2 -89 -6 -89 -18 -1 -8 -8 -1 -17 15 -8 17
-27 43 -42 59 l-26 29 30 -8 c17 -3 55 -11 85 -16z m-3417 -23 c12 -17 27 -37
34 -44 14 -14 16 -22 8 -22 -9 0 -95 82 -95 90 0 18 33 3 53 -24z m924 7 c-3
-5 17 -8 44 -8 27 0 49 4 49 8 0 13 41 -3 82 -32 59 -41 53 -54 -9 -21 -48 26
-67 30 -130 30 -41 0 -72 4 -69 9 9 14 -70 -7 -106 -29 -18 -11 -33 -25 -33
-32 0 -7 -5 -13 -12 -13 -6 0 -15 -3 -19 -7 -4 -5 -17 -8 -29 -8 -12 0 -35
-12 -51 -27 -38 -36 -64 -49 -91 -45 -14 2 -20 8 -16 18 3 8 10 14 15 14 14 0
79 30 111 53 15 10 35 16 43 13 8 -3 13 -2 10 2 -4 7 99 61 144 76 25 7 72 7
67 -1z m2389 -83 c22 -42 26 -162 5 -198 -17 -32 -23 -23 -9 15 9 24 9 38 0
58 l-12 26 -57 -59 c-75 -74 -99 -87 -160 -78 -59 8 -109 54 -116 106 -2 19
-2 27 0 18 2 -10 18 -31 34 -48 27 -26 38 -30 87 -30 70 0 122 31 153 91 22
44 29 116 16 163 l-8 29 24 -29 c13 -16 33 -45 43 -64z m1067 12 c76 -40 146
-72 155 -72 11 0 7 -5 -11 -15 -20 -10 -35 -12 -52 -5 -14 5 -25 7 -25 4 0 -4
-7 -1 -15 6 -9 7 -14 19 -11 26 3 7 0 16 -6 20 -7 4 -8 3 -4 -4 10 -16 8 -16
-75 19 -41 16 -88 32 -106 35 -18 2 -36 4 -40 5 -20 3 -34 -2 -28 -11 4 -6 -6
-10 -22 -9 -15 0 -22 3 -15 6 6 2 12 8 12 12 0 9 -63 7 -79 -3 -6 -4 -15 -4
-21 -1 -5 3 -10 0 -10 -8 0 -8 -10 -17 -22 -20 -13 -2 -32 -8 -42 -12 -14 -6
-17 -5 -12 3 4 7 2 12 -3 12 -6 0 -11 -7 -11 -15 0 -8 -5 -15 -10 -15 -14 0
12 50 37 72 41 38 85 48 183 45 l95 -3 138 -72z m-2558 58 c-13 -21 -6 -130
11 -166 42 -89 166 -125 233 -68 42 35 42 7 0 -35 -34 -34 -73 -40 -141 -21
-39 11 -101 57 -94 69 7 11 -37 75 -52 79 -8 1 -11 -2 -7 -8 3 -5 2 -10 -4
-10 -5 0 -12 -8 -14 -17 -3 -10 -5 -2 -6 18 -1 47 16 96 48 136 25 32 39 44
26 23z m-515 -10 c0 -5 -5 -10 -11 -10 -5 0 -7 5 -4 10 3 6 8 10 11 10 2 0 4
-4 4 -10z m-20 -40 c-6 -11 -12 -20 -14 -20 -2 0 -2 9 1 20 3 11 9 20 15 20 5
0 4 -9 -2 -20z m46 -2 c-2 -7 -17 -50 -31 -95 -23 -71 -26 -95 -23 -182 2 -65
-1 -100 -7 -98 -12 4 -13 182 -2 251 10 56 44 136 59 136 5 0 7 -6 4 -12z
m2504 -62 c0 -12 -5 -7 -19 24 -11 24 -11 24 3 6 9 -11 16 -24 16 -30z m-2570
24 c0 -5 -5 -10 -11 -10 -5 0 -7 5 -4 10 3 6 8 10 11 10 2 0 4 -4 4 -10z
m1288 -65 c-12 -73 -5 -133 24 -205 50 -126 111 -181 209 -188 73 -5 110 9
154 60 32 38 34 39 44 19 9 -16 6 -27 -15 -58 -56 -84 -162 -107 -262 -57 -61
30 -102 75 -134 144 -12 27 -28 50 -35 50 -7 0 -19 -15 -26 -32 -15 -35 -127
-157 -146 -159 -17 -2 -23 -3 -74 -18 -42 -12 -52 -12 -91 3 -25 10 -60 34
-79 55 -30 34 -34 43 -30 82 5 48 13 66 13 29 0 -30 43 -86 80 -105 16 -8 53
-15 83 -15 144 0 248 138 251 331 1 65 4 85 14 82 7 -3 12 3 12 14 0 18 10 37
16 31 1 -2 -2 -30 -8 -63z m-654 5 c-7 -6 -24 22 -23 40 0 9 6 5 14 -10 7 -14
11 -27 9 -30z m2024 -5 c0 -25 -4 -43 -9 -39 -16 9 -10 84 7 84 1 0 2 -20 2
-45z m274 1 c12 -14 17 -37 16 -71 0 -28 -3 -38 -5 -22 -3 19 -10 27 -24 27
-10 0 -19 7 -19 15 0 8 -7 15 -15 15 -8 0 -15 -4 -15 -9 0 -5 -11 -4 -25 2
-35 17 -33 52 3 65 34 13 62 6 84 -22z m-3218 8 c33 -32 13 -51 -25 -24 -23
17 -32 18 -53 9 -14 -7 -26 -18 -26 -25 0 -7 -4 -16 -10 -19 -16 -10 -12 7 10
43 16 26 26 32 54 32 19 0 42 -7 50 -16z m2445 -93 c1 -41 4 -78 7 -83 3 -4
-2 -11 -10 -14 -19 -7 -21 -34 -3 -35 6 0 1 -5 -12 -10 -13 -5 -21 -15 -18
-23 3 -7 1 -18 -5 -24 -27 -27 -9 -196 19 -179 10 6 34 -19 26 -27 -4 -3 1
-14 9 -23 8 -10 18 -26 21 -35 7 -19 37 -25 37 -8 0 25 18 5 47 -52 17 -35 61
-101 98 -148 83 -103 125 -168 125 -193 0 -15 -7 -11 -33 17 -32 33 -36 35
-65 24 -23 -9 -33 -21 -38 -43 -3 -16 -21 -48 -38 -70 -18 -22 -47 -63 -65
-92 -18 -29 -37 -51 -43 -50 -6 1 -13 -4 -16 -12 -3 -8 0 -11 7 -7 6 4 11 2
11 -3 0 -6 -4 -11 -9 -11 -19 0 -22 21 -11 56 10 28 16 35 32 31 14 -4 17 -2
9 7 -11 14 2 41 20 41 7 0 13 10 14 23 1 12 18 39 37 60 96 100 89 169 -36
317 -28 33 -60 69 -72 80 -45 42 -105 144 -116 198 -12 56 -11 64 37 237 8 30
15 79 16 110 1 80 15 33 18 -59z m439 -36 c4 -123 -5 -178 -32 -183 -16 -3
-16 -1 -4 20 9 16 13 65 13 165 0 169 17 168 23 -2z m-3590 108 c29 -3 51 -10
49 -16 -4 -12 -68 -20 -76 -10 -3 5 -22 16 -41 26 -26 13 -28 16 -10 12 14 -3
49 -8 78 -12z m217 7 c-11 -5 -27 -9 -35 -9 -9 0 -8 4 5 9 11 5 27 9 35 9 9 0
8 -4 -5 -9z m4091 1 c-3 -5 -15 -7 -26 -4 -28 7 -25 13 6 13 14 0 23 -4 20 -9z
m304 1 c0 -5 -23 -21 -51 -37 -29 -15 -49 -23 -45 -16 5 8 -8 11 -43 11 -29 0
-51 5 -51 11 0 5 5 7 10 4 6 -3 10 -1 10 4 0 7 24 11 58 12 46 1 80 6 110 18
1 1 2 -3 2 -7z m-200 -29 c0 -11 -6 -14 -22 -9 -13 3 -27 6 -32 6 -5 0 -3 6 3
14 14 17 51 9 51 -11z m-3463 -90 c-3 -10 -5 -2 -5 17 0 19 2 27 5 18 2 -10 2
-26 0 -35z m2841 21 c13 -7 19 -14 14 -17 -15 -10 -47 3 -60 23 -10 17 -9 18
6 13 9 -4 27 -12 40 -19z m473 11 c39 -21 29 -34 -20 -28 -32 4 -43 1 -57 -16
-20 -23 -44 -28 -44 -9 0 6 -6 4 -13 -6 -7 -9 -17 -17 -22 -16 -22 5 -35 -1
-35 -15 0 -8 -6 -15 -12 -15 -10 0 -9 -3 1 -9 15 -10 7 -16 -34 -25 -27 -5
-22 1 43 63 47 44 87 73 110 79 51 14 50 14 83 -3z m-3896 -10 c0 -5 -23 -11
-52 -12 -28 -1 -62 -7 -75 -13 -20 -10 -19 -8 6 15 23 22 36 25 75 23 25 -2
46 -7 46 -13z m2972 -21 c-2 -20 -11 -41 -20 -46 -10 -5 -24 -23 -33 -39 -9
-18 -21 -29 -29 -26 -7 3 -15 -3 -18 -14 -3 -10 -1 -19 5 -19 5 0 6 -5 3 -10
-4 -6 -14 -9 -23 -8 -13 2 -16 -4 -14 -31 3 -23 0 -31 -8 -26 -6 4 -18 1 -27
-7 -15 -12 -15 -9 -9 27 8 43 35 83 106 158 25 27 49 55 53 63 13 23 18 16 14
-22z m680 4 c-3 -7 -5 -2 -5 12 0 14 2 19 5 13 2 -7 2 -19 0 -25z m-468 -30
c0 -60 -20 -158 -31 -158 -6 0 -7 10 -4 23 4 12 10 57 13 100 6 82 22 106 22
35z m-3061 -46 c24 -24 36 -42 27 -38 -9 3 -21 6 -26 6 -6 0 -7 5 -4 10 3 6
-1 13 -9 16 -8 3 -18 14 -21 25 -4 11 -9 18 -13 15 -4 -2 -16 6 -27 17 l-20
20 25 -13 c14 -7 44 -33 68 -58z m466 -92 c-12 -30 -24 32 -17 84 l7 51 8 -60
c4 -33 5 -67 2 -75z m2466 94 c0 -8 -5 -12 -10 -9 -6 4 -8 11 -5 16 9 14 15
11 15 -7z m-2100 -46 c0 -15 -49 26 -50 41 0 10 8 7 25 -9 14 -13 25 -27 25
-32z m116 -67 c3 -73 2 -79 -5 -36 -15 86 -20 160 -8 140 5 -10 11 -56 13
-104z m2226 18 c5 -3 -2 -9 -17 -11 -21 -4 -25 -2 -20 11 4 9 10 34 13 56 l7
40 3 -45 c2 -24 8 -48 14 -51z m-1682 36 c6 3 10 2 10 -3 0 -8 -22 -22 -35
-22 -3 0 -9 9 -15 21 -11 19 -10 20 9 9 12 -6 26 -8 31 -5z m1377 9 c-3 -3
-12 -4 -19 -1 -8 3 -5 6 6 6 11 1 17 -2 13 -5z m64 -13 c6 9 9 10 9 2 0 -7
-12 -20 -26 -30 -93 -64 -132 -120 -135 -194 -1 -19 -3 -18 -9 8 -10 43 -3
100 16 133 20 33 74 70 102 70 14 0 22 7 23 18 1 15 2 14 6 -2 4 -15 7 -16 14
-5z m-2084 -23 c-3 -8 -6 -5 -6 6 -1 11 2 17 5 13 3 -3 4 -12 1 -19z m279
-114 c13 -22 24 -52 24 -65 0 -23 -1 -22 -19 8 -11 17 -28 36 -38 41 -10 6
-15 13 -12 17 7 6 -41 65 -53 65 -5 0 -8 -7 -8 -17 0 -30 -7 -9 -15 42 l-7 50
52 -50 c28 -27 62 -68 76 -91z m1406 79 c-3 -43 2 -73 17 -115 24 -63 46 -93
158 -215 93 -101 123 -148 122 -188 0 -17 -3 -23 -6 -15 -4 8 -15 23 -25 32
-11 9 -21 24 -22 32 -3 24 -166 178 -182 172 -8 -3 -19 -17 -26 -31 -15 -33
-86 -67 -125 -59 -40 8 -104 54 -130 93 -26 39 -29 84 -8 121 l14 25 1 -29 c0
-16 9 -49 21 -72 46 -96 182 -104 219 -14 15 35 -3 78 -38 96 -13 6 -20 13
-15 15 5 2 7 23 5 47 -4 39 -6 42 -32 40 -16 -1 -26 -6 -23 -11 3 -5 0 -13 -7
-17 -31 -19 -45 -115 -21 -144 11 -13 11 -16 -2 -16 -27 0 -41 30 -39 82 1 27
9 62 17 78 12 23 121 150 129 150 1 0 0 -26 -2 -57z m-2122 14 c0 -5 -4 -5
-10 -2 -5 3 -10 14 -10 23 0 15 2 15 10 2 5 -8 10 -19 10 -23z m600 -122 c-5
-6 -12 -27 -15 -46 -3 -19 -8 -49 -11 -67 -12 -62 29 -102 102 -102 64 0 104
35 128 110 l15 45 0 -48 c1 -78 -49 -145 -116 -154 -48 -6 -113 19 -120 47 -3
11 -9 20 -14 20 -5 0 -9 6 -9 14 0 8 -10 18 -22 22 -18 5 -27 1 -43 -21 -11
-15 -46 -55 -77 -89 -32 -33 -58 -64 -58 -69 0 -4 -4 -6 -8 -3 -9 5 -13 -1
-46 -74 -13 -30 -16 -31 -16 -12 0 44 32 93 146 219 106 119 154 189 154 230
0 15 2 16 10 3 5 -8 5 -19 0 -25z m-234 -13 c-4 -3 -11 0 -16 8 -15 24 -11 33
6 15 9 -9 13 -19 10 -23z m145 -25 c-10 -9 -11 -8 -5 6 3 10 9 15 12 12 3 -3
0 -11 -7 -18z m-154 -39 c-3 -7 -5 -2 -5 12 0 14 2 19 5 13 2 -7 2 -19 0 -25z
m131 2 c-7 -10 -14 -17 -17 -15 -4 4 18 35 25 35 2 0 -1 -9 -8 -20z m1588 -68
c-10 -11 -16 -12 -16 -4 0 7 5 12 10 12 6 0 10 8 11 18 0 11 2 13 6 4 3 -8 -2
-21 -11 -30z m-766 -249 l0 -228 47 -32 c25 -18 50 -30 55 -27 4 3 6 120 4
260 l-4 254 74 0 c92 0 132 -16 174 -69 18 -23 36 -39 39 -35 3 3 4 22 3 42
-2 32 -1 34 8 14 10 -23 10 -91 0 -93 -26 -7 -55 -2 -55 9 0 17 -45 51 -67 52
-9 0 -18 4 -20 9 -3 9 -41 14 -88 12 -20 -1 -22 -3 -10 -11 8 -5 12 -10 8 -11
-8 -1 -19 -4 -35 -8 -5 -2 1 -6 12 -11 19 -8 19 -9 -2 -9 -30 -1 -30 -33 -3
-81 11 -19 25 -47 31 -62 14 -37 29 -36 29 1 0 38 13 46 35 21 16 -18 15 -24
-24 -142 -23 -68 -45 -135 -50 -150 -7 -21 -5 -30 9 -43 32 -29 34 -25 87 159
3 10 9 14 13 10 6 -7 60 -173 60 -185 0 -2 -24 -4 -54 -4 -61 0 -75 -7 -56
-30 8 -10 31 -15 70 -15 l57 0 37 -103 c48 -136 67 -216 55 -239 -18 -34 -10
-38 80 -38 84 0 89 -1 84 -20 -8 -29 -64 -43 -142 -36 l-66 6 -35 -73 c-33
-68 -52 -93 -114 -145 -55 -46 -221 -60 -321 -27 -22 8 -62 19 -89 25 -27 6
-55 19 -62 28 -9 11 -13 50 -14 112 l0 95 -79 -3 c-71 -4 -80 -2 -90 16 -9 17
-6 20 27 26 74 12 138 4 126 -15 -3 -5 -1 -9 4 -9 5 0 14 10 20 23 8 17 11 -5
11 -100 1 -126 4 -134 41 -111 16 10 27 9 64 -9 95 -47 215 -52 303 -13 75 33
111 68 148 144 31 64 35 81 39 176 3 80 0 110 -10 125 -13 18 -14 18 -14 0 0
-24 -6 -17 -25 29 -9 21 -12 35 -6 32 5 -3 4 5 -2 18 -7 13 -15 22 -20 19 -4
-2 -31 17 -60 44 -29 26 -92 74 -139 105 -112 76 -175 132 -198 179 -11 21
-20 42 -20 46 1 4 10 -10 22 -32 43 -83 68 -92 68 -24 0 47 -20 99 -49 128
l-21 21 36 40 c32 35 36 44 30 77 -3 21 -7 44 -8 52 -1 11 -14 12 -62 7 -33
-3 -63 -11 -66 -16 -5 -7 -90 -39 -108 -40 -1 0 8 16 20 35 36 54 82 73 186
74 l72 1 0 -227z m-936 185 c-10 -12 -27 -31 -38 -43 -33 -37 -64 -92 -80
-141 -8 -27 -15 -41 -15 -31 -1 28 -17 20 -57 -33 -21 -27 -40 -47 -42 -45 -6
6 67 114 138 205 27 35 50 67 50 72 0 4 12 13 28 21 37 20 38 20 16 -5z m1329
-288 c4 -96 10 -132 39 -219 40 -120 58 -139 58 -60 l0 52 20 -25 c11 -14 42
-73 70 -131 60 -126 100 -167 161 -167 46 0 75 -20 56 -39 -13 -13 -77 -15
-109 -2 -13 6 -44 29 -69 53 -26 24 -56 48 -67 55 -19 11 -20 10 -16 -20 l4
-32 -17 30 c-26 46 -194 556 -187 567 4 6 2 13 -3 17 -6 3 -13 16 -17 28 -6
18 -4 22 9 17 11 -5 18 0 22 15 l5 21 18 -23 c14 -17 19 -48 23 -137z m-618
106 c27 -11 32 -19 28 -35 -6 -25 -12 -26 -49 -6 -35 18 -76 19 -107 3 -12 -6
-29 -14 -37 -18 -8 -4 -14 -15 -14 -24 1 -10 -3 -15 -9 -13 -12 4 -37 -16 -37
-28 0 -4 -14 -25 -31 -46 -35 -44 -49 -117 -43 -224 2 -43 1 -53 -5 -35 -23
65 -6 215 34 305 46 104 173 161 270 121z m818 -14 c11 -9 26 -30 34 -47 25
-48 20 -195 -6 -195 -6 0 -6 13 -1 31 6 20 6 39 0 50 -6 10 -10 29 -10 42 0
19 -8 28 -29 35 -15 5 -34 6 -41 2 -21 -13 -31 -138 -15 -177 14 -34 6 -49
-20 -39 -12 4 -15 35 -15 167 l0 162 42 -7 c23 -4 51 -15 61 -24z m170 -157
c10 -82 9 -88 -10 -104 -11 -9 -30 -38 -42 -65 -12 -26 -25 -45 -28 -42 -3 3
-12 1 -19 -5 -11 -9 -9 -20 11 -57 14 -26 25 -54 25 -62 -1 -16 -79 127 -79
145 -1 6 14 20 33 32 21 13 44 43 61 77 22 46 26 65 23 120 -4 92 12 65 25
-39z m-979 69 c9 -8 16 -29 16 -47 0 -87 89 -190 255 -298 74 -48 153 -129
181 -185 24 -49 26 -63 22 -133 -3 -56 -10 -88 -25 -111 l-20 -32 3 42 c1 24
8 46 14 50 20 13 -31 170 -56 170 -12 0 -34 -57 -34 -89 0 -8 -3 -11 -6 -8
-14 14 -13 85 2 136 14 49 14 55 -2 72 -25 27 -40 23 -52 -13 -9 -31 -10 -30
-5 13 5 44 4 47 -30 67 -19 12 -39 22 -46 22 -7 0 -11 -32 -12 -97 -1 -79 -3
-90 -10 -58 -4 22 -8 59 -8 83 -2 82 -26 97 -111 67 -23 -8 -53 -15 -66 -15
-44 0 -64 -33 -64 -104 0 -41 -4 -66 -12 -68 -22 -8 -112 11 -127 27 -10 10
-11 15 -3 15 9 0 12 38 12 148 0 81 4 161 9 177 7 21 10 -25 10 -156 1 -185 1
-187 24 -193 12 -3 34 -6 50 -6 l27 0 0 104 0 104 50 0 c50 1 140 33 140 50 0
23 -31 36 -60 25 -15 -6 -33 -7 -40 -3 -8 5 -7 9 5 14 14 5 15 9 5 21 -7 8
-10 15 -7 15 3 0 -3 19 -13 43 -11 23 -20 57 -20 75 0 17 -4 33 -10 33 -5 1
-16 2 -22 3 -7 1 -16 -5 -20 -14 -9 -19 -11 32 -2 54 8 20 38 21 58 0z m-177
-26 c-3 -8 -6 -5 -6 6 -1 11 2 17 5 13 3 -3 4 -12 1 -19z m13 -59 c0 -22 -4
-38 -9 -35 -4 3 -7 16 -6 28 1 13 3 29 4 36 3 29 11 9 11 -29z m1765 -66 c-10
-136 -19 -210 -27 -220 -6 -7 -11 -27 -13 -45 -8 -80 -29 -166 -52 -212 -14
-28 -25 -53 -25 -56 3 -17 -12 -50 -24 -50 -7 0 -19 -12 -26 -27 -7 -14 -29
-35 -48 -46 -19 -10 -36 -23 -38 -28 -2 -5 -12 -9 -23 -9 -11 0 -22 -7 -25
-15 -4 -8 -12 -15 -19 -15 -29 0 -83 -106 -87 -172 -1 -18 -5 -40 -10 -49 -14
-30 -18 -92 -18 -285 0 -151 -3 -197 -15 -220 -8 -16 -15 -34 -15 -40 0 -7
-14 -27 -32 -45 -33 -35 -58 -74 -58 -91 0 -5 -11 -21 -25 -36 -14 -15 -25
-31 -25 -37 0 -6 -11 -26 -24 -45 -21 -32 -33 -71 -39 -127 -1 -12 -5 -25 -9
-29 -5 -4 -8 -18 -8 -30 0 -13 -4 -25 -9 -29 -6 -3 -8 -15 -6 -27 3 -12 1 -26
-3 -32 -12 -16 -30 -84 -38 -143 -4 -35 -11 -53 -20 -53 -16 0 -19 -17 -4 -22
7 -2 5 -19 -5 -48 -20 -57 -23 -80 -30 -218 -7 -150 -41 -264 -85 -282 -16 -7
-32 -21 -35 -31 -4 -10 -19 -26 -36 -36 -16 -9 -29 -22 -29 -27 0 -5 -3 -6 -6
-3 -4 3 -16 1 -28 -6 -11 -6 -32 -13 -45 -14 -13 -1 -27 -7 -31 -12 -3 -6 -18
-12 -33 -13 -15 -1 -27 -6 -27 -11 0 -12 -71 -1 -110 19 -19 9 -46 29 -58 43
-21 22 -23 23 -20 6 2 -13 -3 -20 -17 -23 -11 -2 -25 -10 -31 -17 -26 -34
-191 -21 -234 19 -14 12 -38 28 -55 36 -32 15 -106 68 -117 84 -4 6 -5 13 -2
17 2 4 -3 13 -12 20 -19 15 -41 60 -38 77 1 6 2 26 3 42 2 46 16 36 31 -22 31
-124 241 -257 366 -233 75 14 98 64 72 158 -10 40 -9 48 13 88 13 24 28 43 33
44 6 0 20 -20 33 -45 22 -44 22 -47 7 -105 -19 -76 -9 -110 41 -130 47 -20 80
-19 155 6 107 35 182 90 228 168 22 38 26 59 33 180 5 95 17 174 37 261 17 69
39 179 51 245 31 185 105 360 196 467 17 21 45 63 61 95 29 57 29 60 31 248 3
210 13 301 41 387 27 81 60 120 160 186 100 67 141 118 172 220 23 72 69 365
71 447 1 49 1 50 9 13 4 -21 6 -50 5 -65z m-2559 25 c0 -38 5 -63 12 -66 14
-4 17 -82 3 -82 -11 0 -31 110 -31 168 0 23 3 42 8 42 4 0 8 -28 8 -62z m2454
-78 c-29 -208 -57 -347 -75 -372 -20 -29 -11 75 14 162 12 41 29 129 37 195 8
66 18 129 22 140 13 39 15 -36 2 -125z m-1533 -33 c7 2 10 -4 7 -12 -4 -8 -12
-15 -20 -15 -11 0 -14 19 -12 93 l2 92 5 -80 c4 -55 10 -79 18 -78z m1253 123
c0 -5 -5 -10 -11 -10 -5 0 -7 5 -4 10 3 6 8 10 11 10 2 0 4 -4 4 -10z m-2261
-84 c2 -45 -6 -27 -12 29 -4 34 -3 42 3 25 4 -14 8 -38 9 -54z m165 -19 c4
-36 3 -48 -7 -45 -6 3 -14 28 -17 57 -9 87 12 76 24 -12z m2062 36 c-8 -15
-15 -25 -16 -21 0 12 23 58 27 54 3 -2 -2 -17 -11 -33z m259 -20 c-12 -106
-16 -128 -27 -177 -14 -64 -71 -187 -97 -210 -26 -23 -27 -41 -3 -31 12 4 14
3 7 -4 -6 -6 -25 -14 -43 -17 -28 -6 -32 -4 -32 15 0 12 17 38 40 60 22 21 40
34 40 29 0 -5 5 -6 10 -3 6 4 8 15 5 25 -3 10 1 35 9 55 9 20 25 76 36 123 28
119 49 192 56 192 4 0 3 -26 -1 -57z m-648 1 c-3 -3 -12 -4 -19 -1 -8 3 -5 6
6 6 11 1 17 -2 13 -5z m-1813 -156 c7 -49 10 -88 6 -88 -8 0 -16 48 -24 145
-6 76 0 55 18 -57z m630 -65 c68 -135 246 -205 403 -158 28 8 62 24 77 36 l27
21 -18 -36 c-16 -32 -27 -39 -85 -57 -51 -16 -71 -18 -87 -10 -28 15 -86 14
-100 -3 -10 -12 -19 -10 -61 10 -28 13 -52 24 -54 24 -3 0 -26 21 -51 47 -62
63 -92 130 -99 223 l-6 75 14 -61 c8 -34 26 -84 40 -111z m-532 90 c5 -59 -4
-91 -13 -48 -10 46 -10 95 0 95 5 0 11 -21 13 -47z m50 6 c5 -3 23 -43 39 -89
16 -46 35 -93 44 -106 13 -21 13 -23 -4 -21 -10 0 -17 6 -14 13 2 7 0 15 -6
19 -6 3 -11 0 -11 -7 -1 -27 -38 72 -54 140 -14 62 -22 129 -9 77 3 -11 10
-23 15 -26z m2054 9 c-9 -12 -16 -17 -16 -10 0 14 23 42 29 37 1 -2 -4 -14
-13 -27z m-1461 -81 c8 -20 13 -37 10 -37 -6 0 -35 64 -35 76 0 13 9 -1 25
-39z m-610 -71 c8 -26 10 -44 5 -41 -6 4 -10 -2 -11 -12 0 -10 -5 -5 -10 12
-5 17 -7 35 -4 42 2 7 0 15 -5 18 -5 3 -7 12 -3 21 8 20 12 14 28 -40z m312
18 c44 -25 74 -56 34 -35 -11 7 -21 9 -21 6 0 -3 -15 2 -32 12 -18 9 -43 17
-55 16 -16 0 -23 5 -23 19 0 17 5 19 28 13 15 -3 46 -17 69 -31z m1788 27 c6
-11 -15 -101 -28 -116 -5 -6 -6 -4 -2 6 16 43 -108 48 -137 5 -5 -8 -8 -7 -8
1 0 7 -6 10 -14 7 -20 -7 -53 12 -67 38 -11 20 -9 19 20 -5 34 -28 51 -34 51
-17 0 12 139 90 162 90 9 0 19 -4 23 -9z m-2202 -91 c3 -11 1 -18 -4 -14 -5 3
-9 12 -9 20 0 20 7 17 13 -6z m74 -153 c22 -29 64 -68 105 -94 111 -72 145
-116 173 -221 23 -89 13 -100 -13 -15 -25 78 -75 140 -152 190 -52 33 -118 94
-136 126 -27 47 -44 90 -44 111 1 16 4 13 15 -13 8 -18 32 -56 52 -84z m188
81 c14 -12 25 -26 25 -31 0 -4 -7 -1 -16 7 -8 9 -19 16 -24 16 -4 0 -10 7 -14
15 -7 20 -1 19 29 -7z m1515 -9 c0 -11 -4 -18 -10 -14 -5 3 -7 12 -3 20 7 21
13 19 13 -6z m406 -15 c-3 -8 -1 -24 4 -35 15 -27 -5 -25 -24 3 -22 31 -20 48
5 48 15 0 19 -4 15 -16z m-989 -16 c-3 -8 -6 -5 -6 6 -1 11 2 17 5 13 3 -3 4
-12 1 -19z m1134 -50 c-21 -19 -39 -27 -51 -23 -53 17 -211 -53 -264 -116 -16
-19 -34 -29 -51 -29 -16 0 -38 -11 -54 -27 -42 -43 -55 -81 -56 -161 0 -40 5
-57 18 -66 9 -7 17 -17 17 -21 0 -13 -31 18 -46 46 -33 64 -5 164 68 244 57
63 95 87 125 79 20 -6 97 29 87 39 -7 7 12 12 103 31 40 8 80 19 89 24 37 21
46 8 15 -20z m-967 -27 c3 -4 0 -16 -8 -26 -17 -24 -159 -31 -181 -8 -16 16
-19 26 -8 36 9 10 191 8 197 -2z m636 -5 c0 -3 -100 -71 -130 -89 -8 -5 12 16
44 46 33 31 65 53 73 50 7 -3 13 -6 13 -7z m-1655 -41 l30 -12 -26 -5 c-18 -3
-35 3 -55 20 -28 23 -28 24 -4 17 14 -4 39 -13 55 -20z m1870 -11 c-22 -19
-53 -49 -68 -67 -16 -18 -26 -24 -23 -15 3 10 1 20 -5 23 -14 9 -89 -75 -96
-107 -5 -26 -33 -41 -33 -18 0 6 5 10 11 10 5 0 8 4 5 8 -2 4 3 26 13 47 17
36 29 50 84 94 18 15 126 61 142 60 6 0 -8 -16 -30 -35z m-1679 -5 c36 -22
114 -105 114 -122 0 -5 -17 9 -39 32 -21 22 -41 38 -45 34 -3 -3 -6 -2 -6 4 0
6 -14 13 -31 17 -22 4 -30 10 -25 21 3 8 1 15 -4 15 -6 0 -10 5 -10 10 0 14 9
13 46 -11z m-112 -28 c-2 -3 -12 3 -22 13 -16 17 -16 18 5 5 12 -7 20 -15 17
-18z m949 -58 c-20 -15 -63 -17 -63 -4 0 13 20 19 53 17 24 -1 25 -2 10 -13z
m417 3 c0 -3 -4 -8 -10 -11 -5 -3 -10 -1 -10 4 0 6 5 11 10 11 6 0 10 -2 10
-4z m-1015 -173 c15 -51 25 -98 22 -105 -2 -7 -8 -1 -12 15 -4 15 -12 27 -17
27 -6 0 -8 -7 -5 -15 4 -8 2 -17 -4 -21 -6 -4 -8 11 -4 43 5 31 1 69 -8 107
-25 93 -1 51 28 -51z m1004 68 c-6 -18 -13 -30 -15 -28 -2 2 1 18 7 36 6 18
13 30 15 28 2 -2 -1 -18 -7 -36z m-1096 -102 c-4 -4 -6 13 -3 39 l5 47 3 -39
c2 -21 0 -42 -5 -47z m1086 5 c0 -63 30 -154 72 -226 31 -52 59 -114 59 -130
0 -5 -9 -4 -20 2 -11 6 -20 19 -20 30 0 10 -5 22 -10 25 -6 4 -10 12 -8 18 4
25 -57 134 -84 150 l-27 15 -4 -46 c-3 -26 -3 -4 -1 48 5 139 41 237 43 114z
m229 30 c31 -22 29 -64 -5 -95 -15 -13 -22 -17 -16 -9 10 13 6 19 -17 35 -30
20 -32 42 -8 73 13 16 19 15 46 -4z m-1419 -16 c6 -15 5 -24 -2 -27 -6 -2 -13
1 -15 8 -5 16 -32 -5 -32 -25 0 -8 -5 -14 -10 -14 -17 0 -23 30 -12 56 15 32
59 33 71 2z m1336 -18 c3 -5 1 -10 -4 -10 -6 0 -11 5 -11 10 0 6 2 10 4 10 3
0 8 -4 11 -10z m-228 -22 c-3 -8 -6 -5 -6 6 -1 11 2 17 5 13 3 -3 4 -12 1 -19z
m-1310 -50 c-2 -13 -4 -5 -4 17 -1 22 1 32 4 23 2 -10 2 -28 0 -40z m1548 32
c3 -5 1 -10 -4 -10 -6 0 -11 5 -11 10 0 6 2 10 4 10 3 0 8 -4 11 -10z m-1060
-100 c3 -36 7 -74 8 -85 1 -11 -3 -19 -10 -18 -7 2 -10 -4 -7 -12 4 -8 10 -12
15 -9 5 3 9 -16 9 -41 0 -30 -4 -44 -11 -40 -6 4 -8 13 -5 21 4 10 -1 11 -17
5 -12 -4 -26 -21 -32 -37 -11 -32 -50 -76 -59 -67 -3 3 5 19 19 34 43 52 67
134 69 240 1 107 11 111 21 9z m840 -159 c9 -30 29 -67 45 -83 27 -27 28 -29
11 -49 -17 -21 -17 -21 -41 25 -13 26 -23 53 -23 61 0 18 -23 20 -30 3 -9 -22
-27 13 -27 52 0 50 20 202 28 214 4 6 10 -29 13 -79 4 -49 15 -114 24 -144z
m209 158 c43 -12 69 -6 114 28 l32 24 0 -53 c0 -29 -5 -60 -10 -68 -8 -13 -11
-12 -24 5 -8 11 -12 23 -10 26 5 8 -26 5 -50 -6 -13 -6 -29 -3 -47 7 -26 16
-27 15 -24 -8 2 -20 0 -22 -12 -12 -16 13 -37 51 -48 88 l-7 25 24 -23 c14
-13 42 -27 62 -33z m-1329 -6 c22 3 52 8 68 10 15 3 27 3 27 1 0 -16 -33 -64
-43 -64 -9 0 -8 3 1 9 17 10 -7 17 -91 27 -40 5 -57 3 -57 -5 0 -6 -4 -11 -10
-11 -5 0 -10 18 -10 40 l0 39 38 -25 c29 -20 45 -25 77 -21z m155 13 c0 -2
-11 -26 -25 -53 -13 -26 -29 -60 -34 -75 -6 -16 -15 -28 -22 -28 -6 0 -9 3 -7
8 2 4 19 39 38 79 19 40 38 72 43 73 4 0 7 -2 7 -4z m572 -65 c0 -23 -2 -45
-6 -48 -3 -4 -6 18 -6 47 0 29 3 51 6 48 3 -3 5 -25 6 -47z m-383 -45 c2 -45
-6 -27 -12 29 -4 34 -3 42 3 25 4 -14 8 -38 9 -54z m1131 -111 c0 -49 -7 -92
-19 -124 -21 -56 -119 -193 -132 -185 -5 3 -6 -1 -3 -9 3 -8 0 -18 -7 -23 -22
-13 -2 64 36 136 19 38 35 78 35 89 0 12 4 21 9 21 4 0 7 -11 6 -25 -2 -14 1
-25 6 -25 5 0 9 -8 9 -17 1 -17 1 -17 10 -1 7 11 7 32 1 58 -7 31 -6 44 5 55
17 17 18 31 2 41 -6 4 -8 3 -5 -3 4 -6 -3 -10 -17 -10 -20 0 -26 7 -34 37 -8
32 -7 37 7 33 9 -2 30 5 46 15 17 11 33 17 38 15 4 -2 7 -38 7 -78z m-740 45
c0 -16 -4 -30 -10 -30 -5 0 -10 14 -10 30 0 17 5 30 10 30 6 0 10 -13 10 -30z
m-750 0 c0 -5 -8 -10 -17 -10 -15 0 -16 2 -3 10 19 12 20 12 20 0z m66 -40
c-7 -25 -12 -64 -11 -87 0 -23 -3 -39 -8 -36 -12 8 -3 110 14 146 18 39 20 28
5 -23z m560 25 c-7 -18 10 -20 18 -2 7 14 -3 -514 -10 -560 -6 -43 -16 -41
-42 6 -25 44 -29 73 -8 65 14 -6 24 105 28 319 1 72 5 97 15 97 7 0 13 7 13
15 0 8 -7 15 -15 15 -15 0 -21 40 -8 53 11 12 15 8 9 -8z m-248 -30 c-3 -3 -9
2 -12 12 -6 14 -5 15 5 6 7 -7 10 -15 7 -18z m632 5 c0 -5 -5 -10 -11 -10 -5
0 -7 5 -4 10 3 6 8 10 11 10 2 0 4 -4 4 -10z m-20 -150 c-6 -47 -18 -110 -25
-140 l-13 -55 4 50 c2 28 8 96 13 151 5 56 12 108 17 115 15 24 17 -29 4 -121z
m-229 70 c10 0 8 -28 -5 -48 -4 -7 -5 -28 -2 -46 3 -18 7 -62 7 -99 1 -37 5
-67 10 -67 5 0 6 -7 3 -15 -4 -8 -1 -22 6 -30 10 -12 9 -16 -4 -21 -10 -4 -17
-19 -18 -43 0 -20 -4 -6 -8 34 -8 74 -10 396 -3 358 2 -13 9 -23 14 -23z m337
-55 l1 -20 -9 20 c-5 11 -8 31 -8 45 l0 25 8 -25 c4 -14 8 -34 8 -45z m184 42
c-7 -8 -9 -16 -7 -19 3 -3 -8 -11 -24 -18 -26 -10 -29 -15 -20 -32 7 -13 19
-18 37 -16 35 4 53 22 62 61 7 29 8 30 9 6 1 -38 -34 -79 -69 -79 -67 0 -79
98 -15 111 36 6 41 4 27 -14z m-1124 1 c15 -15 16 -28 2 -28 -5 0 -9 5 -7 12
1 7 -11 15 -28 19 -28 6 -28 7 -4 8 14 0 30 -4 37 -11z m-318 -67 c0 -8 31
-60 68 -115 127 -187 166 -287 208 -526 32 -181 33 -192 18 -197 -7 -2 -14 19
-18 61 -4 35 -14 86 -22 113 -8 26 -17 70 -20 97 -6 52 -40 174 -54 191 -4 6
-19 38 -32 72 -24 58 -39 83 -100 157 -16 19 -28 38 -28 44 0 6 -6 17 -13 24
-15 16 -37 86 -37 119 l1 24 14 -25 c8 -14 14 -31 15 -39z m100 -20 c-1 -13
-29 45 -29 59 0 8 6 0 14 -19 8 -18 15 -36 15 -40z m240 38 c0 -15 -47 -59
-62 -59 -7 1 -3 9 10 19 22 19 31 38 12 26 -5 -3 -10 0 -10 7 0 8 11 15 25 16
14 1 25 -3 25 -9z m990 1 c0 -5 -5 -10 -11 -10 -5 0 -7 5 -4 10 3 6 8 10 11
10 2 0 4 -4 4 -10z m-1131 -115 c0 -5 -11 4 -25 20 -15 17 -24 22 -20 13 7
-24 -7 -23 -28 1 -16 18 -16 19 1 17 14 -1 17 5 15 29 -3 28 0 26 27 -20 17
-27 31 -54 30 -60z m242 54 c-6 -16 -10 -18 -10 -7 -1 22 12 55 16 42 2 -6 -1
-22 -6 -35z m153 -88 c4 -7 10 -22 12 -34 12 -70 17 -88 27 -94 6 -4 8 2 5 15
-4 13 0 26 10 34 13 11 15 10 9 -5 -4 -10 -7 -32 -7 -48 0 -74 -48 8 -76 131
-10 40 -13 77 -8 100 7 33 8 32 14 -26 4 -33 10 -66 14 -73z m673 97 c-3 -7
-5 -2 -5 12 0 14 2 19 5 13 2 -7 2 -19 0 -25z m-863 -9 c2 -13 5 -31 5 -39 1
-13 2 -13 11 0 14 22 12 2 -7 -82 -11 -50 -16 -121 -17 -223 -1 -165 15 -258
74 -429 16 -50 30 -97 30 -107 0 -27 71 -192 93 -216 13 -15 32 -23 52 -23 88
0 122 116 141 482 5 101 8 116 20 103 11 -11 14 -61 14 -253 1 -244 -3 -272
-40 -320 -20 -24 -20 -24 -20 -3 0 25 -25 24 -25 0 0 -8 -5 -20 -9 -28 -7 -11
-5 -13 7 -8 10 3 17 2 17 -3 0 -6 -4 -10 -9 -10 -15 0 -19 -62 -8 -117 6 -29
8 -55 4 -59 -3 -3 -27 -3 -52 1 -54 8 -52 21 2 16 53 -4 38 14 -46 57 -41 20
-76 43 -79 51 -3 8 5 5 18 -7 13 -12 30 -22 37 -22 8 0 27 -7 43 -15 29 -15
30 -15 35 12 4 16 11 38 16 51 5 13 7 27 4 31 -5 9 -42 7 -66 -3 -27 -12 -68
11 -83 49 -8 19 -19 35 -24 35 -10 0 -44 71 -41 86 4 23 -2 80 -10 93 -8 12
-12 12 -25 2 -13 -11 -16 -11 -16 3 0 9 -4 16 -10 16 -14 0 -12 -30 4 -62 14
-27 11 -68 -5 -68 -5 0 -9 15 -9 34 0 18 -9 70 -20 114 -13 53 -19 103 -17
145 3 43 -1 70 -10 82 -10 14 -13 15 -14 4 -1 -39 -18 39 -30 138 -17 150 4
372 47 512 6 18 12 11 18 -20z m929 -31 c4 -24 13 -78 21 -121 35 -189 29
-320 -24 -537 -26 -104 -60 -296 -60 -339 0 -25 -3 -32 -11 -24 -11 11 -15 80
-5 90 3 3 0 15 -5 26 -9 16 -13 17 -20 6 -5 -8 -9 -26 -9 -41 0 -33 -10 -59
-20 -53 -8 5 -66 -97 -60 -105 10 -11 -74 -41 -107 -38 -26 2 -38 10 -51 33
-9 16 -23 36 -31 44 -12 13 -13 12 -6 -9 4 -14 10 -27 14 -30 3 -3 12 -17 20
-32 8 -16 18 -28 23 -28 5 0 6 -9 3 -20 -9 -30 11 -49 46 -45 37 5 30 -8 -13
-25 -18 -7 -44 -23 -57 -34 -24 -20 -24 -20 -16 -1 4 11 10 45 12 75 5 50 2
60 -28 105 -64 96 -65 100 -41 146 25 47 26 49 12 49 -6 0 -17 -15 -25 -32
-13 -30 -14 -18 -15 137 0 225 11 413 22 365 4 -19 10 -107 13 -195 7 -211 12
-246 41 -335 30 -90 55 -120 100 -120 46 0 86 52 118 154 14 45 39 127 57 183
23 74 35 100 45 96 8 -3 14 -1 14 5 0 6 -5 12 -11 14 -7 2 -4 38 10 113 24
125 26 237 7 377 -7 53 -9 95 -5 93 4 -3 12 2 19 10 9 11 9 15 1 15 -7 0 -9 5
-6 10 3 6 -1 10 -9 10 -8 0 -18 5 -22 11 -8 14 16 31 34 24 7 -3 10 0 7 5 -3
6 -2 10 3 10 5 0 12 -19 15 -42z m-1003 -14 c0 -3 -5 -25 -11 -49 -12 -46 -30
-55 -21 -10 5 26 -3 31 -27 16 -9 -6 -11 -16 -7 -27 5 -13 4 -16 -3 -9 -5 6
-13 22 -16 38 -7 25 -5 27 23 27 17 0 34 5 37 10 7 11 25 14 25 4z m1106 -13
c30 -6 30 -7 21 -41 -7 -25 -12 -30 -15 -17 -3 14 -10 17 -28 13 -13 -4 -24
-5 -24 -4 0 2 -4 18 -10 36 -8 30 -7 33 8 27 9 -4 31 -10 48 -14z m-426 -55
c0 -8 -4 -17 -9 -21 -6 -3 -9 4 -8 15 1 23 17 28 17 6z m-13 -58 c-3 -8 -6 -5
-6 6 -1 11 2 17 5 13 3 -3 4 -12 1 -19z m113 16 c0 -15 -42 -94 -50 -94 -5 0
-10 22 -10 48 0 47 1 49 30 49 17 0 30 -1 30 -3z m345 -33 c3 -10 -2 -36 -12
-56 l-18 -38 -6 29 c-13 60 -10 84 10 84 11 0 22 -9 26 -19z m-1170 -54 c1
-35 -8 -34 -22 2 -9 25 -8 29 6 26 10 -1 16 -12 16 -28z m695 -9 c-12 -77 -60
-148 -60 -89 0 17 5 31 11 31 5 0 8 4 4 9 -3 5 -1 12 4 15 10 7 9 25 -2 44
-12 19 4 14 19 -5 12 -17 13 -17 14 3 0 17 8 34 15 34 1 0 -1 -19 -5 -42z
m-501 -377 c7 -24 10 -46 8 -48 -3 -2 -12 28 -21 68 -11 50 -15 113 -14 213
l2 141 7 -165 c4 -91 12 -185 18 -209z m768 292 c-2 -16 -4 -5 -4 22 0 28 2
40 4 28 2 -13 2 -35 0 -50z m9 -122 c-10 -116 -24 -154 -19 -51 5 93 10 130
19 130 4 0 3 -36 0 -79z m-759 -88 c-3 -10 -5 -2 -5 17 0 19 2 27 5 18 2 -10
2 -26 0 -35z m239 -145 c-10 -198 -39 -340 -76 -363 -17 -10 -28 4 -50 65 -31
84 -36 185 -14 276 16 68 24 85 64 126 26 26 55 48 65 48 17 0 17 -9 11 -152z
m321 97 c38 -48 62 -128 62 -213 1 -86 -22 -197 -48 -231 l-19 -25 -21 35
c-26 42 -26 48 -3 43 9 -2 24 0 32 6 12 8 13 11 1 19 -8 5 -11 16 -6 31 5 15
4 20 -4 16 -6 -4 -11 -1 -11 8 0 10 6 13 18 9 14 -6 15 -4 4 9 -9 12 -10 18
-2 23 6 4 9 13 6 21 -3 7 -1 16 5 20 5 3 7 14 4 24 -3 10 -7 32 -10 49 -4 38
-30 77 -40 61 -4 -6 -13 -9 -21 -6 -8 3 -14 -1 -14 -9 0 -8 6 -12 14 -9 11 4
13 -4 10 -38 -6 -62 4 -101 24 -94 15 5 15 4 0 -8 -19 -14 -25 -32 -8 -21 6 3
10 1 10 -4 0 -6 -4 -11 -9 -11 -6 0 -6 -12 -1 -29 7 -25 6 -29 -8 -24 -10 4
-13 2 -8 -5 4 -7 3 -12 -2 -12 -15 0 -23 27 -29 99 -4 41 -3 62 4 58 5 -3 10
0 10 8 0 8 -5 13 -11 12 -7 -1 -12 39 -14 120 l-3 122 31 -11 c17 -5 43 -25
57 -43z m-550 -37 c-2 -13 -4 -3 -4 22 0 25 2 35 4 23 2 -13 2 -33 0 -45z
m720 0 c-3 -7 -5 -2 -5 12 0 14 2 19 5 13 2 -7 2 -19 0 -25z m-30 -20 c-3 -8
-6 -5 -6 6 -1 11 2 17 5 13 3 -3 4 -12 1 -19z m4 -83 c-12 -39 -20 -51 -20
-35 -1 29 33 130 36 109 2 -8 -6 -41 -16 -74z m-682 -2 l0 -58 -15 45 c-16 52
-18 71 -4 50 8 -13 10 -12 10 3 0 9 2 17 5 17 3 0 5 -26 4 -57z m-169 -267 c0
-54 -9 -57 -15 -5 -8 67 -29 159 -36 159 -4 0 -9 9 -12 21 -4 15 -2 19 9 15 8
-3 14 0 15 7 2 30 38 -154 39 -197z m107 62 c-3 -8 -6 -5 -6 6 -1 11 2 17 5
13 3 -3 4 -12 1 -19z m22 -216 c11 -17 21 -35 21 -41 0 -6 5 -11 11 -11 5 0 7
-5 4 -10 -4 -6 -11 -7 -17 -4 -6 4 -8 2 -5 -4 4 -5 16 -8 27 -5 21 6 53 -14
45 -27 -8 -13 24 -40 46 -40 10 0 19 -4 19 -10 0 -15 -8 -13 -76 25 -35 20
-72 48 -82 63 -24 33 -42 95 -41 142 l0 35 13 -42 c8 -22 23 -55 35 -71z m786
26 c-8 -45 -33 -98 -48 -98 -4 0 -5 5 -2 10 3 6 1 10 -6 10 -6 0 -9 -8 -6 -19
3 -14 -9 -27 -51 -55 -30 -20 -62 -36 -71 -36 -9 1 -1 7 18 16 19 8 31 17 28
21 -10 10 13 33 34 33 10 0 21 5 25 12 5 7 3 8 -7 2 -8 -4 -3 5 11 22 14 16
36 51 50 77 14 26 26 47 28 47 2 0 1 -19 -3 -42z m-229 -190 c4 -6 3 -8 -4 -4
-5 3 -12 1 -14 -5 -2 -6 -13 -9 -23 -7 -18 5 -18 6 5 16 14 6 26 11 27 11 1 1
5 -4 9 -11z"/>
<path d="M5680 8180 c0 -5 5 -10 11 -10 5 0 7 5 4 10 -3 6 -8 10 -11 10 -2 0
-4 -4 -4 -10z"/>
<path d="M4267 6884 c-3 -3 -3 -13 0 -21 5 -12 7 -12 14 -1 15 23 4 40 -14 22z"/>
<path d="M3418 7103 c-15 -4 -18 -16 -18 -74 0 -38 4 -69 9 -69 13 0 23 34 15
54 -3 9 -1 16 6 16 6 0 8 5 4 13 -5 7 -1 7 10 -2 16 -14 17 -12 14 24 -3 39
-10 46 -40 38z"/>
<path d="M3620 7120 c0 -5 5 -10 11 -10 5 0 7 5 4 10 -3 6 -8 10 -11 10 -2 0
-4 -4 -4 -10z"/>
<path d="M3306 4255 c-19 -19 -20 -34 -3 -56 18 -24 27 -26 37 -9 26 40 -3 95
-34 65z"/>
<path d="M3800 5959 c0 -11 4 -18 10 -14 5 3 7 12 3 20 -7 21 -13 19 -13 -6z"/>
<path d="M2848 5358 c-6 -75 6 -89 21 -24 7 31 10 60 6 66 -14 22 -23 7 -27
-42z"/>
<path d="M2820 4986 c0 -9 7 -16 16 -16 9 0 14 5 12 12 -6 18 -28 21 -28 4z"/>
<path d="M2870 4730 c0 -26 24 -120 32 -120 20 0 22 94 1 111 -7 6 -13 8 -13
3 0 -5 -5 -2 -10 6 -8 13 -10 13 -10 0z"/>
<path d="M3740 4673 c0 -10 5 -25 10 -33 7 -11 10 -7 10 18 0 17 -4 32 -10 32
-5 0 -10 -8 -10 -17z"/>
<path d="M3704 4599 c0 -10 4 -19 8 -19 4 0 8 6 8 14 0 8 -4 17 -8 20 -4 2 -8
-4 -8 -15z"/>
<path d="M3127 4773 c-14 -52 -20 -79 -19 -85 1 -5 -2 -8 -8 -8 -15 0 -12 -27
5 -44 15 -15 21 -51 7 -42 -4 2 -13 -7 -19 -21 -7 -14 -10 -23 -7 -20 11 10
31 -17 26 -35 -2 -10 2 -20 12 -24 9 -3 13 -11 9 -17 -4 -6 -1 -7 6 -2 8 4 11
20 9 36 -3 16 -1 29 4 29 5 0 8 19 8 43 0 23 1 56 4 72 5 41 8 85 7 113 -1 27
-37 31 -44 5z"/>
<path d="M3455 4730 c-3 -5 -1 -10 4 -10 6 0 11 5 11 10 0 6 -2 10 -4 10 -3 0
-8 -4 -11 -10z"/>
</g>
</svg>
