<?xml version="1.0" standalone="no"?>
<!DOCTYPE svg PUBLIC "-//W3C//DTD SVG 20010904//EN"
 "http://www.w3.org/TR/2001/REC-SVG-20010904/DTD/svg10.dtd">
<svg version="1.0" xmlns="http://www.w3.org/2000/svg"
 width="821.000000pt" height="1024.000000pt" viewBox="0 0 821.000000 1024.000000"
 preserveAspectRatio="xMidYMid meet">
<metadata>
Created by potrace 1.16, written by Peter Selinger 2001-2019
</metadata>
<g transform="translate(0.000000,1024.000000) scale(0.100000,-0.100000)"
fill="#000000" stroke="none">
<path d="M6144 9240 c-32 -12 -41 -30 -64 -120 -79 -310 -249 -519 -524 -645
-197 -90 -349 -116 -821 -141 -209 -11 -255 -19 -345 -59 -77 -35 -88 -37
-146 -31 -88 9 -185 41 -274 89 -145 79 -186 97 -258 113 -82 18 -117 15 -272
-26 -97 -26 -166 -23 -267 9 -157 50 -233 38 -461 -74 -174 -86 -236 -105
-340 -105 -57 0 -82 5 -107 20 -77 48 -87 49 -590 80 -360 23 -608 102 -797
255 -68 55 -86 63 -48 23 11 -12 20 -32 20 -43 0 -22 73 -81 148 -119 17 -9
32 -20 32 -25 0 -5 -25 -11 -56 -13 -46 -4 -61 -10 -87 -36 -17 -18 -26 -32
-19 -32 6 0 12 5 12 11 0 6 7 8 16 5 8 -3 12 -2 9 4 -3 5 4 14 16 20 15 8 19
9 15 1 -4 -6 -2 -11 3 -11 6 0 11 4 11 9 0 15 102 -7 116 -26 35 -45 29 -103
-11 -121 -21 -10 -30 -9 -49 4 -28 18 -43 3 -18 -18 38 -32 118 -13 129 31 10
43 14 44 47 14 l31 -28 -26 30 c-33 39 -82 116 -77 121 3 2 29 -5 59 -15 69
-25 235 -66 319 -80 66 -10 251 -25 480 -36 130 -7 245 -26 262 -43 7 -7 -4
-28 -32 -64 -86 -108 -115 -209 -107 -375 l5 -114 -41 3 c-35 3 -42 7 -50 33
-5 17 -9 71 -10 120 -1 133 39 247 123 354 23 29 40 55 37 57 -6 7 -75 -74
-99 -118 -12 -21 -25 -38 -30 -38 -4 0 -14 13 -22 28 -21 40 -83 94 -141 123
-46 22 -61 24 -175 23 -138 -2 -157 -6 -360 -90 -99 -41 -127 -48 -203 -52
-102 -5 -162 12 -201 58 -20 25 -25 27 -31 13 -4 -11 4 -26 24 -45 30 -28 48
-37 36 -18 -3 6 1 7 9 4 9 -3 14 -11 13 -17 -1 -6 16 -16 38 -23 50 -16 119
-18 110 -4 -4 7 7 8 32 4 44 -6 123 18 303 93 l115 48 125 0 c110 0 131 -3
177 -23 72 -33 92 -58 99 -122 3 -29 7 -57 10 -61 2 -5 -1 -49 -7 -99 -9 -69
-9 -108 0 -162 6 -39 9 -73 6 -76 -9 -9 -146 27 -201 52 -66 31 -122 81 -133
120 -5 17 -10 23 -10 13 -1 -10 4 -27 9 -38 14 -25 -1 -25 -17 0 -35 55 -18
150 35 191 36 29 48 25 15 -5 l-28 -26 38 22 c49 28 97 17 112 -25 8 -23 6
-30 -13 -45 -18 -13 -20 -19 -10 -29 18 -18 32 -15 56 11 24 26 29 73 9 97
-57 74 -168 63 -224 -21 -22 -33 -25 -47 -21 -99 2 -33 1 -60 -2 -60 -4 0 -15
10 -26 22 -29 32 -105 78 -128 77 -15 -1 -12 -4 11 -11 18 -6 59 -32 92 -59
32 -26 63 -44 67 -41 4 4 5 2 1 -3 -3 -6 14 -28 39 -50 24 -22 44 -43 44 -47
0 -11 -32 3 -60 26 -16 14 -20 15 -11 4 19 -25 9 -24 -134 12 -144 37 -309 96
-415 149 -82 42 -208 119 -250 154 -14 11 -6 2 18 -22 42 -43 52 -61 30 -61
-25 0 84 -68 202 -126 216 -105 683 -227 962 -251 53 -5 73 -2 93 11 25 16 28
16 58 -1 18 -10 42 -38 55 -63 42 -83 23 -165 -63 -275 -160 -205 -167 -229
-135 -436 12 -79 26 -175 32 -213 20 -142 69 -229 171 -300 103 -74 135 -105
162 -161 49 -98 56 -146 64 -395 8 -265 7 -260 94 -387 58 -84 137 -229 137
-250 0 -9 17 -13 49 -13 l49 0 7 68 c3 37 13 108 22 157 27 161 28 180 4 221
l-21 36 29 33 c70 81 87 261 37 412 -33 101 -106 214 -184 283 -97 88 -97 76
0 -22 136 -136 189 -256 189 -437 1 -142 -33 -230 -100 -259 l-36 -15 31 -9
c44 -11 62 -54 40 -97 -31 -59 -105 -49 -134 19 -26 63 -13 134 51 265 55 111
87 204 87 251 0 12 -9 52 -21 90 -17 56 -31 77 -78 125 -31 31 -80 68 -109 83
-66 33 -78 33 -27 0 180 -119 243 -292 140 -383 -48 -42 -95 -42 -136 -2 -16
16 -29 26 -29 21 0 -4 14 -20 31 -34 38 -32 80 -33 128 -4 20 13 38 23 41 23
3 0 5 5 4 10 -1 6 6 17 14 25 28 25 5 -68 -34 -140 -42 -77 -84 -192 -84 -231
0 -15 -5 -31 -11 -35 -16 -10 -3 89 17 127 18 36 18 62 -1 29 -64 -114 -27
-298 63 -315 23 -4 41 -1 59 10 13 9 27 14 31 11 3 -4 -2 -39 -11 -79 -9 -39
-19 -94 -22 -122 -8 -64 -14 -85 -24 -85 -5 0 -11 12 -14 28 -8 35 -85 169
-136 236 -79 103 -81 112 -80 293 0 89 -3 178 -7 197 -7 40 6 48 28 18 7 -10
20 -22 28 -27 8 -5 2 6 -13 24 -23 27 -27 42 -25 75 2 24 8 40 15 39 6 -1 17
4 23 12 18 21 58 18 72 -5 17 -27 28 -25 28 3 0 32 -30 57 -67 57 -33 0 -83
-33 -83 -56 0 -34 -19 -10 -29 36 -15 71 -63 161 -105 198 -19 17 -62 49 -94
70 -80 55 -124 107 -150 177 -23 65 -72 363 -72 442 0 65 41 148 124 248 115
139 172 283 152 388 -8 44 -60 103 -108 122 -52 21 -48 12 5 -14 59 -28 89
-83 89 -159 0 -31 -5 -68 -10 -82 -9 -24 -10 -23 -17 15 -18 104 -46 150 -117
186 -52 27 -62 51 -62 149 0 94 18 162 66 247 39 70 74 89 178 98 47 4 110 13
141 21 31 8 60 14 63 14 3 0 -10 -21 -30 -47 -65 -86 -78 -119 -78 -213 -1
-60 5 -103 19 -145 14 -41 20 -87 20 -145 0 -110 -19 -148 -142 -283 -93 -102
-143 -181 -143 -224 0 -40 25 -86 80 -143 58 -63 56 -50 -6 26 -86 107 -75
141 116 349 110 119 135 173 134 283 l0 83 64 -63 c78 -77 102 -121 102 -186
0 -65 -27 -102 -76 -102 -27 0 -37 5 -46 25 -9 19 -9 28 0 37 18 18 14 38 -8
38 -43 0 -54 -77 -15 -115 18 -19 35 -25 69 -25 83 0 134 72 123 172 -8 67
-41 120 -128 202 -85 82 -112 135 -113 221 -1 70 33 151 84 200 l31 30 -10
-28 c-17 -43 -13 -143 5 -180 34 -64 110 -105 171 -91 43 10 83 53 83 88 l0
31 -15 -30 c-22 -42 -43 -55 -88 -55 -33 0 -47 7 -83 44 -42 41 -44 46 -44
102 0 68 24 126 66 166 88 82 272 89 381 14 47 -32 113 -107 113 -128 0 -6
-13 7 -29 30 -52 71 -164 133 -235 131 -28 -1 -27 -2 11 -9 89 -18 175 -79
231 -164 58 -89 78 -195 52 -288 -23 -82 -113 -179 -164 -177 -16 1 -14 3 8 9
42 13 91 65 117 123 17 42 21 64 17 124 -14 215 -213 369 -397 308 -67 -22
-62 -28 9 -9 106 28 197 -2 283 -95 40 -44 59 -74 75 -125 38 -116 24 -193
-48 -268 -41 -43 -51 -48 -89 -48 -34 0 -49 6 -72 29 -16 16 -29 37 -29 47 0
9 -3 14 -6 11 -16 -16 21 -70 60 -88 26 -12 34 -19 21 -19 -31 0 -84 37 -91
64 -9 38 -1 59 29 76 27 14 29 14 48 -9 24 -29 49 -21 49 15 0 60 -83 74 -131
23 -67 -72 -15 -194 92 -214 166 -31 312 190 269 408 -36 187 -173 316 -356
336 l-69 8 38 17 c69 30 151 31 252 1 140 -41 194 -43 311 -9 121 35 228 39
287 10 21 -10 36 -20 34 -23 -3 -2 -36 -5 -73 -7 -147 -7 -276 -96 -334 -231
-65 -152 -42 -326 59 -438 41 -46 90 -68 152 -69 76 0 126 35 148 104 30 93
-79 181 -147 118 -25 -24 -25 -25 -12 -51 14 -25 28 -24 50 4 15 18 22 20 37
11 53 -32 0 -124 -72 -124 -73 0 -125 47 -151 137 -13 45 -14 65 -4 120 29
169 151 286 300 287 36 1 79 -2 95 -7 19 -4 15 -1 -10 9 -27 10 -59 14 -101
11 -166 -12 -292 -148 -302 -327 -5 -84 7 -124 53 -178 83 -99 198 -82 226 33
l7 30 1 -28 c2 -66 -68 -125 -132 -111 -72 15 -119 57 -161 140 -22 43 -26 66
-26 133 0 73 4 89 35 152 41 80 106 147 179 185 38 19 43 24 21 20 -50 -11
-137 -78 -177 -135 -44 -63 -51 -56 -9 10 58 93 151 148 264 156 174 13 287
-70 287 -212 0 -96 -56 -165 -134 -165 -44 0 -66 12 -84 45 -10 18 -11 18 -12
2 0 -10 13 -32 29 -48 25 -25 37 -29 84 -29 46 0 61 5 88 27 66 56 89 170 49
248 -11 21 -18 41 -15 43 8 8 70 -63 98 -111 15 -24 34 -79 42 -122 15 -73 15
-81 -1 -123 -10 -28 -47 -77 -101 -133 -113 -119 -142 -188 -113 -265 9 -23 9
-25 -4 -15 -8 7 -19 31 -25 54 -8 37 -9 38 -10 12 -1 -40 31 -108 60 -129 13
-9 43 -16 67 -16 53 0 92 33 92 79 0 28 -22 61 -40 61 -14 0 -21 -18 -10 -25
15 -9 12 -51 -5 -65 -24 -20 -65 -15 -92 13 -21 21 -25 34 -25 76 1 29 10 67
21 89 22 42 147 179 156 171 3 -3 0 -20 -6 -38 -31 -88 14 -200 132 -331 182
-199 198 -251 112 -357 -68 -85 -72 -95 -13 -33 73 78 81 92 82 149 2 61 -28
110 -147 241 -42 47 -90 110 -108 140 -27 47 -32 65 -32 125 0 48 8 94 25 145
18 55 24 97 25 160 0 76 -3 90 -29 134 -15 27 -44 66 -63 87 -40 44 -39 45 37
23 30 -8 99 -19 154 -24 93 -8 100 -10 133 -42 74 -71 124 -233 109 -352 -8
-63 -20 -78 -93 -127 -47 -31 -74 -83 -83 -159 -6 -54 -7 -55 -19 -26 -6 16
-16 52 -21 80 l-9 51 4 -64 c5 -86 60 -198 154 -310 130 -157 138 -187 107
-426 -34 -267 -67 -347 -169 -420 -116 -83 -136 -100 -163 -137 -28 -40 -74
-156 -74 -188 0 -27 -6 -25 -44 15 -24 25 -42 35 -64 35 -17 0 -33 -4 -36 -9
-3 -4 5 -6 18 -4 14 3 32 0 43 -7 16 -10 16 -11 1 -6 -10 3 -18 2 -18 -3 0 -5
10 -11 23 -15 46 -11 55 -54 56 -275 1 -133 -2 -215 -10 -239 -6 -20 -43 -81
-81 -135 -38 -54 -87 -135 -108 -180 -22 -45 -41 -75 -43 -67 -9 31 -55 275
-52 278 2 2 15 -4 29 -13 19 -12 36 -15 65 -10 37 6 43 12 67 61 24 49 26 63
21 132 -2 44 -12 91 -22 110 -25 48 -28 34 -5 -26 11 -29 19 -69 19 -90 -1
-26 -3 -30 -6 -12 -9 57 -48 161 -94 255 -49 102 -77 201 -45 161 15 -19 16
-16 16 40 1 103 59 198 164 266 67 43 67 49 -2 14 -74 -37 -137 -100 -171
-168 -26 -51 -31 -73 -31 -132 0 -82 16 -129 91 -272 50 -97 51 -99 47 -176
-4 -90 -24 -121 -79 -121 -82 0 -94 118 -14 135 18 4 18 6 -6 16 -34 14 -74
62 -91 109 -18 51 -17 253 1 318 27 96 79 183 159 267 42 45 67 76 56 70 -27
-14 -115 -110 -155 -168 -122 -178 -133 -460 -22 -576 25 -27 26 -28 9 -47
-33 -37 -30 -108 20 -428 5 -31 7 -33 47 -33 l42 1 42 87 c22 48 66 122 97
164 90 123 95 140 96 308 1 220 14 353 45 434 33 89 66 131 140 178 112 73
177 156 191 244 3 21 10 57 15 79 12 55 11 67 -3 60 -7 -4 -6 -1 2 7 17 15 16
10 42 153 33 185 20 233 -110 407 -44 58 -88 127 -97 152 -24 61 -15 136 20
182 39 51 59 58 106 40 49 -20 82 -20 184 -1 44 8 134 24 199 35 251 44 519
123 679 199 192 92 396 261 497 411 137 204 207 482 182 723 -20 190 -59 262
-128 237z m55 -105 c19 -55 26 -273 12 -381 -20 -149 -85 -316 -172 -445 -61
-90 -135 -165 -248 -250 -174 -132 -381 -221 -679 -293 -85 -21 -156 -36 -158
-34 -2 3 19 23 47 46 29 23 47 42 41 42 -7 0 -5 13 5 37 22 54 13 136 -18 169
-65 70 -153 72 -206 4 -29 -36 -8 -110 31 -110 34 0 36 9 10 35 -27 27 -29 38
-11 57 7 7 16 21 20 31 5 13 18 17 51 17 36 0 52 -6 78 -29 19 -16 35 -40 37
-53 9 -53 3 -118 -13 -142 -20 -31 -42 -36 -26 -7 19 37 10 33 -22 -10 -40
-51 -116 -92 -222 -119 -62 -16 -82 -17 -93 -8 -11 9 -16 9 -22 -1 -12 -19
-87 -10 -82 9 2 8 6 63 9 123 4 93 2 116 -18 174 -27 80 -50 122 -97 180 -19
23 -32 46 -29 52 19 30 108 42 396 56 162 7 340 21 395 30 88 14 255 57 308
80 16 7 16 2 -7 -43 -44 -87 -105 -118 -215 -109 -48 3 -59 2 -41 -5 57 -22
184 -3 204 31 4 6 16 16 27 21 17 10 21 7 30 -20 12 -32 53 -60 90 -60 28 0
59 27 59 52 0 22 -16 24 -24 2 -9 -25 -58 -14 -75 18 -21 36 -6 76 38 102 31
18 37 18 74 5 55 -19 82 -58 82 -119 0 -60 -24 -96 -85 -127 -86 -44 -193 -29
-409 58 -288 116 -527 84 -612 -83 -21 -40 -22 -41 -37 -22 -14 19 -15 19 -7
-1 44 -116 49 -143 49 -260 0 -116 1 -118 14 -75 9 30 11 65 6 105 -12 105
-13 257 -3 277 13 25 94 76 139 88 99 26 263 11 367 -36 200 -89 308 -119 405
-112 143 9 210 77 228 233 20 180 56 240 166 276 79 26 136 61 157 98 23 39 9
41 -17 2 -24 -36 -53 -53 -136 -81 -35 -12 -78 -31 -95 -43 -25 -18 -28 -18
-15 -3 20 25 88 67 114 71 31 4 56 16 56 26 0 5 -11 2 -25 -7 -14 -9 -28 -14
-31 -11 -3 2 10 14 29 26 31 19 67 58 92 101 5 8 -18 -13 -50 -46 -33 -34 -79
-71 -102 -83 -94 -47 -154 -129 -169 -228 -6 -44 -17 -55 -28 -28 -8 21 -67
45 -113 46 -33 0 -36 2 -19 12 190 121 220 146 308 256 89 111 170 290 193
426 4 22 9 44 12 48 12 19 39 -1 52 -38z m-5322 -560 c0 -8 -4 -12 -9 -9 -5 3
-6 10 -3 15 9 13 12 11 12 -6z m866 -522 c-7 -2 -21 -2 -30 0 -10 3 -4 5 12 5
17 0 24 -2 18 -5z m787 -213 c7 -13 55 -68 106 -122 71 -74 96 -107 104 -139
14 -51 7 -107 -16 -128 -15 -15 -15 -14 -4 8 16 31 9 105 -15 154 -10 21 -49
69 -87 105 -69 67 -129 163 -127 206 0 12 6 5 13 -19 7 -22 18 -51 26 -65z
m111 -1747 c13 -15 12 -15 -6 -6 -11 6 -27 13 -35 16 -10 4 -8 6 6 6 12 1 28
-6 35 -16z"/>
<path d="M5968 8483 c-35 -38 -43 -55 -73 -164 -62 -220 -169 -314 -355 -313
-110 0 -168 17 -340 100 -174 84 -253 104 -330 85 l-45 -10 45 4 c85 9 158
-11 305 -84 195 -96 227 -106 360 -106 96 0 116 3 160 24 110 55 168 134 221
302 45 144 69 173 134 166 40 -5 43 -4 25 9 -31 23 -78 17 -107 -13z"/>
<path d="M4569 8168 c17 -27 34 -48 37 -48 9 0 -30 61 -50 78 -11 9 -5 -4 13
-30z"/>
<path d="M4759 8156 c-33 -23 -69 -66 -69 -83 0 -4 11 9 24 28 14 20 44 46 68
58 24 11 36 21 28 21 -9 0 -31 -11 -51 -24z"/>
<path d="M5267 7951 c23 -4 51 -16 63 -26 11 -10 20 -15 20 -12 0 3 -10 15
-22 27 -15 14 -34 20 -62 19 l-41 -2 42 -6z"/>
<path d="M5190 7943 c-32 -13 -100 -65 -111 -86 -9 -17 -4 -15 22 10 19 17 54
43 79 57 41 24 46 32 10 19z"/>
<path d="M5195 7910 c-3 -6 1 -7 9 -4 18 7 21 14 7 14 -6 0 -13 -4 -16 -10z"/>
<path d="M5120 7850 c-9 -6 -10 -10 -3 -10 6 0 15 5 18 10 8 12 4 12 -15 0z"/>
<path d="M714 8763 c4 -7 5 -20 2 -29 -4 -12 -2 -15 9 -10 8 3 15 0 15 -6 0
-13 50 -61 57 -54 3 2 -9 19 -25 38 -17 18 -38 42 -49 53 -10 12 -14 15 -9 8z"/>
<path d="M670 8761 c0 -6 4 -12 8 -15 5 -3 9 1 9 9 0 8 -4 15 -9 15 -4 0 -8
-4 -8 -9z"/>
<path d="M560 8726 c0 -2 8 -10 18 -17 15 -13 16 -12 3 4 -13 16 -21 21 -21
13z"/>
<path d="M674 8641 c7 -11 46 -35 46 -28 0 3 -12 12 -26 22 -15 9 -23 12 -20
6z"/>
<path d="M560 8636 c0 -2 7 -7 16 -10 8 -3 12 -2 9 4 -6 10 -25 14 -25 6z"/>
<path d="M700 8586 c0 -3 9 -10 20 -16 11 -6 20 -8 20 -6 0 3 -9 10 -20 16
-11 6 -20 8 -20 6z"/>
<path d="M770 8565 c40 -48 43 -51 32 -30 -6 11 -21 29 -34 40 -22 19 -22 19
2 -10z"/>
<path d="M807 8497 c-3 -8 1 -14 8 -14 7 0 11 6 8 14 -3 7 -6 13 -8 13 -2 0
-5 -6 -8 -13z"/>
<path d="M635 8489 c4 -6 10 -8 13 -5 3 4 17 -4 31 -16 l26 -23 -24 28 c-23
26 -60 39 -46 16z"/>
<path d="M825 8440 c-3 -5 -1 -10 4 -10 6 0 11 5 11 10 0 6 -2 10 -4 10 -3 0
-8 -4 -11 -10z"/>
<path d="M704 8425 c3 -11 13 -51 22 -88 9 -37 19 -66 21 -63 8 7 -18 119 -33
146 -11 19 -13 20 -10 5z"/>
<path d="M556 8367 c3 -10 9 -15 12 -12 3 3 0 11 -7 18 -10 9 -11 8 -5 -6z"/>
<path d="M862 8275 c0 -16 2 -22 5 -12 2 9 2 23 0 30 -3 6 -5 -1 -5 -18z"/>
<path d="M3678 8283 c6 -2 18 -2 25 0 6 3 1 5 -13 5 -14 0 -19 -2 -12 -5z"/>
<path d="M630 8256 c0 -2 8 -10 18 -17 15 -13 16 -12 3 4 -13 16 -21 21 -21
13z"/>
<path d="M1225 8246 c19 -10 57 -15 100 -14 l70 1 -80 7 c-44 4 -89 10 -100
14 -11 3 -6 0 10 -8z"/>
<path d="M660 8218 c0 -2 28 -30 62 -63 34 -33 48 -44 32 -25 -28 34 -94 96
-94 88z"/>
<path d="M1645 8190 c-27 -5 -106 -38 -175 -73 -159 -82 -231 -106 -344 -117
l-91 -9 95 3 c116 4 175 23 359 114 129 64 137 66 222 70 99 5 132 -4 194 -52
37 -28 39 -29 24 -6 -39 59 -168 91 -284 70z"/>
<path d="M2149 8190 c-21 -12 -93 -119 -86 -127 3 -2 13 9 22 27 9 17 32 49
52 71 37 41 39 45 12 29z"/>
<path d="M790 8171 c5 -11 15 -23 21 -27 6 -3 3 5 -6 20 -20 30 -30 35 -15 7z"/>
<path d="M3900 8176 c0 -2 8 -10 18 -17 15 -13 16 -12 3 4 -13 16 -21 21 -21
13z"/>
<path d="M710 8121 c0 -6 4 -13 10 -16 6 -3 7 1 4 9 -7 18 -14 21 -14 7z"/>
<path d="M855 8090 c10 -11 20 -20 23 -20 3 0 -3 9 -13 20 -10 11 -20 20 -23
20 -3 0 3 -9 13 -20z"/>
<path d="M2046 8035 c-3 -9 -6 -22 -5 -28 0 -7 5 -1 10 12 5 13 8 26 5 28 -2
2 -6 -3 -10 -12z"/>
<path d="M1008 8003 c7 -3 16 -2 19 1 4 3 -2 6 -13 5 -11 0 -14 -3 -6 -6z"/>
<path d="M2701 8003 c-1 -13 46 -53 63 -53 6 0 -3 9 -20 19 -18 11 -34 25 -37
33 -3 8 -6 9 -6 1z"/>
<path d="M2252 7970 c0 -19 2 -27 5 -17 2 9 2 25 0 35 -3 9 -5 1 -5 -18z"/>
<path d="M3905 7974 c-18 -16 -22 -22 -9 -15 18 9 53 42 43 41 -2 -1 -17 -12
-34 -26z"/>
<path d="M2026 7964 c-4 -14 -5 -29 -2 -31 3 -3 8 7 12 21 3 15 4 29 1 32 -2
3 -8 -7 -11 -22z"/>
<path d="M4376 7965 c-3 -13 -40 -60 -81 -104 -41 -45 -75 -83 -75 -86 0 -7
133 133 143 151 5 8 11 13 15 10 4 -2 8 9 9 25 3 35 -3 38 -11 4z"/>
<path d="M1621 7954 c0 -11 3 -14 6 -6 3 7 2 16 -1 19 -3 4 -6 -2 -5 -13z"/>
<path d="M1316 7939 c-14 -11 -26 -26 -26 -32 0 -7 9 -1 19 12 11 14 34 27 57
31 37 7 37 8 8 9 -18 1 -43 -8 -58 -20z"/>
<path d="M2276 7914 c-4 -10 -4 -15 0 -11 9 8 114 -91 114 -107 0 -6 -25 14
-56 44 -32 30 -51 46 -43 34 22 -33 119 -137 119 -127 0 5 -5 14 -12 21 -6 6
-9 14 -6 18 12 12 33 -42 39 -101 l6 -60 1 53 c3 72 -15 109 -91 187 -54 57
-65 64 -71 49z"/>
<path d="M1450 7906 c0 -2 8 -10 18 -17 15 -13 16 -12 3 4 -13 16 -21 21 -21
13z"/>
<path d="M4111 7875 c-7 -21 -45 -71 -85 -113 -64 -68 -66 -72 -20 -34 68 56
131 146 122 173 -2 6 -9 -6 -17 -26z"/>
<path d="M1535 7830 c27 -27 51 -50 54 -50 3 0 -17 23 -44 50 -27 28 -51 50
-54 50 -3 0 17 -22 44 -50z"/>
<path d="M4309 7833 l-34 -38 38 34 c20 19 37 36 37 38 0 8 -8 0 -41 -34z"/>
<path d="M4315 7659 c-9 -17 -15 -33 -13 -35 3 -2 12 12 21 31 21 43 13 47 -8
4z"/>
<path d="M2997 7463 c-4 -3 -7 -36 -7 -71 l0 -65 34 35 c42 43 99 60 186 56
l65 -3 3 -229 c3 -250 -1 -232 65 -271 l27 -16 0 260 0 261 77 0 c90 0 146
-22 181 -72 l22 -33 0 78 0 77 -323 0 c-178 0 -327 -3 -330 -7z"/>
<path d="M3169 7275 c-50 -33 -75 -70 -88 -135 -12 -58 -3 -138 20 -183 28
-53 88 -112 182 -179 189 -134 247 -206 255 -321 3 -32 -1 -77 -8 -102 -15
-54 -72 -123 -117 -141 -44 -19 -147 -18 -189 2 -47 23 -102 86 -135 158 l-28
61 -1 -122 0 -123 25 12 c21 9 35 6 87 -18 55 -25 75 -28 153 -28 78 0 97 3
141 26 62 32 109 84 142 156 22 49 24 64 20 142 -9 157 -79 254 -283 390 -135
90 -190 152 -215 241 -6 20 -4 29 7 33 22 9 23 8 23 -16 0 -30 46 -128 60
-128 12 0 13 70 1 102 -5 13 -20 35 -34 49 l-26 25 25 37 c13 20 29 37 34 37
6 0 10 11 10 25 0 31 -14 31 -61 0z"/>
<path d="M3400 7273 c1 -10 14 -42 29 -72 l28 -55 8 59 c4 32 9 64 12 72 4 9
-6 13 -36 13 -33 0 -41 -4 -41 -17z"/>
<path d="M2884 7231 c-137 -35 -233 -149 -254 -304 -19 -132 30 -283 114 -352
84 -68 214 -92 323 -60 55 16 103 61 103 96 0 24 -16 25 -29 1 -5 -10 -32 -30
-59 -45 -80 -44 -194 -33 -262 25 -68 57 -106 176 -97 300 11 142 61 240 148
286 38 20 55 23 121 20 55 -2 79 0 82 9 3 7 1 15 -5 18 -16 11 -152 15 -185 6z"/>
<path d="M3660 7230 c-5 -3 -5 -11 0 -20 6 -8 10 -61 10 -117 0 -91 4 -114 38
-215 l37 -113 3 218 2 217 40 0 c58 0 87 -15 109 -57 61 -121 14 -273 -84
-273 -24 0 -35 -4 -33 -12 2 -7 33 -72 70 -144 74 -145 100 -174 159 -174 22
0 39 2 39 3 0 2 -17 22 -37 44 -21 22 -62 86 -91 144 -47 93 -51 105 -36 114
77 46 113 109 114 194 0 77 -30 134 -87 168 -40 23 -57 26 -144 28 -55 0 -103
-2 -109 -5z"/>
<path d="M3550 7199 c-7 -12 -36 -94 -65 -180 -46 -135 -51 -160 -39 -170 8
-6 16 -10 18 -8 2 2 18 48 36 102 17 53 35 97 39 97 6 0 38 -96 68 -202 4 -14
-4 -17 -53 -20 -79 -4 -75 -22 6 -28 l65 -5 42 -120 c57 -164 67 -208 53 -234
-10 -20 -9 -21 65 -21 41 0 75 3 75 6 0 3 -10 18 -22 33 -26 30 -89 202 -201
545 -68 207 -76 226 -87 205z"/>
<path d="M2950 7142 c-8 -3 -19 -11 -23 -19 -6 -10 -12 -11 -21 -4 -7 6 -17 6
-26 1 -12 -7 -12 -11 1 -26 11 -13 15 -70 19 -267 l5 -251 29 -7 c16 -5 33 -6
38 -3 4 3 8 53 8 111 l0 106 30 -7 c36 -7 120 9 146 29 16 11 16 15 5 29 -13
15 -16 15 -39 0 -16 -10 -48 -17 -81 -18 l-56 -1 -2 145 c-2 154 -8 190 -33
182z"/>
<path d="M2985 7131 c-7 -12 1 -17 43 -26 39 -8 44 11 6 25 -32 12 -41 12 -49
1z"/>
<path d="M2109 7043 c-1 -5 -1 -12 0 -17 1 -5 11 -84 22 -175 12 -107 27 -185
40 -219 12 -29 23 -51 25 -50 1 2 -6 33 -16 69 -22 80 -55 307 -46 316 17 17
38 -33 61 -149 35 -179 57 -229 133 -310 40 -42 38 -68 -5 -69 l-28 -1 28 -10
c24 -9 31 -7 48 13 20 23 20 33 3 73 -6 16 -4 18 9 13 21 -8 21 9 2 43 -8 14
-14 44 -15 68 0 36 3 42 22 42 11 0 49 -16 84 -35 34 -19 65 -35 69 -35 12 0
-27 54 -49 70 -59 41 -120 110 -157 177 -66 122 -144 193 -209 193 -11 0 -21
-3 -21 -7z"/>
<path d="M4439 7027 c-42 -28 -101 -104 -139 -179 -31 -59 -70 -104 -155 -174
-28 -23 -47 -45 -43 -49 4 -4 31 6 60 23 49 28 74 36 106 33 17 -2 15 -57 -7
-118 -13 -39 -14 -50 -4 -42 18 15 28 5 18 -18 -4 -10 -9 -28 -11 -41 -2 -19
0 -21 12 -11 8 6 14 17 14 23 0 7 15 27 34 45 45 44 71 107 112 267 30 123 56
194 71 194 3 0 3 -44 0 -97 -3 -68 -3 -83 3 -48 5 28 9 74 9 103 1 29 6 63 12
74 22 41 -38 52 -92 15z"/>
<path d="M4492 6760 c0 -14 2 -19 5 -12 2 6 2 18 0 25 -3 6 -5 1 -5 -13z"/>
<path d="M3270 6595 c0 -142 -1 -147 -25 -171 -14 -14 -25 -26 -25 -27 0 -1
45 -2 100 -2 55 0 100 3 100 6 0 3 -9 14 -20 24 -25 22 -26 80 -4 155 15 51
15 54 -4 73 -20 19 -20 19 -43 -54 -40 -129 -54 -102 -16 31 15 54 15 55 -6
73 -59 48 -57 52 -57 -108z"/>
<path d="M4467 6663 c-8 -32 -14 -59 -12 -61 2 -2 11 21 20 53 9 31 15 58 13
61 -3 2 -12 -22 -21 -53z"/>
<path d="M2905 6458 c-21 -12 -35 -28 -35 -40 0 -5 31 -7 69 -7 66 1 69 2 58
20 -9 14 -60 42 -71 39 -1 0 -10 -6 -21 -12z"/>
<path d="M2425 6344 c86 -46 153 -113 168 -169 4 -17 5 -17 6 -2 2 29 -35 92
-71 119 -35 27 -112 68 -125 68 -4 -1 6 -8 22 -16z"/>
<path d="M4159 6322 c-52 -34 -109 -96 -109 -120 0 -10 7 -3 17 16 17 34 76
88 128 115 17 9 25 16 19 17 -5 0 -30 -13 -55 -28z"/>
<path d="M3975 6060 c3 -5 8 -10 11 -10 2 0 4 5 4 10 0 6 -5 10 -11 10 -5 0
-7 -4 -4 -10z"/>
<path d="M4058 5958 c-28 -30 -64 -36 -101 -17 -21 10 -21 10 -3 -5 31 -25 72
-19 108 13 18 16 31 31 28 33 -3 2 -17 -9 -32 -24z"/>
<path d="M3297 5960 c-4 -14 -7 -106 -7 -205 0 -260 -18 -637 -31 -650 -25
-25 -67 69 -99 223 -18 84 -19 85 -20 37 -1 -60 -14 -143 -24 -152 -3 -4 -13
2 -21 13 -32 41 -58 137 -90 324 -18 107 -34 179 -34 160 -1 -19 -7 -62 -15
-95 -7 -33 -27 -121 -44 -195 -16 -74 -33 -168 -37 -207 -6 -69 -5 -73 14 -73
18 0 21 6 21 43 0 23 3 52 6 65 12 43 24 21 24 -43 l0 -65 135 0 135 0 2 -112
c2 -62 1 -207 -1 -323 -2 -115 -1 -207 3 -204 8 8 23 161 36 364 5 94 14 184
19 200 l8 30 6 -25 c11 -46 18 -214 18 -417 0 -220 -4 -241 -60 -312 -29 -36
-30 -39 -28 -149 1 -119 6 -128 46 -91 23 22 24 46 6 135 -5 23 0 44 19 83 15
28 31 51 36 51 11 0 54 -64 64 -96 3 -11 -1 -40 -9 -64 -20 -57 -19 -74 8
-105 17 -20 35 -28 70 -32 l47 -6 0 32 c0 27 -3 31 -27 31 -47 0 -56 12 -44
56 21 75 14 109 -33 178 -34 50 -46 78 -52 122 -8 68 5 563 15 583 15 26 30
-72 36 -234 10 -247 24 -336 69 -424 18 -33 36 -41 36 -15 0 9 -11 48 -25 87
-15 41 -30 112 -36 171 -12 120 -8 292 6 290 6 -1 20 -5 33 -9 22 -6 22 -6 22
99 l0 106 100 0 100 0 0 60 c0 60 12 80 24 38 3 -13 6 -40 6 -60 0 -31 4 -38
20 -38 16 0 20 7 20 33 0 67 -22 206 -52 327 -29 118 -30 132 -24 260 3 74 8
149 11 165 5 29 5 29 -6 5 -14 -34 -39 -175 -39 -228 0 -23 -4 -50 -9 -60 -5
-9 -16 -73 -25 -141 -11 -81 -27 -150 -47 -202 -48 -125 -69 -117 -69 25 0 49
-2 87 -5 84 -3 -2 -14 -48 -25 -102 -11 -54 -28 -117 -38 -140 -20 -44 -48
-73 -60 -62 -6 7 -15 209 -28 670 -4 124 -10 203 -15 195 -5 -8 -9 -36 -9 -63
0 -64 -8 -55 -18 20 -6 47 -9 54 -15 34z"/>
<path d="M3900 5976 c0 -2 8 -10 18 -17 15 -13 16 -12 3 4 -13 16 -21 21 -21
13z"/>
<path d="M2936 5910 c4 -30 10 -89 13 -130 l7 -75 8 45 c8 46 -6 149 -25 193
-6 15 -7 6 -3 -33z"/>
<path d="M2714 5929 c-19 -22 -19 -22 4 -8 12 8 22 17 22 21 0 12 -6 9 -26
-13z"/>
<path d="M3910 5935 c0 -8 61 -36 70 -33 5 2 -9 11 -30 20 -22 9 -40 15 -40
13z"/>
<path d="M4054 5914 c-18 -14 -18 -15 4 -4 12 6 22 13 22 15 0 8 -5 6 -26 -11z"/>
<path d="M2559 5760 c13 -11 28 -20 33 -20 6 0 -1 9 -15 20 -33 26 -49 26 -18
0z"/>
<path d="M4079 5763 c-13 -16 -12 -17 4 -4 9 7 17 15 17 17 0 8 -8 3 -21 -13z"/>
<path d="M3253 3940 c-39 -17 -43 -22 -43 -56 l0 -37 23 21 c75 71 198 60 247
-21 l20 -32 0 52 c0 51 -1 51 -43 72 -56 27 -146 28 -204 1z"/>
</g>
</svg>
