<?xml version="1.0" standalone="no"?>
<!DOCTYPE svg PUBLIC "-//W3C//DTD SVG 20010904//EN"
 "http://www.w3.org/TR/2001/REC-SVG-20010904/DTD/svg10.dtd">
<svg version="1.0" xmlns="http://www.w3.org/2000/svg"
 width="821.000000pt" height="1024.000000pt" viewBox="0 0 821.000000 1024.000000"
 preserveAspectRatio="xMidYMid meet">
<metadata>
Created by potrace 1.16, written by Peter Selinger 2001-2019
</metadata>
<g transform="translate(0.000000,1024.000000) scale(0.100000,-0.100000)"
fill="#000000" stroke="none">
<path d="M453 9239 c-31 -11 -49 -44 -67 -124 -26 -119 -30 -247 -11 -360 19
-115 65 -263 108 -350 106 -213 331 -424 568 -534 203 -93 493 -176 792 -226
169 -27 233 -31 271 -14 38 18 73 3 103 -43 23 -33 28 -52 28 -102 0 -76 -17
-111 -107 -225 -104 -130 -122 -169 -122 -266 0 -136 55 -448 91 -518 25 -49
94 -117 166 -165 84 -55 128 -117 157 -222 18 -62 22 -112 26 -285 3 -115 10
-230 15 -255 6 -27 37 -85 79 -147 124 -183 161 -276 201 -504 16 -93 39 -207
50 -252 11 -45 24 -139 28 -208 6 -89 15 -139 28 -170 50 -112 251 -222 358
-195 59 15 81 77 54 154 -9 27 -7 39 16 87 15 30 31 55 36 55 12 0 47 -57 56
-89 3 -12 0 -47 -7 -76 -16 -67 -8 -101 30 -120 74 -38 231 9 328 99 59 55 73
95 83 243 5 74 15 160 23 191 8 31 31 140 51 242 20 102 45 214 57 250 29 89
91 208 151 288 85 115 91 134 93 312 3 224 13 325 40 410 29 92 64 136 158
199 151 102 175 153 227 483 37 238 27 284 -101 453 -93 123 -114 167 -114
235 1 42 7 65 27 97 30 47 59 59 101 44 35 -14 121 -14 205 0 452 75 731 157
946 277 163 92 341 253 431 392 55 85 113 225 145 347 20 75 23 113 24 258 0
233 -28 326 -101 341 -41 8 -69 -19 -83 -78 -23 -95 -84 -257 -123 -326 -52
-90 -157 -205 -244 -267 -121 -87 -303 -161 -474 -194 -73 -14 -232 -28 -465
-41 -260 -15 -318 -24 -390 -62 -52 -27 -70 -31 -130 -30 -94 1 -185 31 -330
107 -210 111 -308 126 -465 74 -88 -30 -202 -30 -290 0 -94 31 -192 38 -265
17 -33 -10 -121 -48 -195 -86 -168 -84 -248 -110 -346 -110 -60 0 -81 4 -112
23 -20 13 -45 26 -55 30 -40 15 -153 27 -337 37 -470 25 -655 63 -860 179
-225 128 -367 313 -441 577 -38 136 -61 164 -116 143z m35 -66 c5 -10 21 -61
36 -113 54 -190 146 -346 267 -451 80 -70 183 -146 209 -154 34 -11 22 -25
-21 -25 -44 0 -72 -11 -106 -43 l-23 -20 0 31 c0 90 -70 188 -190 264 -71 46
-103 75 -129 118 -11 19 -21 30 -21 24 0 -17 49 -86 83 -116 17 -16 25 -28 18
-28 -7 0 -9 -5 -5 -11 5 -8 8 -8 14 0 4 7 15 9 25 5 18 -7 18 -8 -1 -15 -15
-6 -13 -8 12 -8 22 -1 44 -13 75 -42 30 -28 35 -34 14 -21 -16 11 -61 31 -100
43 -68 24 -126 67 -168 129 l-18 25 12 -25 c35 -75 89 -116 201 -155 102 -35
136 -89 149 -238 10 -118 34 -176 90 -216 109 -80 255 -67 507 44 112 49 207
68 310 62 89 -5 171 -36 208 -79 10 -12 13 -18 7 -14 -16 9 -17 -6 -2 -21 15
-15 22 -73 18 -148 -6 -103 -4 -208 4 -247 7 -34 6 -38 -12 -38 -39 0 -187 52
-235 83 -62 39 -86 78 -86 139 0 76 20 104 86 123 26 7 74 -29 74 -55 0 -11
-9 -24 -20 -30 -24 -13 -26 -26 -4 -34 27 -10 53 3 69 35 14 25 14 33 1 63
-38 92 -182 85 -239 -12 -19 -32 -25 -93 -12 -131 6 -19 -3 -15 -52 22 -96 74
-179 88 -227 41 -31 -31 -34 -49 -6 -32 11 7 20 16 20 21 0 4 5 5 12 1 6 -4 8
-3 5 3 -10 16 33 23 76 13 44 -10 97 -42 147 -91 19 -19 55 -52 79 -73 35 -31
39 -38 20 -32 -13 4 -33 8 -43 7 -41 0 -297 74 -416 121 -213 84 -341 167
-485 312 -79 80 -111 121 -151 196 -118 217 -166 468 -134 693 16 109 36 143
58 100z m5702 -19 c24 -61 33 -212 22 -337 -30 -325 -164 -566 -421 -756 -124
-91 -207 -137 -354 -193 -116 -44 -368 -118 -405 -118 -8 0 8 17 35 39 26 21
59 51 73 66 30 33 114 75 151 75 14 0 34 -9 44 -20 22 -24 31 -19 16 9 -41 75
-154 55 -264 -47 -29 -27 -45 -38 -38 -25 15 28 17 124 3 150 -6 11 -27 34
-47 52 -30 26 -44 31 -85 31 -40 0 -55 -5 -80 -27 -42 -39 -49 -82 -18 -118
18 -21 29 -26 46 -21 24 8 30 36 8 36 -8 0 -18 10 -22 22 -5 16 0 27 20 45 15
13 34 23 42 23 8 0 12 5 9 10 -14 22 51 -3 79 -30 34 -33 46 -106 26 -165 -16
-49 -25 -38 -9 13 6 22 9 56 5 76 -7 34 -49 96 -66 96 -5 0 5 -13 21 -29 24
-25 29 -37 29 -81 0 -28 -6 -63 -14 -79 -24 -45 -89 -97 -152 -121 -63 -23
-162 -46 -169 -38 -2 2 0 22 7 44 7 25 8 86 4 171 -6 129 -6 134 18 172 51 81
109 105 231 99 79 -4 91 -8 242 -81 194 -94 255 -110 383 -105 78 3 104 9 146
31 104 53 159 131 211 297 45 141 72 175 134 167 34 -4 38 -3 28 9 -13 16 -72
19 -99 4 -29 -16 -56 -69 -85 -169 -48 -172 -103 -249 -207 -296 -52 -23 -76
-28 -143 -28 -111 1 -187 23 -351 103 -167 82 -212 95 -304 87 -80 -7 -134
-32 -178 -82 -33 -37 -44 -27 -15 14 12 18 13 22 2 17 -8 -4 0 4 16 18 51 44
110 67 188 73 106 8 193 -10 350 -74 175 -70 224 -83 317 -83 58 0 87 6 126
24 84 39 114 94 129 233 16 156 58 221 163 253 89 26 136 60 172 123 39 68 38
82 -1 26 -56 -79 -81 -99 -146 -119 -34 -10 -76 -26 -93 -35 -16 -8 -30 -13
-30 -11 0 9 84 53 111 60 15 3 37 15 50 26 l24 21 -45 -21 c-25 -11 -36 -15
-25 -8 76 48 146 157 144 222 0 12 -6 1 -13 -24 -24 -88 -79 -151 -186 -213
-91 -53 -160 -157 -160 -243 l0 -26 -30 26 c-29 24 -85 46 -120 46 -8 0 9 13
37 29 104 58 210 151 290 256 71 92 145 263 173 398 13 62 33 76 50 31z
m-5037 -769 c40 -17 213 -59 302 -74 89 -14 277 -30 482 -39 101 -5 186 -11
189 -15 4 -3 -9 -24 -29 -46 -19 -22 -46 -58 -59 -80 -13 -23 -26 -41 -29 -41
-3 0 -20 21 -36 48 -34 52 -116 108 -180 123 -112 26 -269 4 -412 -57 -246
-105 -385 -112 -466 -22 -34 37 -40 59 -35 118 5 56 49 90 119 90 45 0 76 -24
84 -66 10 -56 -44 -94 -84 -58 -18 16 -19 16 -25 -1 -10 -24 29 -55 68 -55 32
0 88 47 88 74 0 12 12 7 46 -17 43 -30 51 -32 137 -33 l92 -2 -80 7 c-105 9
-146 30 -190 96 -48 73 -46 77 18 50z m2012 -15 c136 -37 197 -38 311 -4 111
33 192 36 259 9 l50 -20 -76 -6 c-184 -15 -325 -146 -360 -334 -43 -233 114
-453 289 -404 51 14 98 64 107 113 18 94 -92 169 -155 106 -24 -24 -25 -43 -3
-65 16 -16 18 -16 36 9 21 29 39 33 57 11 17 -20 5 -61 -26 -92 -22 -22 -32
-25 -69 -21 -92 11 -148 89 -147 207 1 132 75 252 189 308 95 46 221 33 293
-30 l25 -22 -20 24 c-40 47 -93 66 -185 66 -75 0 -91 -3 -138 -29 -109 -61
-172 -166 -180 -298 -4 -69 -2 -84 23 -133 16 -35 40 -65 63 -80 20 -14 32
-25 27 -25 -26 0 -90 68 -116 124 -24 51 -29 74 -29 137 0 67 4 85 35 147 39
77 115 155 181 187 21 10 63 21 94 25 l55 7 -55 2 c-89 2 -187 -54 -251 -143
-38 -51 -37 -37 0 18 79 115 229 168 370 132 82 -21 118 -48 147 -110 39 -84
25 -175 -34 -229 -48 -43 -140 -28 -162 26 l-9 22 0 -22 c-1 -13 12 -37 28
-55 25 -28 35 -32 78 -32 119 0 197 122 159 249 -9 27 -14 51 -12 53 6 5 72
-80 91 -117 9 -19 20 -60 22 -91 8 -81 -24 -146 -122 -251 -117 -124 -149
-215 -107 -299 19 -38 74 -80 104 -80 38 0 86 31 97 62 14 39 -5 82 -37 86
-22 3 -30 -12 -12 -23 30 -19 -4 -75 -46 -75 -42 0 -74 42 -74 96 0 66 28 118
103 192 l64 64 -5 -74 c-7 -107 25 -170 157 -313 108 -117 141 -170 141 -226
0 -36 -8 -51 -82 -149 -27 -34 -48 -67 -48 -73 0 -6 12 6 28 25 15 20 49 61
75 92 90 102 74 167 -82 341 -161 179 -183 253 -127 428 25 75 28 99 24 170
-5 91 -23 131 -87 201 l-36 39 30 -8 c73 -18 184 -34 232 -35 46 0 56 -4 87
-35 49 -48 94 -148 106 -235 17 -117 -1 -185 -56 -215 -68 -36 -94 -79 -120
-190 l-7 -30 -14 45 c-23 75 8 163 72 201 16 11 24 19 16 19 -26 0 -99 -87
-107 -125 -19 -103 27 -219 151 -375 96 -121 125 -178 125 -244 0 -65 -45
-365 -65 -431 -24 -81 -65 -132 -161 -199 -127 -88 -145 -116 -201 -306 -3
-11 -9 -7 -19 12 -18 35 -43 48 -88 48 -27 0 -40 -6 -52 -25 -9 -14 -13 -32
-10 -42 6 -14 9 -14 22 6 21 30 63 25 83 -10 12 -22 13 -31 1 -58 -33 -80
-144 -72 -184 14 -34 71 -9 168 65 249 58 64 99 91 183 122 75 28 63 31 -22 5
-113 -35 -222 -124 -263 -215 -47 -107 -34 -189 62 -377 86 -168 76 -309 -20
-309 -32 0 -71 39 -71 69 0 28 29 60 58 63 27 3 26 3 -12 23 -52 26 -72 56
-92 135 -12 48 -15 88 -11 155 12 173 61 279 190 408 50 50 76 82 60 73 -31
-16 -124 -111 -167 -169 -41 -56 -85 -156 -97 -222 -6 -33 -9 -104 -7 -157 4
-79 10 -107 32 -152 15 -31 36 -61 46 -66 19 -10 19 -11 0 -43 -25 -40 -26
-114 -5 -224 8 -43 20 -127 25 -188 11 -128 2 -204 -61 -487 -23 -104 -39
-204 -39 -242 0 -92 -16 -164 -46 -203 -50 -65 -211 -137 -260 -115 -20 10
-22 15 -13 44 17 61 11 124 -15 155 -13 15 -34 48 -47 73 -24 45 -24 47 -22
331 1 157 6 296 11 309 16 42 30 -52 37 -245 10 -264 43 -400 107 -435 25 -13
29 -13 55 6 34 24 66 87 92 174 10 36 35 121 55 190 88 297 91 458 15 763 -36
148 -38 284 -4 457 4 18 3 21 -4 10 -14 -24 -41 -141 -51 -226 -35 -294 -71
-458 -113 -511 -19 -24 -21 -25 -28 -7 -4 10 -8 57 -8 103 -1 46 -4 82 -7 78
-3 -3 -16 -55 -29 -115 -23 -111 -42 -158 -68 -181 -11 -8 -17 -9 -22 -1 -8
13 -23 326 -27 550 -4 260 -8 345 -19 329 -5 -8 -9 -36 -10 -64 0 -37 -3 -45
-9 -30 -5 11 -9 38 -10 60 0 27 -3 35 -9 25 -5 -8 -12 -175 -16 -370 -8 -395
-15 -502 -31 -507 -27 -9 -71 107 -102 267 -8 44 -9 44 -16 -40 -4 -47 -10
-93 -13 -103 -5 -18 -6 -18 -24 -1 -39 35 -88 253 -130 584 -9 69 -37 176 -44
168 -2 -2 0 -23 5 -48 5 -25 12 -88 16 -140 5 -66 10 -89 15 -75 18 41 -4 -93
-37 -231 -42 -175 -54 -255 -54 -370 0 -112 10 -171 61 -349 94 -328 121 -388
178 -393 84 -8 121 107 136 423 3 66 11 158 17 205 18 144 30 63 35 -255 6
-323 9 -303 -64 -412 -31 -45 -34 -57 -29 -90 4 -21 8 -54 9 -73 l2 -35 -49 3
c-90 4 -219 80 -251 148 -13 27 -18 67 -20 143 -2 71 -11 140 -28 211 -38 155
-65 304 -73 400 -7 91 7 259 32 375 21 97 20 143 -6 178 l-22 29 25 26 c41 43
67 114 73 199 14 184 -67 371 -221 511 -95 87 -106 80 -14 -9 103 -100 137
-149 175 -249 26 -69 28 -86 28 -210 0 -171 -19 -219 -100 -260 -37 -18 -37
-19 -12 -20 60 0 81 -80 32 -119 -35 -28 -48 -26 -86 8 -32 28 -33 33 -33 103
0 69 3 79 62 198 71 143 88 201 80 270 -14 115 -100 227 -219 283 -75 36 -114
44 -48 10 77 -40 164 -124 195 -188 29 -62 33 -131 10 -176 -18 -33 -69 -69
-100 -69 -29 1 -66 24 -81 51 -10 19 -13 20 -14 7 0 -22 32 -55 64 -68 25 -9
63 -4 84 13 7 6 12 6 12 0 0 -11 -44 -33 -66 -33 -32 0 -85 33 -100 62 -16 31
-16 84 1 82 6 -1 16 7 23 17 18 26 57 24 76 -3 12 -17 19 -19 27 -11 9 9 8 18
-5 38 -36 54 -93 52 -138 -5 l-24 -31 -11 48 c-29 123 -74 185 -195 270 -98
69 -131 109 -157 192 -22 71 -71 372 -71 437 0 56 37 127 119 229 40 50 91
128 114 174 39 79 42 90 42 166 0 74 -3 85 -28 118 -27 36 -93 78 -119 76 -7
0 3 -7 22 -16 42 -18 77 -49 96 -85 16 -30 19 -145 5 -167 -10 -16 -13 -8 -26
72 -7 45 -54 101 -106 127 -46 24 -47 26 -60 94 -20 112 24 269 100 346 l46
47 95 6 c52 4 118 13 145 22 69 21 71 20 36 -20 -90 -103 -110 -211 -67 -367
51 -186 30 -264 -110 -418 -179 -197 -190 -245 -87 -368 31 -37 63 -74 71 -82
26 -25 -17 40 -60 92 -85 103 -75 147 76 312 119 131 140 160 161 225 13 41
16 70 11 120 l-7 66 57 -55 c85 -83 114 -133 114 -197 0 -44 -5 -59 -25 -78
-46 -47 -124 -19 -95 34 15 29 12 41 -10 41 -39 0 -55 -83 -21 -114 82 -75
201 -4 201 120 -1 74 -31 129 -125 224 -97 98 -117 138 -117 228 1 73 32 149
80 195 l29 28 -13 -53 c-29 -110 21 -212 115 -238 54 -14 88 -7 124 28 20 19
27 35 26 61 l0 36 -16 -37 c-8 -21 -19 -38 -25 -38 -5 0 -7 4 -4 9 3 4 -7 6
-22 2 -25 -5 -25 -6 -4 -9 36 -6 14 -22 -30 -22 -35 0 -47 6 -84 44 -42 41
-44 46 -44 102 0 102 62 189 152 215 57 17 162 17 219 0 55 -15 133 -73 162
-120 18 -29 14 -27 -30 17 -66 66 -121 93 -197 98 l-61 3 54 -9 c248 -45 383
-352 241 -548 -29 -40 -83 -82 -105 -82 -5 0 4 8 20 19 78 47 119 134 113 238
-8 127 -78 236 -190 294 -57 31 -173 33 -236 5 -53 -24 -49 -32 4 -10 57 24
149 22 209 -5 186 -82 262 -337 141 -469 -53 -59 -121 -68 -167 -23 -31 31
-35 51 -19 82 14 25 36 24 52 -1 16 -25 34 -26 48 -1 34 64 -74 99 -131 42
-24 -25 -29 -37 -29 -80 0 -44 4 -55 38 -90 85 -90 235 -53 307 77 90 161 66
367 -61 502 -56 60 -165 112 -246 118 -32 3 -58 8 -58 12 0 6 51 25 95 34 47
9 86 4 190 -24z m2365 12 c0 -4 -13 -28 -29 -53 -41 -65 -85 -84 -191 -83
l-85 0 50 -14 c66 -20 144 -4 197 38 l37 31 7 -26 c15 -58 103 -86 144 -45 22
22 25 36 9 45 -6 4 -16 -1 -23 -10 -18 -25 -64 -12 -77 22 -29 78 67 133 148
83 77 -47 62 -170 -27 -220 -39 -22 -56 -25 -130 -24 -90 2 -117 9 -330 92
-74 28 -129 43 -182 48 -43 4 -75 10 -73 14 3 4 46 11 97 14 115 9 269 38 368
70 88 28 90 29 90 18z m-654 -112 c-98 -17 -206 -93 -222 -157 -9 -33 -19 -28
-49 23 -15 26 -43 64 -62 85 -34 38 -34 38 -11 44 24 5 148 10 303 12 78 1 83
0 41 -7z m-2683 -31 c12 -7 24 -13 26 -15 2 -1 -15 -24 -37 -51 -95 -114 -123
-232 -109 -458 2 -29 0 -30 -37 -30 -35 0 -40 3 -48 30 -5 17 -8 72 -9 122 0
139 42 252 138 371 37 45 43 48 76 31z m2348 -41 c52 -66 83 -129 103 -205 19
-71 21 -205 5 -269 -11 -43 -12 -44 -51 -44 l-39 0 8 48 c28 165 -11 327 -108
444 l-39 47 22 15 c36 26 55 19 99 -36z m-2905 -200 c-21 -33 -30 -101 -18
-138 6 -17 7 -28 2 -25 -18 11 -30 80 -20 114 11 38 39 85 47 78 2 -3 -2 -16
-11 -29z m3574 -78 c-19 -10 -75 -54 -123 -98 -49 -44 -98 -83 -110 -86 -20
-5 -20 -5 -1 13 139 132 217 190 254 190 8 0 -1 -8 -20 -19z m-2691 -65 c0 -5
-4 -3 -9 5 -5 8 -9 22 -9 30 0 16 17 -16 18 -35z m1602 -12 c-11 -21 -52 -72
-91 -113 -90 -94 -124 -163 -118 -232 4 -32 2 -46 -5 -39 -16 16 -10 116 8
152 10 19 57 75 105 125 51 53 93 106 101 128 7 21 15 33 17 27 2 -5 -6 -27
-17 -48z m-1489 -119 c85 -90 97 -108 108 -155 10 -44 9 -60 -1 -87 -14 -33
-14 -32 -14 35 -1 86 -12 106 -114 212 -45 46 -81 88 -81 94 0 6 1 8 3 6 2 -2
46 -50 99 -105z m312 41 c-10 -25 17 -76 50 -96 17 -10 26 -19 21 -19 -13 0
-56 30 -72 50 -13 16 -17 62 -6 73 10 11 13 8 7 -8z m766 -21 c0 -28 -58 -94
-81 -94 -8 1 -2 7 13 16 28 15 58 61 58 89 0 8 2 15 5 15 3 0 5 -12 5 -26z
m-133 -90 c-3 -3 -12 -4 -19 -1 -8 3 -5 6 6 6 11 1 17 -2 13 -5z m533 -1655
c0 -48 -47 -89 -103 -89 -42 0 -86 22 -109 55 -5 7 -8 7 -8 -1 0 -16 41 -51
74 -64 42 -16 93 -2 131 36 l33 33 -2 -197 c-3 -226 -3 -229 -92 -347 -32 -42
-77 -115 -100 -163 -24 -48 -45 -80 -47 -72 -12 39 -48 252 -44 257 3 2 15 -1
27 -7 12 -7 35 -10 51 -8 16 3 29 0 29 -5 0 -6 14 10 30 35 44 66 55 141 34
225 -9 38 -23 72 -30 76 -23 13 -85 118 -105 176 -19 55 -25 95 -8 53 5 -13
13 -21 18 -18 5 3 15 -1 22 -10 20 -24 65 -44 99 -44 38 0 78 37 86 80 8 39
14 38 14 -1z m-1363 -112 c-13 -28 -42 -74 -65 -101 -75 -90 -83 -224 -19
-321 17 -26 28 -32 59 -33 22 -1 50 5 65 15 26 17 26 17 21 -7 -3 -14 -13 -68
-23 -120 -9 -52 -20 -108 -24 -125 -7 -27 -9 -28 -16 -10 -22 59 -60 129 -109
200 -113 163 -111 157 -115 283 -2 61 0 112 4 112 4 0 18 -9 32 -20 14 -11 33
-20 42 -19 13 0 14 1 1 6 -8 3 -30 19 -47 36 -31 29 -33 34 -33 105 l0 74 28
-30 c40 -43 92 -51 149 -23 25 12 49 32 56 48 11 26 12 26 15 5 2 -12 -7 -46
-21 -75z m-86 -197 c-17 -67 -34 -83 -20 -19 9 38 26 79 33 79 1 0 -4 -27 -13
-60z m1329 15 c0 -5 -5 -3 -10 5 -5 8 -10 20 -10 25 0 6 5 3 10 -5 5 -8 10
-19 10 -25z m7 -37 c-3 -8 -6 -5 -6 6 -1 11 2 17 5 13 3 -3 4 -12 1 -19z
m-1055 -605 c3 -121 10 -208 17 -223 11 -24 11 -24 7 7 -9 56 -19 278 -13 272
8 -7 47 -358 47 -422 0 -28 -3 -48 -6 -44 -3 3 -22 59 -41 124 -31 105 -36
135 -40 265 -5 146 0 218 16 218 5 0 11 -89 13 -197z m785 -18 c-4 -141 -14
-193 -67 -350 l-20 -60 5 75 c6 84 23 237 36 320 6 44 8 31 5 -60 -3 -79 -1
-104 5 -80 5 19 12 112 16 205 5 134 9 162 16 130 4 -22 6 -103 4 -180z m-512
-139 c9 -58 -11 -306 -30 -381 -17 -64 -44 -110 -66 -110 -42 0 -82 167 -69
292 11 101 35 157 88 206 55 49 69 48 77 -7z m298 3 c67 -55 100 -198 78 -339
-11 -67 -46 -160 -60 -160 -26 1 -53 51 -75 141 -16 66 -34 354 -23 382 8 21
36 12 80 -24z"/>
<path d="M540 8696 c0 -2 8 -10 18 -17 15 -13 16 -12 3 4 -13 16 -21 21 -21
13z"/>
<path d="M567 8503 c-15 -14 -6 -23 13 -13 26 14 83 -9 103 -42 8 -12 27 -66
42 -118 35 -123 66 -180 137 -245 75 -70 141 -95 249 -95 111 0 181 20 344
100 163 79 197 90 285 90 76 0 137 -24 181 -71 32 -35 38 -32 13 7 -28 42 -98
76 -167 81 -93 8 -164 -12 -305 -82 -180 -90 -237 -108 -352 -109 -79 -1 -103
3 -145 22 -107 49 -185 157 -220 302 -22 92 -46 142 -79 163 -25 17 -87 23
-99 10z"/>
<path d="M1412 7916 c41 -15 94 -55 153 -115 21 -23 44 -41 50 -41 5 0 -21 30
-60 66 -72 67 -130 104 -162 104 -10 -1 -1 -7 19 -14z"/>
<path d="M6095 8710 c-10 -11 -13 -20 -7 -20 6 0 16 9 22 20 6 11 9 20 7 20
-2 0 -12 -9 -22 -20z"/>
<path d="M3939 8021 c-11 -25 -27 -43 -48 -52 -34 -15 -42 -30 -12 -22 27 7
68 53 76 86 10 38 3 33 -16 -12z"/>
<path d="M2698 8005 c19 -36 82 -78 82 -55 0 6 -7 10 -16 10 -9 0 -30 15 -47
33 -16 17 -25 23 -19 12z"/>
<path d="M2251 7974 c-1 -47 25 -91 94 -164 23 -25 47 -54 53 -65 8 -15 11
-16 12 -4 0 8 -5 20 -12 27 -6 6 -9 14 -6 18 12 12 31 -41 36 -100 6 -79 12
-85 12 -12 0 76 -16 111 -89 188 -33 36 -69 85 -80 109 l-20 44 0 -41z m99
-131 c24 -23 42 -44 39 -47 -8 -8 -119 109 -119 125 0 8 8 2 17 -11 10 -14 38
-44 63 -67z"/>
<path d="M4371 7965 c-7 -19 -35 -58 -63 -85 -53 -52 -98 -108 -98 -121 0 -4
34 28 75 71 41 43 75 75 75 71 0 -4 -14 -20 -31 -37 -36 -34 -109 -127 -109
-139 0 -4 10 5 22 21 12 16 48 57 80 91 58 64 91 134 72 153 -7 7 -15 -3 -23
-25z"/>
<path d="M4207 7703 c-4 -3 -7 -20 -6 -37 l1 -31 8 35 c9 36 8 45 -3 33z"/>
<path d="M3288 7473 l-298 -3 0 -73 0 -72 25 28 c42 44 83 60 173 65 45 2 82
3 83 1 0 -2 3 -107 6 -234 5 -249 1 -232 66 -270 l27 -16 0 260 0 261 68 0
c94 0 134 -14 176 -60 l36 -40 0 74 c0 77 -7 89 -48 84 -9 -2 -151 -4 -314 -5z"/>
<path d="M3179 7282 c-25 -16 -55 -41 -66 -56 -28 -36 -45 -117 -37 -180 13
-104 64 -168 225 -283 139 -99 180 -141 215 -217 60 -133 1 -296 -122 -336
-53 -18 -155 -8 -193 19 -44 32 -91 95 -117 159 l-24 57 0 -127 c0 -71 2 -128
5 -128 3 0 14 5 24 12 16 10 30 6 83 -18 55 -25 75 -29 153 -29 73 0 99 4 136
22 132 66 196 205 164 358 -28 130 -93 207 -295 347 -112 78 -152 117 -179
178 -25 54 -26 76 -6 84 11 4 15 -1 15 -17 0 -26 43 -121 59 -131 18 -11 13
81 -6 121 -9 19 -22 37 -30 40 -22 8 -15 35 18 69 22 22 30 39 27 58 l-3 27
-46 -29z"/>
<path d="M3400 7273 c1 -10 14 -43 29 -73 l29 -55 6 40 c19 116 22 105 -24
105 -32 0 -40 -4 -40 -17z"/>
<path d="M2852 7221 c-142 -49 -224 -177 -225 -351 -2 -222 131 -370 331 -370
114 0 212 51 212 111 0 24 -16 25 -29 0 -6 -10 -34 -31 -63 -45 -129 -64 -276
-6 -329 132 -17 45 -22 79 -23 157 -1 151 42 257 126 312 37 25 51 28 132 29
71 0 91 4 91 14 0 32 -141 39 -223 11z"/>
<path d="M3647 7234 c-3 -4 0 -13 8 -21 11 -11 15 -41 15 -121 0 -98 4 -117
39 -222 l39 -115 1 223 1 222 46 0 c62 0 106 -43 123 -118 24 -115 -28 -212
-114 -212 -27 0 -41 -15 -24 -26 7 -4 36 -57 65 -118 61 -130 85 -163 130
-182 38 -16 44 -17 62 -6 9 6 2 19 -25 49 -21 23 -60 87 -88 143 l-50 102 25
17 c70 45 103 108 102 193 0 83 -31 135 -101 171 -48 24 -66 27 -151 27 -53 0
-99 -3 -103 -6z"/>
<path d="M3521 7128 c-86 -244 -95 -288 -60 -288 5 0 22 45 40 100 18 55 35
100 38 100 3 0 19 -44 35 -98 16 -53 31 -102 33 -109 3 -8 -13 -13 -54 -15
-78 -4 -74 -22 6 -28 l65 -5 29 -80 c52 -145 80 -256 68 -268 -22 -22 -10 -27
71 -27 l82 0 -26 28 c-31 32 -91 192 -204 539 -44 134 -82 243 -85 243 -3 0
-20 -42 -38 -92z"/>
<path d="M2943 7139 c-13 -5 -23 -14 -23 -20 0 -8 -4 -8 -13 -1 -7 6 -18 7
-25 3 -10 -6 -9 -15 3 -44 12 -29 15 -84 15 -272 l0 -235 25 -1 c14 -1 31 -2
38 -3 8 -1 13 29 17 104 5 102 6 105 28 102 31 -5 126 16 148 32 15 11 16 17
6 29 -12 14 -18 13 -58 -4 -26 -12 -60 -19 -82 -17 l-37 3 -3 139 c-3 152 0
161 51 150 16 -3 27 -1 27 5 0 18 -52 34 -72 22 -12 -8 -17 -7 -20 3 -2 10 -9
11 -25 5z"/>
<path d="M2105 7040 c-3 -5 -4 -14 0 -20 3 -5 14 -83 25 -172 11 -90 26 -182
34 -204 19 -54 53 -121 66 -129 5 -3 1 9 -9 27 -34 59 -58 166 -86 391 -6 40
8 49 25 17 6 -11 21 -73 34 -137 34 -163 58 -222 118 -288 54 -59 57 -85 11
-85 -40 0 -16 -17 32 -22 22 -3 32 -3 23 -1 -22 5 -22 10 -2 30 11 11 14 26 9
49 -5 28 -3 33 10 28 12 -5 12 1 -5 37 -11 24 -20 61 -20 82 0 32 3 37 23 37
13 0 49 -16 81 -35 32 -19 62 -35 67 -35 20 0 -22 58 -60 85 -58 40 -103 92
-142 165 -38 71 -108 154 -150 175 -32 17 -75 20 -84 5z"/>
<path d="M4430 7025 c-38 -28 -81 -85 -148 -198 -30 -51 -63 -91 -92 -112 -54
-40 -106 -93 -98 -100 3 -3 35 10 70 30 70 38 105 44 115 20 5 -14 -12 -88
-33 -140 -7 -18 -6 -19 9 -6 25 20 29 9 11 -28 -13 -25 -13 -35 -4 -46 19 -22
30 -18 30 11 0 17 13 39 39 64 44 43 79 126 112 270 25 109 47 170 61 170 20
0 -19 -256 -52 -343 -11 -28 -18 -53 -16 -55 9 -9 37 62 56 141 21 90 51 327
43 340 -10 16 -71 6 -103 -18z"/>
<path d="M3270 6605 c0 -135 -7 -171 -36 -188 -29 -17 -10 -22 86 -24 55 0
100 2 100 6 0 5 -9 16 -20 26 -25 23 -26 83 -3 154 16 51 16 53 -4 73 l-21 20
-23 -73 c-39 -127 -55 -116 -19 14 l20 72 -22 18 c-60 47 -58 51 -58 -98z"/>
<path d="M2520 6496 c0 -2 14 -14 30 -26 17 -12 30 -19 30 -16 0 2 -13 14 -30
26 -16 12 -30 19 -30 16z"/>
<path d="M4084 6468 l-19 -23 25 20 c14 11 27 21 29 22 2 2 0 3 -6 3 -5 0 -18
-10 -29 -22z"/>
<path d="M2892 6454 c-43 -30 -28 -44 48 -44 l70 0 -15 24 c-14 21 -42 35 -70
36 -6 0 -21 -7 -33 -16z"/>
<path d="M4295 6420 c-13 -5 -14 -9 -5 -9 8 0 24 4 35 9 13 5 14 9 5 9 -8 0
-24 -4 -35 -9z"/>
<path d="M2430 6400 c34 -11 60 -11 35 0 -11 5 -29 8 -40 8 -16 0 -15 -2 5 -8z"/>
<path d="M4228 6403 c6 -2 18 -2 25 0 6 3 1 5 -13 5 -14 0 -19 -2 -12 -5z"/>
<path d="M2330 6376 c0 -2 24 -12 53 -22 28 -9 68 -27 87 -39 46 -29 108 -98
116 -130 3 -14 10 -25 15 -25 12 0 -18 80 -39 103 -27 30 -98 77 -139 91 -50
17 -93 27 -93 22z"/>
<path d="M4224 6356 c-52 -17 -127 -68 -154 -106 -12 -16 -23 -47 -26 -67 l-4
-38 15 41 c27 70 95 129 195 166 53 19 33 22 -26 4z"/>
<path d="M2930 4373 c0 -6 20 -37 43 -69 46 -61 125 -117 182 -129 21 -4 14 2
-25 22 -78 39 -138 89 -172 142 -15 25 -28 40 -28 34z"/>
<path d="M3675 4324 c-41 -59 -96 -102 -166 -130 -23 -10 -38 -19 -31 -22 21
-7 119 45 158 85 34 34 93 123 81 123 -2 0 -21 -25 -42 -56z"/>
<path d="M2143 8183 c-69 -68 -124 -189 -122 -268 1 -18 6 -2 14 37 17 86 66
177 122 229 25 22 42 43 40 45 -3 3 -27 -17 -54 -43z"/>
<path d="M4512 8160 c14 -19 35 -54 48 -77 13 -24 25 -41 27 -39 8 7 -35 81
-67 116 l-32 35 24 -35z"/>
<path d="M4596 8005 c11 -48 25 -76 18 -35 -4 19 -10 42 -15 50 -6 10 -7 5 -3
-15z"/>
<path d="M4084 5777 c-5 -7 -21 -20 -35 -29 -13 -9 -18 -17 -12 -17 7 -1 27
12 45 29 18 16 29 29 23 29 -5 0 -15 -5 -21 -12z"/>
</g>
</svg>
