<?xml version="1.0" standalone="no"?>
<!DOCTYPE svg PUBLIC "-//W3C//DTD SVG 20010904//EN"
 "http://www.w3.org/TR/2001/REC-SVG-20010904/DTD/svg10.dtd">
<svg version="1.0" xmlns="http://www.w3.org/2000/svg"
 width="821.000000pt" height="530.000000pt" viewBox="0 0 821.000000 530.000000"
 preserveAspectRatio="xMidYMid meet">
<metadata>
Created by potrace 1.16, written by Peter Selinger 2001-2019
</metadata>
<g transform="translate(0.000000,530.000000) scale(0.100000,-0.100000)"
fill="#000000" stroke="none">
<path d="M6119 5073 c-13 -15 -12 -15 6 -6 11 6 27 13 35 16 10 4 8 6 -6 6
-12 1 -28 -6 -35 -16z"/>
<path d="M6097 5003 c-3 -5 -13 -37 -22 -73 -90 -330 -362 -582 -725 -673
-151 -37 -150 -37 -90 -30 30 4 87 8 125 9 39 1 90 9 115 17 48 18 59 15 41
-7 -8 -10 -10 -27 -6 -48 l7 -32 20 37 c28 56 89 73 148 42 58 -30 79 -128 42
-190 -23 -36 -92 -73 -156 -81 -29 -4 -46 -12 -46 -20 0 -11 10 -13 43 -8 151
21 200 73 219 228 6 44 18 107 28 138 10 32 14 55 9 52 -17 -10 -9 12 16 46
34 46 31 53 -5 10 -29 -35 -60 -124 -60 -173 0 -34 -10 -34 -40 -2 -25 26 -76
45 -122 45 -37 0 -35 15 4 31 94 39 231 153 315 264 36 47 120 209 127 245 3
14 12 47 21 74 17 56 19 80 6 72 -5 -4 -7 3 -4 14 5 20 -1 27 -10 13z"/>
<path d="M6223 4608 c1 -44 2 -45 18 -17 7 13 7 19 1 15 -6 -3 -13 4 -15 16
-3 13 -4 6 -4 -14z"/>
<path d="M6075 4500 c-3 -6 1 -7 9 -4 18 7 21 14 7 14 -6 0 -13 -4 -16 -10z"/>
<path d="M5933 4480 c-46 -27 -41 -34 5 -8 46 27 48 28 36 28 -5 0 -24 -9 -41
-20z"/>
<path d="M5902 4423 c-15 -16 -19 -21 -7 -12 11 9 29 21 40 27 11 6 14 12 8
12 -7 0 -25 -12 -41 -27z"/>
<path d="M5994 4360 c-34 -13 -62 -61 -84 -144 -30 -108 -19 -106 13 2 27 90
49 122 97 141 14 5 18 10 10 10 -8 0 -25 -4 -36 -9z"/>
<path d="M6157 4343 c3 -7 1 -13 -5 -13 -6 0 -32 -37 -58 -81 -26 -45 -65
-103 -86 -130 -21 -27 -37 -54 -36 -61 2 -7 -2 -12 -9 -11 -6 1 -38 -22 -71
-51 -96 -86 -229 -176 -337 -228 -55 -27 -89 -46 -75 -43 14 3 30 7 35 8 6 2
16 7 24 11 11 7 13 5 8 -7 -9 -25 11 -21 68 13 39 23 44 29 25 26 -14 -1 -32
-6 -40 -11 -13 -8 -13 -7 -1 9 10 12 26 16 52 15 31 -3 52 6 116 48 90 59 226
180 217 194 -3 5 0 8 8 7 7 -2 12 3 11 10 -2 6 1 12 6 12 5 0 13 9 16 21 4 11
9 18 12 15 8 -7 54 55 87 118 30 56 31 60 12 53 -11 -4 -11 -1 -2 19 12 26 32
34 22 8 -3 -9 -2 -12 5 -9 5 4 7 15 4 26 -4 10 -2 19 3 19 5 0 9 6 9 13 0 8
-6 14 -13 14 -7 0 -10 -6 -7 -14z"/>
<path d="M2872 4286 c-40 -13 -78 -29 -85 -34 -23 -19 -195 -102 -253 -123
-33 -11 -96 -23 -141 -26 -75 -5 -85 -4 -125 19 -77 46 -137 57 -370 69 -121
6 -222 8 -226 5 -3 -3 17 -6 45 -6 65 0 114 -10 107 -21 -3 -5 -10 -6 -16 -3
-7 5 -8 2 -4 -5 6 -9 13 -8 26 4 20 18 24 18 248 -1 45 -4 90 -13 100 -20 14
-11 12 -12 -18 -4 -19 6 -51 10 -70 9 l-35 -1 30 -9 c17 -5 48 -13 70 -19 22
-5 49 -16 60 -24 19 -13 18 -16 -21 -58 -22 -24 -53 -70 -68 -102 -27 -58 -62
-194 -51 -204 3 -3 5 3 5 14 0 16 2 17 10 4 5 -8 10 -10 10 -5 0 6 5 3 10 -5
8 -12 10 -11 10 8 0 13 -6 22 -15 22 -8 0 -15 9 -15 20 0 11 5 20 11 20 6 0 8
-7 5 -16 -3 -8 -2 -12 3 -9 6 3 19 31 31 63 40 107 98 187 142 196 12 3 61 7
107 11 47 3 109 13 139 21 29 9 56 13 59 10 3 -3 -11 -24 -32 -47 -60 -67 -85
-131 -85 -223 0 -97 15 -151 49 -173 14 -9 60 -48 101 -87 88 -84 74 -60 -22
37 -37 37 -77 89 -89 114 -24 51 -38 143 -21 143 6 0 12 -6 15 -12 2 -7 4 1 5
19 1 45 34 111 82 166 24 26 44 46 47 44 2 -3 -4 -32 -13 -67 -15 -52 -16 -69
-6 -107 25 -92 86 -140 168 -130 42 4 53 11 84 51 12 16 8 15 -18 -4 -89 -65
-200 3 -212 130 -3 32 -4 57 -1 55 2 -3 14 17 26 43 27 59 82 108 137 123 24
6 82 9 133 7 92 -4 137 -19 182 -60 13 -12 27 -17 35 -12 7 4 10 4 6 -1 -4 -4
6 -27 23 -51 43 -62 55 -97 69 -195 15 -100 6 -151 -39 -236 -21 -39 -24 -50
-12 -45 14 5 14 3 2 -11 -7 -9 -17 -14 -22 -11 -5 3 -23 -5 -40 -17 -66 -47
-161 -31 -205 35 -34 53 6 128 66 125 24 -2 24 -2 2 -6 -22 -4 -23 -5 -5 -18
21 -17 47 -20 38 -5 -3 6 -2 10 4 10 5 0 12 -6 14 -12 3 -8 6 -6 6 4 1 21 -36
48 -65 48 -51 0 -102 -78 -88 -134 8 -35 71 -99 89 -92 8 3 15 2 15 -3 0 -4
21 -8 48 -9 36 -2 43 1 32 9 -12 9 -10 10 9 5 16 -3 35 3 55 17 44 30 51 38
84 93 31 51 55 114 32 84 -9 -12 -10 -8 -6 19 3 18 6 52 6 75 0 32 3 38 11 26
8 -11 9 2 6 47 -11 136 -100 262 -230 323 -52 25 -74 30 -139 30 -43 0 -78 4
-78 9 0 5 26 19 58 31 78 30 183 30 277 -1 83 -27 195 -31 270 -9 44 12 47 15
25 20 -22 6 -18 9 30 25 30 10 84 22 120 25 l65 7 -60 1 c-37 1 -85 -6 -125
-19 -107 -34 -207 -36 -328 -5 -127 32 -204 33 -300 2z m328 -26 c20 -6 21 -8
5 -8 -11 0 -33 4 -50 8 -27 7 -27 8 -5 8 14 0 36 -4 50 -8z m-973 -136 c-3 -3
-12 -4 -19 -1 -8 3 -5 6 6 6 11 1 17 -2 13 -5z m420 -276 c-3 -8 -6 -5 -6 6
-1 11 2 17 5 13 3 -3 4 -12 1 -19z"/>
<path d="M3830 4256 c0 -2 7 -7 16 -10 8 -3 12 -2 9 4 -6 10 -25 14 -25 6z"/>
<path d="M5163 4213 c9 -2 23 -2 30 0 6 3 -1 5 -18 5 -16 0 -22 -2 -12 -5z"/>
<path d="M5068 4203 c7 -3 16 -2 19 1 4 3 -2 6 -13 5 -11 0 -14 -3 -6 -6z"/>
<path d="M3635 4193 c-93 -23 -196 -110 -244 -207 -24 -49 -32 -81 -37 -151
-5 -66 -4 -86 4 -81 7 4 13 0 13 -11 1 -10 5 19 9 65 4 48 13 90 22 100 8 9
26 38 41 63 25 43 72 92 127 132 25 17 25 17 1 6 -39 -18 -110 -89 -139 -138
-14 -24 -28 -39 -30 -33 -2 7 11 37 28 67 47 82 165 165 234 165 14 0 28 5 32
12 4 7 3 8 -4 4 -7 -4 -12 -2 -12 3 0 11 -11 12 -45 4z"/>
<path d="M5155 4190 c-16 -6 -13 -8 13 -7 17 0 32 1 32 2 0 8 -28 11 -45 5z"/>
<path d="M5258 4193 c7 -3 16 -2 19 1 4 3 -2 6 -13 5 -11 0 -14 -3 -6 -6z"/>
<path d="M5535 4139 c-11 -32 18 -54 71 -54 29 0 48 5 54 15 17 26 11 34 -10
15 -26 -23 -70 -11 -85 23 -12 28 -22 28 -30 1z"/>
<path d="M3081 4092 c42 -27 72 -57 112 -112 l17 -25 -14 30 c-21 44 -122 135
-150 135 -6 0 10 -13 35 -28z"/>
<path d="M5875 4098 c-4 -13 -21 -45 -37 -73 -17 -27 -23 -44 -15 -36 20 16
72 119 64 127 -3 3 -8 -5 -12 -18z"/>
<path d="M1810 4103 c8 -3 27 -12 43 -20 15 -7 27 -11 27 -9 0 8 -58 36 -72
35 -9 0 -8 -2 2 -6z"/>
<path d="M5358 4093 c7 -3 16 -2 19 1 4 3 -2 6 -13 5 -11 0 -14 -3 -6 -6z"/>
<path d="M1430 4080 c-18 -12 -2 -12 25 0 13 6 15 9 5 9 -8 0 -22 -4 -30 -9z"/>
<path d="M2903 4083 c9 -2 23 -2 30 0 6 3 -1 5 -18 5 -16 0 -22 -2 -12 -5z"/>
<path d="M3728 4083 c12 -2 30 -2 40 0 9 3 -1 5 -23 4 -22 0 -30 -2 -17 -4z"/>
<path d="M5190 4080 c8 -5 20 -10 25 -10 6 0 3 5 -5 10 -8 5 -19 10 -25 10 -5
0 -3 -5 5 -10z"/>
<path d="M3025 4053 c6 -5 27 -21 47 -36 50 -37 85 -84 114 -154 13 -32 24
-51 24 -43 0 8 -13 42 -29 75 -27 59 -93 130 -142 155 -13 7 -19 8 -14 3z"/>
<path d="M3574 4031 c-74 -53 -145 -162 -143 -221 0 -17 4 -10 13 21 23 85 75
155 156 211 14 9 22 17 19 17 -3 1 -24 -12 -45 -28z"/>
<path d="M1920 4046 c0 -2 8 -10 18 -17 15 -13 16 -12 3 4 -13 16 -21 21 -21
13z"/>
<path d="M2055 4009 c-15 -22 -29 -47 -32 -55 -3 -8 -12 -13 -19 -10 -8 3 -14
-1 -14 -10 0 -8 -4 -13 -9 -10 -5 4 -9 -26 -10 -66 l0 -73 23 72 c22 68 39
102 81 166 9 15 15 27 11 27 -3 0 -17 -18 -31 -41z"/>
<path d="M5335 4021 c22 -11 54 -22 70 -26 18 -3 9 3 -20 15 -68 27 -100 34
-50 11z"/>
<path d="M1520 4000 c-19 -11 -30 -19 -25 -19 6 0 26 8 45 19 19 11 31 19 25
19 -5 0 -26 -8 -45 -19z"/>
<path d="M5493 3973 c9 -2 23 -2 30 0 6 3 -1 5 -18 5 -16 0 -22 -2 -12 -5z"/>
<path d="M5770 3939 c-19 -17 -26 -26 -15 -21 18 9 64 52 54 52 -2 0 -20 -14
-39 -31z"/>
<path d="M1695 3930 c-25 -11 1 -11 35 0 20 6 21 8 5 8 -11 0 -29 -3 -40 -8z"/>
<path d="M1624 3886 c-19 -19 -34 -40 -34 -47 0 -8 9 -1 20 16 10 16 30 37 42
47 13 10 19 18 15 18 -5 0 -24 -15 -43 -34z"/>
<path d="M5670 3880 c-8 -5 -10 -10 -5 -10 6 0 17 5 25 10 8 5 11 10 5 10 -5
0 -17 -5 -25 -10z"/>
<path d="M5428 3863 c6 -2 18 -2 25 0 6 3 1 5 -13 5 -14 0 -19 -2 -12 -5z"/>
<path d="M5618 3863 c6 -2 18 -2 25 0 6 3 1 5 -13 5 -14 0 -19 -2 -12 -5z"/>
<path d="M5508 3853 c18 -2 45 -2 60 0 15 2 0 4 -33 4 -33 0 -45 -2 -27 -4z"/>
<path d="M3213 3745 c0 -27 2 -38 4 -22 2 15 2 37 0 50 -2 12 -4 0 -4 -28z"/>
<path d="M1963 3720 c0 -36 2 -50 4 -32 2 17 2 47 0 65 -2 17 -4 3 -4 -33z"/>
<path d="M3423 3740 c0 -25 2 -35 4 -22 2 12 2 32 0 45 -2 12 -4 2 -4 -23z"/>
<path d="M2300 3756 c0 -2 8 -10 18 -17 15 -13 16 -12 3 4 -13 16 -21 21 -21
13z"/>
<path d="M2070 3709 c0 -5 5 -7 10 -4 6 3 10 8 10 11 0 2 -4 4 -10 4 -5 0 -10
-5 -10 -11z"/>
<path d="M3602 3694 c-12 -8 -22 -22 -22 -30 0 -12 5 -11 26 5 30 23 74 27 92
9 7 -7 12 -8 12 -4 0 15 -34 35 -60 36 -14 0 -36 -7 -48 -16z"/>
<path d="M5398 3703 c7 -3 16 -2 19 1 4 3 -2 6 -13 5 -11 0 -14 -3 -6 -6z"/>
<path d="M2070 3663 c0 -22 2 -25 10 -13 13 20 13 40 0 40 -5 0 -10 -12 -10
-27z"/>
<path d="M2112 3660 c0 -19 2 -27 5 -17 2 9 2 25 0 35 -3 9 -5 1 -5 -18z"/>
<path d="M3431 3670 c0 -8 4 -22 9 -30 12 -18 12 -2 0 25 -6 13 -9 15 -9 5z"/>
<path d="M3383 3664 c-16 -7 5 -54 23 -54 7 0 11 -6 9 -12 -16 -42 92 -123
148 -113 18 4 26 2 22 -5 -3 -5 -1 -10 4 -10 6 0 11 7 11 15 0 8 -9 15 -20 15
-48 0 -114 48 -154 113 -9 15 -22 25 -28 21 -6 -4 -8 1 -3 15 3 11 5 21 3 20
-2 0 -8 -3 -15 -5z"/>
<path d="M2082 3605 c0 -16 2 -22 5 -12 2 9 2 23 0 30 -3 6 -5 -1 -5 -18z"/>
<path d="M2518 3599 c13 -34 -4 -144 -29 -195 -13 -27 -23 -52 -21 -56 1 -5
-2 -8 -7 -8 -13 0 -168 -176 -202 -229 -22 -34 -29 -56 -28 -90 l1 -46 8 46
c11 65 20 78 122 187 84 91 142 164 148 187 1 6 6 21 11 33 5 13 7 28 3 33 -3
5 -1 9 5 9 6 0 9 25 7 63 -4 85 -5 87 -16 87 -5 0 -6 -9 -2 -21z"/>
<path d="M3731 3604 c0 -11 3 -14 6 -6 3 7 2 16 -1 19 -3 4 -6 -2 -5 -13z"/>
<path d="M2120 3599 c0 -17 26 -57 33 -49 2 3 -4 19 -14 35 -11 17 -19 23 -19
14z"/>
<path d="M1830 3566 c0 -2 9 -6 20 -9 11 -3 18 -1 14 4 -5 9 -34 13 -34 5z"/>
<path d="M3120 3549 c-22 -18 -22 -19 -3 -10 12 6 25 16 28 21 9 15 3 12 -25
-11z"/>
<path d="M1890 3550 c8 -5 24 -10 34 -10 26 0 18 6 -19 14 -22 5 -26 4 -15 -4z"/>
<path d="M3690 3545 c-11 -13 -10 -14 6 -9 16 6 15 2 -6 -22 l-25 -29 27 24
c15 13 24 29 21 37 -6 17 -8 17 -23 -1z"/>
<path d="M1965 3540 c-18 -8 -17 -9 8 -9 16 -1 26 3 22 9 -3 6 -7 10 -8 9 -1
0 -11 -4 -22 -9z"/>
<path d="M2170 3540 c0 -5 7 -10 16 -10 9 0 14 -7 12 -18 -1 -10 7 -30 19 -45
31 -40 46 -119 32 -171 -16 -60 -34 -90 -109 -185 -37 -47 -75 -101 -84 -119
-17 -32 -17 -34 1 -30 10 2 22 17 28 36 5 17 13 32 18 32 4 0 5 -4 2 -10 -11
-18 5 -11 29 13 37 35 63 80 61 103 -1 16 3 20 20 16 17 -3 27 7 52 55 22 41
28 64 23 78 -13 30 -12 47 2 39 19 -12 3 98 -22 145 -25 49 -100 103 -100 71z
m-97 -555 c-3 -9 -8 -14 -10 -11 -3 3 -2 9 2 15 9 16 15 13 8 -4z"/>
<path d="M2020 3530 c-13 -8 -12 -10 3 -10 9 0 17 -7 17 -15 0 -8 7 -15 15
-15 8 0 15 5 15 11 0 5 -6 7 -12 4 -7 -4 -2 3 11 14 l23 21 -28 0 c-16 0 -36
-5 -44 -10z"/>
<path d="M2316 3527 c3 -10 9 -15 12 -12 3 3 0 11 -7 18 -10 9 -11 8 -5 -6z"/>
<path d="M2342 3430 c0 -19 2 -27 5 -17 2 9 2 25 0 35 -3 9 -5 1 -5 -18z"/>
<path d="M2711 3424 c0 -11 3 -14 6 -6 3 7 2 16 -1 19 -3 4 -6 -2 -5 -13z"/>
<path d="M2331 3364 c0 -11 3 -14 6 -6 3 7 2 16 -1 19 -3 4 -6 -2 -5 -13z"/>
<path d="M2560 3355 c-19 -23 -8 -25 14 -4 11 11 15 19 9 19 -6 0 -16 -7 -23
-15z"/>
<path d="M2311 3319 c-7 -12 -10 -23 -8 -26 3 -3 11 5 17 17 15 28 8 35 -9 9z"/>
<path d="M3000 3281 c0 -27 -3 -58 -7 -68 -4 -11 9 -4 35 19 45 41 81 51 182
52 l65 1 5 -233 5 -232 33 -20 c18 -11 35 -20 37 -20 3 0 6 114 7 253 l3 252
75 -1 c99 -1 150 -7 178 -22 12 -7 22 -8 22 -3 0 5 -6 12 -12 14 -10 4 -10 6
0 6 6 1 12 12 12 26 l0 25 -320 0 -320 0 0 -49z m615 29 c3 -5 1 -10 -4 -10
-6 0 -11 5 -11 10 0 6 2 10 4 10 3 0 8 -4 11 -10z m-62 -7 c-7 -2 -21 -2 -30
0 -10 3 -4 5 12 5 17 0 24 -2 18 -5z m-228 -33 c-3 -5 -10 -10 -16 -10 -5 0
-9 5 -9 10 0 6 7 10 16 10 8 0 12 -4 9 -10z"/>
<path d="M2720 3295 c-7 -9 -15 -13 -18 -11 -2 3 -17 -1 -33 -9 -38 -20 -55
-19 -80 6 -12 12 -19 15 -15 8 3 -8 9 -21 12 -31 15 -42 108 -28 137 22 19 32
18 40 -3 15z"/>
<path d="M2550 3283 c0 -6 8 -17 18 -24 16 -13 16 -13 2 6 -8 11 -16 22 -17
24 -2 2 -3 0 -3 -6z"/>
<path d="M3607 3241 c15 -16 30 -25 31 -20 4 10 -37 48 -51 49 -5 0 4 -13 20
-29z"/>
<path d="M3169 3127 c-59 -44 -79 -83 -86 -164 -8 -100 19 -164 100 -239 34
-32 80 -69 102 -83 145 -93 214 -163 245 -249 51 -141 -17 -296 -146 -332 -55
-16 -137 -6 -182 22 -40 25 -106 110 -127 164 l-15 39 5 -40 c2 -22 5 -71 5
-109 0 -65 1 -68 22 -63 11 3 36 0 55 -8 18 -8 40 -12 48 -9 7 3 22 1 32 -5
15 -9 13 -10 -12 -5 -24 5 -28 4 -18 -6 18 -19 163 -25 219 -10 56 16 148 85
140 106 -3 8 -2 14 2 14 4 0 8 9 8 20 0 11 -4 20 -8 20 -4 0 -8 -4 -8 -10 0
-5 -4 -10 -10 -10 -5 0 -7 7 -4 15 4 8 14 15 24 15 15 0 17 6 13 33 -2 17 -6
48 -8 67 -1 19 -6 43 -10 53 -9 22 -7 24 28 32 22 6 27 4 27 -12 0 -10 -5 -24
-10 -29 -8 -8 -6 -15 5 -24 13 -11 15 -6 15 40 0 52 0 52 -27 45 -23 -5 -25
-4 -14 9 7 9 17 13 22 10 5 -3 9 3 9 12 0 14 -3 15 -12 6 -13 -13 -48 -16 -48
-4 1 18 19 34 33 29 10 -4 14 -1 11 6 -6 16 -70 13 -66 -3 1 -6 -3 -10 -10 -8
-7 3 -13 11 -13 19 0 8 -4 19 -7 25 -11 16 3 26 18 13 8 -6 20 -9 28 -6 7 3
19 0 26 -6 7 -7 0 8 -16 33 -16 25 -42 56 -58 69 -15 14 -33 30 -40 36 -6 6
-53 40 -104 75 -131 89 -174 130 -204 191 -36 74 -38 92 -10 104 12 5 22 15
22 22 0 7 16 30 35 52 19 21 35 43 35 49 0 24 -21 20 -61 -11z m368 -709 c-3
-8 -6 -5 -6 6 -1 11 2 17 5 13 3 -3 4 -12 1 -19z m-402 -298 c3 -5 1 -10 -4
-10 -6 0 -11 5 -11 10 0 6 2 10 4 10 3 0 8 -4 11 -10z m-22 -13 c3 -8 -3 -14
-14 -14 -11 -1 -19 5 -19 13 0 18 26 19 33 1z m297 -67 c-8 -5 -18 -6 -24 -3
-5 4 -1 10 10 13 24 9 34 2 14 -10z m-47 -7 c-7 -2 -19 -2 -25 0 -7 3 -2 5 12
5 14 0 19 -2 13 -5z"/>
<path d="M3414 3118 c3 -17 15 -45 26 -62 l20 -31 0 31 c0 17 3 46 6 63 6 30
5 31 -26 31 -31 0 -32 -1 -26 -32z m36 -23 c0 -8 -2 -15 -4 -15 -2 0 -6 7 -10
15 -3 8 -1 15 4 15 6 0 10 -7 10 -15z"/>
<path d="M2849 3074 c-67 -20 -141 -91 -181 -172 -31 -63 -33 -72 -33 -177 0
-93 3 -117 23 -159 57 -124 169 -203 272 -192 28 3 48 2 46 -3 -8 -12 83 6
120 24 32 15 64 54 64 77 0 6 -12 0 -27 -15 -36 -33 -109 -66 -149 -67 -110
-1 -218 82 -248 190 -17 60 -22 192 -11 255 10 51 50 128 86 167 45 47 128 73
205 63 52 -6 74 5 38 19 -28 11 -158 5 -205 -10z"/>
<path d="M3537 3018 c-9 -24 -20 -59 -26 -78 -5 -19 -21 -68 -35 -109 -14 -40
-23 -78 -19 -84 3 -6 1 -7 -5 -3 -7 4 -12 1 -12 -8 0 -53 43 5 56 76 4 18 11
41 16 51 6 12 5 17 -4 17 -7 0 0 8 15 18 23 13 28 23 24 45 -2 15 0 30 4 33 5
2 6 11 2 19 -3 9 0 22 7 31 9 10 10 18 3 25 -7 7 -15 -4 -26 -33z"/>
<path d="M3733 2995 c0 -22 2 -30 4 -17 2 12 2 30 0 40 -3 9 -5 -1 -4 -23z"/>
<path d="M3175 2969 c5 -38 30 -99 40 -99 3 0 5 17 5 39 0 30 -4 40 -20 44
-11 3 -20 11 -20 17 0 10 3 10 15 0 12 -10 15 -10 15 2 0 15 -19 38 -32 38 -4
0 -6 -18 -3 -41z"/>
<path d="M3570 3005 c0 -5 5 -17 10 -25 5 -8 10 -10 10 -5 0 6 -5 17 -10 25
-5 8 -10 11 -10 5z"/>
<path d="M2930 2966 c0 -9 -4 -16 -10 -16 -5 0 -10 5 -10 10 0 6 -7 10 -15 10
-11 0 -12 -5 -5 -25 5 -13 10 -132 11 -264 1 -236 1 -239 22 -245 46 -12 47
-11 47 95 0 105 11 136 41 119 19 -11 126 3 141 18 22 22 -5 34 -40 17 -20
-10 -51 -15 -84 -13 l-53 3 -2 150 c-1 144 -2 150 -22 153 -14 2 -21 -2 -21
-12z"/>
<path d="M3601 2924 c0 -11 3 -14 6 -6 3 7 2 16 -1 19 -3 4 -6 -2 -5 -13z"/>
<path d="M2164 2890 c15 -5 37 -17 47 -26 11 -9 22 -15 25 -12 8 9 -61 48 -82
47 -12 0 -9 -4 10 -9z"/>
<path d="M3606 2886 c4 -9 -2 -13 -21 -11 -20 3 -25 0 -21 -13 48 -169 57
-189 70 -156 3 8 2 12 -4 9 -6 -3 -10 -2 -10 3 0 5 9 12 21 15 17 5 20 2 16
-14 -3 -10 -2 -17 3 -14 4 3 10 -2 14 -10 5 -15 -4 -19 -37 -15 -17 1 -16 -1
3 -20 23 -23 60 -35 60 -19 0 5 -8 9 -17 9 -15 0 -16 2 -3 10 12 7 8 26 -25
124 -22 64 -43 116 -47 116 -4 0 -5 -6 -2 -14z m-6 -30 c0 -3 -4 -8 -10 -11
-5 -3 -10 -1 -10 4 0 6 5 11 10 11 6 0 10 -2 10 -4z"/>
<path d="M3680 2849 c0 -16 4 -28 9 -25 8 5 3 56 -5 56 -2 0 -4 -14 -4 -31z"/>
<path d="M2250 2833 c0 -6 8 -17 18 -24 16 -13 16 -13 2 6 -8 11 -16 22 -17
24 -2 2 -3 0 -3 -6z"/>
<path d="M2316 2737 c3 -10 9 -15 12 -12 3 3 0 11 -7 18 -10 9 -11 8 -5 -6z"/>
<path d="M3788 2713 c7 -3 16 -2 19 1 4 3 -2 6 -13 5 -11 0 -14 -3 -6 -6z"/>
<path d="M3505 2662 c6 -6 37 -12 70 -14 l60 -3 28 -86 c26 -79 31 -86 50 -81
l22 7 -22 3 c-13 2 -23 10 -23 17 0 17 34 38 44 27 4 -3 4 1 1 11 -6 15 -9 15
-22 2 -8 -9 -20 -12 -26 -8 -8 5 -8 8 1 11 7 2 12 8 12 13 0 4 -8 6 -17 3 -14
-5 -15 -4 -4 4 8 6 20 8 28 5 7 -3 13 0 13 6 0 6 -7 11 -15 11 -8 0 -15 8 -15
17 0 9 -3 13 -7 10 -3 -4 -17 5 -31 20 -21 23 -35 28 -91 31 -46 3 -63 1 -56
-6z"/>
<path d="M2390 2615 c14 -16 29 -32 33 -36 4 -3 5 -12 2 -20 -4 -10 8 -23 37
-39 24 -13 49 -25 55 -26 21 -4 -4 32 -39 57 -18 12 -51 38 -73 58 -34 31 -36
32 -15 6z"/>
<path d="M3279 2508 c0 -137 -12 -216 -35 -233 -17 -13 -10 -14 74 -15 l93 0
-21 28 c-19 23 -21 35 -15 86 3 33 13 72 20 87 13 24 12 28 -5 44 -18 16 -19
15 -35 -42 -25 -86 -34 -105 -45 -98 -14 9 -12 32 10 99 26 77 25 81 -10 106
l-30 21 -1 -83z"/>
<path d="M2161 2534 c0 -11 3 -14 6 -6 3 7 2 16 -1 19 -3 4 -6 -2 -5 -13z"/>
<path d="M2885 2300 c-18 -20 -17 -20 43 -20 34 0 62 4 62 8 0 35 -77 43 -105
12z"/>
<path d="M3819 2306 c9 -11 9 -15 -1 -19 -7 -3 -2 -6 11 -6 23 -1 24 0 6 19
-20 23 -34 28 -16 6z"/>
<path d="M3768 2283 c7 -3 16 -2 19 1 4 3 -2 6 -13 5 -11 0 -14 -3 -6 -6z"/>
<path d="M2635 2240 c10 -11 20 -20 23 -20 3 0 -3 9 -13 20 -10 11 -20 20 -23
20 -3 0 3 -9 13 -20z"/>
<path d="M2669 2132 c42 -42 73 -83 81 -107 9 -26 15 -33 21 -24 12 20 -36
100 -84 141 -78 65 -87 59 -18 -10z"/>
<path d="M2871 1864 c0 -11 3 -14 6 -6 3 7 2 16 -1 19 -3 4 -6 -2 -5 -13z"/>
<path d="M2883 1745 c0 -44 2 -61 4 -37 2 23 2 59 0 80 -2 20 -4 1 -4 -43z"/>
<path d="M3338 1758 c0 -18 -2 -37 -3 -43 -2 -5 -3 -16 -4 -22 0 -7 -5 -13
-10 -13 -6 0 -12 24 -14 53 -2 33 -4 22 -4 -33 -1 -47 2 -75 5 -63 11 36 30
12 35 -42 2 -28 4 5 5 73 1 67 0 122 -3 122 -3 0 -6 -15 -7 -32z"/>
<path d="M2941 1754 c0 -11 3 -14 6 -6 3 7 2 16 -1 19 -3 4 -6 -2 -5 -13z"/>
<path d="M2731 1703 c-10 -26 -10 -27 4 -9 8 11 15 23 15 28 0 15 -7 8 -19
-19z"/>
<path d="M2953 1695 c0 -22 2 -30 4 -17 2 12 2 30 0 40 -3 9 -5 -1 -4 -23z"/>
<path d="M3682 1700 c0 -19 2 -27 5 -17 2 9 2 25 0 35 -3 9 -5 1 -5 -18z"/>
<path d="M2871 1643 c0 -12 -4 -30 -7 -40 -5 -17 -5 -17 6 0 6 10 9 28 7 40
-4 22 -4 22 -6 0z"/>
<path d="M3297 1545 c-7 -76 -8 -321 0 -292 5 20 19 22 26 5 4 -9 6 -10 6 -1
1 6 -5 18 -13 25 -8 9 -13 36 -12 76 1 58 3 63 26 69 l25 7 -23 5 c-26 7 -26
26 1 25 13 0 17 7 16 35 -1 20 -3 28 -6 18 -4 -14 -8 -16 -19 -6 -16 13 -20
64 -4 54 6 -3 10 -1 10 4 0 6 -4 11 -9 11 -5 0 -11 8 -13 18 -2 9 -7 -14 -11
-53z"/>
<path d="M2840 1550 c-6 -11 -8 -20 -6 -20 3 0 10 9 16 20 6 11 8 20 6 20 -3
0 -10 -9 -16 -20z"/>
<path d="M2971 1544 c0 -11 3 -14 6 -6 3 7 2 16 -1 19 -3 4 -6 -2 -5 -13z"/>
<path d="M3671 1513 c0 -17 -6 -33 -12 -35 -5 -2 -13 -24 -16 -48 -6 -41 -5
-44 10 -28 9 9 22 18 28 20 7 2 8 21 1 63 -6 39 -10 49 -11 28z"/>
<path d="M3354 1320 c0 -58 1 -81 3 -52 2 28 2 76 0 105 -2 28 -3 5 -3 -53z"/>
<path d="M3650 1365 c0 -22 15 -25 27 -6 9 14 7 17 -8 18 -11 1 -19 -4 -19
-12z"/>
<path d="M4055 1300 c-3 -5 -1 -10 4 -10 6 0 11 5 11 10 0 6 -2 10 -4 10 -3 0
-8 -4 -11 -10z"/>
<path d="M3732 1250 c0 -14 2 -19 5 -12 2 6 2 18 0 25 -3 6 -5 1 -5 -13z"/>
<path d="M3352 1190 c0 -14 2 -19 5 -12 2 6 2 18 0 25 -3 6 -5 1 -5 -13z"/>
<path d="M3280 1096 c0 -87 3 -105 16 -110 14 -5 15 -4 5 8 -13 15 -5 46 13
46 6 0 4 5 -4 10 -15 10 -14 10 40 14 18 1 26 31 11 41 -7 3 -8 0 -5 -9 9 -23
-29 -21 -49 2 -20 22 -22 73 -5 90 9 9 8 12 -5 12 -15 0 -17 -13 -17 -104z"/>
<path d="M3488 1165 c-4 -22 -10 -53 -13 -70 -5 -26 -4 -27 4 -7 10 20 24 32
19 15 -1 -5 1 -18 6 -30 8 -26 28 -30 45 -9 9 11 7 12 -12 9 -22 -4 -24 -1
-33 64 -9 67 -9 67 -16 28z"/>
<path d="M3976 1183 c-6 -14 -5 -15 5 -6 7 7 10 15 7 18 -3 3 -9 -2 -12 -12z"/>
<path d="M3851 1164 c0 -11 3 -14 6 -6 3 7 2 16 -1 19 -3 4 -6 -2 -5 -13z"/>
<path d="M3307 1139 c7 -7 15 -10 18 -7 3 3 -2 9 -12 12 -14 6 -15 5 -6 -5z"/>
<path d="M3665 1060 c-3 -5 -1 -10 4 -10 6 0 11 5 11 10 0 6 -2 10 -4 10 -3 0
-8 -4 -11 -10z"/>
<path d="M3456 1044 c-5 -14 -4 -15 9 -4 17 14 19 20 6 20 -5 0 -12 -7 -15
-16z"/>
<path d="M3398 963 c-10 -2 -18 -9 -18 -14 0 -14 16 -11 30 6 7 8 11 14 9 14
-2 -1 -12 -3 -21 -6z"/>
<path d="M3515 930 c3 -5 8 -10 11 -10 2 0 4 5 4 10 0 6 -5 10 -11 10 -5 0 -7
-4 -4 -10z"/>
<path d="M3590 932 c0 -6 -7 -9 -15 -6 -8 3 -24 -1 -37 -10 -12 -9 -31 -16
-41 -16 -10 0 -16 -4 -13 -8 3 -5 28 -7 55 -5 28 2 51 0 51 -4 0 -4 18 -9 40
-10 29 -1 40 3 40 14 0 8 -4 12 -9 8 -6 -3 -14 3 -20 12 -7 13 -10 14 -11 4 0
-9 -7 -6 -20 9 -11 13 -20 18 -20 12z"/>
<path d="M3550 845 c0 -7 -6 -13 -12 -12 -50 2 -98 -4 -94 -12 3 -4 32 -9 63
-10 32 -1 79 -3 106 -4 41 -2 47 1 47 18 0 16 -2 17 -9 6 -8 -12 -13 -12 -33
1 -34 22 -68 29 -68 13z"/>
<path d="M3845 800 c-3 -5 -1 -10 4 -10 6 0 11 5 11 10 0 6 -2 10 -4 10 -3 0
-8 -4 -11 -10z"/>
<path d="M2901 762 c4 -21 13 -49 19 -63 10 -23 10 -22 5 6 -14 78 -18 95 -25
95 -4 0 -4 -17 1 -38z"/>
<path d="M3401 698 c-1 -60 3 -108 7 -108 4 0 8 37 8 83 0 45 4 91 8 101 7 13
6 17 -1 13 -6 -4 -14 -1 -16 5 -3 7 -6 -35 -6 -94z"/>
<path d="M3539 753 c43 -52 58 -100 64 -200 6 -106 20 -92 32 31 5 46 3 66 -3
62 -6 -3 -13 -2 -17 4 -3 5 -2 10 4 10 6 0 8 7 5 15 -3 8 -9 14 -12 13 -22 -2
-24 4 -5 15 15 8 19 17 14 25 -7 11 -11 10 -24 -2 -15 -15 -17 -15 -26 3 -6
11 -8 28 -4 38 6 15 4 16 -9 6 -18 -16 -32 -5 -17 14 9 10 6 13 -15 13 l-27 0
40 -47z"/>
<path d="M3228 700 c-2 -44 0 -80 5 -80 4 0 7 36 7 80 0 44 -2 80 -4 80 -3 0
-6 -36 -8 -80z"/>
<path d="M3590 770 c0 -5 5 -10 11 -10 5 0 7 5 4 10 -3 6 -8 10 -11 10 -2 0
-4 -4 -4 -10z"/>
<path d="M3725 739 c-4 -6 -5 -12 -2 -15 2 -3 7 2 10 11 7 17 1 20 -8 4z"/>
<path d="M3836 705 c4 -8 7 -15 9 -15 2 0 5 7 9 15 3 9 0 15 -9 15 -9 0 -12
-6 -9 -15z"/>
<path d="M3331 684 c0 -11 3 -14 6 -6 3 7 2 16 -1 19 -3 4 -6 -2 -5 -13z"/>
<path d="M3691 635 c-24 -78 -24 -75 -11 -75 6 0 9 3 8 8 0 4 2 14 5 22 10 23
26 104 22 108 -2 2 -13 -26 -24 -63z"/>
<path d="M2820 610 c0 -5 -7 -10 -15 -10 -8 0 -15 -7 -15 -16 0 -14 2 -15 17
-3 11 9 14 10 9 2 -5 -9 -2 -11 7 -7 9 3 13 13 10 25 -6 20 -13 26 -13 9z"/>
<path d="M3404 564 c3 -9 7 -30 7 -47 l1 -32 7 30 c8 35 3 65 -11 65 -6 0 -7
-7 -4 -16z"/>
<path d="M3780 476 c-12 -57 -20 -116 -18 -130 3 -15 1 -29 -3 -32 -5 -3 -9
-43 -9 -90 0 -54 4 -83 10 -79 6 3 10 0 11 -7 1 -7 7 5 14 27 16 46 20 179 6
170 -5 -3 -12 -1 -15 4 -3 5 2 11 13 14 14 3 19 17 24 58 3 30 9 63 13 73 6
16 4 18 -10 13 -12 -5 -15 -3 -9 6 9 14 11 77 2 77 -3 0 -16 -47 -29 -104z"/>
<path d="M3032 545 c0 -16 2 -22 5 -12 2 9 2 23 0 30 -3 6 -5 -1 -5 -18z"/>
<path d="M2800 546 c0 -9 5 -16 10 -16 6 0 10 4 10 9 0 6 -4 13 -10 16 -5 3
-10 -1 -10 -9z"/>
<path d="M3825 541 c-3 -5 -1 -12 5 -16 5 -3 10 1 10 9 0 18 -6 21 -15 7z"/>
<path d="M3605 412 c2 -3 0 -14 -6 -24 -8 -14 -8 -23 0 -31 13 -13 19 -7 30
29 7 25 6 30 -10 30 -10 0 -16 -2 -14 -4z"/>
<path d="M3436 394 c-7 -19 0 -34 17 -34 9 0 8 3 -1 8 -7 5 -10 16 -6 25 3 9
4 17 1 17 -3 0 -8 -7 -11 -16z"/>
<path d="M3553 280 c-11 -16 -10 -18 2 -14 8 4 15 12 15 20 0 19 -3 18 -17 -6z"/>
<path d="M3231 178 c-14 -23 -14 -23 8 -4 22 20 25 26 13 26 -4 0 -13 -10 -21
-22z"/>
<path d="M3030 106 c0 -3 9 -10 20 -16 11 -6 20 -8 20 -6 0 3 -9 10 -20 16
-11 6 -20 8 -20 6z"/>
<path d="M3675 74 c-16 -14 -52 -36 -80 -49 l-49 -23 37 1 c22 1 32 4 24 9
-12 8 -10 9 26 12 6 1 15 6 20 11 4 6 11 4 18 -5 8 -12 9 -9 3 10 -3 14 -3 22
1 18 9 -9 38 19 33 31 -2 5 -16 -2 -33 -15z"/>
<path d="M2986 49 c8 -14 84 -51 96 -47 5 2 -15 15 -46 30 -31 14 -53 22 -50
17z"/>
</g>
</svg>
