<?xml version="1.0" standalone="no"?>
<!DOCTYPE svg PUBLIC "-//W3C//DTD SVG 20010904//EN"
 "http://www.w3.org/TR/2001/REC-SVG-20010904/DTD/svg10.dtd">
<svg version="1.0" xmlns="http://www.w3.org/2000/svg"
 width="821.000000pt" height="530.000000pt" viewBox="0 0 821.000000 530.000000"
 preserveAspectRatio="xMidYMid meet">
<metadata>
Created by potrace 1.16, written by Peter Selinger 2001-2019
</metadata>
<g transform="translate(0.000000,530.000000) scale(0.100000,-0.100000)"
fill="#000000" stroke="none">
<path d="M6125 5088 c-18 -17 -31 -45 -45 -100 -49 -198 -124 -335 -254 -463
-98 -97 -178 -149 -316 -207 -171 -73 -322 -98 -710 -118 -268 -14 -330 -24
-404 -62 -53 -28 -70 -32 -133 -31 -94 1 -173 28 -343 114 -136 70 -223 99
-291 99 -21 0 -91 -14 -156 -31 -133 -35 -183 -34 -293 1 -95 31 -193 36 -265
16 -33 -10 -127 -51 -210 -92 -165 -82 -236 -104 -334 -104 -51 0 -73 5 -108
26 -63 37 -152 52 -383 64 -398 20 -498 35 -696 100 -232 77 -429 241 -539
449 -25 48 -42 73 -39 56 6 -29 6 -29 -9 -10 -35 46 -26 0 17 -89 37 -76 63
-113 133 -186 88 -92 176 -163 245 -196 49 -23 48 -34 -2 -34 -48 0 -108 -23
-116 -45 -9 -23 -24 -18 -24 8 0 13 -7 47 -16 76 -17 57 -77 131 -133 164 -49
29 -35 5 16 -28 60 -38 69 -63 11 -30 -24 14 -50 25 -58 25 -8 -1 8 -12 35
-25 28 -13 57 -33 66 -44 9 -11 20 -17 24 -13 5 4 5 2 2 -5 -4 -6 -2 -24 4
-40 6 -15 17 -76 24 -135 8 -59 22 -122 31 -140 36 -71 108 -110 210 -116 89
-5 160 13 316 79 180 76 296 95 418 66 62 -15 144 -62 135 -78 -4 -5 -1 -17 6
-25 15 -18 20 -59 17 -139 -4 -124 -3 -221 4 -257 8 -47 3 -48 -118 -10 -101
32 -176 78 -199 122 -18 34 -20 109 -4 143 22 48 93 65 129 32 26 -23 25 -51
0 -65 -27 -15 -25 -28 5 -36 51 -13 88 52 60 106 -43 83 -174 77 -233 -10 -20
-29 -23 -45 -20 -96 l4 -61 -56 42 c-107 82 -202 87 -241 12 -9 -18 -5 -16 20
8 58 54 149 32 241 -57 25 -23 64 -60 88 -80 23 -21 36 -38 28 -38 -16 0 -79
50 -141 112 -40 40 -103 78 -127 78 -7 0 4 -8 25 -18 41 -18 200 -155 187
-160 -18 -7 -314 80 -425 125 -241 97 -397 207 -548 388 -28 33 -55 59 -60 57
-4 -1 -6 2 -3 7 9 14 -78 178 -92 173 -7 -2 -12 1 -12 7 0 6 -5 11 -11 11 -7
0 -8 -11 -4 -30 10 -45 80 -175 93 -173 6 2 9 -3 6 -11 -7 -19 100 -151 180
-222 197 -174 406 -273 781 -369 306 -78 507 -104 622 -80 28 6 37 3 61 -23
30 -32 52 -91 52 -138 0 -45 -52 -141 -124 -229 -93 -114 -110 -152 -110 -250
0 -83 34 -326 60 -430 28 -108 82 -176 207 -259 73 -49 119 -116 147 -216 18
-62 22 -111 26 -285 3 -115 10 -230 15 -255 6 -26 39 -87 81 -150 76 -111 135
-229 162 -320 9 -30 28 -122 42 -205 14 -82 35 -186 45 -230 11 -44 24 -134
29 -200 12 -163 21 -190 86 -252 l54 -53 72 0 73 0 -60 28 c-77 37 -124 77
-143 122 -9 21 -16 76 -17 140 -2 68 -12 142 -29 210 -37 158 -64 305 -72 400
-7 93 8 265 32 370 22 94 20 147 -6 182 l-22 30 25 26 c41 43 67 114 73 199
14 184 -67 371 -221 511 -95 87 -106 80 -14 -9 103 -100 137 -149 175 -249 26
-69 28 -86 28 -210 0 -171 -19 -219 -100 -260 -37 -18 -37 -19 -12 -20 60 0
81 -80 32 -119 -35 -28 -48 -26 -86 8 -32 28 -33 33 -33 103 0 69 3 79 62 198
71 143 88 201 80 270 -14 115 -100 227 -219 283 -75 36 -114 44 -48 10 126
-65 220 -189 220 -290 0 -76 -56 -144 -117 -143 -28 1 -64 25 -79 51 -11 19
-13 21 -14 6 0 -32 48 -67 94 -67 23 0 47 5 54 12 9 9 12 9 12 1 0 -7 -9 -15
-21 -18 -11 -4 -18 -9 -16 -12 10 -10 67 28 81 55 l15 27 1 -25 c0 -36 -41
-117 -88 -174 -75 -90 -83 -224 -19 -321 17 -26 28 -32 59 -33 21 -1 50 5 63
14 14 9 25 13 25 8 0 -7 -14 -81 -48 -244 -7 -35 -10 -41 -16 -25 -17 49 -63
132 -112 203 -111 160 -109 154 -112 280 -2 61 -1 112 3 112 4 0 18 -9 32 -20
14 -11 33 -20 42 -19 13 0 14 1 1 6 -8 3 -30 19 -48 36 -31 30 -32 34 -32 106
l0 76 23 -27 c24 -29 65 -49 100 -47 16 1 12 4 -12 11 -49 14 -77 35 -91 68
-12 29 -11 79 2 70 4 -3 15 5 23 18 21 28 59 29 79 0 12 -17 19 -19 27 -11 9
9 8 18 -5 38 -36 54 -93 52 -138 -5 l-24 -31 -11 48 c-29 123 -74 185 -195
270 -98 69 -131 109 -157 192 -22 71 -71 372 -71 437 0 56 36 124 126 239 176
224 204 395 82 489 -18 13 -46 27 -63 30 -29 6 -29 6 5 -10 79 -36 110 -86
110 -176 0 -78 -15 -110 -25 -52 -4 21 -11 54 -17 72 -10 34 -72 102 -93 102
-30 0 -56 36 -65 92 -19 120 24 272 100 349 l45 46 100 6 c55 4 121 13 148 21
26 8 47 13 47 9 0 -3 -12 -19 -27 -37 -14 -17 -39 -58 -55 -91 -36 -77 -37
-148 -3 -270 51 -185 29 -259 -125 -430 -91 -100 -140 -179 -140 -222 0 -39
26 -90 73 -140 24 -27 56 -66 70 -88 15 -22 27 -36 27 -32 0 12 -28 54 -88
134 -89 118 -81 146 88 334 138 153 155 186 155 301 l0 87 54 -52 c82 -80 111
-130 111 -194 0 -44 -5 -59 -25 -78 -28 -28 -66 -32 -89 -9 -20 19 -20 24 -1
50 16 24 11 34 -16 34 -44 0 -53 -87 -14 -119 88 -69 195 2 195 128 0 76 -20
113 -120 216 -50 52 -97 110 -105 129 -8 20 -15 65 -15 103 0 77 20 128 69
183 l31 35 -7 -40 c-19 -98 3 -176 64 -223 28 -20 47 -26 88 -26 46 -1 58 3
84 28 24 23 31 38 30 65 0 34 -1 35 -10 11 -28 -69 -84 -88 -147 -50 -54 33
-74 75 -70 147 4 71 38 130 96 169 71 48 226 52 317 8 38 -18 107 -81 124
-113 6 -11 -11 2 -37 28 -69 69 -121 93 -207 97 l-70 3 63 -9 c207 -29 356
-255 298 -452 -19 -68 -68 -135 -116 -161 -22 -12 -28 -13 -15 -3 84 66 115
125 115 217 0 141 -69 256 -193 321 -56 30 -183 32 -240 4 -48 -24 -42 -31 8
-10 56 23 152 21 211 -5 184 -81 260 -338 140 -469 -28 -32 -69 -52 -104 -52
-58 0 -106 65 -82 110 15 27 36 25 56 -5 16 -24 18 -25 35 -9 24 22 24 39 -1
64 -31 31 -85 27 -121 -9 -60 -60 -29 -171 58 -207 18 -8 47 -14 65 -14 41 0
126 40 154 71 104 120 122 316 43 471 -56 109 -185 196 -305 206 -35 2 -64 8
-64 12 0 9 61 27 121 35 35 5 73 0 161 -24 141 -38 198 -39 313 -4 109 33 210
36 270 8 l40 -19 -76 -6 c-186 -17 -325 -147 -360 -336 -43 -231 115 -452 289
-403 51 14 98 64 107 113 18 94 -92 169 -155 106 -24 -24 -25 -43 -3 -65 16
-16 18 -16 36 9 21 29 39 33 57 11 17 -20 5 -61 -26 -92 -22 -22 -32 -25 -69
-21 -92 11 -148 89 -147 207 2 169 125 316 283 337 58 8 146 -16 191 -53 28
-23 30 -24 13 -4 -41 47 -93 66 -185 66 -75 0 -91 -3 -138 -29 -110 -61 -174
-167 -180 -299 -4 -68 -1 -84 23 -132 16 -35 41 -65 63 -80 20 -14 32 -25 27
-25 -25 0 -86 66 -114 122 -27 52 -31 72 -31 138 0 68 4 85 35 148 39 77 115
155 181 187 21 10 63 22 94 26 l55 8 -65 -3 c-96 -5 -178 -52 -241 -140 -38
-51 -37 -37 0 18 80 115 228 168 371 132 78 -20 118 -49 148 -108 38 -78 23
-178 -36 -231 -48 -43 -140 -28 -162 26 -9 22 -9 22 -9 1 -2 -55 82 -103 145
-85 70 20 106 63 124 148 9 39 8 58 -3 89 -8 21 -18 48 -21 59 -12 32 79 -70
99 -112 27 -55 31 -131 10 -192 -13 -39 -38 -74 -101 -142 -96 -103 -124 -150
-130 -223 -6 -63 16 -110 66 -144 43 -29 92 -24 129 12 41 42 22 130 -25 112
-13 -5 -15 -9 -6 -18 15 -15 15 -51 0 -66 -20 -20 -67 -14 -93 13 -20 19 -25
35 -25 71 0 66 28 118 104 193 l64 63 -5 -64 c-10 -116 25 -183 175 -343 100
-107 126 -152 120 -215 -4 -39 -13 -58 -50 -102 -44 -53 -82 -108 -75 -108 12
0 148 174 153 195 16 65 -17 126 -145 270 -45 50 -95 117 -113 150 -29 52 -33
69 -32 130 1 48 8 88 23 125 14 35 25 86 28 141 5 78 3 92 -20 141 -13 31 -41
73 -61 95 -20 22 -36 42 -36 45 0 2 31 -3 70 -13 38 -10 108 -21 156 -25 106
-9 129 -25 179 -127 45 -92 62 -199 45 -281 -10 -51 -15 -58 -56 -82 -77 -45
-113 -107 -114 -194 -1 -31 -2 -33 -14 -17 -20 26 -28 93 -16 138 6 21 25 56
42 77 l32 37 -32 -29 c-106 -97 -74 -256 94 -466 135 -169 139 -187 104 -440
-39 -277 -66 -340 -174 -412 -140 -95 -184 -148 -216 -268 -7 -25 -14 -51 -16
-59 -4 -11 -9 -8 -21 10 -25 38 -44 49 -85 49 -29 0 -41 -6 -54 -25 -9 -14
-14 -32 -10 -40 4 -12 10 -10 30 10 20 19 30 23 48 16 53 -19 44 -107 -14
-137 -33 -17 -65 -13 -106 14 -30 20 -55 25 -46 9 18 -32 51 -58 85 -67 47
-13 102 7 136 48 l23 27 -3 -205 c-2 -233 2 -216 -98 -353 -33 -45 -77 -117
-97 -159 -20 -43 -39 -78 -42 -78 -3 0 -13 48 -24 108 -10 59 -20 120 -23 136
-5 26 -3 28 13 21 11 -5 38 -10 60 -11 35 -2 45 2 61 25 48 66 61 178 30 253
-9 21 -15 38 -13 38 2 0 -12 16 -30 35 -40 43 -91 146 -99 200 -3 22 -2 33 2
25 5 -8 13 -16 20 -17 9 -2 9 5 1 28 -36 103 54 257 192 330 30 16 44 27 30
23 -91 -22 -204 -114 -244 -197 -13 -29 -27 -77 -31 -107 -8 -69 14 -141 88
-283 44 -85 52 -108 55 -166 3 -49 0 -77 -12 -99 -29 -56 -104 -56 -127 -1
-10 27 -10 36 2 58 8 14 25 27 37 29 30 5 27 14 -10 32 -43 21 -68 57 -84 126
-29 126 -10 276 52 404 28 56 58 96 119 158 45 45 77 82 71 82 -20 0 -161
-155 -199 -220 -59 -101 -72 -156 -72 -300 0 -139 15 -192 71 -244 19 -17 25
-29 18 -34 -39 -26 -43 -104 -13 -272 38 -217 28 -355 -48 -670 -14 -59 -28
-158 -33 -227 -5 -86 -13 -133 -26 -160 -22 -43 -94 -101 -156 -125 l-43 -17
76 0 c72 -1 77 0 116 34 66 57 83 104 94 261 5 74 11 139 13 142 5 9 70 319
86 412 24 135 92 289 181 408 86 113 89 126 94 359 5 228 8 259 35 350 34 111
66 151 187 232 82 55 133 124 155 211 21 86 68 391 68 445 0 77 -34 150 -123
264 -37 46 -77 104 -89 130 -45 90 -20 209 50 245 22 11 32 11 57 0 36 -16
115 -18 182 -5 26 6 95 17 153 26 128 21 392 85 520 127 355 116 639 338 774
606 108 215 150 471 112 689 -16 91 -35 134 -68 157 -30 21 -42 20 -73 -6z
m73 -103 c21 -82 25 -204 12 -331 -32 -315 -177 -562 -440 -750 -134 -96 -246
-151 -445 -219 -59 -20 -274 -75 -293 -75 -18 0 156 150 193 166 16 7 23 13
15 14 -23 0 -68 -31 -148 -104 -82 -74 -120 -102 -129 -92 -3 3 7 16 23 28 16
13 59 51 96 84 66 61 138 104 172 104 9 0 14 -4 11 -10 -3 -5 -2 -10 4 -10 5
0 11 5 13 10 2 6 20 -4 41 -21 38 -32 48 -29 22 8 -46 65 -187 29 -270 -69
-29 -35 -37 -36 -25 -2 6 14 10 50 10 80 0 50 -4 59 -38 96 -33 35 -46 41 -89
45 -61 6 -99 -14 -120 -65 -11 -27 -11 -38 -1 -59 19 -39 44 -51 64 -31 15 15
15 17 -5 27 -26 15 -27 43 -1 66 11 10 20 24 20 32 0 18 44 17 84 -2 61 -29
87 -121 55 -197 -19 -46 -28 -32 -13 19 14 46 10 108 -6 118 -5 3 -4 -9 1 -27
18 -64 -20 -145 -91 -192 -45 -30 -142 -64 -207 -73 l-46 -6 9 29 c5 16 9 99
9 185 l0 157 31 38 c16 22 50 49 75 62 39 21 55 23 139 20 l95 -4 140 -71
c169 -85 261 -113 373 -113 101 0 171 24 238 83 67 59 99 115 139 244 21 67
46 124 62 144 24 29 30 31 72 26 41 -5 44 -4 26 9 -10 8 -33 14 -51 14 -48 0
-88 -47 -114 -134 -42 -142 -51 -168 -81 -216 -66 -108 -156 -155 -294 -154
-108 1 -171 21 -360 112 l-159 77 -86 0 c-108 0 -167 -21 -215 -78 l-36 -41 3
33 c2 24 12 40 38 61 62 48 100 62 185 68 115 7 198 -11 354 -75 75 -31 159
-62 186 -69 59 -16 165 -18 216 -4 84 24 143 92 154 180 30 241 51 280 183
324 91 31 132 63 166 128 24 47 25 50 4 23 -65 -84 -90 -104 -156 -126 -37
-12 -82 -31 -101 -42 -19 -12 -31 -16 -28 -10 10 16 104 73 110 67 7 -7 64 23
73 38 5 8 -1 7 -16 -3 -14 -8 -34 -18 -45 -22 l-20 -6 20 12 c38 23 105 97
120 133 24 59 17 62 -11 6 -28 -57 -82 -109 -159 -153 -74 -42 -121 -95 -145
-163 -11 -33 -20 -70 -20 -83 l0 -25 -30 26 c-29 24 -86 46 -120 46 -8 0 3 11
26 23 232 133 385 332 453 588 10 41 22 87 25 102 11 46 39 31 54 -28z m-5563
-246 c11 -16 1 -19 -13 -3 -7 8 -8 14 -3 14 5 0 13 -5 16 -11z m416 -500 c9
-5 22 -23 29 -40 12 -27 11 -36 -1 -58 -18 -32 -54 -39 -80 -15 -17 15 -19 15
-25 0 -16 -40 54 -68 106 -41 18 9 36 29 42 46 9 27 28 40 28 20 0 -5 23 -21
52 -35 43 -22 64 -26 127 -25 l76 2 -86 7 c-105 8 -145 30 -189 102 -17 27
-29 52 -26 55 2 3 31 -4 64 -16 170 -58 412 -93 760 -109 106 -5 195 -12 199
-15 3 -4 -10 -24 -30 -46 -19 -22 -46 -58 -59 -80 -13 -23 -25 -41 -28 -41 -3
0 -18 20 -33 44 -29 46 -101 99 -165 122 -45 16 -173 18 -260 4 -35 -6 -116
-33 -180 -60 -169 -70 -221 -83 -312 -78 -115 7 -171 50 -185 143 -15 92 88
159 176 114z m4674 -13 c13 -9 29 -32 35 -52 24 -71 -7 -134 -85 -170 -90 -42
-186 -29 -402 57 -140 56 -231 73 -353 67 -73 -3 -94 -9 -148 -38 -61 -32
-106 -81 -126 -135 -6 -17 -10 -13 -33 25 -33 56 -84 122 -90 117 -2 -3 16
-34 41 -69 66 -94 96 -193 96 -315 0 -54 -5 -115 -11 -135 -9 -36 -12 -38 -50
-38 l-40 0 8 53 c27 178 -19 347 -125 460 -29 31 -23 41 28 53 14 3 32 9 41
14 8 4 85 11 170 14 428 18 523 28 691 72 34 8 82 22 106 30 24 9 46 13 49 10
12 -11 -49 -96 -84 -118 -32 -19 -51 -23 -125 -23 -49 0 -88 -1 -88 -2 0 -1
24 -7 54 -13 70 -14 116 -5 176 35 l49 33 12 -30 c13 -32 55 -58 94 -58 24 0
65 31 65 49 0 19 -22 23 -34 6 -17 -24 -57 -15 -75 16 -12 22 -13 31 -1 59 24
57 90 68 155 26z m-3541 -122 c11 -4 2 -18 -38 -57 -66 -66 -114 -160 -121
-242 l-5 -60 18 75 c10 41 29 95 41 119 24 46 128 158 138 148 3 -3 -13 -27
-35 -54 -96 -115 -126 -241 -109 -458 2 -29 0 -30 -38 -30 -48 0 -53 11 -54
140 -2 143 38 259 128 373 42 53 48 56 75 46z m-547 -246 c-22 -34 -30 -90
-19 -132 6 -20 6 -34 1 -31 -17 11 -29 80 -19 114 11 38 39 85 47 78 2 -3 -2
-16 -10 -29z m2494 -141 c-7 -19 -51 -77 -100 -129 -100 -108 -127 -160 -118
-234 3 -33 2 -43 -6 -35 -17 17 -11 114 9 152 9 19 53 72 98 119 45 47 90 104
100 128 22 49 33 49 17 -1z m-1410 -240 c22 -41 27 -124 11 -153 -6 -12 -8 -1
-4 35 7 75 -18 132 -92 205 -34 34 -72 75 -86 91 -13 17 15 -8 64 -55 48 -47
96 -102 107 -123z m260 61 c12 -10 17 -18 11 -18 -19 0 -62 61 -62 88 1 23 3
22 15 -13 8 -22 24 -48 36 -57z m729 66 c0 -28 -58 -94 -81 -94 -8 1 -2 7 13
16 28 15 58 61 58 89 0 8 2 15 5 15 3 0 5 -12 5 -26z m-133 -90 c-3 -3 -12 -4
-19 -1 -8 3 -5 6 6 6 11 1 17 -2 13 -5z m470 -1550 c-3 -3 -12 -4 -19 -1 -8 3
-5 6 6 6 11 1 17 -2 13 -5z m65 -121 c-7 -38 -57 -73 -105 -73 -42 0 -107 30
-107 50 0 5 16 -2 36 -15 72 -49 144 -21 160 61 5 30 9 34 14 20 4 -11 5 -30
2 -43z m-1454 -305 c-21 -82 -34 -104 -23 -38 7 43 30 110 38 110 2 0 -5 -32
-15 -72z m1341 -3 c0 -13 -5 -8 -14 15 -18 46 -18 61 0 30 8 -14 14 -34 14
-45z"/>
<path d="M6094 4568 l-19 -23 23 19 c12 11 22 21 22 23 0 8 -8 2 -26 -19z"/>
<path d="M4970 3886 c0 -2 8 -10 18 -17 15 -13 16 -12 3 4 -13 16 -21 21 -21
13z"/>
<path d="M4553 3956 c18 -29 34 -52 36 -50 5 4 -47 91 -58 99 -5 3 5 -19 22
-49z"/>
<path d="M429 5073 c-12 -16 -12 -17 1 -7 8 6 22 14 30 17 13 5 12 6 -1 6 -9
1 -23 -7 -30 -16z"/>
<path d="M504 5075 c21 -16 32 -13 21 4 -3 6 -14 11 -23 11 -15 -1 -15 -2 2
-15z"/>
<path d="M534 5033 c2 -10 10 -38 17 -63 7 -25 17 -49 22 -55 7 -7 8 -4 4 8
-4 10 -14 42 -23 72 -8 30 -18 55 -20 55 -3 0 -3 -8 0 -17z"/>
<path d="M588 4561 c29 -28 59 -51 65 -50 7 0 1 8 -13 17 -14 9 -43 32 -65 51
-22 18 -16 10 13 -18z"/>
<path d="M430 4530 c0 -5 5 -10 11 -10 5 0 7 5 4 10 -3 6 -8 10 -11 10 -2 0
-4 -4 -4 -10z"/>
<path d="M520 4535 c0 -22 112 -86 126 -72 3 3 -11 10 -31 17 -19 6 -49 23
-65 37 -17 14 -30 22 -30 18z"/>
<path d="M400 4515 c0 -8 7 -15 15 -15 8 0 15 -5 15 -11 0 -5 -4 -7 -10 -4
-13 8 -12 -2 4 -50 11 -30 20 -40 35 -39 12 0 21 -4 21 -9 0 -6 3 -8 6 -4 10
10 -38 127 -52 127 -8 0 -14 5 -14 10 0 6 -4 10 -10 10 -5 0 -10 -7 -10 -15z"/>
<path d="M638 4493 c7 -3 16 -2 19 1 4 3 -2 6 -13 5 -11 0 -14 -3 -6 -6z"/>
<path d="M570 4359 c-12 -8 -10 -9 7 -4 30 8 84 -12 104 -39 9 -11 28 -62 42
-113 15 -51 36 -113 48 -138 26 -56 95 -134 140 -158 33 -18 33 -18 13 0 -12
10 -38 31 -58 47 -51 40 -91 117 -122 231 -28 106 -55 158 -92 175 -29 13 -63
13 -82 -1z"/>
<path d="M1620 4045 c-30 -9 -102 -41 -159 -71 -214 -113 -341 -135 -499 -88
-9 3 -3 -3 13 -13 24 -14 51 -18 140 -18 131 0 165 10 350 100 152 74 188 85
275 85 76 0 137 -24 181 -71 32 -35 38 -32 13 7 -9 14 -37 37 -62 51 -56 33
-168 41 -252 18z"/>
<path d="M3940 3879 c-8 -17 -27 -40 -44 -50 -18 -11 -24 -19 -15 -19 19 0 64
47 74 78 10 33 -1 27 -15 -9z"/>
<path d="M2697 3865 c31 -58 94 -79 133 -45 22 19 23 20 3 11 -41 -20 -80 -13
-114 21 -19 19 -28 24 -22 13z"/>
<path d="M2250 3831 c0 -43 28 -91 95 -161 23 -25 48 -55 54 -68 7 -12 16 -20
21 -17 6 3 8 0 5 -7 -2 -7 -1 -35 4 -63 l9 -50 1 68 c1 83 -10 108 -94 197
-45 48 -66 79 -70 104 -9 48 -25 46 -25 -3z m40 -66 c14 -19 14 -19 -2 -6 -10
7 -18 18 -18 24 0 6 1 8 3 6 1 -2 9 -13 17 -24z m49 -52 c44 -47 81 -95 81
-107 0 -6 -7 1 -16 14 -10 14 -37 46 -63 73 -25 26 -41 47 -37 47 5 0 20 -12
35 -27z"/>
<path d="M4371 3823 c-8 -20 -36 -58 -63 -84 -54 -52 -98 -107 -98 -123 0 -5
10 3 23 20 25 33 105 114 113 114 3 0 -22 -32 -56 -70 -33 -39 -60 -73 -60
-76 0 -2 28 25 63 61 64 68 107 135 107 166 0 33 -16 28 -29 -8z m-8 -58 c-3
-9 -8 -14 -10 -11 -3 3 -2 9 2 15 9 16 15 13 8 -4z"/>
<path d="M2710 3620 c-18 -12 -2 -12 25 0 13 6 15 9 5 9 -8 0 -22 -4 -30 -9z"/>
<path d="M4206 3555 c-3 -9 -6 -26 -5 -38 1 -14 4 -9 9 13 9 37 7 52 -4 25z"/>
<path d="M2994 3331 c-2 -2 -4 -38 -4 -78 l0 -75 26 32 c39 46 79 62 171 68
l83 5 2 -194 c1 -107 3 -211 3 -232 1 -34 7 -42 46 -68 l44 -29 3 260 2 260
68 0 c94 0 134 -14 176 -60 l36 -40 0 75 c0 41 -3 75 -7 75 -56 3 -646 4 -649
1z"/>
<path d="M3189 3150 c-84 -44 -129 -141 -113 -247 14 -102 69 -170 219 -276
141 -100 188 -146 220 -219 24 -52 27 -70 23 -127 -11 -150 -100 -230 -244
-218 -94 7 -161 66 -210 185 l-24 57 0 -127 c0 -71 2 -128 5 -128 3 0 13 5 23
11 15 9 31 6 83 -17 55 -25 76 -29 154 -29 73 0 99 4 136 22 132 66 196 205
164 358 -27 129 -88 203 -273 332 -131 91 -171 129 -198 188 -27 58 -30 85 -9
85 8 0 15 -9 15 -20 0 -25 37 -105 56 -121 12 -10 14 -4 14 36 0 50 -24 113
-47 122 -21 8 -15 30 18 67 20 23 29 44 27 60 l-3 24 -36 -18z"/>
<path d="M3403 3122 c3 -15 17 -47 31 -72 28 -49 29 -48 40 53 l6 47 -41 0
c-40 0 -41 -1 -36 -28z"/>
<path d="M2863 3086 c-86 -27 -168 -99 -204 -180 -31 -72 -44 -178 -30 -254
34 -183 140 -280 316 -290 136 -7 225 41 225 120 0 20 -3 19 -37 -14 -95 -92
-228 -92 -324 2 -51 49 -73 103 -84 208 -15 131 42 291 123 347 40 28 51 30
135 31 74 1 93 4 95 16 6 29 -136 38 -215 14z"/>
<path d="M3647 3094 c-3 -4 0 -13 8 -21 11 -11 15 -41 15 -122 0 -98 3 -116
39 -221 l39 -115 1 223 1 222 46 0 c62 0 106 -43 123 -118 24 -115 -28 -212
-114 -212 -27 0 -41 -15 -24 -26 6 -3 38 -62 71 -130 56 -117 100 -174 133
-174 7 0 19 -2 27 -5 7 -3 19 -1 27 4 12 8 8 15 -17 36 -18 15 -55 73 -89 141
l-58 116 25 16 c68 46 103 112 103 194 -1 83 -32 135 -102 171 -48 24 -66 27
-151 27 -53 0 -99 -3 -103 -6z"/>
<path d="M3547 3063 c-3 -10 -30 -90 -61 -177 -42 -120 -53 -163 -45 -173 6
-7 15 -13 20 -13 4 0 22 45 40 100 18 55 36 96 40 92 6 -6 28 -73 65 -194 5
-16 -2 -18 -56 -18 -83 0 -77 -23 7 -30 34 -3 63 -7 66 -10 8 -9 76 -208 92
-271 12 -43 13 -65 6 -72 -22 -22 -9 -27 71 -27 l82 0 -26 28 c-29 30 -98 213
-214 569 -38 117 -72 213 -75 213 -4 0 -9 -8 -12 -17z"/>
<path d="M2929 2994 c-6 -7 -16 -11 -22 -9 -28 11 -37 -10 -22 -50 11 -30 14
-98 15 -271 l0 -231 31 -7 c17 -3 35 -6 40 -6 5 0 9 47 9 104 l0 103 65 6 c62
6 125 29 125 45 0 25 -24 29 -64 11 -42 -19 -82 -24 -110 -13 -14 5 -16 27
-16 139 0 145 6 161 54 149 34 -8 34 13 0 28 -20 9 -30 9 -45 0 -15 -10 -19
-9 -19 1 0 17 -27 18 -41 1z"/>
<path d="M2106 2902 c-3 -4 -1 -26 4 -48 5 -21 14 -90 20 -153 7 -63 18 -138
26 -168 15 -57 57 -148 74 -158 5 -3 1 9 -9 27 -35 60 -65 199 -85 386 -4 44
6 55 23 24 5 -10 21 -72 34 -138 34 -162 58 -223 119 -289 54 -59 57 -85 11
-85 -40 0 -16 -17 32 -22 22 -3 32 -3 23 -1 -22 5 -22 10 -2 30 11 11 14 26 9
49 -5 29 -3 33 11 27 15 -5 15 -4 -1 26 -9 18 -19 55 -22 83 l-6 51 34 -7 c19
-3 56 -20 82 -36 27 -17 53 -30 58 -30 20 0 -23 60 -64 89 -59 41 -88 75 -137
161 -60 105 -87 137 -135 165 -41 25 -89 33 -99 17z"/>
<path d="M4425 2878 c-40 -34 -110 -130 -141 -192 -18 -37 -52 -73 -154 -164
-25 -22 -42 -43 -39 -47 4 -3 36 10 71 30 70 38 105 44 115 19 5 -14 -12 -90
-33 -139 -7 -18 -6 -19 9 -6 25 20 29 9 11 -27 -16 -34 -12 -52 12 -52 8 0 14
10 14 23 0 14 16 39 40 62 46 45 77 120 110 270 25 109 61 195 68 161 10 -45
-27 -263 -57 -340 -17 -43 -7 -42 12 1 24 55 44 152 57 283 7 63 14 119 17
124 8 12 -18 26 -49 26 -17 0 -42 -13 -63 -32z"/>
<path d="M3270 2465 c0 -135 -7 -171 -36 -188 -30 -18 -9 -23 92 -24 l106 -1
-27 28 c-26 27 -27 34 -22 84 3 31 11 71 18 90 11 31 11 38 -6 56 -10 11 -22
17 -25 13 -4 -5 -17 -42 -30 -83 -30 -94 -38 -69 -11 30 22 79 21 84 -28 113
l-31 18 0 -136z"/>
<path d="M2520 2356 c0 -2 14 -14 30 -26 17 -12 30 -19 30 -16 0 2 -13 14 -30
26 -16 12 -30 19 -30 16z"/>
<path d="M4089 2333 c-13 -16 -12 -17 4 -4 16 13 21 21 13 21 -2 0 -10 -8 -17
-17z"/>
<path d="M2892 2314 c-43 -30 -28 -44 48 -44 68 0 70 1 60 20 -11 20 -48 40
-73 40 -7 0 -23 -7 -35 -16z"/>
<path d="M2430 2260 c34 -11 60 -11 35 0 -11 5 -29 8 -40 8 -16 0 -15 -2 5 -8z"/>
<path d="M2330 2236 c0 -3 24 -12 53 -22 28 -9 68 -27 87 -39 46 -29 108 -98
116 -130 3 -14 10 -25 15 -25 12 0 -18 80 -39 103 -31 35 -101 78 -159 98 -56
19 -73 23 -73 15z"/>
<path d="M4166 2187 c-69 -38 -111 -87 -120 -137 -6 -32 -4 -30 19 17 27 54
87 107 155 136 19 9 28 16 20 16 -8 0 -42 -14 -74 -32z"/>
<path d="M3297 1840 c-4 -14 -7 -101 -7 -195 -1 -201 -17 -641 -26 -667 -8
-26 -20 -22 -42 15 -18 28 -36 91 -70 242 -8 37 -10 33 -17 -53 -4 -51 -12
-95 -17 -98 -43 -27 -99 192 -149 586 -9 69 -37 176 -44 168 -2 -2 0 -23 5
-48 5 -25 12 -88 16 -140 5 -66 10 -89 15 -75 18 41 -4 -93 -37 -231 -42 -175
-54 -255 -54 -370 0 -112 10 -171 61 -349 94 -328 121 -388 178 -393 84 -8
121 106 136 418 3 63 11 155 17 205 18 143 28 70 35 -255 6 -317 10 -298 -64
-407 -30 -43 -34 -57 -29 -87 19 -113 16 -106 47 -106 33 0 36 13 18 85 -10
40 -9 48 17 95 15 28 32 49 38 47 6 -2 21 -21 34 -43 23 -39 24 -67 7 -151 -7
-31 -6 -33 23 -33 27 0 31 4 41 44 18 71 14 115 -13 150 -13 17 -34 51 -47 76
-24 44 -24 48 -22 310 1 146 5 285 9 310 l7 45 12 -41 c7 -23 16 -124 20 -225
10 -259 41 -396 99 -434 21 -14 29 -15 52 -3 15 7 36 25 47 39 28 38 140 405
167 549 26 140 12 332 -41 542 -21 83 -29 141 -29 202 0 76 13 210 26 261 4
15 3 17 -4 5 -15 -24 -41 -140 -52 -226 -15 -128 -49 -342 -60 -383 -14 -55
-47 -126 -64 -140 -19 -16 -26 13 -26 114 -1 95 -10 84 -34 -38 -10 -49 -25
-107 -35 -130 -21 -48 -46 -74 -56 -57 -8 12 -33 632 -35 875 0 17 -2 17 -10
5 -5 -8 -10 -37 -10 -64 0 -64 -11 -52 -19 21 -5 46 -8 53 -14 33z m-354 -917
c3 -109 10 -211 16 -228 11 -29 11 -28 6 11 -9 77 -18 279 -12 273 8 -7 47
-358 47 -422 0 -28 -3 -48 -6 -44 -3 3 -22 59 -41 124 -30 102 -36 137 -40
255 -6 137 1 228 16 228 5 0 11 -89 14 -197z m786 17 c1 -133 -14 -222 -63
-370 -21 -65 -24 -70 -25 -40 -1 35 21 240 39 355 8 51 9 43 6 -55 -3 -79 -1
-104 5 -80 5 19 12 112 16 205 8 190 20 182 22 -15z m-514 -177 c8 -63 -11
-303 -30 -377 -17 -66 -27 -87 -51 -106 -14 -13 -19 -11 -35 8 -49 62 -67 251
-34 365 21 74 90 152 137 156 3 1 9 -20 13 -46z m305 -3 c22 -22 45 -60 56
-91 35 -101 19 -318 -28 -382 -29 -39 -62 7 -93 126 -16 65 -32 329 -21 370 8
34 37 26 86 -23z"/>
<path d="M4065 1619 c-16 -10 -25 -19 -19 -19 7 0 22 9 35 20 30 24 23 24 -16
-1z"/>
<path d="M2930 235 c0 -6 16 -33 36 -62 35 -51 140 -133 169 -133 7 0 22 -2
32 -5 10 -3 -9 8 -42 24 -78 39 -131 84 -166 140 -16 25 -29 41 -29 36z"/>
<path d="M3671 175 c-35 -48 -95 -94 -163 -125 -24 -10 -37 -19 -30 -19 27 -2
123 52 159 88 34 34 80 101 70 101 -2 0 -18 -20 -36 -45z"/>
</g>
</svg>
