<?xml version="1.0" standalone="no"?>
<!DOCTYPE svg PUBLIC "-//W3C//DTD SVG 20010904//EN"
 "http://www.w3.org/TR/2001/REC-SVG-20010904/DTD/svg10.dtd">
<svg version="1.0" xmlns="http://www.w3.org/2000/svg"
 width="821.000000pt" height="530.000000pt" viewBox="0 0 821.000000 530.000000"
 preserveAspectRatio="xMidYMid meet">
<metadata>
Created by potrace 1.16, written by Peter Selinger 2001-2019
</metadata>
<g transform="translate(0.000000,530.000000) scale(0.100000,-0.100000)"
fill="#000000" stroke="none">
<path d="M6120 5080 c-11 -11 -22 -32 -25 -47 -18 -85 -72 -238 -107 -305 -53
-99 -146 -210 -233 -276 -103 -78 -268 -156 -407 -191 -149 -38 -221 -47 -561
-67 -175 -10 -292 -21 -315 -29 l-37 -14 42 6 c25 3 48 1 56 -5 20 -17 107
-13 100 4 -4 10 3 14 23 13 26 0 27 -1 9 -10 -31 -15 416 -2 525 15 100 15
227 45 300 71 24 8 45 13 47 11 7 -7 -25 -63 -59 -103 l-32 -38 32 29 c29 27
32 28 37 10 12 -38 22 -49 57 -67 39 -19 83 -11 94 18 9 24 -3 30 -21 11 -20
-19 -20 -19 -48 -5 -30 16 -37 28 -37 66 0 23 8 38 31 57 38 32 76 33 120 3
91 -61 75 -181 -31 -234 -88 -45 -212 -26 -436 65 -75 31 -125 44 -194 52 -51
6 -95 8 -97 6 -10 -10 70 -24 104 -19 24 4 34 3 29 -5 -4 -6 7 -13 26 -17 18
-4 58 -18 88 -32 241 -110 364 -134 473 -93 94 35 128 88 146 225 14 115 25
153 55 194 33 44 49 54 130 81 45 15 82 35 105 57 l36 35 -40 -31 c-22 -16
-70 -39 -106 -51 -36 -11 -78 -29 -92 -40 -14 -11 -29 -20 -33 -20 -14 0 37
47 72 66 18 10 34 22 34 27 0 11 -39 -10 -87 -49 -47 -39 -78 -96 -94 -177
l-12 -57 -23 25 c-28 30 -64 45 -110 45 -19 0 -34 3 -34 8 0 4 24 19 53 35
231 121 394 353 459 652 10 42 18 61 31 63 27 5 46 -54 58 -176 29 -293 -76
-606 -272 -816 -186 -199 -459 -342 -828 -430 -79 -19 -146 -38 -150 -42 -3
-4 2 -4 11 -1 10 3 21 1 25 -6 9 -14 43 -19 43 -6 0 5 -5 9 -11 9 -5 0 -7 5
-4 10 3 6 17 10 31 10 16 0 23 -4 18 -11 -4 -7 -1 -10 7 -7 8 3 13 11 11 17
-3 14 25 15 30 1 9 -28 293 53 454 130 244 115 457 307 553 499 100 197 126
311 126 541 0 188 -15 270 -55 310 -26 26 -65 25 -90 0z"/>
<path d="M6060 4573 c-25 -25 -36 -40 -24 -32 20 13 80 79 72 79 -2 0 -24 -21
-48 -47z"/>
<path d="M6020 4510 c-9 -6 -10 -10 -3 -10 6 0 15 5 18 10 8 12 4 12 -15 0z"/>
<path d="M5976 4349 c-35 -28 -51 -60 -76 -159 -39 -152 -112 -256 -213 -301
-78 -35 -222 -33 -332 5 -44 15 -100 38 -124 52 -24 13 -46 22 -49 20 -7 -7
109 -63 184 -88 54 -18 91 -23 174 -23 101 0 108 1 168 34 107 58 156 130 212
310 39 128 66 158 134 151 11 -1 15 3 12 9 -12 18 -62 12 -90 -10z"/>
<path d="M1050 4344 c0 -16 242 -105 325 -120 50 -8 61 -14 44 -25 -11 -6 -11
-9 1 -13 39 -12 271 -36 405 -41 272 -12 395 -33 395 -68 0 -7 -14 -26 -31
-43 -39 -37 -83 -123 -104 -205 -16 -58 -18 -214 -4 -269 3 -11 -7 -16 -38
-18 -52 -4 -61 10 -69 110 -10 124 37 283 113 385 18 24 21 32 9 23 -11 -8
-35 -39 -53 -68 l-35 -53 -28 44 c-31 48 -71 82 -140 118 -39 20 -59 23 -155
23 -124 -1 -189 -13 -284 -57 -36 -16 -102 -42 -146 -58 l-80 -29 61 4 c66 4
88 11 79 27 -6 8 17 14 39 10 6 -1 19 2 30 8 18 9 58 25 141 57 11 4 27 8 35
9 8 1 38 5 67 9 66 8 197 -10 242 -34 41 -21 88 -68 90 -90 3 -25 4 -160 2
-265 -1 -55 3 -115 8 -132 5 -18 6 -35 2 -37 -13 -8 -163 34 -216 61 -27 13
-65 39 -84 56 -19 18 -31 26 -27 20 4 -7 2 -13 -3 -13 -6 0 -11 -5 -11 -11 0
-6 6 -9 14 -6 8 3 22 -3 32 -14 17 -19 17 -20 -2 -13 -18 6 -18 6 1 -9 11 -8
17 -18 14 -22 -6 -5 -284 56 -326 72 -11 4 -14 2 -9 -5 4 -6 22 -14 42 -18 24
-4 34 -11 32 -22 -3 -19 18 -23 46 -9 12 6 33 5 57 -2 37 -11 53 -30 27 -32
-31 -1 131 -40 262 -63 226 -39 256 -41 285 -22 13 9 31 16 39 16 27 0 82 -58
94 -98 29 -97 5 -167 -107 -307 -107 -133 -131 -205 -106 -325 8 -36 17 -92
20 -125 4 -33 13 -73 21 -89 17 -34 18 -47 3 -26 -9 12 -9 11 -4 -5 4 -11 10
-42 12 -70 5 -50 55 -169 77 -182 6 -4 23 -8 39 -9 l27 -2 -28 36 c-36 47 -71
129 -79 187 -3 25 -9 48 -13 50 -5 3 -6 14 -3 25 3 11 1 20 -5 20 -6 0 -8 9
-5 19 3 11 -2 73 -11 139 -16 117 -16 121 4 176 13 33 53 96 102 158 140 178
192 321 154 422 -9 24 -24 50 -34 58 -10 8 -8 -1 8 -27 19 -31 24 -52 24 -105
-1 -36 -7 -77 -15 -90 -13 -24 -14 -23 -20 30 -11 96 -44 149 -114 181 -16 8
-38 30 -47 49 -52 103 15 349 114 423 22 16 51 22 130 28 57 4 119 12 138 18
59 19 62 13 21 -42 -86 -114 -97 -188 -51 -364 28 -110 30 -127 21 -179 -14
-74 -46 -127 -137 -227 -113 -124 -146 -176 -146 -230 0 -53 18 -91 64 -132
24 -22 27 -24 12 -5 -97 113 -86 161 80 340 143 154 182 241 158 348 -6 26 -6
42 0 42 13 0 137 -130 154 -163 24 -45 23 -130 -1 -157 -31 -34 -63 -43 -91
-25 -25 16 -33 58 -14 70 17 11 11 25 -10 25 -13 0 -24 -10 -30 -26 -16 -41
-12 -63 16 -89 37 -34 101 -34 142 0 32 26 57 96 49 136 -3 19 -5 17 -6 -9 -1
-32 -28 -98 -37 -90 -2 3 1 19 7 37 13 37 6 99 -17 145 -9 17 -52 68 -95 112
-44 46 -87 101 -98 125 -22 52 -34 119 -20 119 5 0 9 -8 9 -18 0 -10 7 -42 16
-71 13 -43 30 -68 101 -139 47 -48 94 -100 104 -117 11 -16 19 -25 19 -20 0
20 -40 70 -112 139 -92 88 -112 128 -113 221 0 80 21 133 81 200 31 34 35 37
29 15 -14 -51 -17 -139 -6 -172 6 -19 27 -50 46 -68 30 -29 43 -34 93 -38 52
-4 61 -1 90 23 24 20 32 35 32 58 l-1 32 -13 -30 c-18 -41 -37 -55 -79 -57
-49 -2 -101 34 -127 87 -19 39 -20 50 -11 100 12 62 49 121 96 153 68 47 218
54 307 14 85 -37 166 -132 174 -202 1 -14 8 -45 14 -70 38 -148 -33 -323 -145
-360 -76 -25 -165 24 -165 92 0 59 43 77 86 37 26 -24 44 -18 44 15 0 46 -71
74 -110 43 -69 -54 -62 -168 12 -208 141 -76 302 44 328 244 31 249 -125 453
-365 475 l-80 7 45 19 c76 31 161 32 272 2 127 -35 208 -35 324 -2 101 30 197
33 259 10 68 -26 77 -27 86 -13 7 11 18 9 61 -13 29 -15 45 -28 36 -28 -10 0
-18 -5 -18 -11 0 -7 11 -8 30 -4 26 6 29 4 24 -12 -4 -13 -3 -14 3 -5 8 10 19
9 58 -8 91 -39 53 -14 -98 63 -219 112 -280 122 -457 72 -106 -30 -175 -30
-285 0 -119 33 -215 36 -295 10 -30 -9 -109 -46 -175 -80 -148 -78 -236 -106
-335 -107 -66 -1 -82 2 -137 31 -73 38 -130 46 -443 61 -118 6 -253 15 -300
21 -105 12 -291 60 -382 98 -37 16 -68 27 -68 25z m2760 -94 c0 -5 -4 -10 -10
-10 -5 0 -10 5 -10 10 0 6 5 10 10 10 6 0 10 -4 10 -10z"/>
<path d="M3642 4194 c-195 -45 -321 -242 -291 -457 8 -66 56 -171 91 -203 69
-64 153 -82 225 -47 75 35 98 135 44 192 -46 49 -131 34 -131 -24 0 -34 21
-43 38 -17 23 35 80 24 95 -19 15 -45 -56 -119 -116 -119 -63 0 -143 65 -189
153 -34 66 -32 184 5 258 43 89 83 137 150 181 34 22 51 37 37 33 -44 -13
-118 -75 -152 -126 -18 -28 -34 -46 -36 -40 -5 15 51 93 94 131 60 52 118 73
216 78 48 2 85 8 82 13 -3 5 0 9 7 9 7 0 10 3 6 6 -10 11 -127 9 -175 -2z"/>
<path d="M3830 4180 c0 -5 9 -10 20 -10 11 0 20 -5 20 -11 0 -5 5 -7 10 -4 6
4 5 12 -4 21 -17 16 -46 19 -46 4z"/>
<path d="M4484 4134 c-18 -14 -18 -15 6 -8 31 8 50 24 29 24 -8 0 -24 -7 -35
-16z"/>
<path d="M3012 4125 c62 -23 125 -72 168 -132 47 -66 54 -61 9 8 -42 66 -147
140 -196 138 -10 0 -1 -7 19 -14z"/>
<path d="M4125 4115 c81 -32 209 -32 251 0 17 13 14 13 -18 0 -21 -8 -59 -15
-85 -15 -44 1 -68 4 -158 24 -22 5 -19 2 10 -9z"/>
<path d="M5417 4113 c-4 -3 -37 -10 -75 -14 l-67 -7 72 2 c41 1 78 7 85 14 7
7 8 12 2 12 -6 0 -14 -3 -17 -7z"/>
<path d="M4759 4082 c-24 -16 -51 -37 -59 -48 -11 -14 -8 -13 11 3 14 13 47
34 74 48 28 14 43 25 34 25 -8 0 -35 -13 -60 -28z"/>
<path d="M2913 4079 c84 -12 140 -41 197 -100 65 -67 94 -141 95 -234 0 -54
-5 -81 -24 -118 -39 -79 -120 -117 -184 -86 -21 10 -21 10 -3 -5 29 -23 87
-20 127 7 18 12 47 44 64 71 27 45 30 57 30 135 0 78 -3 93 -33 154 -55 111
-175 189 -286 186 -38 -1 -36 -2 17 -10z"/>
<path d="M3670 4081 c-137 -42 -236 -168 -247 -315 -5 -60 -2 -80 16 -121 32
-71 90 -126 133 -125 7 1 -3 8 -22 16 -119 52 -152 203 -78 361 47 99 144 167
260 182 63 8 63 8 13 9 -27 0 -61 -3 -75 -7z"/>
<path d="M2828 4073 c7 -3 16 -2 19 1 4 3 -2 6 -13 5 -11 0 -14 -3 -6 -6z"/>
<path d="M1600 4036 c-19 -7 -87 -39 -150 -71 -63 -32 -131 -64 -150 -72 -32
-12 -33 -13 -5 -8 17 3 89 35 160 70 127 62 180 81 240 88 19 3 14 4 -15 5
-25 0 -61 -5 -80 -12z"/>
<path d="M1785 4043 c53 -12 88 -27 118 -51 28 -23 29 -23 12 -3 -27 31 -88
61 -122 60 -20 -1 -23 -3 -8 -6z"/>
<path d="M5020 4032 c30 -10 75 -28 99 -40 25 -12 47 -20 49 -17 8 8 -125 64
-165 70 -31 4 -27 2 17 -13z"/>
<path d="M4080 4036 c0 -4 7 -14 15 -22 17 -17 21 -39 5 -29 -5 3 -10 2 -10
-4 0 -5 5 -13 10 -16 6 -3 10 -1 10 5 0 6 5 8 11 5 6 -4 8 -13 5 -21 -5 -14
18 -121 28 -132 10 -9 24 9 21 26 -2 9 -7 34 -10 55 -5 30 -9 36 -19 28 -9 -8
-13 -7 -13 4 0 8 4 15 8 15 10 0 -27 64 -47 80 -7 7 -14 9 -14 6z"/>
<path d="M2114 4008 l-19 -23 23 19 c21 18 27 26 19 26 -2 0 -12 -10 -23 -22z"/>
<path d="M3993 3999 c18 -75 18 -98 2 -130 -24 -46 -46 -70 -58 -62 -5 3 -7 1
-4 -4 4 -6 0 -14 -9 -17 -8 -3 -12 -2 -9 4 3 5 -7 5 -25 -1 -35 -13 -77 -5
-102 18 -24 22 -23 11 2 -17 15 -17 34 -24 73 -28 76 -6 114 23 144 108 12 36
22 74 22 85 l0 20 -10 -20 c-7 -16 -8 -11 -6 19 1 26 -3 41 -12 44 -10 3 -12
-2 -8 -19z"/>
<path d="M4440 3991 c3 -14 11 -26 17 -26 6 0 15 -4 20 -9 5 -6 2 -6 -6 -1
-11 6 -13 4 -7 -11 32 -78 63 -174 58 -179 -3 -3 2 -5 12 -5 11 0 14 4 10 12
-5 8 -2 9 9 5 14 -5 15 -1 10 26 -17 92 -79 210 -110 212 -17 1 -19 -3 -13
-24z"/>
<path d="M1680 3929 c-59 -24 -101 -86 -99 -146 1 -26 3 -30 6 -13 16 96 57
141 135 148 45 3 56 1 72 -17 20 -22 9 -30 -13 -8 -8 6 -6 0 4 -15 20 -32 13
-64 -17 -73 -13 -5 -17 -10 -10 -17 17 -17 56 -4 71 24 21 36 6 75 -38 105
-36 24 -70 28 -111 12z"/>
<path d="M4877 3933 c-3 -5 14 -8 36 -8 23 -1 51 -4 62 -9 20 -8 20 -7 1 8
-20 16 -91 22 -99 9z"/>
<path d="M4834 3898 l-19 -23 23 19 c21 18 27 26 19 26 -2 0 -12 -10 -23 -22z"/>
<path d="M1215 3870 c-28 -7 -28 -8 -5 -9 14 0 32 4 40 9 17 11 8 11 -35 0z"/>
<path d="M1133 3853 c9 -2 25 -2 35 0 9 3 1 5 -18 5 -19 0 -27 -2 -17 -5z"/>
<path d="M2710 3846 c0 -2 8 -10 18 -17 15 -13 16 -12 3 4 -13 16 -21 21 -21
13z"/>
<path d="M5272 3810 c21 -4 46 -13 56 -21 10 -8 7 -4 -6 9 -15 14 -34 22 -55
21 -32 -1 -32 -1 5 -9z"/>
<path d="M4156 3795 c-3 -8 -1 -15 4 -15 6 0 10 7 10 15 0 8 -2 15 -4 15 -2 0
-6 -7 -10 -15z"/>
<path d="M1450 3796 c0 -2 7 -7 16 -10 8 -3 12 -2 9 4 -6 10 -25 14 -25 6z"/>
<path d="M5133 3764 l-28 -25 33 22 c17 13 32 24 32 26 0 8 -11 1 -37 -23z"/>
<path d="M1070 3774 c0 -8 62 -35 72 -32 6 2 -8 11 -31 20 -22 9 -41 15 -41
12z"/>
<path d="M2290 3772 c0 -4 23 -30 51 -57 28 -28 59 -66 69 -85 11 -21 19 -28
20 -18 0 9 -31 51 -70 92 -38 42 -70 72 -70 68z"/>
<path d="M1520 3756 c0 -2 8 -10 18 -17 15 -13 16 -12 3 4 -13 16 -21 21 -21
13z"/>
<path d="M4285 3708 l-50 -53 53 50 c48 46 57 55 49 55 -1 0 -25 -24 -52 -52z"/>
<path d="M2330 3698 c24 -27 45 -48 47 -48 8 0 0 9 -44 50 l-48 45 45 -47z"/>
<path d="M4135 3709 c-4 -11 -46 -62 -94 -113 -48 -51 -95 -109 -105 -130 -20
-43 -34 -120 -17 -96 6 8 11 27 11 41 0 34 38 89 113 166 57 58 89 74 67 33
-11 -21 -9 -130 3 -130 5 0 7 26 5 58 -1 31 0 62 3 67 11 18 22 70 20 89 -2
11 2 16 8 12 7 -4 8 -1 5 8 -8 21 -11 20 -19 -5z"/>
<path d="M1510 3716 c0 -2 8 -10 18 -17 15 -13 16 -12 3 4 -13 16 -21 21 -21
13z"/>
<path d="M1245 3700 c27 -12 43 -12 25 0 -8 5 -22 9 -30 9 -10 0 -8 -3 5 -9z"/>
<path d="M4309 3693 c-13 -16 -12 -17 4 -4 9 7 17 15 17 17 0 8 -8 3 -21 -13z"/>
<path d="M1300 3680 c8 -5 20 -10 25 -10 6 0 3 5 -5 10 -8 5 -19 10 -25 10 -5
0 -3 -5 5 -10z"/>
<path d="M4069 3663 c-13 -16 -12 -17 4 -4 9 7 17 15 17 17 0 8 -8 3 -21 -13z"/>
<path d="M4944 3638 l-19 -23 23 19 c21 18 27 26 19 26 -2 0 -12 -10 -23 -22z"/>
<path d="M2390 3620 c6 -11 13 -20 16 -20 2 0 0 9 -6 20 -6 11 -13 20 -16 20
-2 0 0 -9 6 -20z"/>
<path d="M4900 3610 c-9 -6 -10 -10 -3 -10 6 0 15 5 18 10 8 12 4 12 -15 0z"/>
<path d="M4840 3583 c-19 -8 -62 -21 -95 -29 l-60 -13 61 2 c34 1 60 6 57 11
-3 5 0 7 8 4 7 -2 18 -1 24 4 5 5 19 15 30 23 25 18 19 18 -25 -2z"/>
<path d="M3661 3556 l-24 -31 28 27 c16 15 27 29 24 31 -2 3 -15 -10 -28 -27z"/>
<path d="M2432 3555 c0 -16 2 -22 5 -12 2 9 2 23 0 30 -3 6 -5 -1 -5 -18z"/>
<path d="M4415 3525 c-16 -13 -26 -27 -22 -32 4 -4 22 7 40 25 37 37 25 42
-18 7z"/>
<path d="M4570 3530 c14 -4 34 -8 45 -9 16 -1 17 1 5 9 -8 5 -28 9 -45 9 -29
-1 -29 -1 -5 -9z"/>
<path d="M4363 3451 c-8 -19 -17 -59 -20 -88 -3 -29 -10 -50 -15 -47 -11 7 -7
-2 40 -91 17 -33 36 -59 42 -57 6 1 9 -2 6 -7 -4 -5 3 -16 14 -24 11 -7 17
-17 13 -21 -4 -4 2 -9 14 -12 13 -4 19 -12 17 -19 -7 -16 32 -39 48 -29 6 4
19 -4 30 -17 40 -49 1 10 -56 84 -32 42 -63 74 -69 70 -5 -3 -7 -1 -4 4 4 6
-3 32 -14 58 -14 31 -20 65 -19 99 1 28 1 59 1 69 0 9 4 17 10 17 5 0 8 3 8 8
-3 20 3 31 19 35 9 2 2 4 -17 3 -29 -1 -36 -6 -48 -35z m14 -143 c-3 -8 -6 -5
-6 6 -1 11 2 17 5 13 3 -3 4 -12 1 -19z"/>
<path d="M4130 3417 c0 -9 4 -17 9 -17 8 0 21 -28 25 -53 0 -5 10 -15 21 -23
11 -8 19 -18 19 -22 -2 -8 63 -82 72 -82 4 0 15 -10 25 -22 11 -11 21 -19 24
-17 2 3 -30 41 -72 85 -42 43 -75 83 -74 87 1 4 -10 24 -24 45 -16 24 -25 31
-25 19z"/>
<path d="M4056 3362 c-3 -5 1 -9 9 -9 8 0 12 4 9 9 -3 4 -7 8 -9 8 -2 0 -6 -4
-9 -8z"/>
<path d="M2999 3318 c0 -7 -2 -40 -5 -73 l-5 -60 25 31 c37 45 92 64 186 64
l80 0 0 -230 0 -230 40 -25 c22 -14 42 -25 44 -25 2 0 4 114 4 253 l0 252 69
3 c100 5 129 -4 175 -50 l41 -41 -6 48 c-4 26 -7 58 -7 71 l0 24 -320 0 c-249
0 -320 -3 -321 -12z"/>
<path d="M3900 3303 c0 -19 70 -73 95 -73 34 0 55 10 55 26 0 10 -7 13 -23 9
-12 -4 -34 -2 -47 3 -14 5 -29 10 -35 12 -5 1 -18 9 -27 17 -10 9 -18 11 -18
6z"/>
<path d="M4347 3134 c67 -85 67 -158 0 -232 l-41 -47 38 35 c77 71 88 145 34
226 -18 26 -39 50 -47 52 -8 3 0 -13 16 -34z"/>
<path d="M3168 3131 c-65 -42 -92 -100 -90 -199 3 -110 65 -199 207 -294 136
-91 188 -139 223 -208 32 -61 34 -70 30 -145 -5 -99 -32 -152 -97 -195 -39
-27 -53 -30 -121 -30 -69 0 -81 3 -123 30 -48 32 -97 99 -121 166 -14 38 -15
35 -15 -86 -1 -96 2 -121 11 -112 19 19 50 14 114 -15 49 -23 72 -27 140 -27
70 0 89 4 139 30 155 78 209 271 124 443 -39 78 -90 130 -223 223 -139 97
-202 160 -226 226 -21 54 -19 72 5 72 7 0 16 11 19 25 3 13 20 40 36 59 28 32
40 66 22 66 -4 0 -29 -13 -54 -29z"/>
<path d="M3406 3123 c4 -14 17 -43 29 -65 l22 -38 9 65 10 65 -38 0 c-37 0
-38 -1 -32 -27z"/>
<path d="M2898 3090 c-103 -18 -192 -90 -240 -196 -20 -42 -23 -65 -23 -169 0
-111 2 -124 28 -176 35 -73 88 -126 156 -158 47 -22 70 -26 141 -26 103 0 169
26 194 74 26 48 19 55 -21 21 -49 -44 -93 -61 -159 -61 -67 -1 -153 37 -189
85 -97 128 -80 412 32 518 52 50 150 77 212 58 26 -7 37 -7 43 3 4 6 4 15 0
18 -12 12 -125 18 -174 9z"/>
<path d="M3659 3076 c7 -8 14 -66 17 -132 5 -87 13 -140 31 -196 14 -43 28
-76 32 -74 3 2 8 89 9 192 2 104 6 192 9 197 9 14 84 0 112 -21 14 -10 34 -39
43 -63 45 -116 -1 -237 -96 -254 l-32 -7 59 -116 c90 -180 94 -184 170 -198
34 -6 34 -3 -2 35 -24 25 -141 238 -141 256 0 2 14 12 30 20 103 53 131 223
53 316 -41 48 -78 59 -199 59 -90 0 -105 -2 -95 -14z m276 -76 c3 -5 1 -10 -4
-10 -6 0 -11 5 -11 10 0 6 2 10 4 10 3 0 8 -4 11 -10z"/>
<path d="M3550 3068 c0 -2 -26 -81 -58 -176 -47 -139 -56 -175 -45 -184 15
-12 26 10 64 130 13 41 27 68 32 63 7 -7 50 -141 68 -211 3 -11 -6 -15 -36
-16 -83 -2 -91 -4 -75 -14 8 -5 38 -10 66 -10 29 0 56 -5 62 -12 5 -7 31 -80
58 -161 41 -128 46 -153 37 -178 l-11 -29 74 0 75 0 -24 33 c-27 34 -92 212
-203 554 -38 117 -72 213 -76 213 -5 0 -8 -1 -8 -2z"/>
<path d="M3164 3007 c-10 -27 36 -147 56 -147 28 0 1 120 -33 149 -14 11 -18
11 -23 -2z"/>
<path d="M2960 3002 c0 -7 -5 -12 -11 -12 -7 0 -18 -8 -25 -17 -8 -11 -13 -13
-14 -5 0 6 -7 12 -16 12 -13 0 -15 -5 -8 -22 4 -13 10 -135 13 -273 l6 -249
33 -7 c40 -8 44 -1 42 64 -2 29 -2 73 -1 100 l1 47 58 1 c84 1 148 27 125 50
-9 9 -22 7 -55 -6 -25 -9 -62 -15 -84 -13 l-39 3 -5 162 c-3 89 -8 165 -12
169 -5 4 -8 2 -8 -4z"/>
<path d="M4550 2990 c0 -5 5 -10 11 -10 5 0 7 5 4 10 -3 6 -8 10 -11 10 -2 0
-4 -4 -4 -10z"/>
<path d="M3006 2981 c-3 -5 6 -11 19 -14 29 -5 43 8 19 17 -22 8 -32 8 -38 -3z"/>
<path d="M2114 2904 c-15 -6 5 -64 21 -64 21 0 39 -49 66 -179 32 -154 60
-217 124 -283 48 -50 54 -65 30 -74 -8 -4 -15 -11 -15 -17 0 -6 11 0 25 13 24
23 25 31 8 78 -3 6 1 12 9 12 13 0 12 8 -3 53 -42 119 -17 131 114 55 74 -43
59 -9 -27 63 -50 42 -85 82 -108 121 -53 95 -101 159 -138 189 -35 27 -84 42
-106 33z"/>
<path d="M4463 2900 c-13 -5 -23 -12 -23 -15 0 -4 5 -3 11 1 6 3 30 6 52 6 32
0 37 2 22 8 -26 11 -35 11 -62 0z"/>
<path d="M4350 2785 c-7 -9 -8 -15 -2 -15 5 0 12 7 16 15 3 8 4 15 2 15 -2 0
-9 -7 -16 -15z"/>
<path d="M2132 2725 c0 -16 2 -22 5 -12 2 9 2 23 0 30 -3 6 -5 -1 -5 -18z"/>
<path d="M2146 2615 c4 -38 12 -83 20 -100 l14 -30 -7 35 c-3 19 -12 64 -19
100 l-13 65 5 -70z"/>
<path d="M4230 2611 c-25 -26 -64 -62 -87 -80 -70 -55 -50 -64 31 -13 21 13
52 26 70 29 30 5 31 6 32 59 0 30 0 54 0 53 -1 0 -21 -22 -46 -48z"/>
<path d="M3270 2446 c0 -144 0 -145 -26 -165 l-27 -21 104 0 c74 1 99 3 87 11
-38 22 -39 89 -3 205 7 22 -17 50 -34 40 -5 -4 -18 -38 -27 -76 -11 -43 -24
-70 -32 -70 -8 0 -11 7 -8 18 3 9 14 49 24 88 l20 70 -32 22 c-18 12 -35 22
-39 22 -4 0 -7 -65 -7 -144z"/>
<path d="M4380 2506 c-5 -15 -10 -33 -10 -39 0 -7 -4 -6 -10 3 -5 8 -12 12
-15 9 -7 -8 5 -39 15 -39 10 0 43 81 36 88 -3 2 -10 -7 -16 -22z"/>
<path d="M4280 2511 c0 -5 9 -7 20 -4 11 3 20 7 20 9 0 2 -9 4 -20 4 -11 0
-20 -4 -20 -9z"/>
<path d="M4276 2464 c-4 -14 -5 -28 -3 -31 3 -2 8 8 11 23 4 14 5 28 3 31 -3
2 -8 -8 -11 -23z"/>
<path d="M2885 2300 c-10 -11 -16 -22 -14 -24 2 -3 32 -2 67 1 60 6 62 7 46
24 -23 25 -76 25 -99 -1z"/>
<path d="M2170 2260 c0 -8 109 -85 125 -88 8 -2 15 -8 15 -13 0 -5 6 -9 13 -9
19 0 81 -100 101 -164 10 -31 21 -54 25 -51 5 2 6 -7 3 -20 -3 -20 -1 -24 11
-19 8 3 18 1 22 -5 3 -6 -1 -11 -9 -11 -21 0 -16 -118 6 -134 13 -10 13 -13 2
-24 -17 -16 -20 -207 -3 -217 6 -4 8 -13 5 -20 -2 -7 1 -16 9 -18 16 -7 19 40
16 231 -1 89 2 132 9 132 8 0 8 6 0 20 -6 11 -8 20 -4 20 3 0 0 10 -8 23 -8
12 -17 40 -20 62 -8 56 -53 147 -94 189 -57 59 -155 120 -191 121 -18 0 -33
-2 -33 -5z m70 -25 c0 -8 -4 -15 -10 -15 -5 0 -7 7 -4 15 4 8 8 15 10 15 2 0
4 -7 4 -15z m110 -67 c0 -6 -6 -5 -15 2 -8 7 -15 14 -15 16 0 2 7 1 15 -2 8
-4 15 -11 15 -16z"/>
<path d="M2610 2267 c0 -3 32 -36 70 -73 39 -37 84 -89 100 -114 117 -182 130
-455 27 -567 -11 -13 -26 -23 -34 -23 -7 0 -13 -4 -13 -10 0 -5 6 -10 13 -10
22 0 47 -34 47 -64 0 -15 -11 -37 -25 -51 -26 -27 -25 -31 6 -15 24 13 25 -2
4 -80 -8 -30 -20 -96 -27 -147 -10 -77 -15 -93 -30 -93 -12 0 -15 5 -11 15 8
23 -51 134 -130 244 -37 52 -73 110 -79 128 -12 32 -37 45 -40 21 0 -7 -2 -20
-3 -28 -2 -18 35 -85 91 -165 87 -125 145 -265 169 -409 28 -167 46 -263 65
-341 10 -44 21 -123 25 -175 9 -153 19 -185 84 -252 l57 -58 64 0 63 0 -59 30
c-75 37 -133 96 -145 146 -4 22 -9 78 -9 126 0 63 -8 119 -29 202 -16 62 -37
164 -47 225 -10 61 -20 111 -23 111 -11 0 8 316 23 404 9 49 14 97 11 107 -4
11 -2 19 3 19 15 0 4 59 -17 89 -19 26 -19 27 -1 38 10 7 32 40 49 74 29 58
31 69 31 171 0 150 -40 264 -135 388 -37 48 -145 150 -145 137z m120 -1221 c0
-3 -4 -8 -10 -11 -5 -3 -10 -1 -10 4 0 6 5 11 10 11 6 0 10 -2 10 -4z"/>
<path d="M4355 2229 c-63 -42 -125 -97 -125 -112 0 -4 15 7 33 27 17 19 58 50
89 70 31 20 59 40 63 46 9 14 7 13 -60 -31z"/>
<path d="M2607 2184 c110 -83 151 -154 166 -286 l10 -87 -52 -106 c-29 -58
-51 -109 -48 -112 7 -7 63 103 93 185 52 137 19 274 -87 364 -49 41 -108 78
-124 78 -4 0 15 -16 42 -36z"/>
<path d="M3919 2168 c-24 -29 -36 -47 -26 -39 20 16 81 91 74 91 -3 0 -25 -24
-48 -52z"/>
<path d="M3992 2174 c-130 -87 -184 -245 -131 -384 25 -65 80 -172 86 -166 3
2 -16 47 -42 100 -50 104 -69 191 -44 207 10 6 11 9 1 9 -9 0 -8 6 4 25 8 13
13 29 9 35 -3 5 -2 10 3 10 4 0 16 15 24 34 21 44 73 102 122 138 56 41 30 35
-32 -8z"/>
<path d="M2470 2183 c14 -9 44 -36 68 -59 23 -23 42 -38 42 -33 0 12 -65 70
-102 91 -26 15 -28 15 -8 1z"/>
<path d="M4094 2128 l-29 -33 33 29 c17 17 32 31 32 33 0 8 -8 1 -36 -29z"/>
<path d="M3859 2093 c-13 -16 -12 -17 4 -4 9 7 17 15 17 17 0 8 -8 3 -21 -13z"/>
<path d="M4206 2083 c-6 -14 -5 -15 5 -6 7 7 10 15 7 18 -3 3 -9 -2 -12 -12z"/>
<path d="M4243 2079 c-2 -23 3 -25 10 -4 4 8 3 16 -1 19 -4 3 -9 -4 -9 -15z"/>
<path d="M3809 2007 c-78 -167 -75 -386 7 -482 l25 -30 -26 41 c-35 56 -58
171 -50 254 7 74 38 187 66 242 11 21 17 38 14 38 -3 0 -19 -29 -36 -63z"/>
<path d="M4226 2033 c-6 -14 -5 -15 5 -6 7 7 10 15 7 18 -3 3 -9 -2 -12 -12z"/>
<path d="M2545 1954 c-35 -38 -31 -51 5 -17 16 15 42 31 57 34 27 6 27 7 -5 8
-24 1 -40 -6 -57 -25z"/>
<path d="M4160 1826 c0 -9 -4 -14 -10 -11 -6 4 -10 -13 -11 -42 -1 -26 -3 -69
-5 -95 -2 -27 1 -48 6 -48 4 0 6 -18 3 -40 -5 -38 7 -54 22 -30 3 6 1 10 -5
10 -6 0 -8 5 -5 11 12 18 21 246 11 256 -3 4 -6 -1 -6 -11z"/>
<path d="M3297 1755 c-3 -38 -9 -223 -13 -410 -6 -327 -11 -385 -34 -385 -27
0 -67 99 -94 231 l-13 64 -7 -85 c-7 -91 -16 -111 -40 -91 -33 28 -73 181
-107 416 l-13 90 -8 -56 c-4 -31 -23 -122 -42 -202 -46 -186 -46 -187 -1 -185
19 1 35 5 35 10 0 4 7 8 15 8 9 0 12 -6 8 -16 -4 -10 1 -17 16 -21 19 -5 26
-21 22 -47 -1 -4 3 -14 9 -21 9 -10 7 -16 -7 -23 -10 -5 -24 -7 -32 -4 -10 3
-12 0 -8 -12 4 -10 7 -22 7 -27 0 -5 12 -9 26 -9 14 0 23 -4 19 -10 -3 -5 -17
-10 -31 -10 -17 0 -24 5 -24 20 0 11 -3 20 -8 20 -9 0 -6 -57 13 -220 21 -181
28 -317 17 -305 -5 6 -28 78 -52 160 -37 130 -43 167 -48 278 -3 87 -8 126
-16 124 -7 -3 -10 -39 -8 -108 3 -113 35 -248 113 -489 59 -178 77 -209 126
-210 41 0 103 110 103 184 0 20 0 20 -14 1 -7 -11 -16 -34 -20 -50 -10 -48
-43 -95 -66 -95 -39 0 -80 128 -80 253 0 84 29 177 72 229 44 53 93 77 103 50
7 -20 5 -207 -4 -296 -5 -45 -4 -65 3 -63 12 4 19 66 35 319 6 92 14 174 18
183 12 34 21 -10 29 -143 4 -72 10 -132 13 -132 3 0 3 -83 0 -183 -7 -197 -14
-223 -72 -293 -32 -38 -38 -76 -21 -131 8 -25 11 -49 8 -54 -3 -5 9 -9 27 -9
30 0 31 1 25 33 -19 102 -19 104 10 156 15 28 32 50 38 48 6 -2 24 -27 40 -57
28 -51 28 -55 16 -104 -7 -28 -15 -57 -17 -63 -4 -9 5 -13 24 -13 27 0 30 4
41 51 18 75 15 104 -13 137 -14 17 -37 57 -52 89 -27 57 -27 60 -24 238 2 99
4 191 6 205 2 14 4 69 4 123 1 53 5 97 10 97 21 0 32 -69 41 -265 5 -115 12
-226 15 -245 21 -111 68 -200 106 -200 53 0 82 43 122 181 14 46 41 139 60
206 60 202 71 272 64 408 -7 129 -15 183 -53 344 -27 112 -33 210 -22 331 5
53 5 68 -2 51 -6 -13 -16 -77 -22 -142 -7 -66 -16 -119 -20 -119 -4 0 -8 -17
-8 -37 0 -61 -29 -212 -55 -287 -44 -126 -75 -128 -75 -3 0 44 -4 77 -8 71 -5
-5 -18 -52 -30 -105 -31 -142 -83 -216 -97 -136 -5 35 -25 598 -25 742 0 62
-3 85 -10 75 -5 -8 -10 -37 -10 -64 0 -65 -13 -50 -20 22 l-6 57 -7 -70z m428
-642 c4 -10 9 -77 12 -148 l6 -130 -48 -175 c-70 -260 -76 -252 -40 50 7 63
17 149 21 190 5 52 9 69 15 55 4 -12 8 19 8 78 1 91 10 120 26 80z m32 -105
c-3 -8 -6 -5 -6 6 -1 11 2 17 5 13 3 -3 4 -12 1 -19z m-234 -246 c69 -68 96
-225 63 -377 -44 -206 -125 -122 -149 155 -7 74 -10 166 -9 203 l4 69 26 -7
c15 -3 44 -23 65 -43z"/>
<path d="M3693 860 c0 -36 2 -50 4 -32 2 17 2 47 0 65 -2 17 -4 3 -4 -33z"/>
<path d="M2935 1790 c3 -14 8 -68 12 -120 5 -76 8 -89 15 -65 9 32 -5 147 -22
186 l-11 24 6 -25z"/>
<path d="M2633 1783 c9 -2 25 -2 35 0 9 3 1 5 -18 5 -19 0 -27 -2 -17 -5z"/>
<path d="M3988 1783 c6 -2 18 -2 25 0 6 3 1 5 -13 5 -14 0 -19 -2 -12 -5z"/>
<path d="M2639 1573 c-5 -14 -8 -30 -6 -36 1 -5 8 7 14 27 13 42 7 49 -8 9z"/>
<path d="M3991 1585 c1 -19 18 -51 18 -35 0 8 -4 22 -9 30 -5 8 -9 11 -9 5z"/>
<path d="M4141 1525 c-1 -12 5 -27 12 -34 10 -10 9 -11 -5 -6 -21 8 -24 -14
-5 -35 6 -8 8 -11 3 -8 -5 4 -19 -14 -31 -40 -13 -26 -48 -80 -78 -121 -31
-40 -75 -112 -98 -160 -23 -47 -44 -88 -46 -90 -7 -10 -13 9 -28 99 -40 236
-59 265 -25 38 11 -73 20 -163 20 -199 0 -78 -28 -251 -71 -434 -19 -79 -34
-178 -39 -253 -11 -159 -31 -192 -155 -253 l-60 -29 68 0 c65 0 69 1 114 43
59 54 82 105 83 182 1 33 7 101 14 150 20 137 104 542 128 615 25 76 94 204
148 275 61 80 77 122 79 198 1 40 -3 66 -8 63 -5 -4 -12 0 -14 6 -3 7 -6 4 -6
-7z"/>
<path d="M3981 1514 c0 -11 3 -14 6 -6 3 7 2 16 -1 19 -3 4 -6 -2 -5 -13z"/>
<path d="M4010 1476 c0 -30 -4 -57 -9 -60 -5 -4 -7 13 -5 36 3 40 3 39 -10
-12 -7 -30 -16 -62 -20 -71 -8 -17 -47 -39 -72 -39 -24 0 -64 47 -65 77 l-1
28 -9 -30 c-9 -29 -4 -63 7 -52 3 3 15 -4 26 -15 14 -14 30 -19 53 -16 19 2
31 0 29 -4 -3 -4 -20 -8 -37 -9 -27 0 -29 -2 -11 -9 68 -27 122 36 131 154 3
42 3 76 -1 76 -3 0 -6 -24 -6 -54z"/>
<path d="M3851 1476 c-10 -12 -8 -13 9 -9 25 7 37 23 17 23 -8 0 -20 -6 -26
-14z"/>
<path d="M2651 1405 c-1 -17 -3 -17 -11 -5 -15 24 -12 1 6 -36 9 -19 21 -34
26 -34 5 0 7 4 3 10 -3 5 7 3 22 -5 15 -8 37 -15 48 -14 14 0 12 3 -9 9 -15 5
-36 16 -45 24 -10 9 -20 13 -23 10 -3 -3 -9 0 -14 7 -4 8 -3 10 4 5 14 -8 14
1 2 29 l-9 20 0 -20z"/>
<path d="M2680 1310 c0 -5 10 -10 23 -10 18 0 19 2 7 10 -19 13 -30 13 -30 0z"/>
<path d="M2893 1123 c-15 -5 -18 -73 -4 -73 15 0 23 18 11 25 -5 3 -10 14 -10
23 0 15 2 15 10 2 8 -12 10 -11 10 8 0 12 -1 22 -2 21 -2 0 -9 -3 -15 -6z"/>
<path d="M2965 1110 c-3 -5 -1 -10 4 -10 6 0 11 5 11 10 0 6 -2 10 -4 10 -3 0
-8 -4 -11 -10z"/>
<path d="M2966 1074 c-4 -10 -1 -14 6 -12 15 5 23 28 10 28 -5 0 -13 -7 -16
-16z"/>
<path d="M2943 860 c0 -36 2 -50 4 -32 2 17 2 47 0 65 -2 17 -4 3 -4 -33z"/>
<path d="M2952 755 c0 -16 2 -22 5 -12 2 9 2 23 0 30 -3 6 -5 -1 -5 -18z"/>
<path d="M3649 143 c-13 -16 -12 -17 4 -4 9 7 17 15 17 17 0 8 -8 3 -21 -13z"/>
<path d="M3022 114 c9 -10 32 -28 50 -38 39 -22 29 -11 -27 29 -23 17 -33 21
-23 9z"/>
<path d="M3592 96 c-46 -33 -53 -43 -14 -20 19 10 38 25 44 32 15 17 8 14 -30
-12z"/>
<path d="M3510 50 c-8 -5 -10 -10 -5 -10 6 0 17 5 25 10 8 5 11 10 5 10 -5 0
-17 -5 -25 -10z"/>
</g>
</svg>
