<?xml version="1.0" standalone="no"?>
<!DOCTYPE svg PUBLIC "-//W3C//DTD SVG 20010904//EN"
 "http://www.w3.org/TR/2001/REC-SVG-20010904/DTD/svg10.dtd">
<svg version="1.0" xmlns="http://www.w3.org/2000/svg"
 width="821.000000pt" height="530.000000pt" viewBox="0 0 821.000000 530.000000"
 preserveAspectRatio="xMidYMid meet">
<metadata>
Created by potrace 1.16, written by Peter Selinger 2001-2019
</metadata>
<g transform="translate(0.000000,530.000000) scale(0.100000,-0.100000)"
fill="#000000" stroke="none">
<path d="M6114 5076 c-8 -14 -24 -59 -34 -100 -94 -375 -338 -613 -736 -716
-131 -34 -222 -44 -574 -65 -276 -17 -312 -23 -380 -63 -39 -23 -56 -27 -125
-27 -102 1 -183 27 -332 106 -211 113 -274 124 -448 79 -66 -16 -138 -30 -160
-30 -22 0 -94 14 -160 30 -66 17 -133 30 -150 30 -62 0 -154 -32 -300 -104
-178 -89 -233 -106 -335 -106 -66 0 -86 4 -136 30 -71 36 -132 45 -419 60
-346 18 -439 32 -625 92 -73 23 -202 86 -270 130 l-45 29 32 -28 c23 -20 29
-32 23 -44 -10 -17 25 -46 35 -29 3 6 -1 10 -9 10 -9 0 -16 7 -16 15 0 17 16
20 25 5 4 -6 27 -21 52 -33 42 -22 44 -25 28 -40 -9 -9 -31 -17 -48 -17 -50 0
-102 -18 -123 -42 l-19 -21 30 21 c33 24 125 42 125 24 0 -5 8 -8 19 -5 10 3
22 0 25 -6 5 -7 0 -9 -11 -5 -15 5 -15 4 -3 -4 8 -6 17 -9 21 -6 4 2 10 0 14
-6 3 -5 0 -10 -7 -10 -10 0 -9 -3 2 -10 16 -10 20 -45 7 -72 -6 -14 -3 -18 13
-18 13 0 20 7 20 20 0 26 8 25 39 -2 l26 -23 -26 30 c-15 17 -34 44 -42 60 -8
17 -25 40 -36 52 -26 27 -26 29 -1 36 15 4 20 0 20 -14 0 -10 5 -19 11 -19 5
0 7 5 4 10 -3 6 1 10 10 10 11 0 15 -5 11 -15 -7 -19 10 -26 163 -65 150 -38
304 -57 569 -70 201 -10 323 -27 344 -48 7 -7 -8 -34 -40 -75 -77 -101 -97
-171 -97 -339 l0 -138 -38 0 c-32 0 -39 4 -49 28 -20 49 -15 209 9 287 23 73
77 172 119 216 13 14 24 29 24 35 0 14 -68 -64 -102 -118 l-30 -48 -31 47
c-45 67 -126 120 -205 135 -79 15 -245 -1 -318 -31 -27 -10 -89 -36 -139 -56
-49 -20 -117 -43 -150 -50 -50 -11 -54 -14 -25 -14 27 -1 31 -4 20 -11 -24
-16 45 -1 120 26 36 12 110 42 165 66 l100 43 135 0 c121 0 140 -3 181 -23 55
-27 91 -63 96 -95 3 -20 3 -154 -1 -272 0 -27 3 -74 7 -102 7 -51 7 -53 -15
-53 -37 0 -173 45 -221 74 -25 14 -57 40 -72 58 -26 31 -27 31 -21 8 l7 -25
-20 23 c-71 82 0 232 110 232 21 0 40 -3 42 -7 3 -5 -17 -8 -44 -8 -33 0 -54
-6 -66 -18 -17 -17 -17 -18 12 -3 38 20 65 20 93 0 28 -19 29 -58 2 -77 -18
-13 -19 -16 -5 -27 13 -11 20 -10 43 7 65 48 22 141 -70 150 -54 5 -113 -27
-140 -77 -20 -35 -21 -109 -3 -155 6 -15 -3 -11 -32 15 -21 19 -1 -2 46 -48
62 -60 79 -82 61 -77 -14 4 -36 17 -50 29 l-25 21 20 -24 c20 -24 20 -24 0
-18 -11 3 -76 20 -145 38 -219 56 -399 130 -545 224 -47 30 -85 53 -85 50 0
-7 138 -98 198 -130 28 -15 50 -30 47 -33 -2 -3 -10 -1 -17 5 -12 8 -21 9 -45
4 -19 -4 121 -65 241 -106 183 -62 414 -120 597 -149 184 -31 217 -32 257 -9
29 17 31 16 65 -10 71 -54 86 -171 33 -262 -14 -23 -55 -79 -91 -125 -112
-142 -125 -186 -100 -343 9 -56 21 -133 26 -172 23 -154 40 -215 75 -268 39
-58 103 -119 149 -141 68 -33 134 -128 160 -230 24 -95 27 -131 27 -303 -1
-226 6 -250 102 -395 117 -176 153 -270 191 -493 10 -55 26 -143 37 -195 29
-135 36 -181 46 -301 11 -124 30 -169 95 -222 42 -34 50 -37 109 -37 l63 1
-65 34 c-121 62 -150 113 -150 265 0 61 -10 127 -35 235 -78 340 -82 471 -24
793 13 71 12 76 -9 115 l-22 41 24 25 c35 38 57 96 67 181 22 185 -64 393
-218 529 -84 74 -88 62 -5 -14 124 -115 180 -222 203 -389 8 -58 7 -97 -2
-150 -17 -107 -46 -155 -108 -183 l-26 -11 27 -1 c18 -1 33 -10 44 -26 35 -53
-18 -127 -80 -111 -31 8 -66 59 -66 99 0 15 -4 27 -9 27 -5 0 -7 -10 -3 -22 3
-14 2 -19 -6 -14 -18 11 -14 80 7 141 11 31 15 53 10 50 -5 -3 -16 -31 -25
-62 -45 -156 52 -313 150 -242 l28 21 -4 -33 c-17 -110 -42 -247 -49 -264 -7
-19 -8 -19 -15 5 -13 46 -79 164 -131 235 -89 122 -95 139 -93 262 1 59 2 113
2 118 1 6 -2 45 -6 87 -5 55 -4 78 3 78 7 0 9 14 6 38 -4 28 -1 43 16 62 11
14 18 19 14 12 -6 -11 -3 -12 14 -3 11 7 36 11 54 9 28 -2 33 -5 29 -22 -3
-13 -1 -17 6 -12 18 11 14 41 -6 59 -38 35 -115 10 -134 -44 -8 -22 -17 -7
-33 55 -31 120 -70 171 -192 254 -103 71 -148 135 -173 246 -18 81 -50 319
-50 372 0 69 35 139 120 244 80 99 152 242 158 315 5 66 -16 131 -55 166 l-26
24 26 -35 c30 -40 48 -110 41 -154 -12 -74 -15 -81 -25 -65 -5 7 -9 28 -9 44
-1 67 -49 134 -128 177 -71 39 -69 200 4 356 49 102 81 122 216 132 57 4 116
13 131 19 54 21 58 13 20 -36 -61 -80 -78 -127 -77 -218 0 -55 7 -102 22 -149
14 -44 22 -93 22 -139 0 -92 -28 -150 -121 -252 -195 -214 -208 -267 -92 -390
30 -33 44 -44 30 -25 -73 98 -82 114 -81 149 0 57 26 98 139 220 135 147 160
195 159 309 l0 83 68 -68 c79 -79 98 -113 98 -181 0 -65 -27 -102 -76 -102
-27 0 -37 5 -46 25 -9 19 -9 28 0 37 18 18 14 38 -8 38 -43 0 -54 -77 -15
-115 18 -19 35 -25 69 -25 83 0 134 72 123 171 -9 70 -30 105 -119 192 -94 92
-122 145 -122 232 -1 70 14 112 63 177 42 56 53 60 40 16 -14 -49 -11 -135 5
-167 8 -15 31 -42 51 -60 74 -65 206 -31 205 53 l-1 31 -14 -32 c-16 -38 -42
-53 -91 -53 -30 0 -44 8 -80 44 -42 41 -44 46 -44 102 1 114 61 192 170 220
152 39 294 -13 372 -135 38 -61 36 -76 -3 -18 -50 76 -171 149 -242 146 -13
-1 -7 -4 16 -10 105 -25 199 -102 252 -205 27 -53 30 -68 30 -154 0 -84 -3
-101 -27 -145 -36 -69 -86 -115 -138 -126 -37 -8 -50 -6 -89 13 -50 25 -68 57
-57 101 9 38 53 48 78 17 23 -28 48 -20 48 16 0 46 -61 70 -111 44 -44 -24
-62 -106 -34 -160 45 -87 168 -100 266 -28 47 35 96 131 110 216 40 241 -124
459 -362 480 l-74 7 45 19 c78 32 143 32 255 1 133 -38 220 -38 339 -2 101 31
170 33 240 9 73 -25 67 -37 -18 -37 -64 -1 -83 -5 -149 -38 -122 -60 -194
-162 -217 -304 -15 -89 -6 -156 31 -234 52 -111 117 -159 211 -159 70 0 113
27 139 86 17 38 19 50 9 79 -24 73 -109 100 -149 49 -16 -20 -18 -31 -10 -45
13 -25 36 -24 44 1 4 11 15 20 26 20 65 0 81 -66 29 -119 -41 -41 -86 -48
-141 -24 -94 42 -152 142 -152 264 0 67 5 85 34 144 41 82 108 153 181 190 38
19 44 25 23 21 -50 -11 -137 -78 -177 -135 -45 -64 -51 -56 -9 11 40 63 120
124 188 144 69 20 203 15 249 -9 80 -42 129 -137 120 -232 -3 -27 -10 -51 -16
-53 -5 -2 -8 -7 -5 -12 7 -11 -67 -58 -96 -60 -51 -5 -71 1 -94 26 -14 15 -25
21 -25 15 0 -7 13 -26 29 -42 25 -25 37 -29 85 -29 50 0 59 3 94 38 71 66 84
201 27 259 -8 8 -13 18 -10 23 3 5 -1 10 -7 13 -7 3 -4 5 8 4 20 -1 41 -16 40
-29 -1 -3 9 -18 21 -32 43 -49 80 -131 93 -203 12 -67 12 -76 -6 -115 -10 -24
-56 -82 -100 -129 -45 -47 -89 -100 -98 -117 -19 -37 -34 -136 -17 -112 6 8
11 25 11 38 0 12 9 40 19 60 21 41 146 180 154 172 3 -3 0 -29 -6 -57 -10 -46
-8 -62 12 -123 23 -71 63 -130 148 -218 160 -165 174 -228 78 -341 -41 -48
-64 -85 -31 -51 93 99 106 120 106 171 0 74 -27 119 -161 266 -85 93 -129 178
-129 247 0 28 12 87 26 131 20 60 27 103 27 170 1 81 -1 95 -25 136 -15 25
-41 61 -58 79 -26 28 -33 31 -42 19 -8 -11 -9 -10 -4 4 3 10 6 26 6 35 0 12 3
14 8 5 5 -7 28 -17 53 -22 24 -5 55 -12 69 -15 14 -3 54 -8 90 -12 97 -8 108
-12 141 -46 61 -64 108 -194 109 -298 0 -95 -14 -125 -75 -165 -64 -40 -94
-91 -102 -172 -7 -64 -19 -58 -39 19 l-14 53 6 -48 c10 -88 66 -194 161 -304
65 -75 123 -182 123 -226 0 -18 -5 -70 -12 -115 -9 -66 -9 -85 1 -91 10 -6 9
-11 -2 -23 -16 -16 -36 -119 -21 -105 10 10 11 14 13 58 1 23 5 30 15 26 9 -4
15 0 15 11 0 9 4 37 11 61 6 24 8 52 5 62 -4 11 -2 19 4 19 6 0 11 7 11 16 0
8 -4 12 -10 9 -5 -3 -10 0 -10 9 0 8 6 16 13 19 8 2 11 22 10 55 -1 65 -33
128 -119 238 -134 172 -150 284 -50 371 32 29 49 52 28 39 -5 -3 -9 1 -9 9 0
8 7 17 14 19 8 3 11 1 8 -4 -3 -6 1 -13 9 -16 9 -3 16 -12 16 -20 0 -7 15 -17
33 -22 33 -9 147 -4 147 7 0 3 12 6 28 7 59 1 264 37 402 71 357 87 560 179
758 345 203 170 325 390 374 670 19 111 20 135 10 248 -18 199 -45 260 -114
260 -18 0 -33 -8 -44 -24z m95 -120 c16 -89 14 -278 -4 -378 -43 -250 -171
-467 -365 -622 -194 -155 -404 -252 -701 -324 -216 -52 -220 -52 -146 6 25 20
43 42 44 55 1 21 1 21 -9 2 -6 -11 -27 -33 -47 -50 l-36 -30 26 35 c44 61 44
67 -2 19 -73 -77 -179 -117 -338 -126 -79 -5 -83 -4 -76 14 4 10 9 64 12 120
3 77 1 116 -12 160 -24 81 -67 162 -109 202 -20 19 -36 38 -36 41 0 8 41 28
85 42 17 5 161 16 320 23 160 8 335 21 390 29 100 16 274 59 308 78 28 15 30
4 6 -38 -48 -83 -82 -105 -184 -114 l-70 -7 63 -2 c68 -1 116 14 146 48 26 29
42 26 50 -9 11 -57 109 -77 140 -28 15 25 -1 34 -24 13 -20 -18 -21 -18 -48 2
-38 28 -41 75 -8 107 33 34 66 40 109 22 51 -21 79 -69 74 -125 -6 -55 -31
-90 -88 -119 -66 -35 -180 -27 -314 23 -278 103 -259 98 -395 99 -117 1 -129
-1 -180 -26 -31 -15 -69 -42 -85 -60 -22 -24 -23 -27 -5 -11 14 12 50 34 80
50 50 26 63 28 155 27 118 -2 186 -20 362 -92 142 -59 220 -77 302 -69 69 6
120 28 161 70 36 37 46 67 60 177 5 47 17 106 25 131 21 62 74 114 132 128 59
15 101 37 136 70 32 29 52 61 39 61 -5 0 -15 -12 -22 -26 -15 -27 -86 -74
-112 -74 -9 0 -45 -15 -82 -33 -36 -18 -60 -27 -53 -19 18 23 88 64 111 66 12
2 31 8 42 15 18 12 14 11 -31 -4 -13 -4 -10 1 10 17 37 28 83 77 97 102 5 10
-16 -8 -48 -41 -33 -32 -84 -73 -115 -90 -75 -42 -114 -89 -139 -169 -11 -36
-20 -72 -20 -80 0 -8 -4 -14 -10 -14 -5 0 -10 4 -10 9 0 17 -54 44 -104 50
l-51 7 34 20 c184 106 310 234 393 399 32 62 74 183 89 255 6 30 16 61 22 68
18 23 44 -15 56 -82z m-3678 -1257 c6 -13 54 -67 105 -121 71 -74 96 -107 104
-139 14 -51 8 -100 -16 -131 -14 -20 -16 -20 -9 -3 34 97 14 154 -95 270 -88
94 -131 162 -129 206 1 18 4 14 14 -17 7 -23 19 -52 26 -65z m-1261 -14 c36
-13 56 -24 45 -24 -11 0 -38 8 -60 18 -22 10 -46 16 -54 13 -8 -3 -11 0 -7 7
9 13 -1 15 76 -14z m3477 -161 c-11 -12 -77 -15 -77 -4 0 5 19 10 42 10 23 0
38 -3 35 -6z m-2113 -1560 c9 -3 16 -10 16 -15 0 -6 -9 -5 -20 1 -12 6 -31 8
-43 5 -17 -5 -19 -4 -7 4 17 12 32 14 54 5z m129 -651 c-7 -2 -21 -2 -30 0
-10 3 -4 5 12 5 17 0 24 -2 18 -5z"/>
<path d="M5968 4343 c-35 -39 -45 -59 -72 -160 -29 -111 -56 -163 -112 -223
-81 -86 -199 -115 -349 -86 -58 12 -122 36 -235 91 -103 50 -175 79 -215 85
-87 14 -102 10 -20 -6 47 -9 116 -36 212 -84 176 -87 272 -114 388 -108 169 9
279 106 340 299 40 128 46 142 74 172 23 25 31 28 69 24 37 -4 40 -3 25 9 -31
23 -76 17 -105 -13z"/>
<path d="M4560 4040 c12 -16 24 -30 26 -30 3 0 -4 14 -16 30 -12 17 -24 30
-26 30 -3 0 4 -13 16 -30z"/>
<path d="M4838 4043 c7 -3 16 -2 19 1 4 3 -2 6 -13 5 -11 0 -14 -3 -6 -6z"/>
<path d="M4740 3999 l-35 -30 40 27 c22 16 42 29 44 31 2 2 0 3 -5 3 -5 0 -25
-14 -44 -31z"/>
<path d="M4657 3970 c-13 -34 -21 -37 -37 -12 -10 15 -11 15 -4 -3 4 -11 17
-54 30 -95 l24 -75 -2 95 c-1 52 1 101 5 108 5 6 5 12 2 12 -4 0 -12 -13 -18
-30z"/>
<path d="M4845 3909 c-26 -24 -35 -39 -35 -63 0 -45 31 -73 62 -58 21 11 21
12 3 10 -36 -2 -55 13 -55 44 0 19 4 27 12 22 6 -4 8 -3 5 3 -8 13 32 50 63
58 14 3 39 1 55 -5 36 -13 86 -60 79 -72 -3 -4 0 -8 5 -8 17 0 13 15 -10 44
-50 63 -128 74 -184 25z"/>
<path d="M5045 3821 c-3 -5 -1 -12 5 -16 5 -3 10 1 10 9 0 18 -6 21 -15 7z"/>
<path d="M5267 3811 c23 -4 52 -16 63 -26 16 -14 19 -15 15 -3 -8 21 -49 38
-88 37 -28 -1 -27 -2 10 -8z"/>
<path d="M5128 3765 c-27 -20 -48 -38 -48 -41 0 -6 7 -2 68 40 23 16 42 30 42
32 0 10 -19 0 -62 -31z"/>
<path d="M4672 3705 c0 -16 2 -22 5 -12 2 9 2 23 0 30 -3 6 -5 -1 -5 -18z"/>
<path d="M560 4586 c0 -2 8 -10 18 -17 15 -13 16 -12 3 4 -13 16 -21 21 -21
13z"/>
<path d="M840 4485 c14 -16 26 -32 28 -34 1 -2 4 -2 7 1 3 2 -10 18 -28 34
l-32 29 25 -30z"/>
<path d="M660 4346 c0 -2 8 -10 18 -17 15 -13 16 -12 3 4 -13 16 -21 21 -21
13z"/>
<path d="M990 4339 c0 -5 5 -7 10 -4 6 3 10 8 10 11 0 2 -4 4 -10 4 -5 0 -10
-5 -10 -11z"/>
<path d="M701 4295 c0 -5 7 -26 14 -45 9 -23 14 -28 14 -15 0 11 -6 31 -14 45
-8 14 -14 21 -14 15z"/>
<path d="M732 4195 c0 -11 3 -29 8 -40 11 -25 11 1 0 35 -6 20 -8 21 -8 5z"/>
<path d="M630 4116 c0 -2 8 -10 18 -17 15 -13 16 -12 3 4 -13 16 -21 21 -21
13z"/>
<path d="M1090 4109 c0 -5 5 -7 10 -4 6 3 10 8 10 11 0 2 -4 4 -10 4 -5 0 -10
-5 -10 -11z"/>
<path d="M1020 4095 c7 -9 23 -15 34 -13 22 3 25 20 5 27 -7 2 -9 -1 -5 -8 5
-8 0 -8 -20 -1 -24 10 -26 9 -14 -5z"/>
<path d="M1283 4093 c15 -2 39 -2 55 0 15 2 2 4 -28 4 -30 0 -43 -2 -27 -4z"/>
<path d="M2837 4082 c-11 -4 12 -8 55 -8 91 0 145 -23 209 -87 81 -81 123
-203 101 -296 -31 -136 -149 -206 -223 -132 -30 31 -38 29 -14 -2 20 -28 82
-46 119 -36 42 12 91 63 117 122 17 42 21 64 17 124 -9 131 -84 244 -197 296
-47 21 -154 32 -184 19z"/>
<path d="M3650 4073 c-149 -52 -242 -202 -227 -367 13 -141 158 -237 239 -159
15 15 28 31 28 36 0 5 -12 -5 -26 -22 -21 -26 -33 -31 -67 -31 -111 0 -182
114 -158 253 28 167 136 276 293 296 l63 8 -50 1 c-27 1 -70 -6 -95 -15z"/>
<path d="M3808 4073 c7 -3 16 -2 19 1 4 3 -2 6 -13 5 -11 0 -14 -3 -6 -6z"/>
<path d="M1650 4049 c-33 -6 -107 -36 -190 -78 -153 -78 -220 -101 -335 -112
l-80 -8 91 4 c110 4 168 23 351 112 131 65 140 67 225 71 98 5 130 -4 193 -51
l40 -30 -29 31 c-16 17 -43 38 -60 46 -42 20 -139 27 -206 15z"/>
<path d="M929 4010 c35 -35 51 -44 75 -43 29 2 30 2 6 -6 -21 -8 -22 -9 -5
-10 11 0 31 2 43 6 18 4 20 8 10 14 -7 5 -23 9 -36 9 -27 0 -76 24 -112 53
-14 11 -5 1 19 -23z"/>
<path d="M2118 4018 c-36 -48 -44 -68 -13 -33 27 31 49 65 42 65 -3 0 -16 -15
-29 -32z"/>
<path d="M720 4015 c13 -14 26 -25 28 -25 3 0 -5 11 -18 25 -13 14 -26 25 -28
25 -3 0 5 -11 18 -25z"/>
<path d="M2046 3895 c-3 -9 -6 -22 -5 -28 0 -7 5 -1 10 12 5 13 8 26 5 28 -2
2 -6 -3 -10 -12z"/>
<path d="M2709 3846 c13 -16 51 -41 51 -33 0 2 -15 14 -32 27 -21 15 -28 17
-19 6z"/>
<path d="M3914 3838 l-19 -23 23 19 c21 18 27 26 19 26 -2 0 -12 -10 -23 -22z"/>
<path d="M2028 3827 c-3 -19 -2 -25 4 -19 6 6 8 18 6 28 -3 14 -5 12 -10 -9z"/>
<path d="M2252 3825 c0 -16 2 -22 5 -12 2 9 2 23 0 30 -3 6 -5 -1 -5 -18z"/>
<path d="M972 3792 c-9 -6 -5 -12 15 -20 24 -11 26 -10 11 1 -10 8 -15 17 -11
20 9 9 1 8 -15 -1z"/>
<path d="M1300 3785 c-7 -9 -11 -17 -9 -20 3 -2 10 5 17 15 14 24 10 26 -8 5z"/>
<path d="M1451 3797 c2 -2 18 -11 34 -21 l30 -17 -24 20 c-13 12 -28 21 -34
21 -6 0 -8 -1 -6 -3z"/>
<path d="M4295 3722 l-69 -77 63 60 c51 49 92 98 79 94 -2 0 -34 -35 -73 -77z"/>
<path d="M2280 3784 c0 -3 26 -33 59 -67 32 -34 66 -75 74 -92 10 -18 16 -23
17 -14 0 9 -10 29 -22 45 -27 35 -128 136 -128 128z"/>
<path d="M2304 3720 c13 -19 33 -42 43 -50 10 -9 28 -29 40 -45 12 -17 23 -24
23 -18 0 7 -30 43 -66 80 -36 38 -54 52 -40 33z"/>
<path d="M1525 3700 c21 -22 41 -40 44 -40 3 0 -13 18 -34 40 -21 22 -41 40
-44 40 -3 0 13 -18 34 -40z"/>
<path d="M4309 3693 l-24 -28 28 24 c25 23 32 31 24 31 -2 0 -14 -12 -28 -27z"/>
<path d="M4035 3632 c-38 -43 -54 -63 -36 -47 52 46 124 128 109 124 -2 0 -34
-35 -73 -77z"/>
<path d="M3692 3620 c0 -14 2 -19 5 -12 2 6 2 18 0 25 -3 6 -5 1 -5 -13z"/>
<path d="M2230 3600 c8 -5 20 -10 25 -10 6 0 3 5 -5 10 -8 5 -19 10 -25 10 -5
0 -3 -5 5 -10z"/>
<path d="M2433 3545 c0 -27 2 -38 4 -22 2 15 2 37 0 50 -2 12 -4 0 -4 -28z"/>
<path d="M4047 3363 c-3 -5 1 -14 9 -21 8 -7 14 -10 14 -6 0 3 7 1 15 -6 20
-17 20 4 -1 24 -17 17 -30 20 -37 9z"/>
<path d="M3890 3332 c0 -27 31 -72 60 -87 63 -33 138 -7 132 46 l-3 26 -29
-29 c-23 -22 -35 -28 -52 -23 -29 9 -58 34 -69 60 -7 15 -8 13 -4 -10 l6 -30
-21 30 c-11 17 -20 24 -20 17z"/>
<path d="M2996 3314 c-3 -9 -6 -40 -6 -70 l0 -55 35 35 c42 43 94 58 183 54
l67 -3 3 -230 2 -230 40 -22 c21 -13 41 -23 44 -23 4 0 6 115 6 256 l0 256 93
-4 c101 -4 131 -18 169 -76 l18 -27 0 78 0 77 -324 0 c-286 0 -325 -2 -330
-16z"/>
<path d="M3175 3137 c-49 -28 -80 -73 -94 -136 -12 -57 -1 -143 24 -192 25
-48 98 -116 208 -194 55 -38 119 -89 143 -113 73 -75 103 -193 72 -293 -14
-50 -72 -118 -115 -135 -42 -18 -144 -18 -186 0 -37 15 -113 96 -132 141 -7
17 -18 41 -23 55 -8 19 -11 -3 -11 -97 l-1 -123 25 12 c21 9 35 6 87 -18 54
-25 75 -29 153 -29 81 0 95 3 143 30 65 35 107 82 140 153 22 49 24 64 20 142
-5 76 -10 96 -43 159 -42 80 -88 124 -250 238 -123 87 -156 122 -191 197 -22
48 -24 60 -13 67 22 14 29 11 29 -13 0 -30 46 -128 60 -128 15 0 12 65 -4 104
-8 18 -24 41 -37 49 l-22 16 27 41 c14 22 31 40 36 40 6 0 10 11 10 25 0 30
-4 31 -55 2z"/>
<path d="M3400 3138 c0 -7 13 -40 28 -73 l29 -60 7 59 c4 33 10 65 13 73 4 9
-6 13 -36 13 -26 0 -41 -5 -41 -12z"/>
<path d="M2895 3091 c-59 -11 -137 -55 -175 -97 -137 -156 -119 -450 34 -565
91 -69 224 -88 325 -46 57 23 95 63 89 91 -2 15 -8 13 -37 -13 -50 -45 -92
-61 -158 -61 -124 0 -209 74 -239 208 -42 188 25 388 147 436 42 17 131 23
167 12 20 -7 40 18 23 28 -15 10 -137 14 -176 7z"/>
<path d="M3657 3078 c6 -7 13 -67 17 -133 5 -97 13 -138 39 -215 l32 -95 3
213 2 212 51 0 c44 0 55 -4 79 -30 49 -53 63 -155 31 -227 -21 -45 -49 -67
-98 -78 -32 -6 -42 -18 -25 -29 5 -3 37 -62 71 -131 67 -136 95 -165 159 -165
17 0 32 2 32 3 0 2 -17 22 -38 44 -21 21 -61 86 -90 144 -48 95 -51 105 -35
114 140 79 152 291 22 364 -31 18 -54 21 -149 21 -89 0 -110 -3 -103 -12z"/>
<path d="M3545 3053 c-4 -10 -31 -89 -60 -175 -46 -135 -52 -158 -39 -169 8
-6 16 -10 18 -8 2 2 18 48 35 102 18 53 36 97 40 97 6 0 71 -195 71 -214 0 -3
-26 -6 -57 -8 -78 -4 -74 -22 5 -26 74 -3 64 12 133 -195 37 -111 41 -133 32
-158 l-11 -29 74 0 75 0 -21 28 c-27 36 -85 193 -190 515 -46 141 -87 257 -91
257 -4 0 -10 -8 -14 -17z"/>
<path d="M2960 3002 c0 -6 -6 -9 -14 -6 -9 3 -17 -3 -21 -17 -7 -20 -8 -21
-17 -5 -7 13 -13 14 -23 6 -11 -9 -11 -16 1 -38 11 -21 14 -80 14 -265 0 -253
-2 -244 50 -249 l25 -3 3 107 3 108 47 -1 c53 -1 128 16 138 32 15 24 -14 31
-58 14 -25 -9 -62 -15 -84 -13 l-39 3 -5 162 c-3 89 -8 165 -12 169 -5 4 -8 2
-8 -4z"/>
<path d="M2985 2989 c-7 -10 4 -16 37 -20 15 -2 28 0 30 6 4 11 -60 26 -67 14z"/>
<path d="M2114 2902 c-13 -8 2 -76 15 -68 20 13 42 -39 67 -159 38 -186 60
-236 142 -313 l34 -33 -23 -25 c-15 -16 -18 -24 -8 -24 8 0 22 12 33 26 15 21
16 30 7 50 -14 32 -14 34 4 34 18 0 19 5 3 33 -6 12 -15 41 -18 65 -11 66 5
70 95 22 43 -22 80 -38 83 -35 3 3 -37 47 -89 97 -63 62 -106 115 -129 158
-68 126 -167 205 -216 172z"/>
<path d="M4439 2887 c-41 -28 -95 -98 -146 -190 -22 -40 -56 -85 -81 -106 -92
-76 -117 -100 -111 -106 4 -3 37 10 75 30 43 23 76 34 87 30 23 -9 22 -61 -2
-124 -18 -48 -18 -49 0 -38 22 14 36 3 20 -17 -7 -9 -8 -17 -2 -20 5 -3 27 15
50 40 53 61 86 149 108 289 3 22 10 46 16 53 5 7 7 15 4 19 -4 3 -2 12 4 20 9
10 8 13 0 13 -7 0 -9 5 -6 10 4 6 11 8 16 5 5 -4 9 1 9 9 0 8 6 21 13 28 48
53 52 59 37 68 -25 16 -55 11 -91 -13z m81 -1 c0 -2 -15 -6 -34 -8 -19 -2 -32
0 -30 4 5 8 64 12 64 4z m-130 -213 c0 -14 -20 -39 -20 -25 0 6 -7 12 -16 12
-8 0 -12 5 -9 10 7 12 45 14 45 3z"/>
<path d="M2131 2740 c-1 -85 40 -292 55 -277 3 3 -2 33 -11 68 -9 35 -22 105
-29 154 -8 50 -14 74 -15 55z"/>
<path d="M4502 2675 c0 -16 2 -22 5 -12 2 9 2 23 0 30 -3 6 -5 -1 -5 -18z"/>
<path d="M4491 2624 c0 -11 3 -14 6 -6 3 7 2 16 -1 19 -3 4 -6 -2 -5 -13z"/>
<path d="M3270 2455 c0 -142 -1 -147 -25 -170 l-24 -25 101 0 101 0 -21 23
c-27 28 -29 81 -6 157 14 47 14 54 1 68 -22 21 -32 10 -52 -60 -20 -73 -23
-80 -35 -73 -7 4 6 65 34 153 5 15 -3 25 -34 46 l-40 26 0 -145z"/>
<path d="M4472 2530 c0 -14 2 -19 5 -12 2 6 2 18 0 25 -3 6 -5 1 -5 -13z"/>
<path d="M4532 2490 c0 -14 2 -19 5 -12 2 6 2 18 0 25 -3 6 -5 1 -5 -13z"/>
<path d="M4550 2459 c0 -6 -7 -9 -15 -5 -10 4 -17 -6 -24 -32 -22 -80 -83
-150 -182 -210 -81 -49 -146 -145 -171 -254 -12 -50 -32 -63 -43 -28 -8 25
-50 54 -67 47 -8 -4 -7 -6 4 -6 10 -1 25 -13 35 -28 9 -16 23 -34 32 -41 13
-10 15 -46 13 -238 -2 -163 -6 -234 -16 -257 -7 -18 -45 -76 -84 -130 -38 -54
-85 -132 -104 -173 -18 -40 -36 -74 -39 -74 -3 0 -11 37 -18 83 -7 45 -19 108
-27 141 -8 32 -13 60 -11 62 2 2 18 -3 35 -12 81 -40 152 34 152 160 0 56 -27
156 -42 156 -5 0 -1 -14 8 -32 9 -17 18 -59 20 -92 l4 -61 -14 60 c-20 82 -60
188 -84 222 -24 34 -62 142 -62 175 1 21 2 21 13 7 11 -14 13 -9 13 36 2 96
89 220 194 276 19 10 31 18 27 19 -4 0 -29 -11 -55 -24 -74 -38 -135 -98 -171
-169 -31 -61 -33 -71 -30 -144 4 -73 9 -88 72 -218 64 -133 67 -144 67 -212 0
-60 -4 -76 -22 -97 -35 -39 -72 -43 -102 -12 -43 42 -29 110 24 118 24 3 23 5
-12 22 -60 29 -92 105 -96 231 -5 118 13 206 59 298 38 75 52 94 132 176 40
42 51 57 29 42 -75 -52 -175 -194 -214 -304 -18 -50 -22 -85 -22 -182 -1 -110
1 -125 26 -177 14 -31 38 -64 52 -73 l26 -17 -20 -25 c-31 -39 -33 -78 -11
-228 42 -282 38 -354 -40 -690 -18 -76 -34 -180 -39 -250 -4 -66 -12 -131 -18
-145 -14 -37 -85 -98 -146 -126 l-51 -24 70 0 c69 0 71 1 114 42 60 58 78 104
86 223 9 120 10 128 69 420 65 327 92 399 214 574 36 51 71 111 79 133 9 26
13 90 13 196 0 301 29 434 117 532 25 28 51 50 59 50 8 0 14 4 14 8 0 5 11 14
24 20 32 14 107 82 101 91 -2 4 5 15 16 24 10 9 19 25 19 35 0 10 4 22 9 28 9
9 22 94 15 94 -2 0 -4 -5 -4 -11z"/>
<path d="M2897 2309 c-42 -32 -33 -40 38 -37 36 2 65 6 65 9 0 10 -34 36 -56
43 -14 4 -30 -1 -47 -15z"/>
<path d="M2575 2208 c145 -109 218 -237 185 -322 -9 -26 -9 -27 5 -16 13 11
15 9 15 -12 0 -38 -24 -109 -52 -153 -30 -47 -78 -184 -77 -217 0 -13 6 0 13
27 8 28 38 102 69 165 31 63 61 142 68 176 11 56 11 67 -11 135 -20 62 -33 83
-80 130 -31 31 -81 69 -111 83 -49 24 -51 25 -24 4z"/>
<path d="M2467 2180 c29 -16 68 -51 87 -76 38 -49 46 -51 22 -6 -16 30 -63 70
-113 95 -54 28 -51 19 4 -13z"/>
<path d="M4160 2183 c-37 -24 -90 -75 -102 -98 -6 -11 11 3 38 31 27 27 60 58
74 67 14 9 23 16 20 16 -3 1 -17 -6 -30 -16z"/>
<path d="M2591 2034 c0 -11 3 -14 6 -6 3 7 2 16 -1 19 -3 4 -6 -2 -5 -13z"/>
<path d="M2550 1841 c0 -6 4 -13 10 -16 6 -3 7 1 4 9 -7 18 -14 21 -14 7z"/>
<path d="M2711 1818 c-30 -27 -39 -30 -79 -25 -28 3 -39 1 -31 -4 22 -14 73
-11 95 6 29 22 39 18 18 -7 -10 -13 -3 -8 16 9 46 44 28 63 -19 21z"/>
<path d="M3297 1770 c-4 -41 -9 -215 -13 -386 -3 -171 -9 -335 -12 -365 -8
-64 -26 -71 -55 -21 -17 29 -57 167 -70 242 -2 14 -5 3 -6 -25 -2 -58 -15
-133 -25 -143 -24 -24 -75 116 -101 278 -9 52 -21 131 -28 175 l-13 80 -7 -65
c-4 -35 -23 -127 -42 -205 -62 -251 -68 -415 -25 -590 34 -135 121 -407 146
-457 40 -79 104 -77 141 4 31 66 42 133 58 378 8 124 19 239 24 255 l8 30 6
-25 c11 -48 18 -210 18 -413 0 -224 -4 -247 -62 -320 -33 -40 -37 -69 -24
-154 7 -40 10 -43 37 -43 33 0 33 -1 13 96 -8 36 38 138 58 131 7 -2 25 -25
41 -51 l29 -47 -16 -53 c-23 -70 -22 -76 11 -76 25 0 29 5 40 45 20 75 15 103
-28 167 -66 100 -66 102 -54 493 3 121 9 224 12 229 2 5 11 -6 18 -23 8 -20
17 -114 23 -254 12 -261 32 -357 86 -411 25 -24 70 -20 93 9 32 41 79 178 154
450 31 113 32 129 32 285 0 167 -4 199 -51 389 -24 96 -25 116 -20 250 3 80 2
139 -2 131 -11 -19 -31 -158 -31 -210 0 -21 -4 -42 -10 -45 -5 -3 -10 -23 -10
-43 -1 -97 -41 -274 -82 -354 -34 -69 -48 -46 -48 79 0 48 -2 84 -5 81 -3 -2
-14 -48 -25 -102 -11 -54 -28 -117 -38 -140 -20 -43 -48 -73 -59 -63 -9 9 -20
237 -28 581 -4 167 -11 282 -16 275 -5 -8 -9 -38 -9 -68 0 -72 -10 -59 -19 26
l-7 68 -7 -75z m-356 -802 c0 -90 4 -183 9 -208 4 -28 6 8 3 95 -3 101 -2 136
6 125 6 -8 11 -35 11 -60 0 -25 6 -95 14 -155 19 -144 28 -291 17 -279 -5 5
-28 77 -52 159 -40 141 -43 158 -43 280 -1 134 8 205 24 205 6 0 10 -66 11
-162z m792 -23 c0 -81 -4 -159 -11 -185 -38 -138 -77 -276 -79 -279 -10 -15
-10 19 3 134 8 72 19 175 25 230 13 132 17 138 18 31 1 -49 3 -87 6 -84 3 3 6
76 6 163 0 87 3 163 6 168 15 24 26 -48 26 -178z m-517 -161 c9 -37 -5 -276
-23 -369 -15 -81 -44 -145 -67 -145 -20 0 -44 31 -62 80 -21 56 -24 235 -5
300 23 79 91 158 138 160 7 0 16 -12 19 -26z m270 7 c95 -58 135 -211 103
-386 -14 -77 -45 -137 -67 -133 -21 4 -46 54 -67 133 -16 62 -33 360 -22 389
8 21 15 20 53 -3z"/>
<path d="M3682 750 c0 -14 2 -19 5 -12 2 6 2 18 0 25 -3 6 -5 1 -5 -13z"/>
<path d="M4058 1814 c-9 -9 -31 -20 -49 -24 -31 -7 -32 -8 -7 -9 16 -1 39 9
55 24 15 13 26 25 23 25 -3 0 -13 -7 -22 -16z"/>
<path d="M2555 1790 c10 -11 20 -20 23 -20 3 0 -3 9 -13 20 -10 11 -20 20 -23
20 -3 0 3 -9 13 -20z"/>
<path d="M2934 1790 c3 -14 9 -70 13 -125 6 -86 8 -95 16 -65 10 38 -6 171
-24 199 -8 13 -9 11 -5 -9z"/>
<path d="M3701 1794 c0 -11 3 -14 6 -6 3 7 2 16 -1 19 -3 4 -6 -2 -5 -13z"/>
<path d="M3968 1763 c7 -3 16 -2 19 1 4 3 -2 6 -13 5 -11 0 -14 -3 -6 -6z"/>
<path d="M2555 1620 c3 -5 11 -10 16 -10 6 0 7 5 4 10 -3 6 -11 10 -16 10 -6
0 -7 -4 -4 -10z"/>
<path d="M3648 146 c-20 -23 -61 -56 -92 -72 -30 -16 -53 -30 -51 -32 9 -10
106 52 143 92 36 40 49 57 40 56 -2 -1 -20 -20 -40 -44z"/>
<path d="M3010 126 c33 -36 79 -65 135 -86 44 -17 27 -2 -22 20 -27 12 -70 40
-98 62 l-50 41 35 -37z"/>
</g>
</svg>
