<?xml version="1.0" standalone="no"?>
<!DOCTYPE svg PUBLIC "-//W3C//DTD SVG 20010904//EN"
 "http://www.w3.org/TR/2001/REC-SVG-20010904/DTD/svg10.dtd">
<svg version="1.0" xmlns="http://www.w3.org/2000/svg"
 width="821.000000pt" height="530.000000pt" viewBox="0 0 821.000000 530.000000"
 preserveAspectRatio="xMidYMid meet">
<metadata>
Created by potrace 1.16, written by Peter Selinger 2001-2019
</metadata>
<g transform="translate(0.000000,530.000000) scale(0.100000,-0.100000)"
fill="#000000" stroke="none">
<path d="M1950 5293 c-41 -2 -77 -9 -81 -14 -3 -6 -32 -11 -63 -11 -31 0 -56
-5 -56 -9 0 -5 16 -9 35 -9 19 0 35 -4 35 -9 0 -5 23 -9 50 -8 28 1 50 -1 50
-5 0 -5 -3 -8 -7 -9 -5 0 -37 -2 -72 -4 -35 -3 -66 -7 -69 -10 -6 -5 72 -9
123 -6 25 2 32 -3 42 -28 13 -35 -2 -46 -43 -31 -35 14 -57 13 -48 -2 4 -6 3
-8 -3 -5 -11 7 -63 -14 -63 -24 0 -10 40 -19 82 -19 20 0 38 -5 40 -12 2 -6
18 -11 35 -11 21 0 30 -5 29 -16 -1 -20 -27 -41 -40 -34 -5 4 -6 1 -1 -6 4 -7
18 -11 30 -9 15 3 22 1 19 -6 -3 -7 -30 -13 -61 -14 -31 -1 -58 -4 -61 -6 -11
-12 63 -33 112 -31 31 1 60 -3 63 -8 3 -5 9 -4 13 3 6 10 13 9 31 -4 l23 -16
-24 -2 c-43 -2 -48 -3 -55 -10 -4 -3 -18 -4 -33 -2 -35 7 -81 -14 -79 -35 1
-13 7 -17 20 -13 15 4 18 0 15 -19 -1 -13 -10 -25 -18 -26 -8 -1 -41 -5 -73
-8 -48 -5 -56 -9 -47 -20 7 -9 30 -14 57 -13 27 0 48 -5 53 -13 7 -10 11 -10
24 0 12 10 16 10 16 2 0 -7 4 -9 10 -6 5 3 18 1 27 -4 15 -9 13 -10 -12 -11
-52 -1 -61 -16 -14 -24 23 -4 40 -8 38 -10 -2 -2 -35 -7 -74 -11 -64 -6 -101
-15 -62 -15 10 0 16 -5 15 -11 -4 -17 38 -26 128 -29 85 -2 150 -5 228 -8 27
-1 46 -5 42 -9 -4 -4 -75 -8 -159 -9 -142 -3 -262 -15 -276 -30 -3 -3 29 -4
71 -1 58 3 78 1 82 -9 3 -8 27 -14 68 -16 59 -3 61 -4 38 -16 -15 -8 -26 -22
-26 -37 -2 -20 3 -25 23 -25 19 0 24 -4 19 -16 -3 -9 -6 -20 -6 -25 0 -6 -9
-7 -20 -4 -11 4 -20 2 -20 -4 0 -6 -10 -11 -22 -11 -13 0 -29 -4 -36 -9 -23
-14 26 -18 158 -14 98 4 120 2 118 -9 -3 -15 39 -12 60 5 11 8 10 12 -4 20
-13 7 -19 7 -22 -1 -4 -13 -23 -17 -21 -4 4 27 -3 52 -16 52 -8 0 -12 -6 -9
-13 5 -15 -33 -21 -42 -6 -3 6 -10 6 -17 1 -16 -12 -67 -21 -84 -15 -18 7 -6
23 18 23 10 0 19 5 19 11 0 6 7 9 15 5 8 -3 15 -1 15 4 0 13 33 13 47 -1 8 -8
13 -8 17 0 4 6 24 8 51 4 24 -3 52 -2 62 2 10 5 21 9 25 9 3 1 9 4 13 8 4 3
-15 9 -42 13 -67 9 -71 11 -43 23 14 6 19 11 12 11 -7 1 -10 5 -7 11 3 5 25 7
49 4 25 -4 46 -2 49 4 4 5 -14 11 -43 14 -58 6 -55 4 -64 41 l-6 27 62 2 c35
0 72 0 82 -1 11 -1 16 2 12 6 -4 5 -32 9 -61 9 -29 1 -58 5 -64 8 -16 10 -14
29 2 23 8 -3 20 -1 28 4 11 7 9 9 -8 9 -12 0 -25 5 -28 10 -3 6 3 10 14 10 12
0 21 4 21 9 0 5 -9 7 -20 4 -11 -3 -20 0 -20 6 0 6 5 11 10 11 6 0 10 6 10 14
0 8 6 17 13 19 7 3 5 6 -5 6 -24 1 -23 22 2 28 35 9 22 26 -15 20 -19 -3 -35
-2 -35 4 0 9 13 12 41 10 30 -3 69 18 63 33 -3 9 -12 12 -21 9 -9 -4 -14 -2
-11 3 4 5 -15 8 -43 6 -33 -3 -49 0 -49 8 0 7 7 10 15 6 8 -3 15 -1 15 4 0 6
-11 10 -25 10 -14 0 -25 -4 -25 -10 0 -11 -33 -14 -43 -3 -13 12 30 32 84 38
30 3 58 10 64 16 6 6 6 9 0 9 -6 0 -5 4 2 8 9 6 6 14 -10 33 -18 21 -30 25
-67 23 -25 -1 -33 0 -17 3 16 2 25 9 21 15 -5 8 9 9 47 6 58 -6 116 4 89 16
-8 3 -35 10 -60 15 -25 5 -38 9 -30 10 16 1 86 68 79 75 -2 3 -63 8 -134 11
-72 4 -132 9 -134 11 -2 2 36 4 85 5 49 1 100 5 114 9 14 4 19 8 13 9 -7 1
-13 7 -13 15 0 8 -7 17 -16 20 -9 3 -14 12 -11 20 4 11 -24 13 -156 13 -89 0
-196 -2 -237 -4z m103 -60 c-7 -2 -19 -2 -25 0 -7 3 -2 5 12 5 14 0 19 -2 13
-5z m-43 -193 c-24 -15 -37 -11 -16 5 11 8 22 12 25 9 3 -3 -1 -9 -9 -14z
m227 4 c-3 -3 -12 -4 -19 -1 -8 3 -5 6 6 6 11 1 17 -2 13 -5z m-17 -92 c0 -4
-9 -13 -20 -20 -11 -7 -20 -8 -20 -3 0 6 -16 9 -35 7 -34 -2 -47 7 -22 17 20
8 97 8 97 -1z m10 -52 c0 -5 -5 -10 -11 -10 -6 0 -9 -7 -5 -15 3 -8 2 -15 -3
-15 -16 0 -20 13 -10 31 10 20 29 26 29 9z m-195 -70 c14 -6 5 -9 -35 -9 -39
-1 -51 2 -40 9 18 12 48 12 75 0z m55 0 c0 -5 -2 -10 -4 -10 -3 0 -8 5 -11 10
-3 6 -1 10 4 10 6 0 11 -4 11 -10z m88 3 c-10 -2 -26 -2 -35 0 -10 3 -2 5 17
5 19 0 27 -2 18 -5z m-105 -90 c-13 -2 -33 -2 -45 0 -13 2 -3 4 22 4 25 0 35
-2 23 -4z m87 -33 c0 -5 -4 -10 -10 -10 -5 0 -10 5 -10 10 0 6 5 10 10 10 6 0
10 -4 10 -10z m68 -32 c9 -1 -12 -4 -48 -7 -36 -3 -74 -4 -85 -1 -11 3 5 8 35
11 30 3 61 4 68 2 8 -2 21 -4 30 -5z m-250 -5 c-15 -2 -42 -2 -60 0 -18 2 -6
4 27 4 33 0 48 -2 33 -4z m299 1 c-3 -3 -12 -4 -19 -1 -8 3 -5 6 6 6 11 1 17
-2 13 -5z m43 -74 c0 -5 -2 -10 -4 -10 -3 0 -8 5 -11 10 -3 6 -1 10 4 10 6 0
11 -4 11 -10z m-87 -51 c-2 -9 6 -15 19 -16 11 -1 25 -6 30 -11 6 -6 -3 -9
-24 -7 -18 2 -44 3 -58 4 -22 1 -23 3 -9 14 9 7 14 18 11 25 -3 9 2 13 14 10
11 -2 18 -10 17 -19z m-68 -39 c3 -5 -1 -10 -9 -10 -9 0 -16 5 -16 10 0 6 4
10 9 10 6 0 13 -4 16 -10z"/>
<path d="M2385 5261 c-3 -5 -1 -12 5 -16 12 -7 30 2 30 16 0 12 -27 12 -35 0z"/>
<path d="M2468 5263 c6 -2 18 -2 25 0 6 3 1 5 -13 5 -14 0 -19 -2 -12 -5z"/>
<path d="M1885 5170 c4 -6 11 -8 16 -5 14 9 11 15 -7 15 -8 0 -12 -5 -9 -10z"/>
<path d="M2455 5160 c-3 -5 1 -10 9 -10 9 0 16 5 16 10 0 6 -4 10 -9 10 -6 0
-13 -4 -16 -10z"/>
<path d="M453 5100 c-32 -13 -49 -46 -69 -135 -24 -107 -24 -301 0 -410 36
-164 110 -335 191 -443 67 -89 200 -214 296 -278 179 -119 377 -198 689 -273
294 -71 504 -97 565 -69 22 10 30 8 53 -9 70 -52 86 -149 39 -244 -15 -29 -54
-85 -87 -124 -82 -96 -120 -172 -120 -244 0 -70 43 -376 65 -455 22 -82 77
-161 149 -212 196 -138 228 -216 231 -564 1 -116 6 -212 13 -236 7 -23 40 -84
75 -135 130 -193 166 -282 202 -494 14 -77 36 -192 51 -255 14 -63 29 -169 34
-236 9 -140 24 -177 94 -242 46 -42 46 -42 123 -42 75 1 77 1 43 14 -41 14
-105 55 -139 86 -37 36 -51 82 -51 172 0 46 -10 126 -21 178 -11 52 -29 134
-39 181 -50 232 -56 377 -24 564 40 229 39 208 12 250 l-24 38 24 26 c85 90
95 301 23 472 -36 85 -124 203 -196 260 -30 24 -58 51 -60 59 -6 16 -84 77
-112 87 -10 3 3 -11 29 -31 26 -20 47 -40 45 -44 -1 -5 33 -39 76 -78 85 -77
150 -157 179 -221 31 -70 58 -192 58 -264 0 -138 -33 -218 -105 -254 -37 -18
-38 -20 -15 -23 35 -5 60 -31 60 -61 0 -93 -113 -95 -141 -2 -18 59 -4 119 58
243 90 184 101 248 62 355 -41 110 -141 194 -285 242 -51 17 -102 31 -113 31
-23 0 -28 14 -10 26 7 4 9 21 6 40 -4 25 -2 34 9 34 17 0 17 0 0 36 -8 16 -18
48 -22 71 -9 61 10 64 101 14 109 -60 100 -14 -15 74 -47 36 -71 66 -116 143
-66 113 -76 125 -128 163 -57 42 -134 39 -116 -4 6 -12 19 -93 29 -180 23
-183 53 -273 113 -342 21 -24 38 -48 38 -54 0 -11 36 -22 135 -41 137 -27 260
-114 314 -222 51 -101 34 -193 -41 -231 -62 -31 -128 4 -128 68 0 32 21 65 41
65 20 0 49 -21 49 -35 0 -22 18 -18 25 5 9 27 -18 68 -49 76 -35 8 -65 -4 -98
-39 -21 -24 -28 -27 -28 -14 0 9 -10 46 -22 83 -26 81 -79 142 -188 218 -44
31 -91 73 -105 93 -45 66 -69 172 -107 464 -11 86 -11 87 19 150 17 35 62 105
102 154 119 149 178 300 151 387 -22 74 -89 138 -144 138 -27 0 -18 -17 12
-23 67 -14 112 -82 111 -169 -1 -87 -13 -100 -27 -28 -14 75 -44 118 -106 151
-55 29 -66 54 -66 154 0 127 61 271 132 315 25 15 51 20 103 20 39 0 97 7 128
15 81 21 83 20 47 -22 -83 -94 -103 -212 -59 -353 32 -103 32 -208 1 -271 -12
-25 -67 -97 -123 -160 -55 -63 -108 -132 -119 -155 -36 -73 -24 -133 40 -199
21 -22 56 -67 79 -99 23 -33 41 -55 41 -50 0 18 -40 84 -95 155 -88 114 -79
150 82 323 133 142 158 191 158 304 0 45 3 82 6 82 14 0 120 -123 139 -160 36
-70 17 -163 -35 -176 -50 -13 -78 19 -54 62 11 22 11 27 -1 34 -46 28 -82 -78
-41 -119 31 -31 88 -38 130 -15 48 26 72 72 74 136 1 79 -28 135 -118 220 -42
40 -86 91 -97 113 -26 50 -35 149 -18 201 11 35 78 139 85 132 2 -2 -2 -26 -8
-53 -24 -117 41 -220 145 -232 79 -9 143 45 131 110 -7 34 -23 46 -23 17 0
-28 -38 -59 -72 -60 -43 0 -88 46 -95 97 -5 40 -3 46 38 87 125 125 344 69
434 -111 22 -45 30 -75 33 -134 4 -83 -7 -123 -52 -176 -56 -66 -153 -65 -181
1 -23 53 16 91 46 45 18 -26 47 -16 55 18 9 35 -25 67 -71 67 -44 0 -91 -42
-100 -90 -9 -53 24 -118 74 -143 110 -57 232 4 300 149 23 49 26 67 25 165 0
127 -17 182 -81 266 -60 79 -146 126 -288 157 l-40 9 42 12 c67 19 140 15 243
-13 122 -33 201 -33 311 -1 101 30 202 33 257 8 l37 -17 -70 -6 c-102 -9 -182
-48 -253 -125 -74 -78 -102 -148 -109 -267 -5 -75 -2 -97 17 -150 41 -113 91
-170 169 -197 50 -16 89 -14 138 10 48 23 83 77 83 126 0 40 -32 87 -70 103
-29 12 -37 11 -69 -6 -29 -15 -36 -25 -36 -48 0 -31 34 -62 42 -38 8 23 33 41
48 36 21 -8 28 -40 14 -66 -39 -77 -127 -76 -192 1 -37 45 -50 94 -45 175 11
166 139 302 290 308 75 3 144 -19 184 -59 29 -28 34 -41 34 -79 0 -39 -5 -51
-34 -80 -38 -38 -93 -47 -116 -19 -7 8 -17 12 -23 8 -5 -3 -8 -2 -5 3 3 5 2
18 -3 29 -6 15 -8 11 -8 -18 -1 -48 12 -73 49 -92 126 -65 267 90 217 241 -9
27 -14 50 -12 52 8 8 86 -107 101 -149 35 -97 2 -187 -116 -314 -46 -49 -91
-108 -101 -130 -23 -50 -24 -126 -3 -171 19 -40 70 -74 110 -74 41 0 92 34
100 66 9 35 -14 78 -44 82 -25 4 -28 -9 -10 -38 10 -15 9 -23 -6 -39 -25 -28
-62 -26 -91 4 -55 54 -20 166 82 267 l58 57 0 -87 c0 -113 17 -148 138 -281
112 -124 157 -193 157 -239 0 -41 -12 -64 -63 -122 -21 -25 -48 -63 -58 -85
l-20 -40 33 40 c18 22 52 61 76 88 99 112 85 169 -87 366 -50 57 -102 126
-116 154 -34 69 -34 157 0 257 19 55 25 94 25 154 0 93 -16 136 -74 205 -20
24 -35 45 -33 47 1 2 25 -3 52 -12 28 -8 86 -17 130 -20 44 -3 90 -7 102 -10
34 -7 71 -51 112 -134 35 -73 36 -78 36 -188 0 -114 0 -114 -29 -135 -15 -12
-50 -42 -76 -67 -42 -40 -50 -53 -61 -110 -14 -74 -27 -61 -28 30 -1 74 29
126 89 156 50 26 37 33 -15 8 -18 -8 -46 -34 -62 -56 -23 -34 -28 -54 -31
-112 -4 -67 -1 -75 42 -161 25 -51 75 -127 116 -175 85 -102 120 -169 120
-226 0 -58 -47 -377 -64 -435 -8 -26 -20 -57 -26 -69 -23 -42 -83 -100 -140
-135 -94 -57 -152 -133 -180 -235 -7 -25 -14 -51 -16 -58 -3 -10 -13 -4 -33
16 -36 40 -73 49 -107 28 -30 -20 -39 -39 -29 -64 6 -15 8 -15 22 5 21 30 58
30 79 -2 31 -47 -14 -115 -77 -115 -74 0 -128 77 -114 163 23 139 164 260 346
296 26 5 34 9 19 10 -42 1 -164 -35 -220 -65 -147 -80 -225 -232 -191 -371 7
-27 40 -104 74 -173 59 -118 62 -129 62 -197 0 -62 -3 -75 -24 -97 -41 -44
-97 -29 -115 29 -9 31 16 69 49 75 l30 6 -42 22 c-110 57 -136 280 -56 482 38
95 73 141 207 274 126 124 131 144 10 34 -212 -190 -285 -328 -285 -534 0
-118 34 -227 81 -256 18 -12 18 -13 -2 -42 -26 -36 -27 -123 -3 -236 23 -106
30 -289 16 -391 -7 -46 -30 -163 -50 -259 -24 -107 -41 -217 -45 -283 -4 -68
-12 -122 -22 -143 -20 -42 -73 -85 -145 -119 l-54 -25 77 0 c76 0 79 1 119 37
66 59 81 100 90 243 5 69 15 154 23 190 8 36 31 146 51 245 53 271 102 400
195 523 22 29 54 78 72 109 l31 56 8 241 c7 255 16 311 65 408 25 49 43 66
159 147 118 82 149 153 196 451 38 244 28 306 -72 430 -116 145 -139 188 -139
265 0 61 14 97 54 134 24 22 29 23 65 13 55 -17 134 -15 274 8 321 51 613 134
799 225 149 74 237 135 352 245 157 151 244 299 301 512 59 222 44 530 -30
604 -50 49 -116 15 -130 -67 -12 -73 -79 -250 -122 -324 -48 -82 -145 -191
-218 -245 -124 -92 -317 -174 -481 -205 -76 -15 -350 -39 -579 -50 -165 -9
-215 -18 -292 -55 -118 -57 -238 -36 -463 79 -74 38 -159 76 -189 85 -68 20
-167 21 -223 2 -90 -30 -183 -47 -226 -41 -24 4 -80 17 -124 31 -102 30 -202
32 -281 5 -30 -11 -109 -47 -174 -80 -65 -33 -145 -70 -177 -81 -62 -21 -116
-26 -116 -11 0 5 -12 14 -27 19 -23 9 -24 11 -8 12 11 1 0 7 -25 14 -48 13
-98 5 -112 -16 -5 -10 -8 -8 -8 5 0 13 -9 17 -40 17 -22 0 -40 4 -40 8 0 5
-25 7 -56 4 -32 -3 -54 -1 -51 4 3 5 -66 10 -157 11 -188 3 -402 19 -501 38
-104 20 -289 82 -364 123 -235 127 -388 322 -462 591 -22 77 -36 112 -55 129
-28 24 -29 25 -61 12z m35 -67 c5 -10 19 -56 31 -103 26 -97 105 -272 152
-333 76 -99 185 -196 294 -261 l56 -34 -31 -6 c-16 -3 -43 -9 -59 -12 -16 -3
-37 -14 -47 -25 -25 -27 -34 -24 -34 14 0 76 -78 180 -180 242 -55 33 -116 89
-141 130 -10 17 -19 25 -19 19 0 -26 64 -107 107 -134 26 -17 40 -30 32 -30
-8 0 -20 5 -27 12 -6 6 -15 9 -18 5 -7 -7 26 -22 69 -32 15 -3 42 -19 60 -37
17 -17 25 -26 17 -20 -8 5 -52 24 -98 42 -90 35 -130 63 -163 116 -12 19 -23
33 -26 30 -10 -9 59 -96 95 -121 20 -14 60 -32 89 -41 121 -35 158 -89 173
-249 15 -150 44 -200 140 -244 55 -25 169 -28 252 -6 31 8 110 37 175 64 161
67 192 75 308 74 123 -1 172 -18 217 -77 l33 -41 -32 27 c-57 47 -113 61 -209
55 -81 -5 -93 -9 -242 -80 -184 -89 -250 -110 -352 -111 -104 -1 -170 23 -238
88 -64 61 -94 116 -123 228 -26 98 -51 151 -81 172 -28 20 -92 21 -107 2 -10
-11 -4 -13 32 -9 67 8 90 -19 127 -146 41 -138 67 -185 136 -252 79 -75 148
-101 264 -101 107 0 186 24 341 102 134 67 202 90 273 90 71 0 121 -16 162
-52 61 -53 65 -71 58 -220 -3 -78 -2 -151 4 -175 7 -29 7 -43 0 -43 -6 0 -49
12 -97 26 -170 51 -238 115 -228 217 7 74 60 114 121 91 35 -14 43 -74 10 -74
-21 0 -17 -28 6 -40 17 -9 25 -6 50 19 37 36 38 70 4 110 -92 109 -275 1 -248
-147 l7 -37 -24 21 c-105 93 -231 115 -268 46 -19 -35 -12 -47 12 -24 28 26
84 29 132 7 40 -20 188 -158 160 -151 -465 118 -672 219 -880 431 -143 145
-224 301 -270 518 -39 179 -22 487 25 487 5 0 13 -8 18 -17z m5712 -68 c14
-66 17 -213 8 -320 -20 -224 -131 -459 -291 -618 -172 -168 -417 -296 -721
-376 -189 -49 -179 -51 -106 18 116 109 200 142 249 97 29 -26 26 -3 -3 31
-47 54 -140 32 -238 -56 -29 -25 -49 -38 -46 -29 39 102 -5 200 -102 228 -42
12 -94 -5 -124 -41 -30 -35 -32 -58 -11 -99 17 -32 34 -37 67 -19 20 11 20 12
-7 33 -24 20 -26 25 -16 45 15 27 44 39 96 37 33 -2 44 -7 63 -36 20 -29 23
-45 20 -93 -2 -31 -10 -63 -17 -70 -10 -10 -10 -6 -2 16 23 61 0 163 -40 175
-9 3 -7 -3 5 -17 26 -29 33 -118 13 -158 -24 -46 -89 -98 -148 -121 -64 -23
-167 -47 -174 -40 -3 3 0 20 6 38 8 22 10 77 6 168 -6 120 -4 138 13 172 42
83 115 115 244 108 73 -5 87 -9 220 -76 184 -92 254 -114 375 -114 87 0 98 2
168 37 107 53 158 124 213 297 31 96 46 132 66 147 30 24 73 27 93 9 11 -11
13 -10 9 2 -2 8 -17 21 -33 29 -24 12 -32 11 -61 -3 -45 -21 -67 -59 -98 -173
-44 -159 -95 -238 -187 -288 -47 -25 -67 -30 -151 -33 -121 -5 -188 13 -373
103 -148 72 -188 85 -266 85 -84 0 -147 -23 -198 -72 -40 -39 -43 -40 -28 -13
76 146 281 164 554 50 160 -68 224 -85 313 -85 86 0 130 11 177 46 53 40 71
81 87 200 26 196 45 221 211 280 59 20 112 72 143 137 30 63 27 83 -3 27 -13
-25 -24 -40 -25 -35 0 6 -7 -4 -14 -21 -17 -39 -68 -77 -125 -93 -23 -7 -50
-15 -60 -18 -12 -3 -12 -1 3 11 11 9 27 16 36 16 30 0 110 62 134 104 27 46
29 57 26 136 l-2 55 -8 -46 c-17 -99 -71 -166 -195 -244 -97 -60 -155 -150
-155 -238 l0 -31 -27 26 c-16 15 -50 33 -76 40 l-49 14 66 39 c138 80 260 210
335 355 42 80 101 245 101 280 0 12 5 30 11 41 16 30 36 8 49 -56z m-81 -356
c-13 -23 -40 -54 -59 -68 -32 -24 -31 -21 11 25 26 28 50 61 54 73 4 12 9 20
12 17 3 -2 -5 -24 -18 -47z m-4975 -364 c61 -26 273 -73 386 -86 58 -7 109
-15 113 -19 4 -4 -22 -10 -58 -14 -65 -7 -105 -20 -278 -90 -188 -75 -311 -74
-389 4 -34 34 -38 43 -38 90 0 46 4 56 34 86 41 41 97 47 140 13 30 -24 36
-78 10 -103 -19 -20 -35 -20 -60 -1 -25 19 -34 19 -34 -2 0 -29 31 -53 67 -53
38 0 93 45 93 75 0 14 6 12 31 -9 43 -36 127 -59 186 -50 83 12 77 20 -14 20
-94 -1 -131 11 -174 57 -20 21 -63 97 -55 97 2 0 20 -7 40 -15z m4386 0 c0 -4
-7 -19 -14 -34 -22 -42 -81 -89 -128 -101 -39 -11 -129 -7 -166 8 -9 3 -13 1
-9 -5 10 -17 117 -35 163 -28 27 4 61 19 89 41 33 25 45 30 45 18 0 -8 13 -29
29 -45 40 -40 102 -41 127 -3 13 19 14 28 6 36 -9 9 -15 7 -25 -7 -19 -25 -64
-13 -77 21 -22 56 36 113 102 100 112 -21 126 -174 20 -234 -88 -49 -196 -37
-408 48 -83 33 -159 56 -214 64 -47 7 -78 16 -70 19 8 3 65 10 125 16 109 11
272 46 350 75 45 16 55 18 55 11z m-2647 -92 c-7 -2 -19 -2 -25 0 -7 3 -2 5
12 5 14 0 19 -2 13 -5z m184 -21 c21 -11 47 -30 58 -43 l20 -23 -30 21 c-51
35 -96 55 -144 64 l-46 8 52 -4 c28 -2 69 -13 90 -23z m602 18 c-71 -12 -118
-39 -181 -101 -32 -31 -53 -49 -48 -39 5 9 34 40 64 68 59 53 119 81 176 80
31 0 30 -1 -11 -8z m182 -5 c24 -9 54 -24 66 -34 35 -29 73 -109 73 -154 0
-86 -67 -168 -135 -166 -20 1 -23 3 -10 6 78 17 115 61 115 137 0 127 -187
199 -339 131 -103 -47 -178 -146 -200 -267 -12 -67 -6 -118 22 -173 16 -31 16
-37 4 -27 -9 8 -26 39 -38 70 -43 116 -11 252 85 359 66 73 133 105 231 112
60 4 72 7 50 12 l-30 7 31 1 c17 0 50 -6 75 -14z m-1031 -2 c0 -5 37 -8 83 -9
64 0 93 -5 127 -22 111 -54 191 -157 210 -273 7 -39 9 -87 5 -107 -8 -46 -43
-128 -60 -142 -6 -5 0 13 14 42 20 40 25 65 24 117 -1 101 -32 173 -107 247
-71 70 -127 94 -218 94 -70 0 -120 -19 -167 -63 -19 -18 -31 -25 -27 -17 4 8
0 6 -9 -5 -12 -15 -16 -34 -13 -76 5 -74 34 -115 91 -127 25 -6 33 -10 19 -11
-39 -2 -92 30 -119 70 -22 33 -25 47 -21 93 5 57 49 145 77 154 8 3 11 0 7 -7
-5 -7 -1 -9 9 -4 12 4 13 8 4 13 -8 6 -3 13 17 24 32 17 54 20 54 9z m-872
-13 c89 -5 167 -12 173 -16 7 -4 -4 -22 -29 -48 -21 -22 -49 -58 -61 -79 l-23
-38 -28 44 c-40 63 -128 120 -213 137 -59 11 -20 11 181 0z m2904 -6 c-96 -25
-159 -70 -193 -135 -11 -22 -21 -39 -24 -39 -3 0 -14 18 -25 40 -12 23 -37 59
-57 81 -20 22 -33 43 -29 47 7 6 175 17 321 20 l60 1 -53 -15z m-2659 -24 c6
0 -11 -20 -39 -44 -82 -72 -144 -217 -144 -336 0 -41 8 -17 29 83 22 110 51
168 118 235 57 57 67 47 15 -15 -48 -58 -54 -69 -81 -153 -28 -84 -37 -191
-22 -259 6 -30 10 -56 7 -58 -2 -2 -19 -6 -38 -9 -45 -8 -49 2 -55 127 -5 81
-2 109 17 170 28 93 57 150 110 217 27 34 48 51 57 48 8 -3 20 -6 26 -6z
m2348 -42 c80 -100 119 -220 118 -358 0 -47 -5 -101 -12 -120 -11 -31 -16 -35
-47 -35 -34 0 -35 1 -30 35 3 19 5 78 5 130 0 79 -5 107 -28 170 -15 41 -44
97 -65 124 -20 27 -41 55 -47 62 -7 10 -4 18 10 28 34 26 53 18 96 -36z
m-2931 -278 c-7 -52 -7 -53 -9 -13 -1 36 7 80 14 71 1 -2 -1 -28 -5 -58z
m2204 21 c-2 -3 -12 3 -22 13 -16 17 -16 18 5 5 12 -7 20 -15 17 -18z m1388
-26 c-24 -14 -80 -59 -124 -100 -45 -41 -88 -75 -97 -75 -9 0 -11 3 -5 9 5 4
44 40 87 80 77 70 137 110 167 110 8 1 -4 -10 -28 -24z m-3707 -14 c11 -9 42
-37 70 -62 27 -26 64 -58 80 -72 17 -15 25 -27 18 -27 -6 0 -49 34 -95 77 -45
42 -96 85 -113 95 -27 18 -28 19 -5 13 14 -4 34 -15 45 -24z m2624 -63 c-7
-13 -45 -57 -84 -99 -88 -93 -105 -117 -121 -177 -10 -37 -13 -41 -13 -19 -1
45 37 107 119 192 43 44 83 90 89 103 6 12 14 22 17 22 2 0 -1 -10 -7 -22z
m-1453 -150 l29 -33 -32 29 c-31 28 -38 36 -30 36 2 0 16 -15 33 -32z m299 2
l20 -25 -22 19 c-13 11 -23 24 -23 29 0 6 1 8 3 6 1 -2 11 -15 22 -29z m205
16 c0 -2 -8 -10 -17 -17 -16 -13 -17 -12 -4 4 13 16 21 21 21 13z m520 -10 c0
-2 -8 -10 -17 -17 -16 -13 -17 -12 -4 4 13 16 21 21 21 13z m-960 -102 c6 -18
9 -42 7 -51 -3 -13 -5 -12 -6 5 0 13 -10 41 -20 63 -13 27 -15 37 -6 29 8 -6
19 -27 25 -46z m1177 -116 c-3 -7 -5 -2 -5 12 0 14 2 19 5 13 2 -7 2 -19 0
-25z m-1717 -658 c34 -179 69 -257 142 -318 33 -28 36 -48 8 -57 -46 -15 -117
73 -150 184 -22 75 -50 243 -50 298 0 70 26 14 50 -107z m383 -880 l21 -25
-27 26 c-18 17 -29 38 -32 65 l-5 39 10 -40 c6 -21 20 -51 33 -65z m1533 34
c-7 -25 -59 -64 -86 -63 -8 0 -4 5 10 10 37 15 58 38 66 73 4 17 9 25 11 18 3
-7 2 -24 -1 -38z m-146 -74 c42 -17 97 -4 132 31 16 16 30 29 32 29 1 0 1 -88
-1 -195 -3 -222 -3 -224 -87 -335 -31 -41 -76 -115 -101 -164 -36 -74 -45 -85
-49 -65 -11 52 -46 238 -46 244 0 3 9 1 19 -5 11 -5 36 -10 56 -10 30 0 36 -3
31 -16 -3 -9 -8 -28 -11 -42 -4 -19 -1 -17 9 8 7 20 27 61 44 90 38 69 48 145
29 218 -10 36 -11 52 -3 52 6 1 1 6 -11 13 -41 22 -111 134 -127 200 l-7 29
31 -35 c16 -19 43 -40 60 -47z m-35 50 c10 -11 16 -20 13 -20 -3 0 -13 9 -23
20 -10 11 -16 20 -13 20 3 0 13 -9 23 -20z m-1167 -27 c-12 -43 -29 -72 -80
-134 -71 -85 -80 -218 -22 -316 14 -25 34 -68 45 -96 18 -48 19 -49 13 -14 -3
21 -8 45 -11 53 -4 10 3 14 29 14 18 0 44 7 56 16 12 8 22 14 22 12 0 -2 -13
-65 -29 -141 l-28 -137 -41 82 c-23 46 -69 121 -103 168 -78 107 -89 143 -82
260 l6 91 21 -20 c27 -24 62 -35 71 -21 3 5 -2 10 -12 10 -10 0 -33 12 -51 28
-30 25 -33 33 -39 102 l-6 75 24 -21 c68 -60 146 -58 203 5 11 12 20 21 22 21
1 0 -2 -17 -8 -37z m1239 -9 c-3 -3 -12 -4 -19 -1 -8 3 -5 6 6 6 11 1 17 -2
13 -5z m-1343 -238 c-3 -15 -8 -25 -11 -23 -2 3 -1 17 3 31 3 15 8 25 11 23 2
-3 1 -17 -3 -31z"/>
<path d="M547 4549 c12 -12 25 -20 28 -17 3 3 -7 13 -22 23 l-28 17 22 -23z"/>
<path d="M3880 4110 c35 -24 54 -31 30 -11 -14 11 -29 21 -35 21 -5 0 -3 -5 5
-10z"/>
<path d="M4512 4015 c47 -67 68 -108 90 -180 18 -58 18 -59 14 -16 -6 57 -66
178 -107 216 l-33 30 36 -50z"/>
<path d="M4089 1642 c-8 -9 -26 -25 -39 -34 -14 -9 -19 -17 -13 -17 16 -1 80
55 72 63 -3 3 -12 -2 -20 -12z"/>
<path d="M2475 5080 c-4 -6 7 -10 25 -10 18 0 29 4 25 10 -3 6 -15 10 -25 10
-10 0 -22 -4 -25 -10z"/>
<path d="M1760 4970 c0 -5 5 -10 11 -10 5 0 7 5 4 10 -3 6 -8 10 -11 10 -2 0
-4 -4 -4 -10z"/>
<path d="M2425 4970 c-3 -5 -1 -10 4 -10 6 0 11 5 11 10 0 6 -2 10 -4 10 -3 0
-8 -4 -11 -10z"/>
<path d="M1890 4730 c-13 -8 -12 -10 3 -10 9 0 17 5 17 10 0 12 -1 12 -20 0z"/>
<path d="M1830 4660 c0 -5 7 -7 15 -4 8 4 15 8 15 10 0 2 -7 4 -15 4 -8 0 -15
-4 -15 -10z"/>
<path d="M1810 4500 c0 -5 9 -10 21 -10 11 0 17 5 14 10 -3 6 -13 10 -21 10
-8 0 -14 -4 -14 -10z"/>
<path d="M1950 4496 c0 -2 11 -6 25 -8 14 -3 25 -1 25 3 0 5 -11 9 -25 9 -14
0 -25 -2 -25 -4z"/>
<path d="M2033 4463 c-18 -2 -33 -8 -33 -12 0 -13 73 -6 78 7 2 7 0 11 -5 10
-4 0 -23 -3 -40 -5z"/>
<path d="M1880 4436 c0 -2 7 -6 15 -10 8 -3 15 -1 15 4 0 6 -7 10 -15 10 -8 0
-15 -2 -15 -4z"/>
<path d="M2215 4380 c-4 -6 -13 -9 -21 -6 -8 3 -14 1 -14 -5 0 -6 -4 -8 -9 -5
-5 4 -12 0 -15 -6 -5 -10 -7 -10 -12 0 -3 6 -13 12 -22 12 -15 0 -15 -2 -2
-10 8 -5 10 -10 4 -10 -5 0 -19 6 -30 14 -16 13 -21 12 -36 -1 -11 -10 -35
-15 -65 -15 -27 1 -62 -2 -78 -7 -29 -9 -28 -9 15 -11 146 -4 210 -15 210 -35
0 -19 -24 -19 -40 0 -11 14 -15 14 -35 1 -13 -8 -43 -16 -68 -18 -42 -3 -44
-4 -29 -19 17 -16 42 -21 42 -8 0 14 41 17 55 3 7 -8 16 -10 19 -6 3 4 21 6
42 4 25 -3 32 -7 23 -13 -9 -6 -1 -8 22 -6 31 3 36 1 32 -14 -7 -25 30 -33
103 -21 l59 10 -48 1 c-49 1 -87 14 -87 31 0 5 24 8 53 6 28 -2 63 -1 75 3
l24 6 -21 19 c-19 18 -20 21 -5 37 14 16 14 18 -8 25 -13 4 -39 8 -58 9 -80 3
-83 4 -70 20 7 9 10 18 7 21 -3 3 -8 0 -12 -6z m35 -71 c0 -7 -10 -9 -25 -5
-18 5 -25 2 -25 -9 0 -16 -12 -20 -23 -8 -4 3 -2 12 4 20 14 16 69 18 69 2z"/>
<path d="M1918 4283 c7 -3 16 -2 19 1 4 3 -2 6 -13 5 -11 0 -14 -3 -6 -6z"/>
<path d="M2248 3863 c-2 -33 4 -78 14 -97 6 -10 36 -47 68 -81 75 -80 90 -111
90 -180 0 -73 18 -71 22 3 5 95 -8 126 -83 208 -50 54 -72 86 -81 119 -12 46
-27 59 -30 28z"/>
<path d="M4375 3840 c-4 -18 -35 -62 -75 -104 -38 -41 -76 -88 -85 -106 -15
-30 -23 -145 -11 -158 3 -3 6 10 6 29 1 52 31 108 94 174 63 66 96 121 96 159
0 37 -17 41 -25 6z m-76 -147 c-25 -27 -55 -61 -67 -78 -20 -25 -21 -26 -11
-5 10 23 108 130 118 130 2 0 -16 -21 -40 -47z"/>
<path d="M2698 3631 c-65 -9 -72 -21 -12 -21 29 0 59 6 70 15 21 16 18 16 -58
6z"/>
<path d="M3884 3625 c12 -9 39 -15 70 -14 l51 1 -52 8 c-29 4 -61 11 -70 14
-15 5 -15 4 1 -9z"/>
<path d="M2987 3263 c-3 -43 -4 -80 -1 -82 3 -3 17 10 31 28 34 44 77 60 174
68 l79 6 0 -231 0 -231 44 -31 c25 -16 47 -30 50 -30 3 0 7 116 8 258 l3 257
82 -1 c92 -1 135 -19 168 -72 26 -40 39 -41 31 -1 -3 17 -6 56 -6 85 l0 54
-329 0 -328 0 -6 -77z"/>
<path d="M3170 3140 c-60 -38 -91 -94 -97 -175 -11 -134 50 -219 269 -377 117
-84 159 -133 185 -215 14 -45 15 -64 6 -118 -14 -79 -42 -128 -96 -163 -35
-24 -51 -27 -117 -27 -67 0 -83 4 -118 27 -47 32 -97 100 -119 163 -17 52 -39
62 -29 14 3 -17 6 -76 6 -130 l0 -99 23 14 c20 13 28 12 82 -12 52 -23 74 -27
160 -27 92 0 104 2 153 30 61 33 92 66 130 139 22 44 26 63 26 136 0 161 -72
266 -281 408 -129 89 -166 123 -196 185 -30 62 -31 67 -17 67 5 0 19 -22 31
-49 11 -27 29 -57 40 -67 18 -17 19 -16 19 37 0 54 -27 119 -50 119 -20 0 -9
31 25 68 25 28 32 44 28 60 -7 27 -8 27 -63 -8z"/>
<path d="M3418 3153 c-10 -2 -18 -12 -18 -21 -1 -19 52 -131 61 -132 4 0 9 28
12 63 2 34 6 69 8 77 4 16 -29 23 -63 13z"/>
<path d="M2868 3090 c-102 -31 -189 -116 -224 -220 -28 -82 -26 -226 5 -305
33 -85 118 -168 196 -190 140 -41 294 -4 324 78 8 20 11 40 8 43 -3 4 -27 -12
-53 -35 -78 -69 -180 -79 -270 -26 -93 55 -128 142 -122 303 7 170 59 268 163
308 40 15 121 16 165 3 9 -2 16 4 18 17 2 15 -4 23 -20 28 -32 8 -157 6 -190
-4z"/>
<path d="M3640 3093 c0 -5 7 -17 15 -27 11 -15 15 -48 15 -122 0 -89 4 -115
36 -213 20 -62 38 -110 41 -107 3 2 6 100 6 218 l2 213 47 -1 c25 0 54 -7 64
-15 48 -40 71 -177 39 -239 -22 -42 -63 -70 -102 -70 -19 0 -33 -3 -31 -7 38
-88 139 -271 161 -293 30 -31 74 -45 107 -35 23 7 27 25 6 25 -7 0 -25 15 -38
33 -27 35 -133 236 -127 240 79 52 112 99 124 178 13 90 -30 174 -110 210 -31
14 -65 19 -147 19 -60 0 -108 -3 -108 -7z"/>
<path d="M3532 3028 c-61 -165 -104 -310 -94 -320 22 -22 39 2 66 91 15 50 30
91 34 91 4 0 20 -42 36 -93 16 -50 31 -98 33 -104 3 -10 -12 -13 -56 -13 -57
0 -76 -10 -50 -26 7 -4 37 -10 68 -13 l55 -6 34 -95 c18 -52 41 -125 52 -162
16 -59 17 -68 4 -87 -15 -21 -14 -21 72 -21 l87 0 -21 23 c-29 31 -80 164
-193 505 -51 155 -96 282 -100 282 -4 0 -16 -24 -27 -52z"/>
<path d="M2948 3012 c-10 -2 -18 -8 -18 -13 0 -5 -11 -9 -24 -9 -32 0 -40 -15
-28 -48 6 -15 13 -134 16 -266 3 -131 6 -240 8 -241 2 -2 20 -6 41 -10 l37 -7
0 106 0 106 49 0 c53 0 108 15 131 36 12 12 12 16 -2 31 -12 12 -21 13 -30 6
-23 -19 -95 -36 -122 -29 l-26 6 0 126 c0 145 7 166 50 157 23 -4 30 -2 30 10
0 17 -60 34 -79 23 -5 -3 -11 0 -13 7 -2 7 -11 11 -20 9z"/>
<path d="M4430 2886 c-37 -25 -102 -111 -139 -184 -28 -54 -82 -115 -138 -153
-41 -28 -70 -65 -60 -75 3 -3 35 11 72 30 37 20 76 36 87 36 19 0 20 -4 15
-60 -4 -33 -14 -75 -23 -93 -10 -20 -12 -28 -3 -19 26 24 39 14 22 -16 -19
-33 -12 -62 15 -62 14 0 18 6 15 23 -3 16 8 35 40 69 49 51 66 91 103 243 32
130 53 195 65 195 11 0 11 5 -1 -104 -12 -103 -35 -202 -62 -265 -27 -64 -13
-64 17 1 29 63 60 208 70 323 4 44 12 88 17 99 22 41 -57 50 -112 12z"/>
<path d="M3268 2456 c-3 -144 -3 -145 -32 -175 l-30 -31 112 0 c62 0 112 2
112 5 0 2 -12 16 -26 30 -24 24 -26 31 -20 82 4 30 11 63 16 73 15 29 12 55
-9 74 -22 20 -23 19 -45 -54 -10 -30 -20 -61 -22 -69 -2 -8 -7 -12 -10 -9 -2
3 5 41 17 84 l21 78 -33 28 c-19 15 -37 28 -41 28 -3 0 -8 -65 -10 -144z"/>
<path d="M2880 2303 l-22 -28 72 -3 c40 -2 75 0 79 3 3 4 -7 18 -22 31 -38 33
-80 31 -107 -3z"/>
<path d="M4310 2284 l-35 -14 35 5 c19 3 39 10 44 15 14 14 -2 12 -44 -6z"/>
<path d="M2330 2230 c8 -5 22 -10 31 -10 9 0 43 -14 77 -31 68 -34 137 -104
147 -150 4 -16 11 -29 17 -29 16 0 -2 62 -29 98 -34 45 -94 87 -159 112 -58
21 -112 28 -84 10z"/>
<path d="M4255 2226 c-120 -30 -216 -116 -214 -193 0 -25 3 -22 23 22 12 28
39 65 60 82 38 34 106 73 128 73 16 1 77 28 63 28 -5 0 -32 -5 -60 -12z"/>
<path d="M2915 1865 c10 -63 24 -174 34 -267 11 -94 10 -100 -24 -236 -44
-179 -55 -250 -55 -389 0 -123 12 -192 63 -363 19 -63 42 -142 52 -174 48
-171 103 -239 161 -201 61 40 87 153 104 445 5 91 13 183 17 205 l7 40 8 -35
c4 -19 11 -152 14 -295 8 -292 6 -303 -57 -387 -42 -57 -45 -75 -27 -155 12
-49 15 -53 41 -53 l29 0 -7 69 c-6 58 -4 74 14 109 11 22 25 43 30 46 5 3 21
-15 36 -40 28 -48 28 -49 9 -152 -6 -31 -5 -32 28 -32 21 0 35 5 35 13 0 6 5
35 12 63 14 58 9 75 -54 172 -50 80 -54 146 -29 572 10 157 24 95 35 -150 11
-277 43 -401 111 -439 58 -33 104 27 154 196 79 272 95 330 109 415 24 137 6
335 -50 551 -29 114 -32 195 -9 344 8 58 13 107 11 110 -9 8 -37 -101 -53
-202 -8 -55 -26 -173 -39 -262 -17 -112 -33 -183 -52 -229 -45 -108 -63 -94
-63 50 0 44 -2 77 -5 74 -8 -7 -45 -164 -45 -187 0 -27 -50 -121 -65 -121 -15
0 -22 107 -30 445 -7 328 -15 466 -26 459 -5 -3 -9 -26 -10 -52 0 -35 -3 -42
-9 -27 -5 11 -9 36 -9 55 -1 26 -4 31 -11 20 -5 -8 -10 -73 -10 -145 0 -180
-19 -716 -26 -738 -21 -67 -80 73 -109 257 -10 61 -25 24 -25 -61 0 -138 -27
-138 -74 1 -17 48 -68 344 -86 496 -5 41 -21 107 -35 145 -14 39 -23 57 -20
40z m19 -926 c3 -102 11 -185 20 -219 l15 -55 -4 70 c-3 39 -8 106 -11 150
-12 148 4 72 26 -123 26 -236 24 -278 -9 -172 -44 143 -51 175 -57 290 -6 103
1 238 12 228 2 -3 6 -78 8 -169z m795 -6 c1 -56 -6 -135 -14 -175 -20 -93 -65
-242 -71 -235 -6 5 20 257 36 357 7 43 8 31 4 -50 -3 -58 -7 -116 -10 -130 -4
-23 -4 -24 5 -3 17 37 31 170 32 296 1 92 3 112 10 82 4 -22 8 -86 8 -142z
m-516 -165 c7 -48 -8 -269 -23 -348 -11 -60 -42 -134 -60 -145 -35 -22 -80
114 -80 241 0 130 42 231 115 276 16 10 33 18 36 18 4 0 9 -19 12 -42z m300
-7 c31 -29 48 -56 62 -98 35 -105 19 -301 -31 -371 -15 -22 -17 -22 -35 -6
-33 30 -59 139 -71 295 -12 157 -6 219 18 219 8 0 34 -18 57 -39z"/>
<path d="M2924 251 c12 -69 100 -162 192 -202 72 -32 75 -16 3 18 -76 35 -142
98 -176 168 -22 45 -24 46 -19 16z"/>
<path d="M3688 207 c-41 -65 -86 -106 -158 -142 -36 -19 -57 -34 -47 -35 25 0
110 45 150 79 31 28 94 128 85 136 -2 2 -16 -15 -30 -38z"/>
</g>
</svg>
