<?xml version="1.0" standalone="no"?>
<!DOCTYPE svg PUBLIC "-//W3C//DTD SVG 20010904//EN"
 "http://www.w3.org/TR/2001/REC-SVG-20010904/DTD/svg10.dtd">
<svg version="1.0" xmlns="http://www.w3.org/2000/svg"
 width="821.000000pt" height="530.000000pt" viewBox="0 0 821.000000 530.000000"
 preserveAspectRatio="xMidYMid meet">
<metadata>
Created by potrace 1.16, written by Peter Selinger 2001-2019
</metadata>
<g transform="translate(0.000000,530.000000) scale(0.100000,-0.100000)"
fill="#000000" stroke="none">
<path d="M1979 5269 c-17 -11 -24 -10 124 -14 59 -1 110 1 113 6 3 5 -12 10
-33 10 -21 1 -72 3 -114 5 -41 1 -82 -2 -90 -7z"/>
<path d="M2300 5260 c0 -5 5 -10 10 -10 6 0 10 5 10 10 0 6 -4 10 -10 10 -5 0
-10 -4 -10 -10z"/>
<path d="M2150 5190 c0 -11 39 -20 45 -10 3 4 -6 10 -20 12 -14 3 -25 2 -25
-2z"/>
<path d="M2212 5174 c-11 -12 -10 -14 6 -14 10 0 23 5 30 12 9 9 12 9 12 0 0
-7 14 -12 31 -12 26 0 29 3 20 14 -13 16 -58 18 -67 4 -4 -7 -9 -7 -13 0 -4 6
-11 4 -19 -4z"/>
<path d="M2123 5133 c-13 -2 -23 -11 -23 -19 0 -8 -6 -14 -14 -14 -8 0 -18 -5
-22 -12 -4 -6 -3 -8 3 -5 6 4 16 0 23 -8 7 -8 24 -15 37 -15 20 0 23 3 14 14
-9 10 -8 16 4 26 12 10 15 10 15 -4 0 -11 4 -14 13 -10 8 5 8 2 -2 -9 -12 -15
-10 -17 28 -17 40 0 40 1 35 30 -6 26 -4 30 17 31 13 1 4 5 -21 10 -49 8 -72
9 -107 2z"/>
<path d="M6122 5092 c-12 -12 -26 -40 -31 -64 -23 -95 -84 -257 -123 -326 -52
-90 -157 -205 -244 -267 -121 -87 -303 -161 -474 -194 -73 -14 -232 -28 -465
-41 -258 -15 -318 -24 -393 -62 -118 -59 -234 -38 -477 86 -195 100 -278 116
-406 77 -159 -48 -208 -48 -368 0 -132 40 -235 21 -416 -76 -147 -78 -225
-105 -325 -112 -82 -5 -88 -4 -140 25 -73 40 -120 48 -350 61 -320 19 -450 31
-549 53 -422 91 -687 324 -791 696 -16 57 -36 115 -45 128 -30 47 -106 22
-121 -40 -5 -21 -4 -27 5 -22 13 8 10 -29 -4 -41 -4 -5 -5 -2 -1 5 4 6 2 12
-3 12 -6 0 -11 -2 -11 -4 0 -2 -5 -28 -10 -57 -14 -74 -14 -250 0 -334 15 -91
63 -242 106 -331 98 -208 328 -423 568 -534 127 -59 297 -116 473 -160 280
-70 570 -109 588 -80 19 30 80 -2 109 -58 51 -99 27 -167 -129 -366 -92 -117
-98 -157 -60 -426 39 -283 77 -360 228 -462 153 -104 185 -191 193 -528 3
-118 10 -231 16 -250 6 -19 38 -78 73 -130 132 -200 164 -280 200 -484 14 -81
37 -197 51 -259 14 -62 29 -166 34 -233 9 -144 26 -190 93 -251 l47 -43 77 1
c65 1 73 2 46 10 -53 15 -155 91 -174 129 -13 25 -19 68 -23 150 -3 81 -14
153 -36 245 -76 316 -83 455 -34 725 13 74 24 138 24 141 0 3 -12 23 -26 44
l-25 38 29 31 c49 52 67 116 67 236 0 84 -5 119 -24 175 -46 135 -108 222
-228 322 -34 28 -59 53 -57 56 5 5 -70 67 -81 67 -4 0 10 -14 31 -31 22 -17
38 -35 37 -40 -2 -4 26 -34 62 -65 73 -65 142 -148 174 -212 34 -66 61 -187
61 -268 0 -142 -31 -219 -105 -261 -37 -21 -38 -23 -14 -23 34 0 59 -29 59
-67 0 -66 -83 -86 -124 -30 -16 22 -21 43 -21 90 0 55 7 76 62 192 33 72 66
148 72 170 52 191 -98 379 -350 440 -41 10 -76 19 -78 21 -2 2 2 10 9 19 8 9
10 27 6 50 -6 28 -4 34 8 29 12 -5 11 4 -5 45 -10 28 -19 65 -19 82 0 29 2 31
29 26 16 -4 52 -20 79 -37 46 -28 72 -37 72 -24 0 18 -27 48 -84 92 -51 40
-75 70 -122 149 -68 116 -128 179 -179 189 -45 8 -68 -1 -61 -23 3 -10 13 -79
21 -153 9 -74 22 -161 30 -194 15 -59 74 -181 83 -171 3 2 -2 15 -11 28 -48
74 -113 427 -78 427 13 0 16 -12 46 -159 30 -150 62 -224 121 -282 24 -24 44
-49 44 -55 0 -16 -32 -26 -54 -18 -9 3 -16 1 -16 -4 0 -12 5 -14 127 -42 198
-46 343 -187 343 -334 0 -67 -58 -136 -115 -136 -56 0 -104 65 -85 115 17 45
90 42 90 -3 0 -15 1 -15 16 0 14 14 14 18 0 46 -28 54 -91 53 -134 -3 -11 -14
-22 -25 -25 -25 -3 0 -8 17 -12 37 -4 20 -19 64 -34 98 -29 63 -77 112 -201
203 -103 75 -125 131 -170 442 -12 80 -19 159 -17 177 9 52 51 127 123 215
105 131 175 293 159 371 -13 60 -54 118 -98 138 -46 21 -71 24 -62 9 3 -5 15
-10 25 -10 26 0 80 -48 96 -87 15 -35 18 -125 5 -157 -6 -15 -11 -5 -20 41
-15 77 -44 120 -101 150 -25 13 -50 34 -57 46 -19 35 -16 176 6 246 22 70 58
136 95 170 22 21 40 25 128 32 57 4 124 14 151 22 26 8 47 13 47 11 0 -2 -18
-27 -40 -56 -74 -98 -89 -206 -48 -334 16 -49 22 -94 23 -154 0 -107 -19 -145
-142 -280 -166 -184 -180 -249 -80 -358 24 -26 60 -72 80 -102 21 -30 37 -51
37 -47 0 18 -42 87 -94 155 -89 116 -80 156 64 308 152 160 188 230 177 346
-3 32 -2 58 2 58 16 0 132 -131 146 -164 24 -57 20 -122 -10 -151 -26 -27 -64
-32 -83 -13 -15 15 -15 51 0 66 16 16 -19 29 -41 15 -26 -16 -27 -87 -1 -111
51 -47 140 -32 178 31 28 43 29 135 4 189 -9 21 -58 79 -108 130 -103 107
-120 144 -112 251 6 69 21 104 68 157 l31 35 -8 -35 c-23 -100 2 -184 69 -231
40 -29 106 -36 146 -15 38 20 52 44 51 88 0 30 -1 31 -11 12 -5 -12 -21 -27
-34 -33 -43 -19 -74 -13 -110 23 -49 49 -48 99 4 153 44 45 95 63 178 63 134
-1 250 -103 289 -256 27 -105 -11 -217 -88 -264 -39 -24 -68 -25 -108 -5 -46
24 -61 94 -23 109 13 5 39 -14 46 -34 5 -16 36 -1 43 21 9 27 -10 55 -44 67
-41 14 -91 -12 -114 -60 -24 -50 -10 -104 38 -147 90 -78 225 -38 302 90 92
152 62 372 -69 507 -49 51 -146 100 -213 108 -27 3 -57 8 -65 11 -24 7 12 23
80 34 53 8 74 6 182 -22 142 -36 229 -36 333 1 80 29 175 31 240 5 l50 -20
-76 -6 c-228 -19 -386 -215 -366 -455 6 -83 62 -201 112 -240 72 -55 144 -66
211 -33 45 21 84 81 84 128 0 35 -31 79 -67 96 -28 14 -36 14 -67 1 -38 -16
-52 -45 -36 -76 14 -27 26 -25 46 5 20 30 40 32 54 4 9 -16 9 -28 -1 -50 -37
-91 -157 -72 -214 33 -25 46 -27 57 -23 132 4 63 11 94 33 139 33 68 97 130
163 160 84 37 211 23 277 -31 12 -9 6 -3 -12 14 -94 88 -287 65 -388 -48 -62
-68 -88 -133 -93 -229 -4 -73 -1 -91 18 -128 28 -55 7 -44 -23 12 -18 35 -22
58 -22 137 0 91 2 98 37 161 68 120 164 188 283 199 l70 7 -71 2 c-61 1 -80
-3 -132 -30 -37 -18 -80 -51 -108 -82 -26 -29 -42 -42 -35 -29 19 36 86 99
129 121 96 49 241 47 328 -4 82 -48 117 -170 74 -256 -50 -96 -173 -107 -199
-16 l-9 32 -1 -36 c-1 -27 6 -42 30 -65 26 -25 38 -29 83 -29 38 1 61 7 84 24
65 46 96 151 68 230 -9 24 -14 46 -12 48 6 6 53 -54 84 -105 23 -39 27 -58 27
-117 -1 -90 -22 -131 -124 -239 -83 -89 -111 -137 -119 -203 -6 -57 3 -86 39
-128 38 -43 83 -53 132 -30 46 21 64 63 45 102 -15 33 -66 49 -53 16 16 -39
16 -51 0 -67 -24 -23 -62 -20 -90 9 -57 56 -21 167 88 273 l54 53 -5 -75 c-7
-107 24 -167 157 -311 107 -116 141 -170 141 -224 0 -40 -10 -59 -66 -128 -24
-29 -51 -68 -59 -86 l-16 -32 23 30 c13 16 47 57 77 90 29 33 57 70 62 83 26
68 -6 139 -121 267 -170 189 -191 257 -134 439 22 73 26 99 22 169 -5 92 -22
131 -87 200 -39 42 -38 43 39 22 30 -8 91 -17 135 -21 44 -3 93 -10 108 -16
31 -12 77 -73 107 -142 35 -83 44 -232 16 -296 -4 -9 -22 -24 -42 -35 -68 -36
-94 -78 -120 -190 l-7 -30 -13 44 c-23 76 8 164 71 202 16 11 24 19 18 19 -23
0 -92 -71 -104 -107 -33 -101 12 -223 146 -393 96 -122 125 -179 125 -244 0
-65 -45 -365 -65 -431 -24 -81 -65 -132 -161 -199 -126 -87 -149 -123 -201
-305 -3 -10 -10 -5 -22 16 -24 39 -74 58 -109 40 -32 -16 -47 -40 -38 -62 6
-17 8 -17 22 4 21 30 63 25 83 -10 31 -55 -32 -125 -100 -112 -15 3 -42 21
-60 40 -31 31 -34 39 -33 96 0 78 32 144 101 209 56 51 93 73 173 100 49 16
50 18 15 12 -152 -22 -297 -144 -331 -276 -26 -100 -16 -145 73 -321 56 -113
71 -174 59 -242 -14 -73 -84 -101 -125 -49 -12 15 -21 34 -21 43 0 28 29 60
58 63 l27 4 -36 16 c-127 56 -145 326 -37 548 23 48 56 89 127 160 61 59 84
87 62 75 -64 -38 -178 -171 -221 -258 -49 -100 -63 -172 -58 -297 3 -80 8
-105 32 -153 15 -31 36 -62 46 -67 19 -10 19 -11 -1 -45 -27 -45 -26 -102 1
-260 38 -218 31 -311 -45 -657 -20 -89 -35 -185 -35 -221 0 -159 -32 -219
-149 -279 l-72 -38 75 0 c73 0 77 1 117 37 65 59 80 98 89 242 5 69 21 180 35
246 15 66 39 185 55 265 44 219 89 329 193 469 86 114 91 133 93 316 2 216 12
316 40 405 29 92 64 136 158 199 150 102 174 150 221 456 43 272 36 307 -95
480 -93 124 -114 167 -113 236 1 42 8 67 27 97 29 46 58 58 100 43 34 -14 129
-14 193 -2 26 6 95 17 153 26 221 35 519 119 683 192 329 146 571 399 668 698
46 140 54 195 54 365 -1 228 -29 321 -101 336 -24 5 -37 1 -52 -14z m-5656
-31 c-3 -5 2 -11 12 -13 13 -4 22 -23 31 -64 48 -217 151 -404 289 -522 76
-65 178 -139 202 -147 34 -11 22 -25 -21 -25 -44 0 -72 -11 -106 -43 l-23 -20
0 31 c0 87 -74 194 -175 252 -22 13 -62 41 -88 63 -27 22 -43 31 -37 20 7 -10
34 -35 60 -54 37 -26 44 -35 31 -41 -11 -4 -8 -6 10 -5 26 1 104 -48 114 -71
3 -8 -6 -6 -23 6 -15 11 -58 30 -97 42 -57 19 -80 33 -124 78 -51 53 -52 54
-27 15 35 -53 84 -86 166 -113 114 -38 147 -88 161 -242 13 -153 52 -215 158
-253 99 -35 219 -15 413 68 136 59 246 82 342 72 73 -7 166 -39 166 -58 0 -6
3 -7 7 -4 8 9 34 -13 27 -24 -2 -5 3 -21 12 -36 14 -23 12 -23 -11 5 -40 49
-99 74 -181 80 -91 6 -153 -12 -305 -88 -170 -86 -226 -103 -339 -104 -84 -1
-102 2 -150 26 -60 28 -118 80 -155 137 -23 35 -31 56 -74 208 -25 84 -66 133
-111 133 -35 0 -60 -9 -60 -21 0 -6 9 -5 20 1 25 14 83 -9 104 -42 8 -12 27
-66 41 -118 34 -123 66 -179 137 -245 75 -70 141 -95 249 -95 113 0 180 20
361 107 145 69 163 75 237 80 95 7 149 -9 200 -59 48 -47 53 -68 46 -208 -4
-75 -3 -143 3 -170 6 -24 9 -46 6 -49 -2 -2 -49 8 -104 23 -161 45 -230 106
-230 203 0 70 34 113 91 113 29 0 42 -5 54 -24 17 -26 11 -56 -12 -56 -24 0
-10 -35 15 -38 13 -2 32 4 42 13 63 57 3 155 -95 155 -94 0 -168 -96 -146
-192 l9 -37 -52 41 c-65 52 -104 68 -161 68 -37 0 -51 -5 -70 -26 -35 -37 -31
-47 9 -26 19 9 32 20 30 23 -7 12 79 8 112 -6 19 -8 63 -41 97 -73 34 -32 78
-71 97 -87 31 -25 32 -28 10 -21 -14 4 -42 9 -62 11 -122 14 -456 129 -588
203 -182 101 -351 257 -439 406 -51 87 -125 287 -137 371 -3 28 -8 59 -10 70
-2 11 -5 64 -6 117 -1 67 -5 95 -12 91 -6 -4 -5 1 3 11 8 10 18 43 23 74 4 32
9 66 10 77 2 11 8 23 13 27 13 10 17 10 11 -1z m5733 -76 c20 -74 18 -338 -4
-440 -80 -377 -341 -658 -758 -817 -116 -44 -368 -118 -405 -118 -8 0 8 17 35
39 26 21 59 51 73 66 30 33 114 75 151 75 14 0 34 -9 44 -20 22 -24 31 -19 16
9 -17 32 -67 53 -104 45 -51 -11 -106 -43 -160 -92 -28 -27 -45 -38 -39 -25
11 20 16 68 13 122 0 13 -20 42 -45 67 -40 41 -47 44 -95 44 -41 0 -56 -5 -81
-27 -42 -39 -49 -82 -18 -118 18 -21 29 -26 46 -21 24 8 30 36 8 36 -8 0 -18
10 -22 22 -5 16 0 27 20 45 15 13 34 23 42 23 8 0 12 5 9 10 -14 22 51 -3 79
-30 34 -33 46 -106 26 -165 -17 -51 -23 -38 -8 18 9 35 9 54 0 84 -11 38 -45
83 -62 83 -4 0 5 -13 21 -29 24 -25 29 -37 29 -81 0 -28 -6 -63 -14 -79 -24
-45 -89 -97 -152 -121 -63 -23 -162 -46 -169 -38 -2 2 1 22 7 44 7 25 8 85 4
167 -5 115 -4 131 14 166 42 84 114 116 242 109 71 -4 89 -10 235 -81 194 -94
255 -110 383 -105 78 4 104 9 147 31 103 53 154 126 213 304 46 140 70 168
132 160 31 -4 37 -3 28 8 -16 19 -55 23 -88 10 -39 -17 -65 -63 -97 -174 -58
-207 -136 -293 -290 -320 -114 -20 -218 5 -410 99 -165 80 -213 94 -303 88
-79 -6 -136 -32 -180 -83 -33 -37 -44 -27 -15 14 12 18 13 22 2 17 -8 -5 0 3
16 18 52 45 110 67 188 73 106 8 193 -10 350 -74 175 -70 224 -83 317 -83 58
0 87 6 126 24 84 39 114 94 129 233 15 155 59 221 163 252 89 27 136 61 172
124 39 68 38 82 -1 26 -56 -79 -81 -99 -146 -119 -34 -10 -76 -26 -93 -35 -16
-8 -30 -14 -30 -11 0 8 88 56 103 56 41 0 164 117 143 137 -3 4 -6 1 -6 -5 0
-21 -63 -83 -104 -103 -23 -10 -32 -14 -21 -7 76 48 146 157 144 222 0 12 -7
-1 -16 -28 -24 -81 -67 -133 -158 -192 -45 -29 -98 -71 -118 -93 -35 -39 -67
-119 -67 -170 l0 -24 -24 22 c-14 13 -48 31 -77 40 l-51 17 63 37 c219 128
382 366 439 640 15 74 39 75 59 2z m-5052 -740 c69 -27 276 -72 388 -85 61 -7
116 -16 124 -20 7 -4 -22 -10 -66 -14 -62 -6 -104 -17 -189 -53 -267 -111
-394 -122 -482 -40 -39 37 -53 83 -42 133 13 55 40 76 103 82 47 4 57 1 76
-19 33 -35 26 -100 -11 -113 -22 -8 -32 -6 -47 9 -20 17 -21 17 -27 0 -10 -24
29 -55 68 -55 33 0 88 47 88 75 0 13 7 11 36 -11 45 -35 115 -53 182 -47 77 8
63 18 -26 18 -100 0 -140 19 -187 90 -48 73 -47 74 12 50z m4383 -3 c0 -4 -13
-28 -29 -53 -41 -65 -85 -84 -191 -83 l-85 0 50 -14 c66 -20 144 -4 197 38
l37 31 7 -26 c15 -58 103 -86 144 -45 22 22 25 36 9 45 -6 4 -16 -1 -23 -10
-30 -41 -97 15 -80 67 10 33 46 58 82 58 132 0 162 -173 42 -240 -39 -22 -56
-25 -130 -24 -90 2 -117 9 -330 92 -74 28 -129 43 -182 48 -43 4 -76 10 -73
14 2 4 46 10 97 14 108 8 309 47 388 75 64 23 70 24 70 13z m-2482 -103 c52
-22 81 -45 119 -90 24 -30 22 -29 -20 9 -74 67 -137 92 -227 91 l-75 -2 73 -7
c94 -10 168 -46 226 -111 91 -101 125 -228 92 -342 -18 -60 -66 -131 -106
-155 -22 -12 -22 -12 3 8 15 12 38 41 52 64 112 191 -36 466 -260 483 -76 6
-136 -10 -179 -47 -18 -16 -37 -26 -41 -22 -5 4 -5 1 -1 -6 5 -8 1 -21 -9 -32
-30 -33 -15 -107 29 -147 37 -34 63 -40 99 -22 21 10 21 10 3 -5 -42 -34 -117
-6 -157 56 -45 72 -1 214 81 262 77 45 212 52 298 15z m-1080 -9 c85 -4 157
-11 160 -14 3 -4 -10 -23 -30 -44 -20 -20 -48 -57 -63 -81 l-27 -44 -28 45
c-43 69 -128 121 -222 137 l-53 9 55 1 c30 0 124 -4 208 -9z m2908 0 c-98 -17
-206 -93 -222 -157 -9 -33 -19 -28 -49 23 -15 26 -43 64 -62 85 -34 38 -34 38
-11 44 24 5 148 10 303 12 78 1 83 0 41 -7z m-2689 -28 c8 -5 -3 -21 -37 -50
-62 -53 -115 -158 -130 -256 -6 -38 -9 -71 -6 -73 3 -3 7 5 10 18 34 169 73
251 145 312 47 39 59 33 19 -10 -49 -55 -73 -99 -96 -173 -27 -91 -35 -174
-23 -250 12 -71 7 -80 -41 -80 -23 0 -29 6 -37 38 -16 55 -13 186 5 255 20 77
61 159 113 225 41 51 54 59 78 44z m2354 -44 c52 -66 83 -129 103 -205 19 -71
21 -205 5 -269 -11 -43 -12 -44 -51 -44 -40 0 -40 0 -34 33 35 170 -3 339
-105 459 l-39 47 22 15 c36 26 55 19 99 -36z m-2910 -202 c-18 -21 -25 -101
-12 -137 9 -26 9 -31 0 -22 -21 21 -24 119 -5 148 9 14 19 25 22 25 4 0 1 -6
-5 -14z m3579 -76 c-19 -10 -75 -54 -123 -98 -49 -44 -98 -83 -110 -86 -20 -5
-20 -5 -1 13 139 132 217 190 254 190 8 0 -1 -8 -20 -19z m-1091 -82 c-7 -12
-47 -61 -90 -107 -98 -105 -123 -153 -117 -227 3 -31 1 -49 -3 -42 -14 21 -10
106 5 143 8 19 55 77 104 129 50 52 93 104 97 116 4 12 9 19 12 17 2 -3 -1
-16 -8 -29z m-1543 -60 l29 -33 -32 29 c-18 17 -33 31 -33 33 0 8 8 1 36 -29z
m386 -87 c7 -9 3 -6 -9 7 -13 13 -23 33 -22 45 1 18 2 17 9 -7 5 -15 15 -36
22 -45z m745 47 c-3 -8 -6 -5 -6 6 -1 11 2 17 5 13 3 -3 4 -12 1 -19z m-996
-107 c19 -30 29 -57 28 -80 l-1 -36 -9 38 c-12 49 -32 88 -71 134 -31 36 -31
37 -4 13 16 -14 42 -45 57 -69z m965 51 l-29 -27 23 32 c13 18 26 30 29 28 3
-3 -8 -18 -23 -33z m-939 -194 c-3 -8 -6 -5 -6 6 -1 11 2 17 5 13 3 -3 4 -12
1 -19z m-192 -1457 c-10 -33 21 -90 57 -106 26 -11 28 -14 12 -15 -46 0 -106
104 -77 133 11 12 15 8 8 -12z m1565 -32 c0 -46 -47 -89 -97 -89 -21 0 -44 4
-52 9 -8 5 4 7 32 4 39 -5 49 -2 71 21 15 14 29 39 32 56 8 39 14 38 14 -1z
m-145 -99 c48 -16 107 2 139 42 l24 32 -2 -200 c-3 -230 -2 -229 -96 -355 -35
-46 -80 -120 -101 -164 -42 -89 -36 -94 -65 55 -30 158 -30 144 -4 130 12 -7
38 -10 56 -8 20 2 34 0 34 -7 0 -5 14 11 30 36 43 65 57 151 37 220 -9 29 -14
56 -11 61 3 4 -2 11 -11 14 -33 13 -125 172 -125 216 0 5 14 -7 30 -26 17 -19
46 -40 65 -46z m-45 55 c13 -14 21 -25 18 -25 -2 0 -15 11 -28 25 -13 14 -21
25 -18 25 2 0 15 -11 28 -25z m-1173 -66 c-13 -30 -40 -72 -60 -94 -20 -22
-44 -60 -52 -84 -27 -80 -13 -203 28 -249 8 -9 25 -44 36 -77 20 -56 22 -49 6
18 -7 25 -5 27 27 27 18 0 44 8 57 17 24 16 24 16 18 -13 -33 -149 -47 -223
-47 -244 0 -16 -14 3 -43 62 -24 48 -72 126 -107 174 -35 48 -69 103 -76 123
-15 40 -19 231 -6 231 5 0 17 -9 27 -20 10 -11 30 -20 44 -20 l26 1 -30 13
c-54 24 -69 50 -73 129 l-4 71 32 -27 c59 -50 132 -48 184 6 39 40 44 25 13
-44z m-52 31 c-3 -5 -14 -10 -23 -9 -14 0 -13 2 3 9 27 11 27 11 20 0z m-39
-241 c-8 -30 -15 -46 -15 -35 -1 22 20 98 26 93 2 -2 -3 -28 -11 -58z"/>
<path d="M1910 4020 c0 -5 5 -10 11 -10 5 0 7 5 4 10 -3 6 -8 10 -11 10 -2 0
-4 -4 -4 -10z"/>
<path d="M1402 3781 c36 -12 112 -69 163 -120 21 -23 44 -41 49 -41 15 0 -71
85 -125 126 -26 19 -62 36 -80 39 -32 5 -32 4 -7 -4z"/>
<path d="M4512 4020 c37 -53 66 -109 88 -170 14 -39 18 -45 14 -20 -10 53 -58
151 -94 190 l-32 35 24 -35z"/>
<path d="M4084 1637 c-5 -7 -21 -20 -35 -29 -13 -9 -18 -17 -12 -17 7 -1 27
12 45 29 18 16 29 29 23 29 -5 0 -15 -5 -21 -12z"/>
<path d="M2244 5089 c-8 -13 25 -24 37 -12 7 7 3 12 -10 16 -12 3 -24 1 -27
-4z"/>
<path d="M2310 5090 c-20 -12 -10 -19 14 -10 11 3 15 9 10 13 -6 3 -16 2 -24
-3z"/>
<path d="M2255 4810 c3 -5 8 -10 11 -10 2 0 4 5 4 10 0 6 -5 10 -11 10 -5 0
-7 -4 -4 -10z"/>
<path d="M2068 4793 c-14 -17 -1 -30 14 -15 8 8 14 7 24 -6 12 -16 13 -16 20
3 4 11 12 23 18 28 6 4 -6 6 -27 5 -21 -1 -43 -8 -49 -15z"/>
<path d="M2160 4656 c0 -9 39 -13 51 -5 10 6 4 9 -18 9 -18 0 -33 -2 -33 -4z"/>
<path d="M3950 3921 c0 -37 -31 -79 -75 -101 -35 -18 -37 -20 -10 -15 41 9 83
52 91 92 4 19 4 37 0 40 -3 4 -6 -4 -6 -16z"/>
<path d="M2250 3829 c0 -46 18 -76 91 -155 58 -62 76 -97 85 -160 3 -27 8 -51
10 -53 8 -9 4 139 -5 162 -5 13 -41 58 -79 99 -49 53 -71 85 -76 111 -9 50
-26 47 -26 -4z"/>
<path d="M4372 3826 c-7 -19 -31 -51 -53 -72 -67 -64 -138 -163 -99 -139 14 9
12 -5 -5 -35 -8 -14 -14 -41 -14 -60 1 -34 1 -34 11 10 12 54 34 87 104 160
53 54 84 110 84 150 0 31 -15 24 -28 -14z m-78 -141 c-32 -35 -60 -62 -63 -59
-4 4 108 124 117 124 2 0 -23 -29 -54 -65z"/>
<path d="M3786 3835 c4 -8 11 -15 16 -15 6 0 5 6 -2 15 -7 8 -14 15 -16 15 -2
0 -1 -7 2 -15z"/>
<path d="M2738 3635 c-3 -3 -25 -9 -49 -14 l-44 -9 41 -1 c22 -1 49 6 60 14
10 8 14 15 8 15 -6 0 -13 -2 -16 -5z"/>
<path d="M3895 3620 c11 -5 27 -9 35 -9 9 0 8 4 -5 9 -11 5 -27 9 -35 9 -9 0
-8 -4 5 -9z"/>
<path d="M2995 3330 c-6 -10 -9 -135 -3 -140 3 -3 16 7 28 23 33 42 73 57 166
64 l84 6 0 -231 0 -231 46 -30 c25 -17 47 -31 50 -31 2 0 4 117 4 260 l0 260
63 0 c89 0 136 -16 179 -61 21 -21 39 -39 40 -39 2 0 1 34 -2 77 l-5 76 -323
2 c-178 0 -325 -2 -327 -5z"/>
<path d="M3195 3153 c-75 -39 -112 -94 -121 -181 -14 -132 41 -218 220 -345
196 -138 254 -224 242 -354 -14 -162 -134 -245 -291 -202 -56 15 -128 94 -156
170 -12 33 -24 57 -27 55 -5 -6 -3 -239 3 -244 2 -2 13 1 24 8 17 9 32 6 78
-16 69 -32 170 -42 240 -25 156 39 252 194 223 359 -23 135 -96 225 -283 354
-116 79 -153 112 -181 162 -33 57 -41 86 -23 86 8 0 19 -18 26 -40 6 -22 23
-52 36 -67 l24 -28 1 55 c0 55 -27 120 -50 120 -20 0 -9 31 23 67 24 27 32 44
28 60 -6 20 -7 21 -36 6z"/>
<path d="M3400 3130 c0 -22 51 -120 63 -120 4 0 7 17 7 39 0 21 3 53 6 70 6
31 6 31 -35 31 -34 0 -41 -3 -41 -20z"/>
<path d="M2870 3091 c-89 -27 -168 -95 -206 -177 -99 -211 -18 -464 171 -534
50 -18 75 -21 145 -18 127 6 190 44 190 114 l0 28 -37 -36 c-73 -71 -166 -87
-259 -44 -97 45 -146 140 -148 286 -2 220 100 357 259 348 33 -2 67 -6 75 -8
9 -3 16 3 18 16 2 17 -4 23 -29 28 -42 8 -148 6 -179 -3z"/>
<path d="M3640 3091 c0 -5 7 -14 15 -21 12 -10 15 -36 15 -118 0 -95 4 -118
38 -221 l37 -116 3 223 2 222 44 0 c80 0 126 -62 126 -170 0 -96 -47 -160
-116 -160 -39 0 -40 -3 -15 -38 10 -15 40 -72 65 -127 26 -55 57 -111 69 -123
40 -43 107 -66 121 -43 3 5 -10 25 -28 45 -19 19 -58 83 -88 142 -51 103 -52
107 -33 118 44 25 85 79 101 132 29 101 -13 206 -100 245 -32 14 -65 19 -148
19 -60 0 -108 -4 -108 -9z"/>
<path d="M3522 2998 c-77 -216 -95 -280 -81 -289 8 -5 17 -9 20 -9 7 0 29 56
55 143 10 31 21 54 24 50 4 -5 19 -47 34 -96 15 -48 29 -94 32 -102 5 -12 -5
-15 -56 -15 -100 0 -63 -35 40 -39 l36 -1 48 -143 c49 -145 55 -178 42 -209
-7 -16 0 -18 75 -18 l83 0 -26 28 c-29 30 -90 194 -208 555 -41 125 -77 227
-81 227 -4 0 -20 -37 -37 -82z"/>
<path d="M2948 3012 c-10 -2 -18 -7 -18 -12 0 -5 -12 -10 -27 -12 -30 -3 -31
-7 -14 -71 5 -21 10 -138 10 -260 1 -121 3 -222 4 -223 1 -1 19 -5 40 -9 l37
-7 0 106 0 106 41 0 c53 0 125 19 140 37 10 11 9 17 -3 29 -14 14 -18 14 -39
1 -30 -20 -91 -31 -118 -22 -20 6 -21 13 -21 139 0 146 6 162 54 150 16 -4 26
-2 26 5 0 16 -39 33 -66 28 -13 -2 -24 1 -26 7 -2 6 -11 10 -20 8z"/>
<path d="M4430 2885 c-37 -27 -80 -85 -146 -195 -34 -56 -63 -89 -114 -129
-63 -49 -87 -77 -76 -88 2 -2 33 12 68 32 68 37 105 44 114 21 5 -13 -14 -98
-31 -140 -7 -16 -6 -17 15 -6 12 6 21 8 18 3 -2 -4 -10 -20 -17 -35 -11 -22
-12 -30 -1 -43 19 -23 30 -18 30 15 0 21 8 35 25 46 50 33 87 115 126 284 25
109 47 170 61 170 20 0 -19 -256 -52 -343 -11 -28 -18 -53 -16 -55 9 -9 37 62
56 141 21 90 51 327 43 340 -10 16 -71 6 -103 -18z"/>
<path d="M3270 2461 c0 -134 -1 -141 -25 -169 -14 -17 -25 -33 -25 -36 0 -3
48 -6 106 -6 l106 0 -26 31 c-30 36 -32 59 -10 146 15 60 15 65 -1 83 -10 11
-21 18 -25 15 -4 -2 -17 -38 -29 -80 -30 -101 -39 -88 -12 15 24 88 23 93 -28
123 l-31 18 0 -140z"/>
<path d="M4089 2333 l-24 -26 33 23 c33 25 38 30 24 30 -5 0 -19 -12 -33 -27z"/>
<path d="M2882 2303 l-27 -28 37 -3 c21 -2 57 -2 80 0 l43 3 -27 28 c-16 15
-38 27 -53 27 -15 0 -37 -12 -53 -27z"/>
<path d="M4295 2280 c-13 -5 -14 -9 -5 -9 8 0 24 4 35 9 13 5 14 9 5 9 -8 0
-24 -4 -35 -9z"/>
<path d="M4228 2263 c6 -2 18 -2 25 0 6 3 1 5 -13 5 -14 0 -19 -2 -12 -5z"/>
<path d="M2350 2228 c140 -59 209 -112 232 -179 13 -38 29 -38 18 0 -23 81
-95 142 -209 177 -54 16 -77 17 -41 2z"/>
<path d="M4224 2216 c-52 -17 -127 -68 -154 -106 -12 -16 -23 -47 -26 -67 l-4
-38 11 30 c32 84 97 139 208 180 46 17 19 18 -35 1z"/>
<path d="M2914 1865 c3 -11 7 -29 10 -40 3 -11 12 -89 21 -173 l15 -153 -35
-146 c-20 -81 -40 -176 -45 -212 -14 -97 -12 -259 4 -343 18 -92 130 -458 157
-509 45 -89 104 -85 152 11 22 45 30 81 42 195 8 77 15 172 15 212 0 40 5 107
12 150 11 73 12 76 20 43 11 -45 23 -536 14 -582 -3 -19 -26 -66 -51 -104 -49
-76 -51 -84 -33 -161 11 -48 15 -53 40 -53 24 0 28 4 28 28 0 15 -4 43 -10 61
-8 29 -6 42 12 78 34 69 43 71 73 18 28 -47 28 -49 9 -152 -6 -32 -5 -33 28
-33 20 0 35 5 36 13 16 138 15 152 -10 182 -14 17 -36 50 -49 75 -23 44 -24
50 -22 280 3 449 25 495 48 100 15 -263 34 -350 85 -402 35 -34 50 -35 88 -3
41 34 96 187 166 458 61 237 55 403 -28 722 -20 75 -20 191 -1 319 8 55 13
101 11 103 -7 8 -34 -99 -46 -182 -6 -44 -15 -100 -20 -125 -5 -25 -17 -101
-26 -170 -9 -69 -28 -156 -41 -195 -47 -132 -72 -125 -73 20 -1 108 -11 97
-36 -37 -17 -94 -58 -193 -79 -193 -16 0 -23 97 -29 400 -10 464 -20 583 -37
442 l-5 -52 -9 53 c-13 89 -25 38 -25 -113 0 -189 -19 -695 -26 -718 -5 -15
-8 -16 -21 -6 -33 28 -67 128 -89 269 -7 44 -8 44 -15 15 -3 -16 -7 -57 -8
-90 -4 -173 -70 -65 -110 180 -12 72 -29 177 -37 235 -22 144 -42 239 -59 275
-8 17 -13 21 -11 10z m815 -933 c1 -116 -23 -248 -68 -372 -25 -69 -26 -48 -6
129 28 242 35 273 30 136 -3 -88 -1 -111 6 -85 5 19 13 114 16 210 8 193 21
183 22 -18z m-794 100 c-7 -83 8 -287 25 -337 8 -25 9 -21 5 25 -11 141 -17
255 -12 250 9 -8 48 -378 45 -423 -3 -39 -5 -34 -36 68 -42 141 -52 207 -52
331 0 110 7 164 22 164 5 0 6 -33 3 -78z m279 -265 c9 -56 -10 -292 -30 -380
-10 -41 -25 -79 -40 -95 l-24 -27 -20 23 c-29 34 -41 85 -47 190 -7 115 10
199 49 253 25 35 81 79 99 79 4 0 10 -20 13 -43z m286 11 c74 -50 111 -189 91
-338 -11 -77 -44 -170 -61 -170 -16 0 -41 40 -60 95 -21 60 -40 222 -40 337 0
105 10 116 70 76z"/>
<path d="M2920 253 c0 -21 78 -129 113 -156 40 -31 114 -66 137 -67 20 0 1 14
-40 30 -62 24 -132 82 -171 143 -22 33 -39 56 -39 50z"/>
<path d="M3675 185 c-43 -59 -81 -90 -160 -129 -64 -32 -36 -33 32 -2 59 28
118 84 151 144 13 23 22 42 20 42 -2 0 -21 -25 -43 -55z"/>
</g>
</svg>
