<?xml version="1.0" standalone="no"?>
<!DOCTYPE svg PUBLIC "-//W3C//DTD SVG 20010904//EN"
 "http://www.w3.org/TR/2001/REC-SVG-20010904/DTD/svg10.dtd">
<svg version="1.0" xmlns="http://www.w3.org/2000/svg"
 width="821.000000pt" height="530.000000pt" viewBox="0 0 821.000000 530.000000"
 preserveAspectRatio="xMidYMid meet">
<metadata>
Created by potrace 1.16, written by Peter Selinger 2001-2019
</metadata>
<g transform="translate(0.000000,530.000000) scale(0.100000,-0.100000)"
fill="#000000" stroke="none">
<path d="M6127 5080 c-18 -14 -29 -37 -37 -76 -52 -250 -198 -471 -396 -596
-197 -125 -417 -187 -719 -204 -63 -4 -115 -11 -115 -16 0 -5 9 -6 20 -3 11 4
40 -1 65 -10 78 -30 322 1 523 66 35 12 66 19 69 16 3 -3 -6 -26 -20 -51 -16
-29 -20 -43 -11 -39 9 3 14 -2 14 -16 0 -12 11 -33 25 -47 20 -20 33 -25 67
-22 25 2 45 10 52 20 14 23 -1 36 -17 14 -30 -41 -104 21 -89 76 7 27 60 68
89 68 40 0 93 -30 110 -63 22 -43 13 -120 -18 -153 -88 -94 -235 -88 -488 20
-42 19 -93 36 -112 40 -32 5 -33 5 -6 -5 15 -6 27 -15 27 -20 0 -4 7 -6 15 -3
8 4 15 1 15 -6 0 -6 4 -9 9 -5 6 3 19 -4 30 -16 12 -13 26 -19 36 -15 9 3 14
2 11 -3 -12 -19 221 -91 295 -91 53 0 134 27 169 56 44 38 58 70 75 181 8 54
20 115 25 136 6 20 8 42 5 47 -4 6 -3 9 2 8 5 -2 25 14 46 34 26 27 56 43 104
57 41 12 82 33 103 51 l35 31 -36 -25 c-19 -14 -66 -35 -103 -46 -44 -14 -81
-34 -108 -58 -28 -25 -38 -30 -30 -16 14 26 67 72 99 87 13 6 23 14 23 19 0
15 -61 -24 -105 -67 -39 -39 -61 -89 -80 -185 l-7 -34 -19 22 c-23 29 -78 52
-126 53 -33 0 -36 2 -19 12 203 128 241 159 318 261 95 126 157 271 193 449 7
33 31 45 51 25 19 -19 43 -156 45 -258 1 -44 5 -77 10 -74 5 3 9 0 9 -5 0 -6
-7 -11 -15 -11 -10 0 -15 -10 -15 -29 0 -16 -7 -65 -15 -110 -73 -383 -375
-694 -827 -851 -54 -19 -98 -38 -98 -42 0 -4 15 -1 33 6 55 23 80 29 73 18
-11 -19 28 -18 86 1 146 48 327 159 454 279 173 164 272 340 319 570 17 86 14
429 -4 490 -11 36 -52 78 -76 78 -7 0 -24 -9 -38 -20z m-1154 -897 c-7 -2 -19
-2 -25 0 -7 3 -2 5 12 5 14 0 19 -2 13 -5z"/>
<path d="M5976 4349 c-35 -27 -48 -56 -76 -159 -28 -108 -60 -170 -118 -233
-29 -30 -38 -45 -25 -38 25 13 92 98 115 146 8 17 27 71 43 120 15 50 33 102
41 117 18 34 67 61 97 53 17 -5 19 -4 7 4 -24 17 -55 13 -84 -10z"/>
<path d="M2880 4289 c-30 -10 -111 -48 -180 -83 -142 -73 -201 -93 -305 -102
-70 -6 -76 -5 -147 30 -59 29 -93 39 -164 46 -129 13 -545 33 -551 26 -4 -3
13 -6 37 -6 40 0 42 -1 25 -14 -18 -13 -17 -13 6 -12 13 1 29 -2 36 -6 6 -5
91 -13 190 -18 257 -14 349 -27 387 -55 18 -14 17 -16 -24 -61 -100 -109 -136
-266 -108 -468 2 -15 -5 -21 -31 -27 -41 -9 -61 -2 -61 19 0 14 -2 14 -13 -1
-11 -17 -18 -16 -105 6 -51 14 -115 39 -143 56 -60 37 -79 41 -26 6 37 -26 48
-38 25 -30 -7 3 -26 1 -43 -4 l-30 -8 38 -16 c20 -9 37 -21 37 -26 0 -6 8 -11
18 -11 14 0 15 2 2 10 -17 11 -14 12 39 14 22 0 37 -3 34 -7 -3 -5 -14 -7 -24
-4 -10 3 -22 0 -26 -5 -3 -7 -1 -8 5 -4 7 4 12 3 12 -2 0 -5 35 -15 78 -22
150 -25 190 -26 238 -11 41 13 49 13 72 -2 15 -8 37 -35 50 -59 19 -35 23 -55
20 -103 -5 -75 -26 -117 -114 -226 -37 -46 -77 -107 -90 -136 -24 -54 -29
-129 -8 -137 9 -4 10 3 3 27 -12 41 -12 40 5 34 9 -4 25 15 47 56 18 34 61 96
95 137 64 78 148 224 140 244 -3 7 -5 7 -5 -1 -2 -29 -21 -10 -21 20 0 87 -44
164 -110 193 -53 24 -70 62 -70 157 0 130 61 272 139 324 28 19 48 23 106 23
39 0 104 8 143 19 40 10 72 15 72 10 0 -4 -13 -23 -28 -41 -91 -106 -108 -210
-61 -371 54 -182 33 -246 -139 -439 -46 -51 -92 -110 -103 -130 -22 -44 -25
-116 -5 -144 13 -17 13 -14 3 22 -17 66 7 112 128 244 126 137 166 209 168
297 0 32 -3 68 -7 81 -12 37 12 26 76 -35 67 -65 86 -96 103 -168 7 -27 13
-41 14 -29 1 11 -6 44 -15 73 -12 43 -31 70 -98 140 -46 47 -92 104 -103 126
-24 47 -39 135 -24 135 5 0 12 -12 14 -27 2 -17 5 -8 6 22 2 60 29 123 77 182
43 53 56 55 38 6 -46 -131 28 -263 148 -263 41 0 54 5 79 29 16 16 29 35 29
42 0 6 -12 0 -26 -14 -52 -52 -128 -40 -180 28 -34 45 -40 91 -20 159 32 109
122 166 262 166 84 0 156 -25 211 -74 49 -43 103 -119 103 -145 0 -8 -13 5
-28 30 -32 50 -96 110 -141 133 -54 28 -46 17 18 -24 35 -23 75 -59 94 -87 17
-26 39 -54 47 -63 18 -20 19 -24 29 -108 13 -107 -14 -202 -78 -276 -24 -27
-86 -56 -121 -56 -90 0 -156 93 -106 149 20 22 42 21 79 -3 40 -27 55 20 15
48 -33 24 -64 19 -100 -13 -29 -26 -33 -36 -33 -79 0 -40 5 -56 25 -77 36 -39
73 -55 125 -55 117 0 217 116 234 271 24 230 -109 420 -323 460 -33 6 -72 9
-88 7 -46 -7 -32 9 27 31 72 27 161 27 245 0 36 -11 104 -23 151 -26 73 -5 99
-2 175 20 109 31 146 39 190 39 19 0 31 4 28 9 -9 15 28 10 100 -16 38 -13 65
-20 60 -15 -5 5 -43 21 -84 35 -95 32 -172 32 -296 0 -53 -14 -120 -25 -149
-25 -29 0 -96 11 -149 25 -118 31 -217 32 -296 4z m-920 -763 c0 -2 -9 -6 -20
-9 -11 -3 -20 -1 -20 4 0 5 9 9 20 9 11 0 20 -2 20 -4z"/>
<path d="M1265 4260 c11 -5 27 -9 35 -9 9 0 8 4 -5 9 -11 5 -27 9 -35 9 -9 0
-8 -4 5 -9z"/>
<path d="M1335 4240 c11 -5 29 -8 40 -8 16 0 15 2 -5 8 -34 11 -60 11 -35 0z"/>
<path d="M1418 4223 c7 -3 16 -2 19 1 4 3 -2 6 -13 5 -11 0 -14 -3 -6 -6z"/>
<path d="M1473 4213 c9 -2 23 -2 30 0 6 3 -1 5 -18 5 -16 0 -22 -2 -12 -5z"/>
<path d="M3587 4176 c-92 -38 -153 -99 -200 -196 -26 -53 -32 -80 -35 -152 -5
-106 8 -164 54 -240 46 -75 109 -118 176 -118 88 0 148 49 155 127 5 43 2 52
-25 81 -20 22 -39 32 -59 32 -57 0 -94 -50 -58 -80 13 -11 14 -10 10 1 -6 17
49 44 66 33 8 -4 9 -3 5 4 -4 7 -3 12 2 12 5 0 17 -15 27 -34 16 -29 17 -38 5
-65 -7 -17 -26 -43 -43 -57 -85 -72 -240 29 -278 182 -34 133 49 314 179 391
52 31 55 40 5 14 -40 -20 -105 -84 -143 -139 -32 -48 -37 -31 -6 22 56 95 147
158 258 176 37 7 70 15 73 19 2 4 -22 8 -53 9 -40 2 -74 -5 -115 -22z"/>
<path d="M1548 4183 c7 -3 16 -2 19 1 4 3 -2 6 -13 5 -11 0 -14 -3 -6 -6z"/>
<path d="M3977 4179 c7 -7 15 -10 18 -7 3 3 -2 9 -12 12 -14 6 -15 5 -6 -5z"/>
<path d="M4693 4183 c9 -2 25 -2 35 0 9 3 1 5 -18 5 -19 0 -27 -2 -17 -5z"/>
<path d="M4533 4173 c15 -2 37 -2 50 0 12 2 0 4 -28 4 -27 0 -38 -2 -22 -4z"/>
<path d="M1690 4119 c0 -5 10 -9 23 -10 89 -3 166 -32 215 -81 38 -37 47 -55
43 -81 -1 -4 -3 -81 -5 -170 -3 -123 -2 -140 4 -72 4 50 13 110 20 135 15 57
60 148 97 197 23 32 24 35 5 18 -13 -10 -35 -41 -50 -67 -15 -26 -29 -48 -32
-48 -3 0 -18 20 -34 45 -33 53 -73 86 -137 114 -47 20 -149 34 -149 20z"/>
<path d="M1568 4113 c6 -2 18 -2 25 0 6 3 1 5 -13 5 -14 0 -19 -2 -12 -5z"/>
<path d="M5370 4100 c-20 -6 -21 -8 -5 -8 11 0 29 3 40 8 25 11 -1 11 -35 0z"/>
<path d="M1425 4076 c-48 -22 -49 -23 -18 -22 18 1 33 4 33 9 0 4 6 7 13 7 6
0 21 7 31 15 31 23 -1 18 -59 -9z"/>
<path d="M4238 4093 c6 -2 18 -2 25 0 6 3 1 5 -13 5 -14 0 -19 -2 -12 -5z"/>
<path d="M2878 4083 c12 -2 32 -2 45 0 12 2 2 4 -23 4 -25 0 -35 -2 -22 -4z"/>
<path d="M3718 4083 c12 -2 32 -2 45 0 12 2 2 4 -23 4 -25 0 -35 -2 -22 -4z"/>
<path d="M2958 4073 c7 -3 16 -2 19 1 4 3 -2 6 -13 5 -11 0 -14 -3 -6 -6z"/>
<path d="M3668 4073 c7 -3 16 -2 19 1 4 3 -2 6 -13 5 -11 0 -14 -3 -6 -6z"/>
<path d="M3036 4041 c63 -36 109 -88 143 -161 21 -45 26 -70 26 -137 0 -45 3
-75 7 -65 12 31 8 107 -8 163 -28 96 -86 169 -171 212 -53 28 -51 19 3 -12z"/>
<path d="M3605 4053 c-53 -27 -123 -104 -149 -163 -32 -70 -42 -159 -26 -219
15 -57 21 -49 7 12 -30 131 53 298 183 367 19 11 31 19 25 19 -5 0 -23 -7 -40
-16z"/>
<path d="M1605 4036 c-42 -13 -125 -54 -125 -61 0 -2 26 8 58 22 31 15 80 32
107 39 28 7 39 12 25 12 -14 1 -43 -5 -65 -12z"/>
<path d="M1828 4031 c28 -10 62 -27 74 -37 22 -19 22 -19 8 0 -18 22 -86 56
-115 55 -11 0 4 -8 33 -18z"/>
<path d="M1320 4030 c-8 -5 -10 -10 -5 -10 6 0 17 5 25 10 8 5 11 10 5 10 -5
0 -17 -5 -25 -10z"/>
<path d="M5060 4020 c8 -5 20 -10 25 -10 6 0 3 5 -5 10 -8 5 -19 10 -25 10 -5
0 -3 -5 5 -10z"/>
<path d="M1260 4010 c-18 -12 -2 -12 25 0 13 6 15 9 5 9 -8 0 -22 -4 -30 -9z"/>
<path d="M5180 3965 c0 -7 121 -67 126 -63 2 2 -26 18 -61 36 -36 17 -65 30
-65 27z"/>
<path d="M1423 3950 c-13 -5 -23 -12 -23 -15 0 -9 16 -5 36 10 22 16 19 18
-13 5z"/>
<path d="M1675 3926 c-17 -7 -43 -28 -58 -45 -25 -31 -46 -96 -33 -108 3 -4 6
4 6 16 0 36 38 100 70 116 33 17 102 20 130 5 18 -10 45 -70 31 -70 -4 0 -8
-7 -8 -15 0 -23 21 -12 25 13 5 30 -14 60 -51 82 -37 23 -70 25 -112 6z"/>
<path d="M4903 3933 c9 -2 25 -2 35 0 9 3 1 5 -18 5 -19 0 -27 -2 -17 -5z"/>
<path d="M5385 3874 c66 -25 191 -29 259 -10 73 21 70 29 -4 10 -69 -18 -139
-18 -215 1 -76 18 -91 18 -40 -1z"/>
<path d="M1776 3805 c-11 -8 -15 -15 -9 -15 6 0 16 7 23 15 16 19 11 19 -14 0z"/>
<path d="M3830 3770 c0 -5 5 -10 10 -10 6 0 10 5 10 10 0 6 -4 10 -10 10 -5 0
-10 -4 -10 -10z"/>
<path d="M3867 3768 c6 -10 35 -10 51 0 8 5 -1 8 -22 8 -19 -1 -32 -4 -29 -8z"/>
<path d="M2350 3705 c30 -30 57 -55 59 -55 3 0 -19 25 -49 55 -30 30 -57 55
-59 55 -3 0 19 -25 49 -55z"/>
<path d="M2325 3700 c10 -11 20 -20 23 -20 3 0 -3 9 -13 20 -10 11 -20 20 -23
20 -3 0 3 -9 13 -20z"/>
<path d="M2530 3703 c0 -5 10 -18 23 -29 l22 -19 -20 25 c-11 14 -21 27 -22
29 -2 2 -3 0 -3 -6z"/>
<path d="M4269 3693 c-13 -16 -12 -17 4 -4 9 7 17 15 17 17 0 8 -8 3 -21 -13z"/>
<path d="M2570 3647 c0 -2 15 -16 33 -33 l32 -29 -29 33 c-28 30 -36 37 -36
29z"/>
<path d="M3186 3633 c-6 -14 -5 -15 5 -6 7 7 10 15 7 18 -3 3 -9 -2 -12 -12z"/>
<path d="M4070 3625 c-13 -14 -21 -25 -18 -25 10 0 51 40 46 45 -2 3 -15 -6
-28 -20z"/>
<path d="M5218 3643 c7 -3 16 -2 19 1 4 3 -2 6 -13 5 -11 0 -14 -3 -6 -6z"/>
<path d="M5168 3633 c6 -2 18 -2 25 0 6 3 1 5 -13 5 -14 0 -19 -2 -12 -5z"/>
<path d="M1498 3623 c7 -3 16 -2 19 1 4 3 -2 6 -13 5 -11 0 -14 -3 -6 -6z"/>
<path d="M5060 3610 c-20 -6 -21 -8 -5 -8 11 0 29 3 40 8 25 11 -1 11 -35 0z"/>
<path d="M1578 3603 c7 -3 16 -2 19 1 4 3 -2 6 -13 5 -11 0 -14 -3 -6 -6z"/>
<path d="M1971 3594 c0 -11 3 -14 6 -6 3 7 2 16 -1 19 -3 4 -6 -2 -5 -13z"/>
<path d="M3139 3564 c-9 -8 -34 -22 -55 -29 -21 -8 -31 -14 -21 -15 23 0 69
24 86 44 17 21 10 21 -10 0z"/>
<path d="M2660 3566 c0 -2 8 -10 18 -17 15 -13 16 -12 3 4 -13 16 -21 21 -21
13z"/>
<path d="M3999 3553 c-8 -10 -19 -25 -24 -33 -9 -14 -9 -14 5 0 8 8 23 23 33
33 10 9 14 17 9 17 -5 0 -15 -8 -23 -17z"/>
<path d="M2318 3525 c5 -11 12 -27 15 -35 5 -13 6 -13 6 1 1 8 -6 24 -15 35
-15 19 -15 19 -6 -1z"/>
<path d="M2700 3516 c0 -2 8 -10 18 -17 15 -13 16 -12 3 4 -13 16 -21 21 -21
13z"/>
<path d="M2342 3450 c-1 -14 -5 -43 -7 -65 -5 -35 -4 -37 5 -15 6 13 9 42 7
65 -2 22 -4 29 -5 15z"/>
<path d="M2563 3358 c-18 -24 -22 -47 -12 -76 25 -72 145 -66 184 8 19 38 19
64 -1 28 -8 -16 -19 -28 -25 -28 -6 0 -7 6 -3 13 4 6 -3 2 -14 -10 -31 -31
-59 -37 -87 -19 -17 11 -25 26 -25 46 0 17 5 30 11 30 5 0 7 5 4 10 -8 14 -21
13 -32 -2z"/>
<path d="M3000 3298 c0 -18 -3 -50 -6 -70 l-7 -37 41 38 c45 43 73 51 178 51
l74 0 0 -229 0 -228 40 -27 40 -26 1 162 c0 90 0 205 -1 256 -1 69 2 92 12 93
49 4 176 -5 193 -13 11 -6 34 -23 50 -39 l30 -28 -3 64 -4 65 -319 0 -319 0 0
-32z"/>
<path d="M4290 3216 c0 -2 8 -10 18 -17 15 -13 16 -12 3 4 -13 16 -21 21 -21
13z"/>
<path d="M3173 3135 c-68 -41 -88 -84 -88 -190 0 -67 5 -99 18 -126 26 -53 99
-122 202 -192 50 -34 115 -86 146 -117 46 -45 59 -67 78 -126 20 -62 21 -78
12 -127 -21 -115 -79 -180 -178 -198 -115 -22 -210 35 -271 162 l-30 63 1
-111 2 -111 28 5 c18 4 48 -4 89 -22 49 -22 77 -28 138 -28 43 0 92 5 111 13
146 58 219 198 190 359 -23 121 -85 203 -236 309 -164 115 -202 149 -234 214
-36 72 -38 84 -11 98 11 6 20 16 20 24 0 7 16 31 35 53 32 38 46 73 28 73 -5
0 -27 -11 -50 -25z"/>
<path d="M3409 3122 c5 -15 18 -46 29 -67 l21 -40 1 35 c0 19 4 50 9 68 l10
32 -39 0 c-38 0 -38 -1 -31 -28z"/>
<path d="M2859 3081 c-140 -44 -229 -183 -229 -360 0 -171 84 -297 228 -341
81 -25 127 -25 205 1 72 24 84 33 97 78 l9 32 -39 -35 c-48 -43 -132 -70 -187
-60 -105 19 -181 88 -207 191 -50 192 15 405 141 459 42 18 135 24 171 11 20
-8 23 -6 20 10 -3 16 -14 18 -93 20 -50 1 -102 -2 -116 -6z"/>
<path d="M3664 3068 c12 -17 16 -48 16 -129 0 -110 15 -183 32 -157 6 8 7 4 3
-13 -4 -14 0 -41 9 -60 l14 -34 3 50 c6 124 6 344 0 341 -4 -3 -13 -1 -20 3
-7 5 18 8 57 7 39 0 66 -3 61 -6 -4 -3 6 -11 24 -18 29 -10 30 -10 13 3 -20
15 -20 15 0 16 18 0 18 1 -1 8 -11 5 -67 9 -123 10 l-104 2 16 -23z m54 -20
c-2 -6 -10 -14 -16 -16 -7 -2 -10 2 -6 12 7 18 28 22 22 4z"/>
<path d="M3496 2903 c-60 -179 -63 -193 -43 -193 7 0 27 42 46 100 18 55 36
100 40 100 9 0 80 -228 73 -235 -3 -3 -30 -5 -59 -5 -34 0 -52 -4 -48 -10 3
-5 32 -10 64 -10 l58 0 33 -92 c69 -191 79 -234 65 -262 l-13 -25 75 0 75 1
-20 21 c-31 33 -51 87 -168 440 -59 177 -110 326 -114 330 -4 4 -32 -68 -64
-160z"/>
<path d="M3900 3066 c0 -2 12 -12 28 -21 l27 -18 -19 21 c-17 20 -36 29 -36
18z"/>
<path d="M3165 3000 c-8 -13 24 -107 42 -122 10 -8 13 -1 13 33 0 65 -35 121
-55 89z"/>
<path d="M2925 2968 c-6 -19 -8 -20 -12 -5 -2 9 -11 17 -20 17 -12 0 -13 -5
-7 -22 4 -13 10 -133 11 -268 4 -257 4 -260 50 -260 21 0 22 4 25 103 l3 102
73 6 c79 8 138 34 110 50 -10 6 -29 3 -52 -6 -44 -19 -125 -20 -128 -2 -1 6
-2 77 -3 157 0 140 -1 145 -21 148 -15 2 -24 -4 -29 -20z"/>
<path d="M3975 2963 c-11 -25 -13 -53 -4 -58 4 -3 9 12 11 33 6 43 4 50 -7 25z"/>
<path d="M4339 2893 c-13 -16 -12 -17 4 -4 16 13 21 21 13 21 -2 0 -10 -8 -17
-17z"/>
<path d="M2136 2873 c16 -16 25 -25 20 -20 -6 4 -16 7 -24 7 -9 0 -4 -8 11
-20 15 -12 29 -36 33 -55 8 -46 27 -45 21 0 -3 19 -1 35 5 35 5 0 7 4 4 8 -2
4 3 8 12 8 10 0 29 -14 42 -30 14 -17 21 -28 15 -24 -5 3 -21 1 -35 -4 -24 -9
-24 -10 -7 -23 11 -7 25 -11 33 -8 9 3 14 -1 14 -12 0 -9 -4 -14 -10 -10 -14
9 -61 -6 -54 -17 11 -17 10 -52 0 -60 -13 -9 20 -141 47 -186 23 -41 106 -132
118 -132 5 0 4 12 -1 26 -14 35 -12 44 5 38 12 -5 11 2 -5 37 -11 24 -20 61
-20 82 0 31 3 37 22 37 11 0 50 -16 85 -36 61 -34 83 -39 68 -15 -3 6 -38 36
-76 67 -45 36 -79 73 -97 105 -87 161 -152 229 -220 229 l-35 0 29 -27z m169
-133 c3 -5 1 -10 -4 -10 -6 0 -11 5 -11 10 0 6 2 10 4 10 3 0 8 -4 11 -10z
m-12 -65 c-3 -9 -8 -14 -10 -11 -3 3 -2 9 2 15 9 16 15 13 8 -4z m7 -55 c13 0
17 -5 13 -20 -5 -17 0 -20 33 -21 32 -2 34 -3 10 -6 -17 -3 -30 -12 -33 -24
-3 -10 -10 -19 -17 -19 -6 0 2 -11 17 -25 32 -30 32 -30 10 -33 -10 -1 -27 -3
-38 -4 -22 -3 -25 14 -12 64 6 23 5 26 -10 21 -13 -5 -15 -2 -10 11 4 10 7 20
7 22 0 3 4 3 9 0 5 -3 11 1 15 9 4 11 -2 15 -19 15 -14 0 -25 5 -25 11 0 6 7
8 16 5 9 -3 24 -6 34 -6z m-56 -45 c3 -8 1 -15 -4 -15 -6 0 -10 7 -10 15 0 8
2 15 4 15 2 0 6 -7 10 -15z m104 -60 c-3 -3 -9 2 -12 12 -6 14 -5 15 5 6 7 -7
10 -15 7 -18z m-8 -99 c0 -3 -4 -8 -10 -11 -5 -3 -10 -1 -10 4 0 6 5 11 10 11
6 0 10 -2 10 -4z"/>
<path d="M3982 2885 c-11 -12 -10 -15 3 -15 8 0 15 7 15 15 0 18 -2 18 -18 0z"/>
<path d="M3955 2850 c-3 -5 -1 -10 4 -10 17 0 13 -27 -5 -34 -23 -9 -31 -7
-15 3 8 5 10 14 6 21 -6 9 -15 -1 -31 -32 -24 -47 -70 -78 -114 -78 -18 0 -20
-3 -11 -14 6 -7 32 -55 57 -105 24 -50 47 -91 50 -91 3 0 2 5 -1 10 -9 14 8
13 23 -2 8 -8 12 -9 12 -1 0 6 -12 16 -27 21 -18 7 -22 11 -10 11 9 1 17 6 17
12 0 6 -9 8 -20 4 -14 -4 -20 -2 -20 8 0 19 31 17 47 -3 20 -24 15 -3 -12 50
-28 55 -36 62 -30 28 4 -22 4 -22 -10 -4 -8 11 -15 24 -15 29 0 4 -6 5 -12 2
-7 -4 -2 3 12 14 14 11 33 23 43 27 9 3 17 10 17 15 0 5 6 9 13 9 15 0 67 80
67 104 0 17 -25 22 -35 6z"/>
<path d="M2191 2724 c0 -11 3 -14 6 -6 3 7 2 16 -1 19 -3 4 -6 -2 -5 -13z"/>
<path d="M2200 2681 c0 -25 6 -27 13 -6 4 8 2 17 -3 20 -6 4 -10 -3 -10 -14z"/>
<path d="M2142 2650 c0 -19 2 -27 5 -17 2 9 2 25 0 35 -3 9 -5 1 -5 -18z"/>
<path d="M4250 2625 c-7 -9 -8 -15 -2 -15 5 0 12 7 16 15 3 8 4 15 2 15 -2 0
-9 -7 -16 -15z"/>
<path d="M2152 2580 c0 -14 2 -19 5 -12 2 6 2 18 0 25 -3 6 -5 1 -5 -13z"/>
<path d="M4203 2574 l-28 -25 33 22 c17 13 32 24 32 26 0 8 -11 1 -37 -23z"/>
<path d="M3272 2447 c-3 -128 -6 -144 -25 -164 l-20 -23 96 0 c97 0 97 0 77
20 -30 30 -33 62 -12 139 18 67 18 71 2 86 -21 19 -22 18 -45 -67 -11 -42 -23
-68 -31 -68 -18 0 -18 8 8 96 l23 76 -28 24 c-16 13 -31 24 -35 24 -4 0 -8
-64 -10 -143z"/>
<path d="M2160 2534 c0 -10 5 -26 10 -34 8 -11 9 -7 4 15 -8 37 -14 45 -14 19z"/>
<path d="M4134 2518 l-29 -33 33 29 c17 17 32 31 32 33 0 8 -8 1 -36 -29z"/>
<path d="M2887 2302 c-10 -10 -17 -20 -17 -23 0 -2 30 -2 66 -1 64 4 65 4 48
23 -22 24 -76 25 -97 1z"/>
<path d="M2190 2295 c18 -21 120 -98 124 -93 2 1 -29 27 -68 57 -39 30 -64 46
-56 36z"/>
<path d="M2640 2235 c13 -14 26 -25 28 -25 3 0 -5 11 -18 25 -13 14 -26 25
-28 25 -3 0 5 -11 18 -25z"/>
<path d="M2350 2175 c13 -14 26 -25 28 -25 3 0 -5 11 -18 25 -13 14 -26 25
-28 25 -3 0 5 -11 18 -25z"/>
<path d="M2658 2141 c64 -63 112 -144 112 -191 0 -19 2 -22 10 -10 6 10 10 -4
13 -45 l3 -60 2 62 c3 90 -27 164 -92 226 -28 27 -64 56 -81 64 -22 12 -13 -1
33 -46z"/>
<path d="M2690 2193 c0 -5 16 -25 37 -44 l36 -34 -21 31 c-24 36 -52 61 -52
47z"/>
<path d="M3968 2155 c-41 -30 -76 -72 -66 -79 2 -2 29 23 62 55 32 33 57 59
55 59 -2 0 -25 -16 -51 -35z"/>
<path d="M2546 2119 c16 -20 31 -34 33 -32 3 2 -10 18 -29 36 l-34 32 30 -36z"/>
<path d="M2800 2050 c6 -11 13 -20 16 -20 2 0 0 9 -6 20 -6 11 -13 20 -16 20
-2 0 0 -9 6 -20z"/>
<path d="M3808 2005 c-17 -37 -29 -68 -27 -70 3 -2 18 28 36 66 17 38 29 69
27 69 -3 0 -19 -29 -36 -65z"/>
<path d="M2460 2011 c0 -6 4 -13 10 -16 6 -3 7 1 4 9 -7 18 -14 21 -14 7z"/>
<path d="M2821 2015 c0 -5 9 -28 20 -50 10 -22 16 -29 13 -15 -7 28 -33 80
-33 65z"/>
<path d="M2868 1875 c11 -75 7 -224 -7 -275 -8 -27 -28 -59 -52 -84 -22 -21
-37 -41 -35 -43 7 -8 65 58 89 102 20 36 22 54 22 170 -1 79 -6 140 -13 155
-10 21 -11 18 -4 -25z"/>
<path d="M3771 1903 c0 -6 -4 -20 -7 -30 -5 -14 -4 -15 5 -7 7 7 11 20 8 30
-3 11 -5 14 -6 7z"/>
<path d="M3761 1834 c0 -11 3 -14 6 -6 3 7 2 16 -1 19 -3 4 -6 -2 -5 -13z"/>
<path d="M3300 1764 c-1 -52 -6 -242 -18 -585 -4 -131 -3 -212 3 -225 10 -18
56 -26 70 -12 4 4 15 -2 25 -12 17 -17 19 -37 19 -188 1 -180 13 -308 36 -382
33 -110 72 -147 121 -116 43 29 109 200 83 217 -10 6 -10 30 -1 116 28 281 46
413 54 401 12 -19 10 90 -2 113 -7 13 -7 19 0 19 5 0 10 7 10 16 0 32 25 6 28
-29 2 -20 8 -37 14 -37 6 0 8 9 5 20 -3 12 -1 18 5 14 16 -10 1 100 -32 241
-15 66 -31 145 -35 175 -6 41 -10 50 -15 35 -16 -42 -29 -103 -41 -190 -20
-152 -71 -293 -103 -282 -6 2 -16 37 -21 78 l-10 74 -14 -75 c-24 -127 -72
-213 -102 -183 -5 5 -14 194 -21 420 -7 227 -16 409 -20 407 -4 -3 -8 -28 -8
-55 0 -66 -16 -55 -19 13 -3 68 -11 76 -11 12z m196 -976 c51 -39 72 -70 88
-128 38 -136 1 -390 -58 -390 -35 0 -73 88 -86 199 -19 158 -21 198 -14 269 7
81 19 89 70 50z"/>
<path d="M2633 1783 c9 -2 23 -2 30 0 6 3 -1 5 -18 5 -16 0 -22 -2 -12 -5z"/>
<path d="M2732 1706 c-23 -45 -42 -87 -41 -92 0 -5 20 31 45 80 25 48 44 90
42 92 -3 2 -23 -34 -46 -80z"/>
<path d="M3998 1783 c7 -3 16 -2 19 1 4 3 -2 6 -13 5 -11 0 -14 -3 -6 -6z"/>
<path d="M2945 1745 c3 -22 5 -65 6 -95 1 -43 2 -49 9 -29 4 14 3 53 -2 85
-10 68 -21 99 -13 39z"/>
<path d="M3686 1733 c-4 -21 -9 -51 -12 -68 -4 -20 -3 -27 4 -20 9 10 26 125
18 125 -2 0 -7 -17 -10 -37z"/>
<path d="M2967 1505 c-5 -53 -4 -72 6 -80 8 -5 16 -17 20 -25 10 -26 6 32 -7
105 l-12 70 -7 -70z m10 -67 c-3 -8 -6 -5 -6 6 -1 11 2 17 5 13 3 -3 4 -12 1
-19z"/>
<path d="M4105 1376 c-10 -17 -42 -63 -71 -102 -50 -67 -124 -204 -124 -231 0
-6 -6 -16 -14 -20 -7 -4 -16 -15 -20 -23 -3 -8 -4 -2 -2 15 5 34 -22 216 -34
228 -8 9 -6 -12 10 -131 5 -40 10 -105 10 -143 0 -79 -32 -290 -61 -399 -31
-119 -46 -210 -48 -300 -1 -45 -9 -100 -17 -120 -17 -42 -73 -91 -143 -126
l-46 -23 63 0 64 -1 52 53 c60 62 76 104 76 203 0 64 13 159 40 279 32 147 48
250 39 253 -15 6 -11 52 5 52 8 0 17 14 21 33 20 100 97 283 146 346 10 13 16
27 13 32 -3 5 1 9 10 9 31 0 83 116 61 137 -9 8 -16 3 -30 -21z"/>
<path d="M2945 1390 c-3 -5 -1 -10 4 -10 6 0 11 5 11 10 0 6 -2 10 -4 10 -3 0
-8 -4 -11 -10z"/>
<path d="M3986 1388 c3 -4 9 -8 15 -8 5 0 9 4 9 8 0 5 -7 9 -15 9 -8 0 -12 -4
-9 -9z"/>
<path d="M3829 1372 c5 -10 18 -25 27 -33 11 -9 9 -2 -6 19 -26 35 -36 42 -21
14z"/>
<path d="M2806 1363 c-6 -14 -5 -15 5 -6 7 7 10 15 7 18 -3 3 -9 -2 -12 -12z"/>
<path d="M2994 1355 c3 -16 10 -43 16 -60 8 -25 8 -21 3 20 -3 28 -10 55 -15
60 -6 6 -7 -1 -4 -20z"/>
<path d="M3980 1350 c-6 -11 -8 -20 -6 -20 3 0 10 9 16 20 6 11 8 20 6 20 -3
0 -10 -9 -16 -20z"/>
<path d="M2573 1300 c1 -11 6 -20 12 -20 5 0 20 -16 33 -36 13 -20 26 -34 28
-31 5 5 -64 107 -71 107 -2 0 -3 -9 -2 -20z"/>
<path d="M2921 1294 c0 -11 3 -14 6 -6 3 7 2 16 -1 19 -3 4 -6 -2 -5 -13z"/>
<path d="M3142 1200 c1 -56 -11 -118 -24 -126 -5 -3 -18 2 -29 12 -18 16 -19
16 -13 1 3 -9 10 -17 15 -17 17 0 9 -28 -8 -33 -11 -2 1 -9 30 -18 26 -7 47
-17 47 -21 0 -4 9 -8 19 -8 32 0 35 -20 4 -21 -23 -2 -24 -2 -5 -6 12 -2 22
-8 22 -13 0 -11 59 -10 66 2 3 4 -4 8 -15 8 -31 0 -83 129 -105 260 -2 14 -4
5 -4 -20z m28 -135 c0 -9 -6 -12 -15 -9 -8 4 -15 1 -15 -5 0 -6 -7 -11 -16
-11 -23 0 -11 24 14 28 13 2 19 8 16 14 -4 7 -2 8 4 4 7 -4 12 -14 12 -21z"/>
<path d="M2597 1209 c7 -7 15 -10 18 -7 3 3 -2 9 -12 12 -14 6 -15 5 -6 -5z"/>
<path d="M2652 1115 c12 -26 23 -31 33 -15 3 6 -1 10 -9 10 -9 0 -16 7 -16 15
0 8 -4 15 -10 15 -6 0 -5 -10 2 -25z"/>
<path d="M3743 918 c0 -39 4 -65 9 -61 6 3 8 14 5 24 -3 11 -1 17 4 13 5 -3 9
2 9 11 0 10 -5 13 -12 9 -9 -5 -9 -2 1 9 8 10 9 17 3 17 -6 0 -13 10 -15 23
-3 12 -5 -8 -4 -45z"/>
<path d="M2720 953 c0 -6 8 -17 18 -24 16 -13 16 -13 2 6 -8 11 -16 22 -17 24
-2 2 -3 0 -3 -6z"/>
<path d="M2970 902 c0 -17 4 -34 10 -37 6 -4 7 6 3 27 -8 44 -13 48 -13 10z"/>
<path d="M2738 884 c3 -15 8 -22 14 -16 9 9 1 42 -12 42 -4 0 -5 -12 -2 -26z"/>
<path d="M3091 897 c-9 -11 1 -14 51 -14 41 0 64 -5 66 -13 3 -9 -1 -11 -11
-7 -10 4 -17 0 -19 -11 -2 -9 -13 -17 -28 -17 -14 -1 -51 -2 -82 -3 -32 -1
-58 -6 -58 -11 0 -4 20 -7 45 -5 40 4 45 2 45 -17 0 -14 -5 -19 -14 -16 -10 4
-13 0 -11 -14 2 -11 0 -17 -6 -14 -5 4 -12 -2 -16 -11 -4 -10 -2 -19 5 -22 6
-2 8 -11 5 -20 -3 -9 7 0 22 22 15 21 35 46 44 55 22 22 70 43 83 35 6 -4 9
-63 8 -153 -2 -170 -2 -176 6 -168 3 3 10 82 15 176 11 221 7 231 -78 237 -43
3 -64 0 -72 -9z"/>
<path d="M3341 892 c0 -7 -5 -10 -11 -7 -5 3 -10 1 -10 -4 0 -6 4 -11 10 -11
5 0 7 -7 4 -15 -4 -8 -12 -15 -20 -15 -10 0 -14 -14 -14 -50 0 -39 4 -50 16
-50 8 0 12 -5 9 -10 -4 -6 -11 -8 -16 -5 -5 4 -9 1 -9 -4 0 -6 5 -11 10 -11 6
0 10 -5 10 -11 0 -5 -5 -7 -11 -3 -7 4 -10 1 -7 -7 3 -8 12 -15 20 -17 13 -3
17 13 23 90 4 51 5 104 2 118 -2 14 -5 19 -6 12z m-4 -88 c-3 -3 -12 -4 -19
-1 -8 3 -5 6 6 6 11 1 17 -2 13 -5z"/>
<path d="M2880 863 c1 -45 38 -183 112 -408 16 -49 30 -96 30 -102 1 -7 8 -13
16 -13 11 0 12 3 3 13 -6 8 -8 17 -4 21 4 4 6 53 5 109 -2 56 2 117 7 135 8
28 8 33 -4 28 -7 -2 -15 -1 -17 5 -2 5 -9 0 -17 -12 -11 -19 -11 -21 3 -16 18
7 21 -4 5 -20 -11 -11 -8 -89 6 -130 6 -17 3 -23 -8 -23 -10 0 -20 15 -27 41
-6 22 -25 86 -41 142 -26 88 -45 174 -51 240 -3 28 -18 19 -18 -10z"/>
<path d="M3035 880 c-3 -5 -1 -10 4 -10 6 0 11 5 11 10 0 6 -2 10 -4 10 -3 0
-8 -4 -11 -10z"/>
<path d="M3692 860 c0 -14 2 -19 5 -12 2 6 2 18 0 25 -3 6 -5 1 -5 -13z"/>
<path d="M2751 824 c0 -11 3 -14 6 -6 3 7 2 16 -1 19 -3 4 -6 -2 -5 -13z"/>
<path d="M2980 816 c0 -31 6 -34 13 -6 3 11 1 23 -4 26 -5 3 -9 -6 -9 -20z"/>
<path d="M3712 718 c-12 -46 -28 -105 -35 -133 -8 -27 -17 -66 -20 -85 -12
-67 11 -5 46 121 45 163 49 179 39 179 -5 0 -18 -37 -30 -82z"/>
<path d="M2766 755 c2 -22 6 -53 8 -70 9 -71 28 -172 36 -190 16 -35 30 -136
30 -212 0 -73 19 -143 39 -143 16 0 22 18 10 26 -8 4 -9 3 -5 -4 4 -7 2 -12
-3 -12 -14 0 -14 27 0 35 7 5 9 48 6 127 -5 115 -6 122 -32 144 -24 20 -24 23
-9 32 11 6 15 16 10 27 -5 14 -33 144 -51 234 -5 26 -15 41 -15 23 0 -18 -18
-14 -24 6 -3 9 -3 -1 0 -23z m34 -42 c0 -20 -16 -8 -23 17 -4 17 -3 19 9 9 8
-6 14 -18 14 -26z m70 -343 c0 -5 -4 -10 -10 -10 -5 0 -10 5 -10 10 0 6 5 10
10 10 6 0 10 -4 10 -10z m10 -121 c0 -5 -7 -9 -15 -9 -8 0 -15 7 -15 15 0 9 6
12 15 9 8 -4 15 -10 15 -15z"/>
<path d="M3040 670 c0 -5 5 -10 10 -10 6 0 10 5 10 10 0 6 -4 10 -10 10 -5 0
-10 -4 -10 -10z"/>
<path d="M3317 653 c-13 -13 -7 -32 8 -27 8 4 15 12 15 20 0 15 -12 19 -23 7z"/>
<path d="M3310 544 c0 -8 6 -11 15 -8 8 4 15 9 15 13 0 4 -7 8 -15 8 -8 0 -15
-6 -15 -13z"/>
<path d="M3310 411 c0 -49 -4 -100 -9 -113 -7 -20 -6 -24 10 -25 10 -1 19 2
19 8 0 5 -5 9 -11 9 -5 0 -7 5 -4 11 11 17 35 -23 25 -41 -6 -10 1 -33 22 -69
23 -42 29 -61 24 -87 -20 -112 -20 -104 6 -104 21 0 25 7 36 58 17 81 15 97
-12 129 -44 53 -68 108 -81 186 -7 42 -8 80 -4 83 15 9 10 44 -6 44 -12 0 -15
-17 -15 -89z"/>
<path d="M3197 383 c-5 -7 -5 -17 -2 -23 3 -5 1 -10 -5 -10 -7 0 -10 -6 -7
-14 5 -12 -50 -76 -66 -76 -3 0 -17 15 -29 33 -35 49 -64 46 -37 -4 5 -11 15
-17 21 -13 6 4 9 1 6 -7 -7 -20 20 -37 49 -31 20 4 75 62 58 62 -3 0 2 11 11
24 8 14 14 35 12 48 -2 16 -6 19 -11 11z"/>
<path d="M3248 207 c-42 -57 -46 -86 -26 -162 10 -38 16 -45 36 -45 21 0 24 3
18 28 -22 95 -17 131 26 193 16 24 16 28 2 33 -20 8 -13 13 -56 -47z"/>
<path d="M2883 102 c0 -7 23 -33 50 -58 47 -42 52 -44 111 -44 l61 0 -55 26
c-30 14 -70 40 -88 57 -34 33 -79 44 -79 19z m37 -7 c0 -9 -6 -12 -16 -8 -13
5 -13 7 -2 14 17 11 18 11 18 -6z"/>
<path d="M3024 111 c7 -11 46 -35 46 -28 0 3 -12 12 -26 22 -15 9 -23 12 -20
6z"/>
<path d="M3595 94 l-30 -26 33 22 c17 12 32 23 32 26 0 7 -4 5 -35 -22z"/>
</g>
</svg>
