<svg xmlns="http://www.w3.org/2000/svg" viewBox="0 0 800 1000" width="100%" height="100%">
  <defs>
    <!-- Gradiente metálico dorado premium de alta definición -->
    <linearGradient id="gold-gradient" x1="0%" y1="0%" x2="100%" y2="100%">
      <stop offset="0%" stop-color="#f6ebd0" />
      <stop offset="20%" stop-color="#dfc593" />
      <stop offset="45%" stop-color="#a67e35" />
      <stop offset="55%" stop-color="#835c16" />
      <stop offset="80%" stop-color="#dfc593" />
      <stop offset="100%" stop-color="#a67e35" />
    </linearGradient>
    <filter id="subtle-shadow" x="-10%" y="-10%" width="120%" height="120%">
      <feDropShadow dx="0" dy="5" stdDeviation="7" flood-color="#000000" flood-opacity="0.45"/>
    </filter>
  </defs>

  <!-- Fondo oscuro premium metalizado -->
  <rect width="100%" height="100%" fill="#131210"/>
  
  <!-- Resplandor sutil radial -->
  <radialGradient id="radial-glow" cx="50%" cy="40%" r="65%">
    <stop offset="0%" stop-color="#2a261f" stop-opacity="0.75" />
    <stop offset="100%" stop-color="#131210" stop-opacity="0" />
  </radialGradient>
  <rect width="100%" height="100%" fill="url(#radial-glow)" />

  <!-- Grupo del logotipo del cráneo centrado y escalado de forma perfecta -->
  <g transform="translate(400.0, 380.0) scale(0.893911) translate(-332.050000, -358.300000)" filter="url(#subtle-shadow)">
    <!-- Transformación de inversión de potrace sobre el lienzo de 1024 de alto -->
    <g transform="translate(0, 1024) scale(0.1, -0.1)" fill="url(#gold-gradient)" stroke="none">
      <path d="M460 9243 c-46 -17 -68 -70 -89 -210 -15 -100 -14 -184 5 -294 31
-179 111 -372 208 -498 105 -136 292 -286 456 -366 182 -88 515 -183 804 -230
171 -28 233 -31 270 -14 59 27 121 -34 133 -129 5 -43 1 -60 -25 -114 -17 -35
-60 -99 -96 -143 -92 -112 -111 -153 -111 -245 0 -82 36 -341 61 -436 28 -109
79 -173 204 -257 138 -92 179 -224 180 -578 0 -88 5 -171 11 -190 6 -19 42
-80 80 -136 123 -184 160 -276 200 -504 16 -93 39 -207 50 -252 11 -45 24
-139 28 -208 6 -89 15 -139 28 -170 50 -112 251 -222 358 -195 59 15 79 71 55
155 -8 29 -6 43 16 88 15 29 30 53 35 53 12 0 47 -57 56 -89 3 -12 0 -47 -7
-76 -16 -68 -8 -100 32 -121 69 -36 226 9 317 92 67 60 82 99 91 243 5 69 21
180 35 246 15 66 39 185 55 265 44 219 89 329 193 469 85 114 91 134 93 306 3
227 13 330 39 414 30 95 63 135 173 210 133 91 163 154 202 413 11 73 23 139
25 147 3 8 6 48 6 90 0 105 -24 159 -138 299 -99 122 -122 226 -69 310 29 46
58 58 100 43 56 -22 233 -4 485 50 455 97 713 216 939 434 211 202 318 446
329 751 8 203 -24 349 -82 376 -56 25 -92 -10 -113 -107 -17 -80 -77 -230
-120 -303 -51 -86 -154 -198 -238 -257 -75 -54 -221 -126 -315 -154 -147 -46
-260 -60 -634 -81 -254 -15 -307 -23 -383 -61 -118 -60 -234 -39 -477 85 -203
105 -288 117 -445 65 -88 -30 -202 -30 -290 0 -93 31 -192 38 -265 17 -33 -10
-127 -51 -210 -92 -166 -82 -236 -104 -337 -104 -54 0 -76 5 -106 23 -20 13
-45 26 -55 30 -39 15 -151 27 -332 37 -388 21 -494 36 -673 96 -162 53 -294
135 -409 251 -102 103 -177 241 -223 409 -22 80 -37 115 -56 132 -26 23 -29
24 -54 15z m25 -63 c4 -6 20 -57 36 -113 51 -181 141 -340 246 -438 61 -57
206 -165 233 -174 35 -11 22 -25 -24 -25 -30 0 -55 -8 -80 -25 -20 -14 -38
-25 -40 -25 -2 0 -6 20 -9 45 -13 88 -71 163 -187 238 -70 45 -104 77 -130
119 -11 18 -20 28 -20 22 0 -26 64 -107 107 -134 26 -17 40 -30 31 -30 -9 0
-20 5 -23 10 -3 6 -12 10 -18 10 -24 -1 28 -30 53 -30 16 0 42 -14 66 -36 24
-22 30 -30 14 -21 -14 8 -54 25 -90 37 -79 28 -122 59 -157 111 -14 22 -28 37
-30 35 -10 -10 60 -98 96 -121 20 -14 59 -32 87 -40 120 -35 159 -91 174 -244
14 -153 42 -203 135 -247 97 -46 235 -29 415 51 172 76 282 97 407 75 75 -12
170 -61 158 -81 -4 -5 -1 -17 6 -25 15 -18 20 -59 17 -139 -4 -124 -3 -221 4
-257 8 -47 5 -47 -111 -12 -161 48 -226 110 -219 207 2 28 8 61 12 72 7 19 7
19 -8 1 -21 -26 -30 -99 -17 -138 10 -30 9 -31 -4 -14 -35 46 -5 184 36 171
10 -3 20 -1 24 5 10 16 76 12 97 -7 24 -21 23 -50 -2 -63 -27 -15 -25 -28 5
-36 51 -13 88 52 60 106 -22 42 -68 63 -123 57 -96 -11 -156 -103 -129 -200 8
-28 8 -28 -44 13 -65 51 -109 70 -166 70 -35 0 -49 -6 -68 -26 -35 -37 -31
-47 9 -26 19 9 32 20 29 25 -2 4 16 7 40 7 54 0 109 -29 174 -90 26 -25 65
-60 88 -79 33 -29 36 -33 15 -27 -14 4 -41 9 -60 11 -102 12 -385 103 -526
170 -205 98 -415 283 -507 447 -115 206 -168 471 -137 690 7 51 17 101 22 111
10 19 24 22 33 7z m5705 -24 c23 -62 33 -224 21 -347 -34 -333 -176 -576 -449
-769 -117 -83 -206 -128 -358 -184 -133 -50 -359 -110 -380 -102 -7 3 -16 1
-19 -3 -2 -5 -14 -11 -26 -14 -19 -5 -20 -4 -8 7 165 153 224 197 261 196 7
-1 -3 -9 -22 -19 -37 -20 -197 -161 -182 -161 5 0 41 30 82 66 111 100 181
125 227 82 30 -28 30 -7 -1 29 -47 54 -149 28 -246 -63 l-48 -45 15 43 c36
104 -34 208 -140 208 -88 0 -145 -86 -95 -145 18 -21 29 -26 46 -21 24 8 30
36 8 36 -35 0 -25 59 14 80 32 17 60 11 91 -19 24 -25 29 -37 29 -81 0 -28 -6
-63 -14 -79 -24 -45 -89 -97 -152 -121 -63 -23 -162 -46 -169 -38 -2 2 1 22 7
44 7 25 8 85 4 167 -5 115 -4 131 14 166 42 84 114 116 242 109 71 -4 89 -10
235 -81 194 -94 255 -110 383 -105 78 4 104 9 147 31 103 53 154 126 213 304
46 140 70 168 132 160 31 -4 37 -3 28 8 -16 19 -55 23 -88 10 -39 -17 -65 -63
-97 -174 -59 -208 -138 -295 -292 -320 -117 -19 -217 6 -408 99 -165 80 -213
94 -303 88 -79 -6 -136 -32 -180 -83 -40 -45 -42 -22 -3 32 40 56 106 84 206
90 105 6 190 -12 341 -75 151 -63 223 -82 315 -82 57 0 86 6 125 24 84 39 114
94 129 233 15 155 59 221 163 252 89 27 136 61 172 124 39 68 38 82 -1 26 -56
-79 -81 -99 -146 -119 -34 -10 -76 -26 -93 -35 -16 -8 -30 -14 -30 -11 0 8 88
56 103 56 41 0 164 117 143 137 -3 4 -6 1 -6 -5 0 -21 -63 -83 -104 -103 -23
-10 -32 -14 -21 -7 76 48 146 157 144 222 0 12 -7 -1 -16 -28 -24 -81 -67
-133 -158 -192 -45 -29 -98 -71 -118 -93 -35 -39 -67 -119 -67 -170 l0 -24
-24 22 c-14 13 -48 31 -77 40 l-51 17 63 37 c220 128 382 365 439 640 12 61
33 76 50 33z m-5039 -772 c167 -59 425 -96 776 -112 106 -4 195 -11 199 -15 4
-3 -9 -24 -29 -46 -19 -22 -46 -58 -59 -80 -13 -23 -25 -41 -28 -41 -3 0 -18
20 -33 44 -29 46 -101 99 -165 122 -49 17 -200 17 -282 0 -36 -8 -107 -33
-158 -55 -228 -101 -368 -107 -454 -21 -35 34 -38 42 -38 91 1 78 41 119 117
119 52 0 83 -28 83 -76 0 -54 -50 -85 -80 -49 -17 21 -30 19 -30 -4 0 -26 37
-51 73 -51 31 0 87 47 87 74 0 12 10 8 43 -14 48 -34 110 -47 182 -40 47 5 45
6 -30 11 -104 6 -145 27 -190 94 -48 73 -48 72 16 49z m2012 -14 c142 -37 199
-38 313 -4 111 33 192 36 259 9 l50 -20 -76 -6 c-181 -15 -321 -142 -360 -327
-48 -231 113 -460 291 -412 47 13 97 66 105 114 15 76 -57 148 -124 125 -36
-13 -55 -41 -46 -68 9 -30 32 -32 49 -5 19 27 38 31 56 9 17 -20 5 -61 -26
-92 -22 -22 -32 -25 -69 -21 -92 11 -148 89 -147 207 1 132 75 252 189 308 92
44 217 34 288 -25 12 -9 6 -3 -13 15 -66 62 -205 70 -302 17 -107 -58 -172
-166 -178 -297 -4 -68 -1 -84 23 -132 16 -35 41 -65 63 -80 20 -14 32 -25 27
-25 -25 0 -86 66 -114 122 -27 52 -31 72 -31 138 0 68 4 85 35 148 39 77 115
155 182 187 21 10 70 22 108 25 l70 7 -71 2 c-61 1 -80 -3 -132 -30 -37 -18
-80 -51 -108 -82 -38 -42 -44 -46 -28 -18 25 43 88 95 150 123 37 16 69 22
129 22 132 0 207 -37 244 -124 27 -62 27 -120 1 -171 -47 -91 -167 -106 -200
-25 -8 20 -9 20 -9 -5 -1 -34 46 -78 91 -85 49 -8 122 25 148 68 43 70 47 125
15 223 -10 30 63 -52 88 -100 16 -30 21 -58 21 -110 0 -90 -20 -129 -123 -240
-89 -96 -113 -138 -118 -210 -5 -61 18 -110 66 -142 40 -27 61 -29 106 -7 61
29 66 124 7 132 -22 3 -30 -12 -12 -23 30 -19 -4 -75 -46 -75 -42 0 -74 42
-74 96 0 66 28 118 103 192 l64 64 -5 -74 c-7 -107 25 -170 157 -313 108 -117
141 -170 141 -226 0 -36 -8 -51 -82 -149 -57 -74 -64 -102 -10 -36 20 25 54
66 76 91 79 93 60 158 -94 330 -160 179 -182 254 -126 428 24 75 28 99 24 170
-5 92 -22 131 -87 200 -39 42 -38 43 39 22 30 -8 91 -17 135 -21 44 -3 93 -10
108 -16 31 -12 77 -73 107 -143 35 -82 43 -225 15 -295 -3 -9 -21 -24 -41 -35
-68 -36 -94 -78 -120 -190 l-7 -30 -13 44 c-26 84 19 187 92 211 19 7 33 14
31 17 -11 10 -75 -27 -104 -60 -85 -97 -49 -244 112 -447 92 -116 125 -179
125 -237 0 -24 -9 -109 -21 -191 -41 -298 -64 -350 -197 -439 -46 -31 -99 -74
-118 -96 -34 -41 -71 -125 -81 -184 -6 -38 -18 -42 -33 -12 -7 11 -27 27 -46
35 -29 12 -39 12 -61 2 -33 -17 -48 -40 -39 -63 6 -17 8 -17 22 4 21 30 63 25
83 -10 31 -55 -32 -125 -100 -112 -15 3 -42 21 -60 40 -31 31 -34 39 -34 96 1
132 111 256 273 308 31 10 50 18 40 18 -33 2 -139 -38 -187 -68 -143 -92 -209
-240 -166 -372 10 -30 42 -103 72 -162 56 -113 71 -175 59 -242 -14 -73 -84
-101 -125 -49 -12 15 -21 34 -21 43 0 28 29 60 58 63 l27 4 -36 16 c-76 34
-115 142 -106 293 11 173 77 308 210 431 49 45 62 61 41 51 -56 -29 -171 -162
-214 -251 -50 -100 -64 -173 -58 -298 4 -79 10 -107 32 -152 15 -31 36 -61 46
-66 19 -10 19 -11 0 -43 -24 -39 -26 -113 -5 -223 8 -44 19 -126 24 -184 13
-135 6 -188 -65 -512 -19 -88 -34 -185 -34 -221 0 -93 -16 -165 -46 -204 -50
-65 -211 -137 -260 -115 -20 10 -22 15 -13 44 17 61 11 124 -15 155 -13 15
-34 48 -47 73 -24 45 -24 47 -22 325 2 154 7 294 11 310 9 29 9 28 20 -25 7
-30 16 -147 21 -260 8 -162 14 -219 31 -274 22 -70 64 -126 93 -126 29 0 75
50 95 102 24 62 92 287 121 403 52 203 47 360 -20 641 -33 139 -37 228 -15
374 8 52 13 96 11 98 -10 11 -41 -125 -59 -268 -38 -290 -72 -433 -115 -483
-15 -18 -16 -18 -22 0 -4 10 -8 56 -8 102 -1 46 -4 82 -7 78 -3 -3 -16 -55
-29 -115 -13 -60 -30 -123 -38 -139 -20 -38 -43 -57 -52 -44 -7 12 -21 335
-29 661 -3 124 -6 227 -6 230 0 3 -5 -2 -10 -10 -5 -8 -10 -33 -10 -55 0 -30
-3 -36 -10 -25 -5 8 -10 33 -10 55 0 30 -3 36 -10 25 -5 -8 -10 -94 -10 -190
0 -216 -17 -661 -26 -683 -22 -58 -71 53 -112 253 -8 44 -9 43 -17 -48 -4 -51
-12 -95 -17 -98 -43 -27 -99 193 -149 586 -10 79 -36 180 -45 180 -4 0 -4 -10
0 -22 3 -13 13 -93 21 -178 l16 -155 -35 -144 c-47 -190 -60 -293 -53 -426 6
-119 19 -177 91 -414 73 -237 98 -284 151 -283 77 0 116 124 130 413 3 74 11
172 17 219 10 75 12 81 20 55 5 -16 12 -158 15 -315 6 -317 10 -298 -64 -407
-32 -47 -35 -56 -28 -95 4 -24 8 -56 8 -73 2 -30 2 -30 -47 -27 -89 4 -219 80
-250 146 -12 25 -18 69 -20 149 -3 71 -12 143 -25 193 -33 129 -59 262 -72
375 -14 120 -3 267 30 428 21 97 17 137 -15 173 -17 17 -16 20 9 46 41 43 67
113 73 199 14 184 -67 371 -221 511 -95 87 -106 80 -14 -9 106 -103 141 -154
175 -255 50 -145 42 -351 -16 -422 -11 -13 -36 -32 -57 -42 -33 -17 -35 -19
-14 -20 35 0 61 -28 61 -65 0 -52 -56 -87 -96 -60 -74 49 -71 144 10 306 31
61 63 136 72 166 41 139 -23 281 -167 374 -46 29 -179 79 -208 78 -9 0 9 -8
40 -18 88 -28 156 -71 214 -132 104 -114 115 -253 22 -309 -18 -11 -41 -20
-52 -20 -29 1 -66 24 -81 51 -10 19 -13 20 -14 7 -1 -43 70 -82 121 -68 26 8
30 7 21 -2 -18 -18 -84 -14 -114 6 -14 9 -31 30 -38 46 -12 29 -11 79 2 70 4
-3 15 5 23 18 21 28 59 29 79 0 22 -31 42 -11 25 25 -26 57 -95 56 -141 -3
l-25 -32 -7 38 c-23 122 -79 202 -201 284 -88 60 -107 81 -139 151 -26 57 -86
387 -86 474 0 57 36 125 126 240 102 129 147 225 152 320 2 53 -1 78 -15 104
-22 43 -78 88 -118 95 -29 6 -29 6 5 -10 79 -36 110 -86 110 -176 0 -78 -15
-110 -25 -52 -16 97 -44 138 -117 175 -45 23 -47 26 -58 96 -19 117 24 266 99
343 l46 47 95 7 c52 3 119 12 148 20 28 8 52 12 52 9 0 -3 -11 -19 -26 -35
-84 -100 -102 -207 -60 -360 52 -190 31 -263 -124 -434 -91 -99 -140 -177
-140 -221 0 -40 26 -88 76 -144 27 -30 57 -65 67 -79 l18 -25 -12 25 c-6 14
-36 58 -67 97 -88 116 -80 149 76 321 119 132 135 153 157 221 13 40 16 71 11
119 l-6 66 56 -55 c85 -82 114 -132 114 -196 0 -44 -5 -59 -25 -78 -46 -47
-124 -19 -95 34 15 29 12 41 -10 41 -46 0 -53 -90 -9 -122 31 -23 88 -27 122
-9 35 19 67 81 67 131 0 84 -19 119 -117 221 -51 52 -99 112 -108 132 -8 20
-15 66 -15 105 0 77 28 147 79 196 l28 27 -13 -53 c-27 -103 15 -201 101 -233
82 -32 166 11 164 84 l-1 36 -10 -28 c-5 -15 -14 -25 -18 -22 -5 3 -11 1 -15
-5 -3 -5 -24 -10 -45 -10 -30 0 -46 7 -71 32 -19 19 -28 24 -22 13 28 -52 79
-73 123 -51 33 16 40 11 13 -10 -47 -35 -134 0 -169 68 -25 49 -15 138 22 190
41 59 83 84 163 98 76 13 155 3 216 -26 38 -18 107 -81 124 -113 6 -11 -11 2
-37 28 -67 67 -121 93 -202 97 l-65 3 58 -9 c251 -40 390 -350 247 -548 -29
-40 -83 -82 -105 -82 -5 0 5 9 24 21 71 43 111 119 111 212 0 139 -70 254
-193 319 -56 30 -173 32 -235 4 -52 -24 -50 -32 3 -10 57 24 150 22 210 -5
186 -82 262 -337 141 -469 -53 -59 -121 -68 -167 -23 -31 31 -35 51 -19 82 14
25 35 24 55 -3 12 -18 19 -21 33 -12 43 28 8 84 -54 84 -26 0 -43 -8 -65 -29
-60 -60 -29 -171 58 -207 18 -8 47 -14 65 -14 41 0 126 40 154 71 104 120 122
316 43 471 -56 109 -185 196 -305 206 -35 2 -64 8 -64 12 0 10 101 36 146 39
12 0 74 -12 137 -29z m2367 12 c0 -4 -13 -28 -29 -53 -41 -65 -85 -84 -191
-83 l-85 0 50 -14 c66 -20 144 -4 197 38 l37 31 7 -26 c15 -58 103 -86 144
-45 22 22 25 36 9 45 -6 4 -16 -1 -23 -10 -30 -41 -97 15 -80 67 10 33 46 58
82 58 132 0 162 -173 42 -240 -39 -22 -56 -25 -130 -24 -90 2 -117 9 -332 93
-76 29 -129 43 -184 48 -92 7 -78 18 36 27 104 9 305 48 380 75 64 23 70 24
70 13z m-654 -113 c-97 -16 -179 -74 -232 -164 -9 -16 -13 -13 -38 30 -16 26
-44 65 -63 86 -20 22 -34 40 -32 40 10 4 254 16 329 16 77 1 80 0 36 -8z
m-2683 -30 c12 -7 24 -13 26 -15 2 -1 -15 -24 -37 -51 -95 -115 -126 -242
-109 -458 2 -29 0 -30 -38 -30 -48 0 -53 11 -54 140 -2 144 36 256 125 369 47
59 53 62 87 45z m2348 -41 c47 -60 85 -135 105 -211 17 -63 17 -219 1 -267
-11 -31 -16 -35 -51 -38 l-39 -3 7 33 c35 171 -3 340 -105 460 l-39 47 22 15
c37 26 55 19 99 -36z m460 -176 c27 -24 33 -38 37 -83 3 -37 -1 -65 -12 -89
-11 -24 -14 -27 -11 -10 18 77 17 100 -4 143 -12 24 -31 49 -44 55 -12 6 -16
11 -10 11 7 1 27 -12 44 -27z m-2482 -167 c0 -5 -4 -3 -9 5 -5 8 -9 22 -9 30
0 16 17 -16 18 -35z m1602 -12 c-11 -21 -52 -72 -91 -113 -94 -99 -124 -156
-118 -227 3 -30 1 -48 -3 -41 -15 22 -10 117 7 150 9 17 56 73 104 124 50 52
94 108 101 129 8 20 15 32 17 26 2 -5 -6 -27 -17 -48z m-1396 -232 c19 -38 24
-116 9 -143 -6 -12 -9 3 -9 50 -1 85 -14 108 -115 212 -44 45 -80 85 -80 90 0
15 178 -176 195 -209z m256 67 c24 -20 13 -24 -12 -5 -22 17 -39 52 -39 79 1
17 5 12 15 -17 8 -22 24 -48 36 -57z m729 66 c0 -28 -58 -94 -81 -94 -8 1 -2
7 13 16 28 15 58 61 58 89 0 8 2 15 5 15 3 0 5 -12 5 -26z m400 -1745 c0 -46
-47 -89 -97 -89 -21 0 -44 4 -52 9 -8 5 4 7 32 4 39 -5 49 -2 71 21 15 14 29
39 32 56 8 39 14 38 14 -1z m-1363 -112 c-13 -28 -42 -73 -64 -99 -71 -82 -83
-223 -26 -313 23 -37 31 -42 65 -43 22 -1 50 5 65 15 26 17 26 17 21 -7 -3
-14 -13 -65 -23 -115 -29 -154 -31 -163 -39 -140 -18 53 -77 158 -135 239 -36
50 -71 106 -78 126 -14 39 -18 230 -5 230 5 0 17 -9 27 -20 10 -11 28 -20 39
-20 18 0 16 3 -10 19 -52 31 -64 58 -64 135 l0 69 20 -26 c25 -31 81 -51 122
-43 39 8 85 41 95 69 l7 22 4 -23 c2 -12 -7 -46 -21 -75z m1218 13 c48 -16
107 2 138 42 l25 31 -2 -199 c-3 -229 -3 -231 -92 -349 -31 -41 -76 -115 -100
-162 -24 -47 -46 -80 -48 -72 -3 8 -9 46 -16 84 -6 39 -16 91 -22 117 -13 52
-7 68 17 48 8 -7 30 -10 50 -8 20 2 35 0 35 -7 0 -5 14 11 30 36 43 65 57 151
37 220 -9 29 -14 56 -11 61 3 4 -2 11 -11 14 -33 13 -125 172 -125 216 0 5 14
-7 30 -26 17 -19 46 -40 65 -46z m-45 55 c13 -14 21 -25 18 -25 -2 0 -15 11
-28 25 -13 14 -21 25 -18 25 2 0 15 -11 28 -25z m-1255 -247 c-8 -24 -16 -52
-18 -63 -3 -14 -5 -12 -6 8 -1 27 23 97 33 97 3 0 -1 -19 -9 -42z m302 -10
c-3 -7 -5 -2 -5 12 0 14 2 19 5 13 2 -7 2 -19 0 -25z m-24 -635 c2 -110 10
-211 16 -228 11 -29 11 -29 6 11 -9 77 -18 279 -12 273 9 -7 47 -361 46 -423
0 -45 -1 -48 -11 -26 -5 14 -24 70 -40 125 -25 83 -31 124 -35 237 -6 137 1
228 17 228 4 0 10 -89 13 -197z m786 20 c1 -135 -12 -211 -58 -348 l-31 -90 5
70 c6 83 24 238 36 315 6 43 7 28 5 -65 -3 -87 -1 -109 5 -80 5 22 12 117 16
210 8 189 20 182 22 -12z m-515 -178 c12 -78 -12 -330 -40 -416 -16 -50 -46
-85 -63 -74 -20 11 -39 59 -54 131 -15 74 -10 192 12 265 17 57 91 134 132
138 4 1 10 -19 13 -44z m306 -5 c65 -65 92 -195 70 -331 -13 -78 -47 -162 -64
-156 -22 7 -48 57 -66 126 -20 76 -38 337 -26 384 8 34 37 26 86 -23z" />
      <path d="M559 8493 c-12 -15 -12 -16 6 -9 23 9 23 9 52 7 45 -2 71 -41 104
-151 39 -134 69 -189 141 -255 75 -70 141 -95 249 -95 112 0 181 20 344 99
164 80 198 91 285 91 76 0 137 -24 181 -71 32 -35 38 -32 13 7 -29 43 -98 76
-172 82 -92 6 -167 -15 -309 -87 -141 -71 -215 -97 -305 -106 -118 -13 -211
20 -289 102 -57 58 -90 124 -114 223 -21 88 -46 143 -77 164 -30 21 -92 21
-109 -1z" />
      <path d="M1413 7915 c41 -14 58 -27 144 -109 29 -27 55 -47 58 -44 9 8 -125
127 -167 149 -21 10 -45 19 -55 19 -10 -1 -1 -7 20 -15z" />
      <path d="M3939 8021 c-11 -25 -28 -43 -52 -55 -41 -19 -49 -31 -14 -21 31 10
74 53 82 82 9 39 2 36 -16 -6z" />
      <path d="M2251 7974 c-1 -47 25 -91 94 -164 23 -25 48 -55 54 -68 7 -12 16
-20 21 -17 5 3 7 -2 6 -12 -2 -10 0 -36 4 -58 7 -39 8 -38 9 18 1 76 -15 111
-88 189 -33 36 -69 85 -80 109 l-20 44 0 -41z m43 -84 c-6 -5 -24 21 -24 34 0
6 6 1 14 -10 8 -10 12 -21 10 -24z m45 -37 c44 -47 81 -95 81 -107 0 -6 -7 1
-16 14 -10 14 -37 46 -63 73 -25 26 -41 47 -37 47 5 0 20 -12 35 -27z" />
      <path d="M4372 7966 c-7 -19 -31 -51 -53 -72 -44 -42 -109 -122 -109 -134 0
-4 32 24 71 64 67 66 68 67 19 12 -61 -70 -85 -104 -77 -112 3 -3 11 5 18 18
7 12 38 50 70 84 58 59 89 114 89 154 0 31 -15 24 -28 -14z" />
      <path d="M2994 7471 c-2 -2 -4 -36 -4 -75 l0 -71 25 28 c42 44 83 60 173 65
l82 5 1 -84 c0 -46 2 -151 3 -232 l4 -149 43 -29 44 -29 3 260 2 260 68 0 c94
0 134 -14 176 -61 l37 -40 -3 77 -3 77 -323 1 c-178 1 -326 -1 -328 -3z" />
      <path d="M3179 7282 c-25 -16 -55 -41 -66 -56 -28 -36 -45 -117 -37 -180 13
-103 58 -160 229 -286 155 -116 176 -137 211 -214 61 -133 2 -296 -122 -336
-53 -18 -155 -8 -193 19 -44 32 -91 95 -117 159 l-24 57 0 -127 c0 -71 2 -128
5 -128 3 0 14 5 24 11 14 10 29 7 77 -15 71 -33 171 -44 241 -27 160 40 254
202 218 376 -27 128 -91 207 -266 326 -126 86 -179 136 -205 194 -28 58 -30
81 -9 89 11 4 15 -1 15 -19 0 -29 35 -109 56 -126 12 -10 14 -4 14 36 0 50
-24 113 -47 122 -22 8 -15 35 18 69 22 22 30 39 27 58 l-3 27 -46 -29z" />
      <path d="M3403 7262 c3 -15 17 -47 31 -71 l24 -44 7 39 c18 115 21 104 -26
104 -40 0 -41 -1 -36 -28z" />
      <path d="M2852 7221 c-142 -49 -225 -180 -226 -356 -1 -156 64 -274 182 -332
50 -25 68 -28 152 -28 79 0 103 4 141 23 46 22 69 54 69 94 0 20 -3 19 -32
-12 -121 -124 -325 -78 -389 88 -18 45 -22 78 -23 157 0 152 42 257 126 312
37 25 51 28 132 29 71 0 91 4 91 14 0 32 -141 39 -223 11z" />
      <path d="M3647 7234 c-3 -4 0 -13 8 -21 11 -11 15 -41 15 -122 0 -98 3 -116
39 -221 l39 -115 1 223 1 222 44 0 c72 0 111 -41 125 -131 18 -110 -33 -199
-112 -199 -35 0 -39 -9 -17 -40 11 -16 41 -72 66 -126 48 -104 72 -137 116
-160 31 -16 47 -17 66 -6 9 6 3 18 -23 47 -32 33 -135 220 -135 243 0 5 17 21
39 35 52 35 84 102 84 177 -1 95 -46 159 -132 188 -35 12 -213 17 -224 6z" />
      <path d="M3547 7203 c-3 -10 -30 -90 -61 -178 -52 -153 -56 -185 -25 -185 4 0
22 45 40 100 18 56 36 97 40 93 6 -7 28 -72 65 -195 5 -16 -2 -18 -56 -18 -83
0 -77 -23 7 -30 34 -3 64 -7 66 -10 11 -11 98 -280 99 -306 1 -16 -2 -37 -6
-46 -7 -16 0 -18 75 -18 l83 0 -26 28 c-29 30 -98 213 -214 569 -38 117 -72
213 -75 213 -4 0 -9 -8 -12 -17z" />
      <path d="M2936 7135 c-15 -8 -31 -13 -35 -11 -4 3 -12 1 -19 -2 -8 -6 -8 -18
3 -47 11 -30 14 -98 15 -271 l0 -231 31 -7 c17 -3 35 -6 40 -6 5 0 10 48 11
106 l3 105 62 4 c59 4 123 26 123 43 0 25 -24 29 -66 10 -26 -11 -60 -18 -82
-16 l-37 3 -3 134 c-3 149 3 166 50 156 37 -9 37 12 1 26 -20 7 -33 7 -45 0
-13 -8 -17 -7 -20 4 -3 13 -7 13 -32 0z" />
      <path d="M2106 7042 c-3 -4 -1 -26 4 -48 5 -21 14 -90 20 -153 7 -63 18 -138
26 -168 15 -57 57 -148 74 -158 5 -3 1 9 -9 27 -40 68 -107 428 -80 428 16 0
28 -35 52 -156 34 -162 58 -223 119 -289 54 -59 57 -85 11 -85 -40 0 -16 -17
32 -22 22 -3 32 -3 23 -1 -22 5 -22 10 -2 30 11 11 14 26 9 49 -5 29 -3 33 11
27 15 -5 15 -4 -1 26 -9 18 -19 55 -22 83 l-6 51 34 -7 c19 -3 56 -20 82 -36
27 -17 53 -30 58 -30 19 0 -21 57 -58 83 -60 42 -98 85 -144 167 -50 90 -89
137 -138 167 -36 23 -85 30 -95 15z" />
      <path d="M4430 7025 c-37 -27 -80 -84 -146 -195 -32 -53 -64 -90 -109 -125
-61 -49 -91 -82 -82 -91 3 -3 34 11 69 31 68 37 105 44 114 21 5 -12 -14 -98
-31 -138 -5 -13 -2 -15 16 -11 22 6 22 6 6 -18 -21 -30 -22 -55 -1 -63 23 -9
24 -8 24 22 0 20 9 35 29 50 42 31 87 130 116 257 29 126 52 195 66 195 20 0
-19 -257 -51 -343 -11 -28 -17 -53 -15 -55 8 -9 43 81 60 153 17 78 46 316 38
328 -10 16 -71 6 -103 -18z" />
      <path d="M3270 6605 c0 -135 -7 -171 -36 -188 -30 -18 -9 -23 92 -24 l106 -1
-27 28 c-26 27 -27 34 -22 84 3 31 11 71 18 91 12 32 11 37 -9 57 -17 17 -22
19 -26 7 -39 -122 -51 -151 -53 -138 -2 9 5 49 16 89 22 79 21 84 -28 113
l-31 18 0 -136z" />
      <path d="M2520 6496 c0 -2 14 -14 30 -26 17 -12 30 -19 30 -16 0 2 -13 14 -30
26 -16 12 -30 19 -30 16z" />
      <path d="M2892 6454 c-43 -30 -28 -44 48 -44 68 0 70 1 60 20 -11 20 -48 40
-73 40 -7 0 -23 -7 -35 -16z" />
      <path d="M2330 6376 c0 -3 24 -12 53 -22 28 -9 63 -24 77 -32 47 -29 110 -96
121 -129 14 -42 31 -44 19 -2 -14 47 -36 76 -88 114 -52 38 -182 89 -182 71z" />
      <path d="M4224 6356 c-52 -17 -127 -68 -154 -106 -12 -16 -23 -47 -26 -67 l-4
-38 11 30 c32 84 97 139 208 180 46 17 19 18 -35 1z" />
      <path d="M2942 4348 c33 -61 101 -126 161 -154 54 -25 82 -31 72 -15 -3 5 -19
12 -35 16 -48 10 -148 91 -182 146 -38 60 -48 65 -16 7z" />
      <path d="M3675 4324 c-41 -59 -96 -102 -166 -130 -23 -10 -38 -19 -31 -22 21
-7 119 45 158 85 34 34 93 123 81 123 -2 0 -21 -25 -42 -56z" />
      <path d="M2143 8183 c-63 -62 -111 -158 -118 -238 l-5 -60 18 75 c22 94 63
169 120 221 24 23 41 43 39 45 -3 3 -27 -17 -54 -43z" />
      <path d="M4512 8160 c35 -49 68 -116 90 -180 17 -49 18 -51 13 -15 -8 55 -56
153 -95 195 l-32 35 24 -35z" />
      <path d="M2690 5415 c0 -5 5 -17 10 -25 5 -8 10 -10 10 -5 0 6 -5 17 -10 25
-5 8 -10 11 -10 5z" />
      <path d="M4084 5777 c-5 -7 -21 -20 -35 -29 -13 -9 -18 -17 -12 -17 7 -1 27
12 45 29 18 16 29 29 23 29 -5 0 -15 -5 -21 -12z" />
    </g>
  </g>

  <!-- Textos de marca perfectamente posicionados en la base -->
  <g id="brand-texts" fill="url(#gold-gradient)" filter="url(#subtle-shadow)">
    <!-- CRÁNEO NOBLE -->
    <text x="400" y="730" text-anchor="middle" 
          font-family="Georgia, serif" 
          font-size="44" font-weight="700" letter-spacing="14">CRÁNEO NOBLE</text>
    
    <!-- by ARCT -->
    <text x="400" y="790" text-anchor="middle" 
          font-family="Arial, sans-serif" 
          font-size="19" font-weight="300" letter-spacing="9" fill="#a09278">by ARCT</text>
          
    <!-- ARTE · RAÍZ · CARÁCTER · TRASCENDENCIA -->
    <text x="400" y="855" text-anchor="middle" 
          font-family="Arial, sans-serif" 
          font-size="11" font-weight="400" letter-spacing="7" fill="url(#gold-gradient)">ARTE • RAÍZ • CARÁCTER • TRASCENDENCIA</text>
  </g>
</svg>
