<svg xmlns="http://www.w3.org/2000/svg" viewBox="0 0 800 1000" width="100%" height="100%">
  <defs>
    <!-- Gradiente metálico dorado premium de alta definición -->
    <linearGradient id="gold-gradient" x1="0%" y1="0%" x2="100%" y2="100%">
      <stop offset="0%" stop-color="#f6ebd0" />
      <stop offset="20%" stop-color="#dfc593" />
      <stop offset="45%" stop-color="#a67e35" />
      <stop offset="55%" stop-color="#835c16" />
      <stop offset="80%" stop-color="#dfc593" />
      <stop offset="100%" stop-color="#a67e35" />
    </linearGradient>
    <filter id="subtle-shadow" x="-10%" y="-10%" width="120%" height="120%">
      <feDropShadow dx="0" dy="5" stdDeviation="7" flood-color="#000000" flood-opacity="0.45"/>
    </filter>
  </defs>

  <!-- Fondo oscuro premium metalizado -->
  <rect width="100%" height="100%" fill="#131210"/>
  
  <!-- Resplandor sutil radial -->
  <radialGradient id="radial-glow" cx="50%" cy="40%" r="65%">
    <stop offset="0%" stop-color="#2a261f" stop-opacity="0.75" />
    <stop offset="100%" stop-color="#131210" stop-opacity="0" />
  </radialGradient>
  <rect width="100%" height="100%" fill="url(#radial-glow)" />

  <!-- Grupo del logotipo del cráneo centrado y escalado de forma perfecta -->
  <g transform="translate(400.0, 380.0) scale(0.890906) translate(-333.350000, -359.700000)" filter="url(#subtle-shadow)">
    <!-- Transformación de inversión de potrace sobre el lienzo de 1024 de alto -->
    <g transform="translate(0, 1024) scale(0.1, -0.1)" fill="url(#gold-gradient)" stroke="none">
      <path d="M6134 9240 c-23 -9 -36 -37 -58 -127 -55 -223 -183 -418 -352 -539
-121 -87 -347 -176 -499 -198 -87 -13 -239 -26 -430 -36 -270 -15 -327 -23
-400 -62 -52 -28 -69 -32 -130 -31 -95 2 -187 32 -330 108 -210 110 -306 126
-465 75 -110 -35 -160 -35 -292 -1 -64 17 -140 31 -168 31 -66 0 -178 -39
-291 -100 -145 -79 -211 -101 -319 -107 -93 -5 -97 -5 -151 25 -67 38 -131 48
-392 62 -456 25 -644 64 -847 179 -230 131 -368 313 -444 586 -16 55 -35 108
-44 118 -20 23 -74 22 -96 -1 -23 -27 -43 -110 -57 -237 -10 -95 -9 -126 6
-220 43 -278 143 -474 330 -654 201 -191 427 -302 821 -400 307 -76 499 -100
611 -76 27 6 37 3 62 -22 16 -17 35 -50 41 -74 24 -87 -3 -159 -107 -285 -96
-117 -117 -163 -118 -254 0 -80 36 -335 61 -435 29 -109 70 -162 195 -250 93
-65 123 -108 157 -220 21 -70 24 -106 28 -290 3 -115 10 -230 15 -255 6 -26
39 -87 81 -149 111 -165 163 -286 188 -436 21 -128 49 -269 65 -335 9 -36 20
-122 25 -192 6 -87 15 -141 28 -170 55 -124 283 -234 380 -184 40 21 49 53 33
128 -11 54 -10 59 16 108 15 27 31 50 35 50 11 0 47 -58 55 -89 3 -12 0 -47
-7 -76 -16 -67 -8 -101 30 -120 97 -50 319 47 381 168 15 29 22 72 29 172 5
73 16 159 24 191 8 33 31 142 51 244 20 102 45 214 57 250 30 92 88 204 146
283 92 124 96 138 98 332 2 216 10 302 40 395 29 92 64 136 158 199 150 102
174 150 221 456 30 189 30 278 0 339 -10 22 -55 88 -100 148 -121 161 -139
237 -79 330 27 42 63 56 100 39 36 -16 108 -14 252 9 559 89 907 227 1152 457
168 158 254 305 317 538 61 228 31 565 -53 604 -29 13 -32 13 -60 1z m-5634
-92 c53 -203 108 -327 197 -439 63 -79 194 -192 276 -236 26 -14 47 -30 47
-35 0 -4 -18 -8 -41 -8 -44 0 -72 -11 -106 -43 l-23 -20 0 31 c0 90 -75 195
-183 257 -27 15 -71 49 -98 76 -27 26 -45 40 -40 30 6 -10 29 -36 53 -59 23
-23 37 -42 30 -42 -7 0 -10 -5 -6 -11 5 -8 8 -8 14 0 4 7 15 9 25 5 18 -7 18
-8 -1 -15 -16 -6 -14 -8 9 -8 30 -1 102 -46 112 -69 3 -8 -6 -6 -23 6 -15 11
-58 30 -97 42 -57 19 -80 33 -125 79 -54 56 -58 54 -12 -6 31 -42 71 -66 152
-93 114 -38 147 -87 161 -243 11 -116 34 -174 83 -212 72 -55 185 -70 301 -40
32 9 112 38 177 66 150 63 237 82 346 76 64 -4 95 -11 140 -33 31 -16 57 -34
57 -41 0 -6 4 -15 9 -20 6 -5 6 -2 1 7 -5 8 -4 12 0 7 5 -4 10 -15 12 -25 1
-9 5 -35 9 -57 4 -22 5 -67 3 -100 -6 -101 -4 -198 4 -244 l8 -44 -40 7 c-118
19 -257 89 -286 146 -18 34 -20 109 -4 143 18 39 76 62 114 45 37 -17 44 -56
14 -79 -20 -16 -22 -20 -9 -29 29 -19 58 -6 75 33 17 41 2 81 -40 107 -62 38
-147 16 -193 -51 -20 -29 -23 -44 -20 -96 l4 -61 -56 43 c-99 77 -191 87 -237
26 -24 -31 -13 -34 18 -5 56 54 146 31 244 -63 28 -26 69 -63 90 -81 25 -20
34 -32 23 -32 -17 0 -78 48 -143 112 -43 43 -103 78 -132 78 -10 -1 -2 -7 18
-14 42 -15 65 -32 150 -110 33 -31 55 -56 49 -56 -6 0 -77 18 -158 39 -340 91
-573 218 -753 409 -166 177 -263 411 -276 672 -6 119 10 284 29 307 20 24 37
13 48 -29z m5691 6 c5 -15 15 -71 21 -125 13 -108 1 -287 -27 -391 -46 -176
-143 -348 -266 -469 -71 -70 -238 -192 -319 -234 -113 -57 -506 -185 -570
-185 -19 0 129 124 182 153 61 32 98 34 123 7 22 -25 31 -19 15 10 -6 12 -26
28 -44 35 -58 24 -135 -5 -219 -84 -29 -26 -45 -37 -39 -24 7 12 12 50 12 84
0 59 -2 63 -44 105 -40 41 -47 44 -95 44 -68 0 -115 -39 -115 -94 0 -46 35
-86 61 -70 23 14 28 34 10 34 -9 0 -19 9 -22 21 -8 23 16 55 48 65 16 5 17 8
6 16 -10 7 -2 8 26 4 58 -8 96 -51 103 -114 4 -49 -12 -122 -27 -122 -5 0 -2
20 7 45 18 56 10 106 -24 142 l-26 28 21 -29 c25 -34 28 -113 7 -155 -24 -45
-89 -97 -152 -121 -71 -26 -161 -46 -170 -38 -3 4 0 24 6 44 9 27 11 75 6 170
-7 130 -6 134 18 172 51 81 109 106 232 101 75 -4 88 -8 239 -81 193 -93 257
-111 380 -106 189 7 289 97 360 325 21 67 46 124 62 144 24 28 31 31 70 26 36
-4 42 -2 32 9 -6 8 -29 14 -49 14 -56 0 -94 -42 -120 -133 -40 -140 -51 -168
-81 -217 -64 -105 -157 -154 -289 -153 -104 0 -204 30 -357 107 -71 36 -149
70 -173 75 -116 27 -222 2 -289 -66 l-43 -46 7 34 c13 68 107 120 228 127 105
6 178 -10 340 -75 176 -70 224 -83 317 -83 90 0 164 30 202 81 33 45 38 60 48
153 21 180 59 243 168 276 89 26 136 60 172 123 37 64 39 86 4 32 -50 -76 -85
-105 -151 -125 -34 -10 -76 -26 -93 -35 -16 -8 -30 -13 -30 -11 0 9 84 53 111
60 15 3 37 15 50 26 l24 21 -45 -21 c-25 -11 -36 -15 -25 -8 49 31 113 107
129 153 9 27 16 56 15 64 0 9 -6 -2 -13 -24 -27 -87 -82 -148 -186 -208 -91
-53 -160 -157 -160 -243 l0 -26 -30 26 c-29 24 -85 46 -120 46 -8 0 9 13 37
29 145 80 272 209 356 361 38 70 90 211 101 275 11 62 16 75 32 75 8 0 19 -12
25 -26z m-5037 -769 c124 -52 440 -99 736 -109 178 -7 286 -21 314 -41 16 -13
15 -17 -25 -67 -84 -105 -113 -206 -108 -371 l4 -112 -39 0 c-35 0 -40 3 -48
30 -19 64 -11 206 15 288 23 72 90 190 123 218 8 6 14 16 14 22 0 19 -65 -51
-95 -103 -17 -27 -33 -50 -37 -50 -4 0 -14 12 -22 28 -22 42 -69 85 -127 116
-42 23 -68 30 -138 34 -124 7 -214 -11 -350 -68 -185 -78 -295 -98 -382 -69
-47 16 -97 66 -109 108 -12 43 2 100 29 125 22 20 88 32 126 22 37 -9 61 -66
43 -104 -16 -33 -52 -40 -79 -16 -18 16 -19 16 -25 -1 -10 -24 29 -55 68 -55
33 0 88 47 88 75 0 13 10 9 45 -16 43 -31 51 -33 138 -35 l92 -2 -86 7 c-105
9 -145 31 -188 102 -17 27 -31 51 -31 54 0 9 16 5 54 -10z m2018 -16 c140 -36
197 -36 318 2 96 30 198 31 255 3 l40 -19 -76 -6 c-227 -19 -387 -219 -365
-457 9 -106 81 -228 155 -267 95 -48 212 -8 241 82 24 71 -22 143 -91 143 -64
0 -99 -49 -62 -85 16 -16 18 -16 36 9 21 29 39 33 57 11 17 -20 5 -61 -26 -92
-22 -22 -32 -25 -69 -21 -92 11 -150 92 -148 208 3 170 125 314 286 336 56 8
145 -17 189 -53 28 -23 30 -24 13 -4 -41 47 -93 66 -185 66 -75 0 -91 -3 -138
-29 -109 -61 -172 -166 -180 -298 -4 -69 -2 -84 22 -131 15 -32 41 -64 63 -80
21 -15 33 -27 28 -27 -26 0 -90 68 -116 124 -24 51 -29 74 -29 137 0 67 4 85
35 147 39 77 115 155 181 187 21 10 63 22 94 26 l55 8 -65 -3 c-94 -5 -180
-54 -241 -139 -38 -52 -37 -38 0 17 80 115 228 168 370 132 81 -21 116 -46
146 -107 41 -80 27 -178 -33 -232 -48 -43 -140 -28 -162 26 -9 22 -9 22 -9 1
-2 -57 81 -103 151 -83 84 23 142 134 118 227 -6 26 -16 52 -22 59 -7 9 -7 13
0 13 18 0 74 -72 100 -128 19 -43 23 -65 20 -111 -5 -77 -35 -130 -124 -223
-84 -89 -114 -140 -120 -212 -6 -63 16 -110 66 -144 43 -29 92 -24 129 12 41
42 22 130 -25 112 -13 -5 -15 -9 -6 -18 15 -15 15 -51 0 -66 -20 -20 -67 -14
-93 13 -20 19 -25 35 -25 71 0 65 28 118 102 191 l63 62 0 -82 c0 -111 26
-163 145 -292 116 -126 150 -177 150 -228 0 -45 -10 -65 -60 -127 -20 -25 -44
-58 -54 -75 l-17 -30 28 31 c105 116 125 145 130 183 8 59 -30 127 -136 246
-120 133 -156 199 -155 285 0 42 8 86 23 125 14 37 25 93 28 146 5 78 3 91
-22 146 -14 34 -42 76 -61 94 -44 43 -43 51 6 34 44 -16 172 -35 230 -35 32 0
46 -7 76 -37 79 -79 128 -251 104 -367 -10 -51 -15 -58 -54 -81 -75 -44 -116
-107 -116 -180 0 -51 -16 -43 -30 15 -19 80 15 160 85 198 13 7 15 12 6 12
-25 0 -99 -87 -107 -125 -19 -103 27 -219 151 -375 93 -118 125 -179 125 -240
0 -47 -31 -280 -49 -377 -23 -119 -64 -178 -178 -257 -48 -34 -101 -79 -118
-101 -25 -33 -58 -117 -82 -204 -3 -10 -8 -8 -20 10 -25 38 -44 49 -85 49 -29
0 -41 -6 -54 -25 -9 -14 -14 -32 -10 -40 4 -12 10 -10 31 10 21 22 28 24 45
15 78 -42 17 -164 -71 -145 -40 9 -87 59 -95 101 -25 135 99 292 274 344 23 7
40 15 38 17 -2 3 -35 -5 -73 -16 -196 -59 -325 -240 -283 -401 6 -25 38 -101
72 -168 51 -105 62 -134 66 -191 3 -50 0 -75 -12 -99 -29 -56 -104 -56 -127
-1 -10 27 -10 36 2 58 8 14 25 27 37 29 30 5 27 14 -10 32 -43 20 -64 53 -83
125 -31 122 -12 276 52 405 27 56 58 96 119 157 88 89 97 115 12 36 -159 -149
-224 -300 -216 -498 5 -112 26 -174 74 -219 19 -17 25 -29 18 -34 -37 -24 -44
-110 -19 -239 8 -43 20 -127 25 -186 9 -94 8 -125 -10 -235 -11 -70 -35 -185
-51 -257 -19 -77 -34 -179 -39 -251 -10 -138 -23 -178 -71 -219 -70 -59 -214
-109 -248 -86 -11 7 -11 15 -2 41 19 57 14 125 -13 157 -13 15 -34 48 -47 73
-24 45 -24 47 -22 331 1 157 6 296 11 309 16 43 30 -52 37 -245 10 -256 41
-392 99 -430 21 -14 29 -15 52 -3 44 21 63 57 106 194 96 308 119 415 119 549
1 125 -14 237 -52 387 -21 83 -29 141 -29 202 0 76 13 210 26 261 4 15 3 17
-4 5 -15 -24 -41 -140 -52 -226 -15 -131 -49 -342 -60 -386 -16 -59 -57 -148
-68 -148 -15 0 -22 38 -22 124 0 44 -3 77 -6 73 -3 -3 -16 -55 -29 -115 -23
-111 -42 -158 -68 -181 -31 -25 -29 -51 -53 694 -4 116 -10 192 -15 180 -4
-11 -8 -42 -9 -70 -2 -41 -4 -45 -10 -25 -4 14 -9 43 -9 65 -1 30 -4 36 -11
25 -5 -8 -10 -94 -10 -190 0 -265 -19 -673 -31 -685 -25 -25 -68 71 -98 223
l-18 87 -7 -85 c-10 -113 -13 -125 -33 -108 -40 33 -66 132 -107 403 -14 94
-30 197 -35 230 -5 33 -16 76 -25 95 -9 19 -14 26 -11 16 3 -11 11 -75 18
-143 7 -77 14 -117 19 -106 17 38 -6 -99 -38 -234 -42 -178 -54 -254 -54 -369
0 -135 21 -229 122 -547 49 -154 71 -191 117 -195 84 -8 121 105 136 423 3 66
11 158 17 204 19 149 30 70 36 -248 5 -329 9 -309 -65 -418 -31 -45 -34 -57
-29 -90 4 -21 8 -54 9 -73 l2 -35 -47 2 c-54 1 -142 38 -198 83 -57 45 -72 86
-75 209 -2 69 -12 142 -29 211 -39 164 -66 316 -72 409 -7 94 8 268 33 371 18
78 13 153 -12 180 -18 20 -18 21 8 48 118 123 94 408 -51 605 -41 55 -141 151
-177 168 -11 6 13 -20 53 -57 92 -85 152 -168 188 -264 26 -69 28 -87 29 -210
0 -125 -2 -139 -25 -184 -19 -37 -37 -56 -70 -73 -38 -19 -41 -23 -20 -23 33
0 47 -10 59 -41 12 -33 -4 -68 -41 -88 -25 -14 -29 -14 -55 5 -43 32 -55 61
-50 131 4 50 16 85 65 185 90 184 100 255 51 368 -26 61 -117 148 -191 183
-72 35 -116 44 -50 11 75 -37 166 -125 197 -189 31 -66 33 -136 5 -182 -43
-71 -133 -81 -170 -20 -14 22 -20 27 -20 14 0 -10 12 -29 26 -42 29 -27 80
-33 116 -14 11 6 22 8 25 6 3 -3 -8 -12 -24 -21 -36 -20 -21 -21 17 -1 16 9
37 29 46 46 20 40 26 33 13 -17 -16 -56 -41 -103 -87 -158 -75 -91 -83 -229
-18 -321 26 -37 80 -46 122 -19 l27 18 -6 -29 c-3 -17 -12 -66 -20 -110 -9
-44 -18 -97 -22 -119 -7 -43 -17 -39 -35 17 -6 21 -50 95 -97 165 -47 70 -92
141 -99 159 -14 32 -21 233 -8 233 3 0 17 -9 31 -20 14 -11 33 -20 42 -19 13
0 14 1 1 6 -8 3 -30 19 -47 36 -31 29 -33 34 -33 105 l0 74 28 -29 c24 -27 96
-53 108 -40 3 3 -11 8 -30 11 -19 4 -48 20 -65 35 -25 24 -31 37 -31 71 0 31
4 41 13 37 7 -3 19 4 25 14 16 26 57 24 76 -3 12 -17 19 -19 27 -11 9 9 8 18
-5 38 -34 52 -91 52 -135 -1 l-27 -34 -12 47 c-28 123 -73 185 -194 270 -98
69 -131 109 -157 192 -22 71 -58 280 -68 396 -7 92 15 145 114 268 40 51 93
130 116 176 39 79 42 90 42 166 0 74 -3 85 -28 118 -27 36 -93 78 -119 76 -7
0 3 -7 22 -16 42 -18 77 -49 96 -85 15 -29 18 -140 4 -173 -6 -17 -9 -13 -14
20 -18 104 -50 152 -133 197 -89 47 -53 316 56 428 l46 47 95 7 c52 3 117 13
144 21 70 21 71 20 33 -27 -89 -110 -106 -204 -63 -360 50 -185 29 -266 -109
-418 -180 -196 -191 -244 -88 -368 31 -37 63 -74 71 -82 26 -25 -17 40 -60 92
-22 26 -44 64 -49 84 -15 54 22 118 143 249 129 141 153 188 152 303 l-1 83
64 -63 c79 -78 103 -121 103 -188 0 -62 -30 -100 -80 -100 -36 0 -63 41 -42
62 18 18 14 38 -8 38 -23 0 -40 -28 -40 -69 0 -41 40 -71 95 -71 107 0 159
124 101 245 -15 31 -54 79 -101 125 -92 89 -118 139 -119 226 0 71 34 151 84
199 l31 30 -11 -30 c-18 -45 -15 -137 6 -180 40 -86 163 -119 224 -60 23 22
30 37 29 64 l0 36 -16 -37 c-8 -21 -19 -38 -25 -38 -5 0 -7 4 -4 9 3 4 -7 6
-22 2 -25 -5 -25 -6 -4 -9 36 -6 14 -22 -30 -22 -35 0 -47 6 -85 45 l-45 45 4
69 c6 119 72 189 197 212 133 23 262 -26 330 -125 40 -57 41 -72 2 -18 -54 74
-158 132 -236 131 -39 -1 -38 -1 15 -13 246 -53 371 -350 229 -546 -31 -42
-83 -80 -109 -80 -8 1 -1 7 15 14 78 34 130 136 123 243 -10 168 -134 306
-287 320 -61 6 -125 -8 -156 -32 -17 -12 -13 -12 20 1 63 26 160 22 220 -9
181 -93 250 -335 131 -465 -68 -76 -170 -64 -195 21 -5 18 -10 24 -10 14 -2
-31 27 -73 61 -90 18 -9 27 -17 20 -17 -22 0 -70 32 -82 55 -17 33 -9 64 23
83 27 16 29 16 47 -5 22 -28 36 -29 48 -5 34 64 -72 100 -129 43 -24 -25 -29
-37 -29 -80 0 -46 4 -55 39 -90 85 -85 220 -56 297 64 132 207 51 494 -168
595 -48 22 -95 36 -138 40 -60 5 -63 6 -42 18 25 14 90 29 135 31 15 1 82 -13
149 -30z m2358 14 c0 -22 -56 -95 -87 -115 -33 -20 -50 -23 -127 -22 -64 0
-82 -2 -65 -9 13 -5 51 -10 84 -10 62 -1 109 16 151 55 22 19 22 19 32 -11 12
-33 56 -61 97 -61 24 0 65 31 65 49 0 19 -23 24 -32 7 -25 -44 -97 6 -84 59
22 86 156 86 192 0 19 -46 18 -69 -6 -115 -32 -62 -85 -85 -190 -84 -90 2
-117 9 -331 92 -78 31 -127 43 -188 48 -45 4 -77 10 -70 14 6 4 55 11 107 15
108 8 290 44 372 73 61 22 80 25 80 15z m-650 -114 c-30 -5 -75 -19 -99 -31
-54 -26 -118 -88 -127 -123 -8 -33 -20 -32 -39 5 -8 16 -35 54 -60 85 -43 52
-44 55 -22 60 23 5 150 10 307 12 89 1 92 0 40 -8z m-347 -59 c47 -55 93 -144
112 -215 18 -70 20 -222 3 -276 -10 -37 -14 -39 -50 -39 l-39 0 8 53 c26 172
-11 322 -108 439 l-39 47 22 15 c35 25 54 19 91 -24z m-2891 -205 c-26 -33
-36 -93 -23 -139 5 -20 5 -34 0 -31 -17 11 -29 80 -19 114 11 41 37 81 51 81
6 0 1 -11 -9 -25z m874 -153 c-5 -5 -26 59 -25 77 0 9 7 -4 14 -29 8 -24 13
-46 11 -48z m2694 68 c-19 -10 -75 -54 -123 -98 -49 -44 -98 -83 -110 -86 -24
-6 126 135 187 176 23 16 50 28 61 28 15 -1 11 -6 -15 -20z m-1088 -77 c-11
-21 -52 -72 -92 -113 -89 -94 -124 -162 -118 -232 4 -35 2 -46 -5 -39 -17 17
-11 114 8 152 10 19 54 72 99 119 46 47 91 104 102 126 10 23 20 38 22 34 2
-5 -6 -26 -16 -47z m-1400 -221 c26 -39 33 -114 14 -151 -9 -17 -19 -31 -22
-31 -2 0 1 10 7 22 14 27 6 115 -14 155 -9 16 -49 63 -90 104 -41 42 -80 86
-87 99 -15 27 167 -160 192 -198z m988 122 c0 -31 -59 -94 -86 -94 -13 1 -8 6
13 15 31 13 63 59 63 90 0 8 2 15 5 15 3 0 5 -12 5 -26z m-133 -90 c-3 -3 -12
-4 -19 -1 -8 3 -5 6 6 6 11 1 17 -2 13 -5z m504 -1716 c-54 -48 -132 -35 -189
32 -11 13 -12 12 -3 -5 37 -79 141 -94 205 -30 l33 32 1 -185 c0 -221 -4 -236
-97 -361 -34 -47 -79 -120 -99 -163 -20 -43 -39 -78 -42 -78 -3 0 -13 48 -24
108 -10 59 -20 120 -23 136 -5 26 -3 28 13 21 11 -5 38 -10 61 -11 38 -2 44 1
67 35 40 57 51 136 30 218 -9 39 -25 73 -35 81 -37 26 -118 186 -119 235 0 4
16 -7 36 -25 48 -44 73 -57 109 -58 43 0 72 24 87 73 l13 42 3 -35 c3 -28 -2
-40 -27 -62z m-1416 -233 c-8 -22 -14 -49 -15 -60 0 -11 -5 -27 -11 -35 -14
-21 -1 65 17 109 19 47 27 35 9 -14z m1334 -30 c0 -11 -6 -2 -14 20 -18 50
-18 57 0 25 8 -14 14 -34 14 -45z m-1056 -607 c2 -106 10 -206 16 -223 l11
-30 -5 32 c-9 66 -15 278 -6 248 13 -45 44 -364 39 -410 -3 -38 -4 -36 -32 50
-15 49 -34 119 -42 155 -14 65 -19 305 -8 348 15 55 22 9 27 -170z m786 17 c1
-139 -15 -231 -63 -375 l-26 -75 5 85 c5 84 16 181 35 310 8 57 9 51 6 -55 -3
-81 -1 -109 5 -85 5 19 12 112 16 205 8 193 21 187 22 -10z m-514 -172 c4 -20
4 -84 0 -142 -12 -199 -37 -312 -76 -347 -20 -18 -21 -18 -39 4 -33 40 -54
130 -52 226 2 126 23 190 82 248 58 58 75 61 85 11z m298 -4 c23 -19 44 -50
58 -87 40 -102 27 -326 -23 -395 -29 -39 -62 7 -93 128 -16 62 -33 351 -22
378 8 21 36 12 80 -24z" />
      <path d="M567 8503 c-15 -14 -6 -23 13 -13 26 14 83 -9 103 -42 8 -12 27 -66
42 -118 35 -123 66 -180 137 -245 83 -77 144 -98 273 -93 117 6 153 17 330
103 152 74 187 85 276 85 74 0 154 -33 189 -77 11 -14 20 -21 20 -15 0 25 -72
82 -122 97 -109 32 -208 13 -367 -71 -157 -83 -236 -107 -351 -108 -83 -1
-102 2 -150 26 -60 28 -118 80 -155 137 -23 35 -31 56 -74 208 -27 90 -65 133
-120 133 -21 0 -41 -3 -44 -7z" />
      <path d="M2158 8199 c-68 -55 -139 -201 -137 -281 1 -23 5 -12 14 34 17 86 66
177 122 229 53 48 53 60 1 18z" />
      <path d="M3940 8020 c-7 -16 -26 -38 -44 -50 -18 -11 -24 -20 -15 -20 19 0 64
47 74 78 9 32 0 27 -15 -8z" />
      <path d="M2699 8002 c15 -28 56 -56 73 -49 8 3 6 6 -5 6 -11 1 -33 16 -50 34
-21 22 -27 25 -18 9z" />
      <path d="M2251 7974 c-1 -29 7 -53 27 -81 33 -49 132 -158 132 -146 0 5 -5 14
-12 21 -6 6 -9 14 -6 18 12 11 30 -39 35 -95 7 -72 13 -78 13 -12 0 71 -17
107 -91 186 -35 37 -72 86 -81 109 l-17 41 0 -41z m99 -131 c24 -23 42 -44 39
-47 -8 -8 -119 109 -119 125 0 8 8 2 17 -11 10 -14 38 -44 63 -67z" />
      <path d="M4371 7963 c-8 -20 -36 -58 -63 -84 -54 -52 -98 -107 -98 -123 0 -5
10 3 23 20 26 33 137 146 137 139 0 -3 -21 -28 -48 -57 -68 -76 -106 -128 -98
-135 3 -3 6 -1 6 4 0 6 34 48 75 93 48 52 79 95 86 121 17 54 -2 73 -20 22z" />
      <path d="M3298 7472 l-308 -2 0 -72 0 -71 36 36 c42 42 107 61 194 55 l55 -3
3 -230 c4 -249 0 -232 65 -270 l27 -16 0 260 0 261 68 0 c94 0 134 -14 176
-60 l36 -40 0 75 c0 41 -4 75 -9 75 -5 0 -15 1 -23 3 -7 1 -151 1 -320 -1z" />
      <path d="M3179 7282 c-86 -55 -120 -139 -100 -246 19 -105 63 -159 222 -273
139 -99 180 -141 215 -217 23 -50 26 -68 22 -125 -12 -165 -123 -247 -289
-214 -47 9 -124 90 -159 166 l-29 62 -1 -122 c0 -68 2 -123 5 -123 3 0 14 5
24 12 16 9 30 7 82 -17 130 -58 265 -43 357 40 70 63 103 133 104 221 1 174
-67 275 -292 428 -110 75 -156 120 -186 178 -28 54 -30 83 -9 92 11 4 15 -1
15 -17 0 -26 43 -121 59 -131 18 -11 13 81 -6 121 -9 19 -22 37 -30 40 -22 8
-15 35 18 69 22 22 30 39 27 58 l-3 27 -46 -29z" />
      <path d="M3400 7273 c1 -10 14 -43 29 -73 l29 -54 6 44 c4 25 9 57 12 73 5 26
4 27 -35 27 -33 0 -41 -4 -41 -17z" />
      <path d="M2877 7230 c-169 -43 -276 -226 -248 -424 26 -182 137 -293 307 -304
93 -6 173 17 208 59 26 30 35 69 16 69 -5 0 -14 -9 -19 -19 -6 -10 -34 -31
-63 -45 -130 -65 -275 -7 -330 133 -17 45 -22 77 -21 161 0 152 40 251 125
307 38 25 50 28 130 28 60 0 89 4 92 12 3 7 0 15 -6 19 -18 12 -150 14 -191 4z" />
      <path d="M3655 7224 c5 -11 12 -75 16 -144 6 -106 12 -140 42 -225 l35 -100 1
223 1 222 46 0 c39 0 51 -5 79 -33 90 -90 49 -297 -60 -297 -35 0 -53 -14 -35
-25 6 -4 38 -61 70 -127 66 -135 81 -155 127 -174 38 -16 43 -17 62 -5 12 8 8
15 -17 36 -18 15 -55 73 -89 141 l-58 116 25 16 c134 90 140 290 10 362 -38
21 -61 25 -154 28 -103 4 -109 3 -101 -14z" />
      <path d="M3519 7123 c-73 -212 -87 -261 -76 -272 6 -6 14 -11 18 -11 5 0 22
45 40 100 18 55 35 100 39 100 4 0 10 -10 13 -22 3 -13 15 -54 27 -93 12 -38
24 -78 27 -87 4 -14 -4 -17 -53 -20 -79 -4 -75 -22 6 -28 l65 -5 55 -163 c45
-137 52 -166 42 -182 -7 -11 -12 -22 -12 -25 0 -3 37 -5 82 -5 l82 0 -26 28
c-31 32 -92 192 -204 539 -44 134 -82 243 -85 243 -3 0 -21 -44 -40 -97z" />
      <path d="M2943 7139 c-13 -5 -23 -14 -23 -20 0 -8 -4 -8 -13 -1 -7 6 -18 7
-25 3 -10 -6 -9 -15 3 -44 12 -29 15 -83 15 -267 0 -245 -2 -237 50 -242 l25
-3 3 108 3 107 24 -6 c29 -7 126 12 151 30 15 11 16 17 6 29 -12 14 -18 13
-58 -4 -26 -12 -60 -19 -82 -17 l-37 3 -3 139 c-3 152 0 161 51 150 35 -7 36
13 0 27 -29 11 -58 5 -48 -11 3 -5 4 -10 0 -10 -3 0 -9 8 -13 19 -5 14 -12 17
-29 10z" />
      <path d="M2105 7040 c-3 -5 -3 -15 0 -20 4 -6 15 -85 26 -176 15 -133 25 -180
50 -239 17 -41 38 -80 46 -87 14 -11 14 -9 -1 14 -28 43 -55 143 -76 283 -23
150 -23 155 -10 155 17 0 30 -38 54 -157 34 -163 58 -222 118 -288 54 -59 57
-85 11 -85 -40 0 -16 -17 32 -22 22 -3 32 -3 23 -1 -22 5 -22 10 -2 30 11 11
14 26 9 49 -5 28 -3 33 10 28 12 -5 12 1 -5 37 -11 24 -20 61 -20 82 0 31 3
37 22 37 11 0 49 -16 84 -35 34 -19 65 -35 68 -35 14 0 -26 60 -46 71 -48 26
-121 106 -155 171 -40 77 -111 161 -154 183 -32 17 -75 20 -84 5z" />
      <path d="M4432 7028 c-29 -21 -102 -121 -172 -238 -14 -23 -48 -59 -75 -80
-60 -47 -101 -88 -93 -95 3 -3 35 10 70 30 70 38 105 44 115 20 5 -14 -12 -88
-33 -140 -7 -18 -6 -19 9 -6 25 20 29 9 11 -27 -16 -34 -12 -52 12 -52 8 0 14
10 14 23 0 13 16 37 39 59 46 43 71 103 111 269 31 123 48 169 62 169 21 0
-18 -252 -53 -344 -21 -57 -18 -73 5 -28 30 58 73 296 80 437 1 31 -59 32
-102 3z" />
      <path d="M3270 6596 c0 -140 -1 -144 -25 -167 -13 -13 -25 -26 -25 -29 0 -3
45 -6 100 -6 55 -1 100 2 100 6 0 4 -9 15 -20 25 -25 23 -26 83 -3 154 16 51
16 53 -4 73 l-21 20 -23 -73 c-39 -127 -55 -116 -19 14 l20 72 -22 18 c-60 47
-58 52 -58 -107z" />
      <path d="M2890 6450 c-33 -33 -24 -40 50 -40 67 0 70 1 58 19 -13 21 -49 41
-73 41 -8 0 -24 -9 -35 -20z" />
      <path d="M2345 6371 c11 -5 41 -17 68 -26 58 -21 152 -104 169 -151 6 -19 15
-34 20 -34 11 0 -20 81 -40 103 -27 30 -98 77 -139 91 -49 17 -107 29 -78 17z" />
      <path d="M4224 6356 c-52 -17 -127 -68 -154 -106 -12 -16 -23 -47 -26 -67 l-4
-38 15 41 c27 70 95 129 195 166 53 19 33 22 -26 4z" />
      <path d="M2930 4375 c0 -6 16 -33 36 -62 35 -51 140 -133 169 -133 7 0 22 -2
32 -5 10 -3 -9 8 -42 24 -78 39 -131 84 -166 140 -16 25 -29 41 -29 36z" />
      <path d="M3666 4311 c-39 -53 -63 -72 -146 -113 -68 -33 -45 -37 27 -4 55 26
117 83 146 134 27 47 14 39 -27 -17z" />
      <path d="M4528 8134 c21 -33 44 -68 50 -79 6 -11 12 -15 12 -9 0 14 -77 131
-92 140 -5 3 8 -20 30 -52z" />
    </g>
  </g>

  <!-- Textos de marca perfectamente posicionados en la base -->
  <g id="brand-texts" fill="url(#gold-gradient)" filter="url(#subtle-shadow)">
    <!-- CRÁNEO NOBLE -->
    <text x="400" y="730" text-anchor="middle" 
          font-family="Georgia, serif" 
          font-size="44" font-weight="700" letter-spacing="14">CRÁNEO NOBLE</text>
    
    <!-- by ARCT -->
    <text x="400" y="790" text-anchor="middle" 
          font-family="Arial, sans-serif" 
          font-size="19" font-weight="300" letter-spacing="9" fill="#a09278">by ARCT</text>
          
    <!-- ARTE · RAÍZ · CARÁCTER · TRASCENDENCIA -->
    <text x="400" y="855" text-anchor="middle" 
          font-family="Arial, sans-serif" 
          font-size="11" font-weight="400" letter-spacing="7" fill="url(#gold-gradient)">ARTE • RAÍZ • CARÁCTER • TRASCENDENCIA</text>
  </g>
</svg>
